<svg id="6e373e6b-587f-43fd-b167-808c95415455" data-name="Layer 1" xmlns="http://www.w3.org/2000/svg" width="130" height="50" viewBox="0 0 130 50">
  <defs>
    <style>
      .cda36cac-b77b-481a-a00b-f04a6e3152ad {
        fill: #231f20;
        fill-rule: evenodd;
      }
    </style>
  </defs>
  <title>logo-wegmans</title>
  <path class="cda36cac-b77b-481a-a00b-f04a6e3152ad" d="M59.57,21h0c-.11-.13-.23-.25-.34-.36a3.5,3.5,0,0,0-3-.75,9.83,9.83,0,0,0-5.07,2.93c-1,.94-2.06,2.19-2.74,2.93l-.65.62c-1.12,1.06-4.66,3.53-6.86,3.38a1.46,1.46,0,0,1-1.5-1.13v0h0a10.55,10.55,0,0,0,2.95-.73,10.31,10.31,0,0,0,5.07-3.45,6.19,6.19,0,0,0,.85-1.72c.34-1.09.42-3-2.55-2.92a10.06,10.06,0,0,0-4.63,1.39,12.19,12.19,0,0,0-5.79,6.64c-.63,2.15-.37,4.61,2.5,5.17A5.22,5.22,0,0,0,39.1,33c2.84-.15,6.46-2.59,8.63-4.7A4.62,4.62,0,0,0,48,31.89a2.46,2.46,0,0,0,1,.94c1.41.67,3.34-.16,4.55-1.14l.42-.33-2,3.73c-1.24,2.31-3.86,6.55-7.23,7.84-2.24.86-4.11-.17-3.85-2.43a7.74,7.74,0,0,1,.24-1.26l-.06,0a4.3,4.3,0,0,0-2.06,4c.13,1.33.9,2.8,3.33,3.33,6.45,1,11.5-7.27,13.49-11l8.47-15.75h-4.2Zm-20,5.13v0a5.17,5.17,0,0,1,2.18-3.41c1.44-1,2.24-.68,2.49-.14.45,1-1,2-1.67,2.44A6.8,6.8,0,0,1,39.84,26Zm17.12-4,.31,0a1.25,1.25,0,0,1,1.27,1.31h0L57,25.69l-.05.1a8.25,8.25,0,0,1-3.28,3.5,2,2,0,0,1-.69.25c-.92.1-1.38-.58-1.14-1.58.59-2.43,3.27-5.76,4.83-5.87m41.93,5.51L96.72,29c-.21-1.35,4.3-9,4.3-9H96.77a6,6,0,0,1-.33.58s-1.65-1.44-4.6-.13a9.78,9.78,0,0,0-3.11,2c-3.68,3.17-1.77,1.9-5.42,4.69l-1.78,1.34q.75-1.58,1.34-2.77l.06-.12c.87-1.75,1.62-3.54,1.53-4.6-.19-1.22-1.47-2.24-7.06,1.14l-.92.64a4.76,4.76,0,0,0,.31-1.78c-.18-1.22-1.47-2.24-7.06,1.14l-.54.37L70.49,20l0,0H66.32L59.67,32.35h4.18l0-.07L67.83,25c.82-.63,1.43-1,2.3-1.61.7-.43,1.34-.71,1.6-.53a.57.57,0,0,1,.14.49,8.19,8.19,0,0,1-.53,1.22L67.2,32.35h4.44l0-.08,2.6-4.86c.42-.78.87-1.64,1.28-2.49.79-.61,1.39-1,2.24-1.56.7-.43,1.34-.71,1.6-.53a.57.57,0,0,1,.14.49A8.11,8.11,0,0,1,79,24.53l-.81,1.54h0a37.86,37.86,0,0,0-2,4.08c-.41,1.08-.44,2.42,1,2.54s3.14-1.22,3.83-1.74c.9-.68,2.77-2.36,3.73-3.19a5.75,5.75,0,0,0-.17,3.8,2.21,2.21,0,0,0,.12.28c.87,1.77,3.22,1.36,4.94.35a14.17,14.17,0,0,0,2.2-1.68s-.14,2.38,1.76,2.4c1.59,0,5.37-3.15,6.62-4.24l-2,3.67h4.18l0-.07L106.38,25c.82-.63,1.43-1,2.31-1.61.7-.43,1.33-.71,1.6-.53a.57.57,0,0,1,.14.49,8.19,8.19,0,0,1-.53,1.22L109,26.15h0a36.87,36.87,0,0,0-1.93,4c-.38,1-.44,2.24.7,2.5,1.6.38,3.67-1,4.82-2,.66-.48,1.16-.88,1.48-1.14a4.08,4.08,0,0,0,.69,1.71c2,3,6.6,2.1,8.25,1.39,2.47-1.06,4.71-3.58,1.06-9.24a2.07,2.07,0,0,1-.43-1.88,1.27,1.27,0,0,1,1.5-.78c.84.18.45,1.85,0,2.57,2.1,0,3.46-1,2.49-2.66-.35-.6-2.68-2.24-5.47.17-1.51,1.3-2,3.87-.87,6.61a6.66,6.66,0,0,1,.59,2.42,1.62,1.62,0,0,1-1.79,1.72,2.68,2.68,0,0,1-2.55-3.1,5.11,5.11,0,0,1,2.31-3.18,4.6,4.6,0,0,0-3.78.49,4.51,4.51,0,0,0-1.72,1.87l-.94.73-1.77,1.34c.31-.66,1.37-2.54,1.64-3.1.53-1.09,2.51-4.58,2-5.94-.34-1.08-1.84-1.7-7,1.42l-.54.37L109,20l0,0h-4.18l-1,1.95c-1.1,1.91-1.32,2.93-5.2,5.69m-5-5.51.31,0A1.12,1.12,0,0,1,95,23.37h0l-1.24,2.31-.05.1a8.25,8.25,0,0,1-3.28,3.5,1.86,1.86,0,0,1-.6.26c-.85.1-1.27-.43-1.12-1.28.42-2.45,3.26-6.05,4.89-6.17M10,24c-1.26,2.82-2.16,5.6-1.82,7.31.2,1.43,1.13,2.4,3.54,2a18.34,18.34,0,0,0,6.37-3.43,3.82,3.82,0,0,0,1.13,2.92,4,4,0,0,0,3.47.51C30.15,31.6,38.13,23.06,40.22,14.8c.8-3.14,1-8-1.83-10.39-1.88-1.57-4.66-1.67-7.06.54h0a3.24,3.24,0,0,1,2.39.49c1.05.71,1.73,2.08,2,4.06.44,6.11-2.69,13-6.78,17.06a12.68,12.68,0,0,1-3.06,2.27c-.93.43-1.56.36-1.92,0-.91-.93-.12-2.79.34-3.67l6.81-12.88H26.48L19.63,25a12,12,0,0,1-3.05,2.89,8.18,8.18,0,0,1-1.3.9c-1.9.94-1.88-.46-1.4-2,.7-2.33,5.21-11.08,7-13.77l.37-.69H16.63v0q-.87,1.22-1.65,2.42l-.37.61A19,19,0,0,1,11.92,19C9,22,6.08,22.67,2,22.87H2l.19.19c1.68,1.53,5.74,1.61,7.5,1L10,24"/>
</svg>
