<svg id="56b56e0d-bd42-4423-893a-9bccd315ebe0" data-name="Layer 1" xmlns="http://www.w3.org/2000/svg" width="96" height="50" viewBox="0 0 96 50">
  <defs>
    <style>
      .\39 289df62-0846-4d11-8046-f3e135de7dbe {
        fill: #231f20;
      }
    </style>
  </defs>
  <title>logo-ncr</title>
  <g>
    <path class="9289df62-0846-4d11-8046-f3e135de7dbe" d="M57.43,26.16A5.38,5.38,0,0,1,57.25,25V17.43h3V32L50.56,24a4.5,4.5,0,0,1-.83-.94,4.44,4.44,0,0,1,.15,1v7.65h-3V17.15l9.65,7.9a5.83,5.83,0,0,1,.94,1.11Z"/>
    <path class="9289df62-0846-4d11-8046-f3e135de7dbe" d="M85,17.43c4.82,0,6.05,1.9,6.05,4.63,0,2-1.46,3.92-4.4,4.15H86.3a1.24,1.24,0,0,1,.58.34l5.34,5.16H88.09l-7.45-7.56h3.71c3.32,0,3.42-1.75,3.44-2.19.06-1.13-.3-2-2.84-2H80.72v11.8H77.56V17.43Z"/>
    <path class="9289df62-0846-4d11-8046-f3e135de7dbe" d="M61.66,24.78c0-6,5-7.56,9.22-7.56a22.24,22.24,0,0,1,4.75.48v3a16,16,0,0,0-4.76-.89c-4,0-5.93,1.55-5.93,4.93,0,2.76,2.09,4.53,5.93,4.53a16.26,16.26,0,0,0,5.06-.85V31.4a25.2,25.2,0,0,1-5.06.54c-4.5,0-9.22-2.19-9.22-7.16Z"/>
    <path class="9289df62-0846-4d11-8046-f3e135de7dbe" d="M27.45,17.8l3,2.79-.28.14a5.65,5.65,0,0,0-.62.38,12,12,0,0,0-1.94,1.75L21.77,29a10.53,10.53,0,0,1-2.94,2.32l-3-2.79.28-.14a5.38,5.38,0,0,0,.62-.38,12,12,0,0,0,1.94-1.75l5.79-6.12a10.6,10.6,0,0,1,2.95-2.33Z"/>
    <path class="9289df62-0846-4d11-8046-f3e135de7dbe" d="M16,32.62a7.53,7.53,0,0,0,3.33-.68A9.81,9.81,0,0,0,20.67,31a15.61,15.61,0,0,0,1.65-1.49l5.8-6.11A7.81,7.81,0,0,1,31,21.24l3,2.82-8,8.55c-.51.54-1,1.07-1.4,1.4s-.94.8-1.25,1a11.83,11.83,0,0,1-7.2,2.31A12.78,12.78,0,0,1,3.25,24.91a12.61,12.61,0,0,1,12.32-13A12.3,12.3,0,0,1,20,12.5a17,17,0,0,1,2.43,1.09A13.08,13.08,0,0,0,20,15.79l-1.19,1.28a8.33,8.33,0,0,0-3.05-.48A8,8,0,0,0,8,24.77a8.05,8.05,0,0,0,8,7.85Z"/>
    <path class="9289df62-0846-4d11-8046-f3e135de7dbe" d="M26.94,17.21a9.81,9.81,0,0,0-1.37.89,15.56,15.56,0,0,0-1.65,1.49l-5.8,6.12a7.81,7.81,0,0,1-2.87,2.2l-3-2.82,8-8.55c.51-.54,1-1.07,1.4-1.4s.94-.8,1.25-1a11.84,11.84,0,0,1,7.2-2.31A12.77,12.77,0,0,1,43,24.23a12.61,12.61,0,0,1-12.32,13,12.28,12.28,0,0,1-4.39-.64,17.1,17.1,0,0,1-2.44-1.09,13.53,13.53,0,0,0,2.44-2.2l1.19-1.28a8.35,8.35,0,0,0,3.05.48,8,8,0,0,0,7.74-8.18,8.05,8.05,0,0,0-8-7.85,7.51,7.51,0,0,0-3.33.68Z"/>
  </g>
</svg>
