<svg id="0f36b768-b65f-4e06-b5a7-15a320e5eb41" data-name="Layer 1" xmlns="http://www.w3.org/2000/svg" width="88" height="50" viewBox="0 0 88 50">
  <defs>
    <style>
      .\34 da962b6-0304-41ea-87ab-60f16f43d34f {
        fill: #231f20;
        fill-rule: evenodd;
      }
    </style>
  </defs>
  <title>logo-fujitsu</title>
  <g>
    <path class="4da962b6-0304-41ea-87ab-60f16f43d34f" d="M4.24,32.32a2,2,0,0,1-1,1.64H8.54a2.43,2.43,0,0,1-1.18-1.69V24.86H11.7S13,25,13,25.63V22.92H7.36V17.55h5.52c.32,0,1.45.53,1.49,1.16s0-3.07,0-3.07H3.16a2.37,2.37,0,0,1,1.08,1.67c0,1,0,13.92,0,15Z"/>
    <path class="4da962b6-0304-41ea-87ab-60f16f43d34f" d="M32.18,15.64a2,2,0,0,1,1.12,1.69V35.15c0,.4-.53,4.37-2.9,6a8.17,8.17,0,0,0,4.21-2.08c.27-.27,1.85-1.36,1.85-5.14,0-4.07,0-15.55,0-16.64a1.85,1.85,0,0,1,1.22-1.65Z"/>
    <path class="4da962b6-0304-41ea-87ab-60f16f43d34f" d="M16.5,17.33a1.92,1.92,0,0,0-1.05-1.69h5.47s-1.15.68-1.15,1.64c0,.6,0,9.63,0,11.21a3.54,3.54,0,0,0,3.56,3.8c2.1,0,3-2.22,3-3.8,0-1.35,0-10.18,0-11.14a2,2,0,0,0-1.05-1.71h5.46s-1.14.62-1.14,1.56c0,.6,0,11.4,0,11.4a6,6,0,0,1-1.2,3.4,6.49,6.49,0,0,1-5,2.24A6.92,6.92,0,0,1,17.76,32a5.86,5.86,0,0,1-1.24-3.52c0-1.49,0-10.54,0-11.13Z"/>
    <path class="4da962b6-0304-41ea-87ab-60f16f43d34f" d="M71.28,17.33a1.92,1.92,0,0,0-1.06-1.69H75.7s-1.16.68-1.16,1.64c0,.6,0,9.63,0,11.21a3.54,3.54,0,0,0,3.56,3.8c2.1,0,3-2.22,3-3.8,0-1.35,0-10.18,0-11.14a2,2,0,0,0-1.06-1.71h5.47s-1.14.62-1.14,1.56c0,.6,0,11.4,0,11.4a5.92,5.92,0,0,1-1.2,3.4,6.48,6.48,0,0,1-5,2.24A6.92,6.92,0,0,1,72.54,32a5.86,5.86,0,0,1-1.24-3.52c0-1.49,0-10.54,0-11.13Z"/>
    <path class="4da962b6-0304-41ea-87ab-60f16f43d34f" d="M43.11,32.27c0,1,1.17,1.69,1.21,1.69H38.86S40,33.26,40,32.31c0-.6,0-14.39,0-15a1.94,1.94,0,0,0-1.12-1.69h5.46s-1.21.7-1.21,1.64v15Z"/>
    <path class="4da962b6-0304-41ea-87ab-60f16f43d34f" d="M49.73,17.63c0,.59,0,14.14,0,14.74,0,1-1.16,1.58-1.16,1.58h5.46a2.28,2.28,0,0,1-1.12-1.69c0-.59.06-14.58.06-14.58a14.33,14.33,0,0,1,2.68-.08,1.44,1.44,0,0,1,1.42,1.3,26.77,26.77,0,0,0,1.12-3.25H45.5l-1.08,3.57s1.31-1.58,1.89-1.58Z"/>
    <path class="4da962b6-0304-41ea-87ab-60f16f43d34f" d="M58.88,33.94l-1-3.47a6.34,6.34,0,0,0,4.25,1.94c2.71.13,3.54-1.17,3.81-1.45a2.14,2.14,0,0,0-.5-3.48C63.08,26,61,25.22,60,24.41a5.21,5.21,0,0,1-1.76-5.11c.54-2.52,3.3-3.61,4.42-3.79a15.43,15.43,0,0,1,5.36.31c.08.14,0,2.8,0,2.8-.06.18-.45-1.31-3.26-1.36s-3.26,1.86-3.3,2a2.53,2.53,0,0,0,1.39,3.26c2.22,1.13,4.4,1.83,6,3.84,1.85,2.3.21,5.29-.3,5.87a8.06,8.06,0,0,1-5.39,2.17c-3.25,0-4.25-.4-4.3-.46Z"/>
    <path class="4da962b6-0304-41ea-87ab-60f16f43d34f" d="M46.59,6.7a4.93,4.93,0,0,1-5.07,5.2,5.5,5.5,0,0,1-4.47-2.49,3.41,3.41,0,0,0-2.71-1.76,2.6,2.6,0,0,0,0,5.19c2.08.05,3.08-2.16,3.08-2.16V13a4.31,4.31,0,0,1-3,1.36,4.19,4.19,0,0,1-4.16-4.43c.09-2.84,2.94-3.84,4.25-3.8a4.33,4.33,0,0,1,3.44,2c1,1.36,2.3,2.45,4.21,2.08A3.45,3.45,0,0,0,45,6.61c0-2.48-2.56-3.4-3.56-3.39A3.56,3.56,0,0,0,39,4.35,6.46,6.46,0,0,0,37.5,6.74v-3a5.52,5.52,0,0,1,3.84-2.08A5.27,5.27,0,0,1,46.59,6.7Z"/>
  </g>
</svg>
