<svg id="35f00322-9ad0-4f6d-aa46-e0ce2c61833a" data-name="Layer 1" xmlns="http://www.w3.org/2000/svg" width="171.67" height="30" viewBox="0 0 171.67 30">
  <defs>
    <style>
      .\38 ca6c09f-59a0-4338-8b09-5aac2cc82f78 {
        fill: #005585;
      }

      .f3e81e56-7ffe-4937-b457-a818f5016661 {
        fill: #1b76ba;
      }
    </style>
  </defs>
  <title>logo-companalyst</title>
  <g>
    <g>
      <path class="8ca6c09f-59a0-4338-8b09-5aac2cc82f78" d="M10.75,3.35a7.85,7.85,0,0,1,5.53,2.43L14,8.39A4.41,4.41,0,0,0,10.81,7C8.2,7,6.17,9.25,6.17,13s1.8,6.07,4.52,6.07a4.58,4.58,0,0,0,3.55-1.66L16.56,20a7.62,7.62,0,0,1-5.93,2.75c-4.84,0-8.79-3.29-8.79-9.56S5.94,3.35,10.75,3.35Z"/>
      <path class="8ca6c09f-59a0-4338-8b09-5aac2cc82f78" d="M24.58,7.82c3.58,0,6.9,2.72,6.9,7.45s-3.32,7.44-6.9,7.44S17.65,20,17.65,15.26,21,7.82,24.58,7.82Zm0,11.48c1.72,0,2.61-1.57,2.61-4s-.89-4-2.61-4S22,12.8,22,15.26,22.83,19.3,24.58,19.3Z"/>
      <path class="8ca6c09f-59a0-4338-8b09-5aac2cc82f78" d="M33.83,8.16h3.44L37.56,10h.11A5.94,5.94,0,0,1,42,7.82a3.93,3.93,0,0,1,3.92,2.38c1.26-1.29,2.58-2.38,4.47-2.38,3.06,0,4.44,2.18,4.44,5.73v8.82H50.58V14.09c0-2.06-.54-2.69-1.75-2.69a3.76,3.76,0,0,0-2.43,1.37v9.59H42.19V14.09c0-2.06-.54-2.69-1.75-2.69A3.71,3.71,0,0,0,38,12.77v9.59H33.83Z"/>
      <path class="8ca6c09f-59a0-4338-8b09-5aac2cc82f78" d="M62,23.48v4.15H57.83V8.16h3.44l.29,1.4h.11a6.24,6.24,0,0,1,4-1.75c3.44,0,5.56,2.83,5.56,7.22,0,4.87-2.92,7.67-6,7.67a4.92,4.92,0,0,1-3.38-1.49Zm2.26-4.21c1.46,0,2.63-1.26,2.63-4.18,0-2.55-.77-3.84-2.46-3.84A3.29,3.29,0,0,0,62,12.54v5.81A3.27,3.27,0,0,0,64.3,19.27Z"/>
      <path class="f3e81e56-7ffe-4937-b457-a818f5016661" d="M83.4,17.3H77.13l-1.46,5.07H72.26L78.39,3.64h3.89l6.1,18.73H84.86Zm-.74-2.61L82,12.4c-.57-2-1.15-4.12-1.69-6.18H80.2c-.52,2.09-1.06,4.21-1.66,6.18l-.66,2.29Z"/>
      <path class="f3e81e56-7ffe-4937-b457-a818f5016661" d="M90.36,8.31h2.72l.23,1.89h.11A6.53,6.53,0,0,1,98,8c3,0,4.32,2,4.32,5.58v8.82H99.07V14c0-2.32-.66-3.18-2.2-3.18-1.23,0-2,.6-3.21,1.75v9.82H90.36Z"/>
      <path class="f3e81e56-7ffe-4937-b457-a818f5016661" d="M113,13.37c0-1.49-.66-2.75-2.55-2.75a7.82,7.82,0,0,0-4,1.37l-1.2-2.2A10.9,10.9,0,0,1,111,8c3.52,0,5.24,2.15,5.24,6.07v8.33H113.6l-.26-1.55h-.09a6.84,6.84,0,0,1-4.35,1.89,4,4,0,0,1-4.18-4.12C104.72,15.58,107.24,14,113,13.37Zm-3.06,6.76A4.42,4.42,0,0,0,113,18.59V15.44c-3.81.49-5.07,1.49-5.07,2.89S108.76,20.13,109.93,20.13Z"/>
      <path class="f3e81e56-7ffe-4937-b457-a818f5016661" d="M119.76,2.15H123V18.93c0,.8.37,1.09.72,1.09a2,2,0,0,0,.52-.06l.43,2.46a4.49,4.49,0,0,1-1.75.29c-2.35,0-3.21-1.52-3.21-4Z"/>
      <path class="f3e81e56-7ffe-4937-b457-a818f5016661" d="M128.23,25.49c1.49,0,2.35-1,2.81-2.41l.26-.89L125.77,8.31h3.35l2.43,6.9c.4,1.23.8,2.63,1.23,4h.11c.34-1.29.72-2.69,1.06-4l2.12-6.9h3.18L134.16,23c-1.17,3.18-2.63,5.15-5.7,5.15a5.46,5.46,0,0,1-1.83-.29l.6-2.58A3.46,3.46,0,0,0,128.23,25.49Z"/>
      <path class="f3e81e56-7ffe-4937-b457-a818f5016661" d="M141.29,18.64a6.26,6.26,0,0,0,3.89,1.57c1.52,0,2.23-.72,2.23-1.69,0-1.17-1.52-1.69-3-2.26-1.86-.69-4-1.75-4-4.09s2-4.21,5.13-4.21a7.59,7.59,0,0,1,4.67,1.69l-1.52,2a5.23,5.23,0,0,0-3.09-1.2c-1.4,0-2.06.66-2.06,1.55,0,1.09,1.4,1.55,2.92,2.09,1.92.72,4,1.63,4,4.27,0,2.41-1.92,4.35-5.47,4.35a8.9,8.9,0,0,1-5.33-1.95Z"/>
      <path class="f3e81e56-7ffe-4937-b457-a818f5016661" d="M154,10.91h-2V8.45l2.18-.14.4-3.84h2.75V8.31h3.58v2.61H157.3v6.7c0,1.66.63,2.46,2,2.46a4,4,0,0,0,1.46-.31l.57,2.43a9,9,0,0,1-2.86.52c-3.26,0-4.47-2.06-4.47-5.1Z"/>
    </g>
    <path class="f3e81e56-7ffe-4937-b457-a818f5016661" d="M163.85,7.71a3.18,3.18,0,1,1,3.18,3.2A3.18,3.18,0,0,1,163.85,7.71Zm6,0A2.81,2.81,0,1,0,167,10.57,2.83,2.83,0,0,0,169.84,7.71Zm-4-1.82h1.2c.8,0,1.24.34,1.24,1a.9.9,0,0,1-.8.95l.86,1.6h-.45l-.83-1.54h-.8V9.41h-.42Zm1.18,1.62c.53,0,.85-.17.85-.64s-.32-.61-.86-.61h-.76V7.52Z"/>
  </g>
</svg>
