<svg id="4051e8cd-0997-48e5-88cb-4bc6e04a816a" data-name="Layer 1" xmlns="http://www.w3.org/2000/svg" width="88" height="50" viewBox="0 0 88 50">
  <defs>
    <style>
      .dcb1c97c-dc78-46b3-94e1-f860ef53092b {
        fill: #231f20;
      }
    </style>
  </defs>
  <title>logo-hertz</title>
  <g>
    <path class="dcb1c97c-dc78-46b3-94e1-f860ef53092b" d="M82.48,31.57c-.67.71-1.15,2.32,0,3,1.6,1,3.69-1,3.5-2.51-.25-1.87-2.5-1.53-3.47-.51m3.79.37a2.87,2.87,0,0,1-1.41,2.75,2.7,2.7,0,0,1-2.4.21,2,2,0,0,1-.72-2.83c.56-1.07,2.42-2.34,3.87-1.33a1.66,1.66,0,0,1,.67,1.2"/>
    <path class="dcb1c97c-dc78-46b3-94e1-f860ef53092b" d="M83.6,32a5.84,5.84,0,0,1-.13.67c.79.39,1.54-.9.13-.67m.72,1a5.06,5.06,0,0,0,.35.8,2.32,2.32,0,0,1-.56,0c-.09-.26-.25-.44-.32-.72h-.4c0,.25-.14.47-.19.72h-.45c.12-.78.3-1.51.45-2.27.54.06,1.26-.14,1.6.16s0,1.19-.48,1.28"/>
    <path class="dcb1c97c-dc78-46b3-94e1-f860ef53092b" d="M82.39,20.88,72,30.66h8.25c-.28,1.38-.58,2.74-.88,4.11H65.19l.85-4s.9-.8,1.28-1.18c2.89-2.91,6.14-5.69,9-8.54H68.09c.27-1.39.6-2.71.85-4.11H83.2Z"/>
    <path class="dcb1c97c-dc78-46b3-94e1-f860ef53092b" d="M66.87,17c-.26,1.4-.58,2.73-.85,4.11-1.54-.06-3.34,0-4.83,0-.47,1.87-.81,4.18-1.33,6.22-.23.89-.53,2.25-.05,3,.66,1,2.64.89,4.11.72-.24,1.29-.55,2.51-.8,3.79-3.1.84-6.38-.14-7.53-2.32a8.39,8.39,0,0,1-.29-5c.91-4.87,2.16-9.79,3-14.55h4.59c-.32,1.33-.58,2.71-.85,4.08,1.52.06,3.16,0,4.72,0,0,0,.08,0,.08,0"/>
    <path class="dcb1c97c-dc78-46b3-94e1-f860ef53092b" d="M55.44,17c-.26,1.39-.6,2.7-.85,4.08-1.87-.23-3.78.05-4.7,1.31a22.69,22.69,0,0,0-1.71,6c-.43,2.14-.92,4.3-1.33,6.38H42.28c.42-2.11.94-4.32,1.39-6.54a44,44,0,0,1,1.55-6.35,7.88,7.88,0,0,1,3.66-4.24A9,9,0,0,1,55.36,17s.08,0,.08,0"/>
    <path class="dcb1c97c-dc78-46b3-94e1-f860ef53092b" d="M32.76,20.89a5,5,0,0,0-2,2.54c2.26.06,5,0,7.31,0,.49-3.14-3.23-3.92-5.34-2.56m9,6.3H29.79A4.51,4.51,0,0,0,30,29.65c1.27,2.65,6.34,1.39,8.14.05.61,1,1.21,2,1.82,3a11.51,11.51,0,0,1-4.75,2.08c-3.15.61-6.36.1-8-1.66s-2-4.58-1.55-7.34c.71-4,2.87-7.26,6.41-8.6,3-1.14,6.76-.46,8.59,1.44a6.26,6.26,0,0,1,1.6,4,13.49,13.49,0,0,1-.48,4.48"/>
    <path class="dcb1c97c-dc78-46b3-94e1-f860ef53092b" d="M25.87,12.89c-1.59,7.27-3.11,14.6-4.67,21.89H16.66c.51-2.55,1.06-5.07,1.6-7.58-2.4,0-5.43,0-8,0-.57,2.5-1.06,5.08-1.63,7.58H4.06c1.5-7.34,3.11-14.58,4.62-21.91H13.3Q12.21,17.93,11.14,23c2.61.06,5.33,0,8,0,.76-3.37,1.46-6.8,2.19-10.2,1.51,0,3.1,0,4.56,0"/>
  </g>
</svg>
