<svg id="f8e7af42-173d-484b-8bc7-88b3685fae82" data-name="Layer 1" xmlns="http://www.w3.org/2000/svg" width="124" height="50" viewBox="0 0 124 50">
  <defs>
    <style>
      .\35 5e2a5d9-df40-475d-b23e-261232f44df3 {
        fill: #231f20;
      }
    </style>
  </defs>
  <title>logo-accenture</title>
  <g>
    <path class="55e2a5d9-df40-475d-b23e-261232f44df3" d="M13.34,26.77c0,1.92-.77,4.47-3.13,4.52a1.71,1.71,0,0,1-1.88-1.83c0-2.26,3.32-2.69,5-2.69Zm3.32,6.64V22.68c0-3.46-2.26-4.66-5.43-4.66S5.5,19.36,5.5,22.78H8.91a2.08,2.08,0,0,1,2.31-2.31c1.73,0,2.12,1.25,2.12,2.74V24.7c-3.41.1-8.37.58-8.42,5.1C5,32.35,7,33.74,9.34,33.74a4,4,0,0,0,3.9-2.07h.1v1.73Z"/>
    <path class="55e2a5d9-df40-475d-b23e-261232f44df3" d="M27,23.5c0-1.54-.43-3-2.26-3-2.21,0-2.84,2.31-2.89,4.14,0,3.75,2.21,6.64,6.2,6.69a10.8,10.8,0,0,0,2.5-.39V33a14.92,14.92,0,0,1-4.38.72c-5.34,0-8-3.32-8-8.51,0-4.38,2.36-7.21,6.88-7.21,3.66,0,5.72,1.78,5.72,5.48Z"/>
    <path class="55e2a5d9-df40-475d-b23e-261232f44df3" d="M40.51,23.5c0-1.54-.43-3-2.26-3-2.21,0-2.89,2.31-2.89,4.14,0,3.75,2.21,6.64,6.16,6.69a11.21,11.21,0,0,0,2.55-.39V33a14.92,14.92,0,0,1-4.38.72c-5.34,0-8-3.32-8-8.51C31.66,20.85,34,18,38.54,18c3.66,0,5.68,1.78,5.68,5.48Z"/>
    <path class="55e2a5d9-df40-475d-b23e-261232f44df3" d="M54.22,22.87H48.74a2.83,2.83,0,0,1,2.84-2.6,2.41,2.41,0,0,1,2.65,2.6ZM57.54,25v-.87c0-3.7-1.88-6.11-5.72-6.11-4.47,0-6.4,2.79-6.45,7.07,0,5,2.26,8.66,7.6,8.66a13.55,13.55,0,0,0,4.18-.63v-2.4a11.33,11.33,0,0,1-2.89.58c-3.37,0-5.63-3.13-5.63-6.3Z"/>
    <path class="55e2a5d9-df40-475d-b23e-261232f44df3" d="M67.93,33.41V24.8c0-.72,0-2.64-.53-3.22a1.48,1.48,0,0,0-1-.29c-2.55,0-3.56,3.56-3.56,5.63v6.49H59.32V18.35h3.51v2.84h0A4.76,4.76,0,0,1,67.35,18c2.89,0,4.09,2.36,4.09,5V33.41Z"/>
    <path class="55e2a5d9-df40-475d-b23e-261232f44df3" d="M78.7,20.81v7.12c0,1.73.19,3.32,2.36,3.37A8.94,8.94,0,0,0,82.69,31v2.5a19.42,19.42,0,0,1-2.89.24c-3,0-4.57-1-4.62-4.14v-8.8H72.25V18.35h2.93V14.79l3.51-1.4v5h4.47v2.45Z"/>
    <path class="55e2a5d9-df40-475d-b23e-261232f44df3" d="M93.27,33.41V30.57h0a4.73,4.73,0,0,1-4.47,3.17c-2.84,0-4-2.4-4-5V18.35h3.51V27c0,.72,0,2.65.53,3.22a1.78,1.78,0,0,0,1,.29c2.5,0,3.51-3.61,3.51-5.58V18.35h3.51V33.41Z"/>
    <path class="55e2a5d9-df40-475d-b23e-261232f44df3" d="M102.51,26.82v6.59H99V18.35h3.51v2.79h0c1.2-2.07,2.36-3.13,4.86-3.13v3.66c-3.56,0-4.91,1.59-4.91,5.15Z"/>
    <path class="55e2a5d9-df40-475d-b23e-261232f44df3" d="M116.94,22.87h-5.48a2.83,2.83,0,0,1,2.84-2.6,2.39,2.39,0,0,1,2.64,2.6ZM120.26,25v-.87c0-3.7-1.88-6.11-5.68-6.11-4.47,0-6.45,2.79-6.45,7.07,0,5,2.26,8.66,7.55,8.66a13.54,13.54,0,0,0,4.18-.63v-2.4a11,11,0,0,1-2.84.58c-3.42,0-5.63-3.13-5.68-6.3Z"/>
    <path class="55e2a5d9-df40-475d-b23e-261232f44df3" d="M72.25.75V3.2s7,2.69,8,3.13l-8,3.08v2.45L83.17,7.44V5.17L72.25.75Z"/>
  </g>
</svg>
