<svg xmlns="http://www.w3.org/2000/svg" width="28.449" height="23.141" viewBox="0 0 28.449 23.141">
  <path id="Twitter" d="M2406.9,6448.679a11.237,11.237,0,0,1-2.908,3.014c.37,8.249-5.658,17.4-16.6,17.4a15.838,15.838,0,0,1-8.937-2.644,11.43,11.43,0,0,0,8.62-2.38,5.948,5.948,0,0,1-5.447-4.071,5.415,5.415,0,0,0,2.644-.106,5.874,5.874,0,0,1-4.706-5.817,5.7,5.7,0,0,0,2.644.741,5.94,5.94,0,0,1-1.8-7.826,16.605,16.605,0,0,0,12.056,6.134,5.846,5.846,0,0,1,9.941-5.341,11.8,11.8,0,0,0,3.755-1.428,5.915,5.915,0,0,1-2.591,3.226A11.371,11.371,0,0,0,2406.9,6448.679Z" transform="translate(-2378.454 -6445.949)" fill="#005483"/>
</svg>
