<svg xmlns="http://www.w3.org/2000/svg" xmlns:xlink="http://www.w3.org/1999/xlink" width="35" height="9" viewBox="0 0 35 9">
  <defs>
    <clipPath id="clip-画板_1">
      <rect width="35" height="9"/>
    </clipPath>
  </defs>
  <g id="画板_1" data-name="画板 – 1" clip-path="url(#clip-画板_1)">
    <rect width="35" height="9" fill="#fff"/>
    <path id="sa-chevron-right" d="M1157.692,304.086a1.613,1.613,0,0,1-.384-.046c-.51-.126-.751-.474-.538-.777l4.839-6.9-4.839-6.9c-.213-.3.028-.65.538-.776a1.313,1.313,0,0,1,1.307.319l5.161,7.354-5.161,7.353A1.15,1.15,0,0,1,1157.692,304.086Z" transform="translate(304.398 -1155.233) rotate(90)" fill="#29abe2"/>
    <path id="sa-chevron-right-2" data-name="sa-chevron-right" d="M1157.692,304.086a1.613,1.613,0,0,1-.384-.046c-.51-.126-.751-.474-.538-.777l4.839-6.9-4.839-6.9c-.213-.3.028-.65.538-.776a1.313,1.313,0,0,1,1.307.319l5.161,7.354-5.161,7.353A1.15,1.15,0,0,1,1157.692,304.086Z" transform="translate(-269.336 1165.235) rotate(-90)" fill="#29abe2"/>
  </g>
</svg>
