<svg xmlns="http://www.w3.org/2000/svg" width="32" height="32" viewBox="0 0 32 32">
  <g id="levele-I-careerpathicon" transform="translate(0.332 3.698)">
    <circle id="椭圆_61" data-name="椭圆 61" cx="16" cy="16" r="16" transform="translate(-0.332 -3.698)" fill="#0773c8"/>
    <path id="crr-family-solid" d="M-4050.917,3753.488a.682.682,0,0,1-.683-.683v-3.249a.682.682,0,0,1,.683-.682h1.717v-3.258h-6.65v3.258h1.581a.683.683,0,0,1,.684.682v3.249a.683.683,0,0,1-.684.683h-3.977a.682.682,0,0,1-.683-.683v-3.249a.682.682,0,0,1,.683-.682h1.582v-3.258h-6.65v3.258h1.717a.682.682,0,0,1,.683.682v3.249a.682.682,0,0,1-.683.683h-3.977a.683.683,0,0,1-.684-.683v-3.249a.683.683,0,0,1,.684-.682h1.446v-3.664a.406.406,0,0,1,.406-.407h7.058v-2.715h-2.358a.763.763,0,0,1-.764-.763v-3.631a.763.763,0,0,1,.764-.763h5.53a.763.763,0,0,1,.764.763v3.631a.764.764,0,0,1-.764.763h-2.358v2.715h7.057a.407.407,0,0,1,.407.407v3.664h1.447a.683.683,0,0,1,.682.682v3.249a.683.683,0,0,1-.682.683Z" transform="translate(4071.925 -3733.563)" fill="#fff"/>
  </g>
</svg>
