<svg xmlns="http://www.w3.org/2000/svg" width="18.151" height="21.6" viewBox="0 0 18.151 21.6">
  <path id="social_icon_alpple" d="M19.176,43.414a4.5,4.5,0,0,1,2.411-4.089A5.181,5.181,0,0,0,17.5,37.174c-1.712-.135-3.583,1-4.268,1-.723,0-2.382-.95-3.684-.95C6.86,37.266,4,39.368,4,43.646a12.019,12.019,0,0,0,.694,3.916c.617,1.77,2.845,6.11,5.169,6.037,1.215-.029,2.074-.863,3.655-.863,1.533,0,2.329.863,3.684.863,2.344-.034,4.359-3.978,4.948-5.753A4.78,4.78,0,0,1,19.176,43.414ZM16.446,35.5A4.542,4.542,0,0,0,17.6,32a5.113,5.113,0,0,0-3.274,1.683,4.613,4.613,0,0,0-1.234,3.467A4.05,4.05,0,0,0,16.446,35.5Z" transform="translate(-4 -32)"/>
</svg>
