<svg id="Group_66358" data-name="Group 66358" xmlns="http://www.w3.org/2000/svg" width="16.475" height="19.472" viewBox="0 0 16.475 19.472">
  <path id="Path_19165" data-name="Path 19165" d="M14.523,19.472a1.933,1.933,0,0,1-.874-.209L8.489,16.681a.566.566,0,0,0-.5,0l-5.16,2.583a1.973,1.973,0,0,1-.875.208A1.957,1.957,0,0,1,0,17.517V1.953A1.955,1.955,0,0,1,1.952,0H14.523a1.955,1.955,0,0,1,1.952,1.953V17.517a1.959,1.959,0,0,1-1.952,1.956ZM8.237,15.5a1.7,1.7,0,0,1,.756.177l5.136,2.571.027.013a.8.8,0,0,0,.367.089.828.828,0,0,0,.435-.126.811.811,0,0,0,.392-.7V1.953a.828.828,0,0,0-.826-.828H1.952a.828.828,0,0,0-.827.828V17.517a.832.832,0,0,0,.825.829.832.832,0,0,0,.373-.088l5.161-2.584A1.693,1.693,0,0,1,8.237,15.5Z" fill="#58595b"/>
</svg>
