<svg xmlns="http://www.w3.org/2000/svg" width="29.698" height="29.698" viewBox="0 0 29.698 29.698">
  <g id="组_62273" data-name="组 62273" transform="translate(0 14.849) rotate(-45)">
    <rect id="路径" width="21" height="21" fill="none"/>
    <path id="路径-2" data-name="路径" d="M21,1.5A1.5,1.5,0,0,0,19.5,0H1.5a1.5,1.5,0,0,0,0,3h18A1.5,1.5,0,0,0,21,1.5Z" transform="translate(0 9)" fill="#003e8b"/>
    <path id="路径-3" data-name="路径" d="M21,1.5A1.5,1.5,0,0,0,19.5,0H1.5a1.5,1.5,0,0,0,0,3h18A1.5,1.5,0,0,0,21,1.5Z" transform="translate(12) rotate(90)" fill="#003e8b"/>
  </g>
</svg>
