<svg xmlns="http://www.w3.org/2000/svg" width="19.6" height="20" viewBox="0 0 19.6 20">
  <g id="social_icon_google" transform="translate(-672.049 -96.153)">
    <path id="路径_19108" data-name="路径 19108" d="M726.465,134.847a8.576,8.576,0,0,0-.211-2.045h-9.389v3.711h5.511a4.887,4.887,0,0,1-2.044,3.244l-.019.124,2.969,2.3.206.021a9.777,9.777,0,0,0,2.978-7.355" transform="translate(-34.816 -28.471)" fill="#4285f4"/>
    <path id="路径_19109" data-name="路径 19109" d="M685.763,157.854a9.531,9.531,0,0,0,6.622-2.422l-3.156-2.444a5.918,5.918,0,0,1-3.467,1,6.02,6.02,0,0,1-5.689-4.156l-.117.01-3.087,2.389-.04.112a9.992,9.992,0,0,0,8.933,5.511" transform="translate(-3.714 -41.701)" fill="#34a853"/>
    <path id="路径_19110" data-name="路径 19110" d="M676.36,127.148a6.156,6.156,0,0,1-.333-1.978,6.471,6.471,0,0,1,.322-1.978l-.006-.133-3.125-2.427-.1.049a9.978,9.978,0,0,0,0,8.978l3.244-2.511" transform="translate(0 -19.018)" fill="#fbbc05"/>
    <path id="路径_19111" data-name="路径 19111" d="M685.763,100.02a5.542,5.542,0,0,1,3.867,1.489l2.822-2.756a9.608,9.608,0,0,0-6.689-2.6,9.992,9.992,0,0,0-8.933,5.511l3.233,2.511a6.045,6.045,0,0,1,5.7-4.155" transform="translate(-3.714 0)" fill="#eb4335"/>
  </g>
</svg>
