<svg xmlns="http://www.w3.org/2000/svg" width="189.219" height="39.292" viewBox="0 0 189.219 39.292">
  <g id="组_229" data-name="组 229" transform="translate(-228.032 -10169.572)">
    <path id="路径_143" data-name="路径 143" d="M368.872,10203.956a6.025,6.025,0,0,1-.6.661,5.7,5.7,0,0,1-4.033,1.6,5.3,5.3,0,0,1-3.963-1.693,5.579,5.579,0,0,1-1.643-4.01,5.226,5.226,0,0,1,1.689-3.924,5.7,5.7,0,0,1,4.08-1.611,5.288,5.288,0,0,1,3.95,1.68,5.592,5.592,0,0,1,.522.624v-3.288a8.118,8.118,0,0,0-4.8-1.489,7.656,7.656,0,0,0-5.709,2.4,7.971,7.971,0,0,0-2.343,5.771,7.618,7.618,0,0,0,2.4,5.673,8.367,8.367,0,0,0,10.447.93Z" fill="#075484"/>
    <path id="路径_144" data-name="路径 144" d="M385.4,10195.066a8.14,8.14,0,0,0-5.887-2.389,7.68,7.68,0,0,0-5.711,2.4,7.976,7.976,0,0,0-2.339,5.77,7.622,7.622,0,0,0,2.4,5.677,8.347,8.347,0,0,0,11.583,0,7.59,7.59,0,0,0,2.4-5.645,7.8,7.8,0,0,0-2.456-5.817m-1.69,9.727a5.687,5.687,0,0,1-4.03,1.6,5.315,5.315,0,0,1-3.965-1.694,5.561,5.561,0,0,1-1.639-4,5.219,5.219,0,0,1,1.688-3.927,5.7,5.7,0,0,1,4.081-1.61,5.28,5.28,0,0,1,3.949,1.679,5.6,5.6,0,0,1,1.62,4.052,5.138,5.138,0,0,1-1.7,3.909" fill="#075484"/>
    <path id="路径_145" data-name="路径 145" d="M410.828,10208.382h-2.784v-11.035a2,2,0,0,0-.885-1.607,2.94,2.94,0,0,0-1.8-.689,3.814,3.814,0,0,0-2.558,1.179,3.3,3.3,0,0,0-1.28,2.335v9.818H398.8V10198.1a2.869,2.869,0,0,0-.941-2.148,3.138,3.138,0,0,0-2.259-.9,3.857,3.857,0,0,0-2.384,1.018,2.746,2.746,0,0,0-1.253,2v10.313h-2.508v-15.221h2.508v2.619a6.009,6.009,0,0,1,1.7-2.076,4.223,4.223,0,0,1,2.611-.887,5.249,5.249,0,0,1,3,.854,4.741,4.741,0,0,1,1.826,2.435,4.975,4.975,0,0,1,2.046-2.409,5.744,5.744,0,0,1,3.065-.879,5.031,5.031,0,0,1,2.967.983,3.847,3.847,0,0,1,1.653,2.6Z" fill="#075484"/>
    <path id="路径_146" data-name="路径 146" d="M368.4,10200.629a3.874,3.874,0,1,1-3.873-3.878,3.872,3.872,0,0,1,3.873,3.878" fill="#c32026"/>
    <path id="路径_147" data-name="路径 147" d="M228.032,10198.938l2.625-6.336a18.008,18.008,0,0,0,3.022,1.689,6.337,6.337,0,0,0,2.344.574,2,2,0,0,0,1.21-.31,1,1,0,0,0,.418-.861q0-.773-1.767-1.128c-.4-.079-.708-.146-.932-.2a8.493,8.493,0,0,1-4.226-2.119,5.193,5.193,0,0,1-1.322-3.71,6.364,6.364,0,0,1,2.7-5.295,11.324,11.324,0,0,1,7.034-2.051,20.227,20.227,0,0,1,4.148.414,16.3,16.3,0,0,1,3.715,1.228l-2.446,6.2a15.1,15.1,0,0,0-2.5-1.4,5.163,5.163,0,0,0-1.927-.468,1.913,1.913,0,0,0-1.1.289.888.888,0,0,0-.414.764q0,.772,2.343,1.27c.371.078.66.143.875.2a9.4,9.4,0,0,1,4.433,2.095,4.792,4.792,0,0,1,1.42,3.6,6.8,6.8,0,0,1-2.79,5.623,11.645,11.645,0,0,1-7.367,2.175,21.016,21.016,0,0,1-9.5-2.247" fill="#075484"/>
    <path id="路径_148" data-name="路径 148" d="M272.544,10200.431v-20.617h-9.552v2.74a9.089,9.089,0,0,0-2.9-2.539,7.383,7.383,0,0,0-3.486-.822,7.193,7.193,0,0,0-6.014,3.054,13.043,13.043,0,0,0-2.3,8.063,12.368,12.368,0,0,0,2.366,7.834,7.24,7.24,0,0,0,5.953,3.043,7.146,7.146,0,0,0,3.612-.939,10.772,10.772,0,0,0,3.134-2.921v3.105Zm-13.992-12.508a2.563,2.563,0,0,1,3.763-.007,3.158,3.158,0,0,1,.716,2.168,3.113,3.113,0,0,1-.7,2.129,2.629,2.629,0,0,1-3.776-.011,3.063,3.063,0,0,1-.716-2.118,3.179,3.179,0,0,1,.716-2.161" fill="#075484"/>
    <rect id="矩形_125" data-name="矩形 125" width="10.036" height="30.857" transform="translate(275.894 10169.572)" fill="#075484"/>
    <path id="路径_149" data-name="路径 149" d="M312.895,10200.431v-20.617h-9.556v2.74a9.047,9.047,0,0,0-2.9-2.539,7.374,7.374,0,0,0-3.483-.822,7.19,7.19,0,0,0-6.015,3.054,13.03,13.03,0,0,0-2.3,8.063,12.4,12.4,0,0,0,2.362,7.834,7.246,7.246,0,0,0,5.955,3.043,7.128,7.128,0,0,0,3.61-.939,10.7,10.7,0,0,0,3.135-2.921v3.105Zm-14-12.508a2.565,2.565,0,0,1,3.765-.007,3.168,3.168,0,0,1,.716,2.168,3.09,3.09,0,0,1-.705,2.129,2.629,2.629,0,0,1-3.776-.011,3.067,3.067,0,0,1-.713-2.118,3.183,3.183,0,0,1,.713-2.161" fill="#075484"/>
    <path id="路径_150" data-name="路径 150" d="M316.1,10200.43v-20.616h9.719v2.9a9.02,9.02,0,0,1,2.882-2.64,7.161,7.161,0,0,1,3.523-.879c.2,0,.348,0,.448.009s.186.015.272.027v10a8.679,8.679,0,0,0-1.536-.677,4.285,4.285,0,0,0-1.274-.22,4.028,4.028,0,0,0-2.957,1.036,3.9,3.9,0,0,0-1.042,2.9v8.155Z" fill="#075484"/>
    <path id="路径_151" data-name="路径 151" d="M342.013,10197.826l-8.911-18.807h10.941l1.549,5.264.062.2a36.989,36.989,0,0,1,1.273,5.6q.578-2.41.924-3.837c.236-.95.417-1.645.549-2.085l1.512-5.146h10.266l-12.553,29H337Z" fill="#075484"/>
    <g id="组_228" data-name="组 228">
      <path id="路径_152" data-name="路径 152" d="M412.565,10191.856v-3.616H414.1a2.64,2.64,0,0,1,.842.1.83.83,0,0,1,.421.347,1.036,1.036,0,0,1,.158.569.963.963,0,0,1-.24.673,1.158,1.158,0,0,1-.715.335,1.627,1.627,0,0,1,.391.3,3.9,3.9,0,0,1,.415.587l.443.705h-.874l-.527-.787a5.355,5.355,0,0,0-.385-.532.58.58,0,0,0-.219-.15,1.243,1.243,0,0,0-.368-.04h-.149v1.51Zm.729-2.088h.541a2.739,2.739,0,0,0,.656-.045.39.39,0,0,0,.205-.151.477.477,0,0,0,.074-.272.429.429,0,0,0-.1-.294.449.449,0,0,0-.276-.143c-.059-.008-.236-.013-.532-.013h-.571Z" fill="#075484"/>
    </g>
    <path id="路径_153" data-name="路径 153" d="M414.088,10193.192a3.059,3.059,0,1,1,3.163-3.059A3.115,3.115,0,0,1,414.088,10193.192Zm0-5.686a2.629,2.629,0,1,0,2.733,2.627A2.685,2.685,0,0,0,414.088,10187.507Z" fill="#075484"/>
  </g>
</svg>
