<svg id="Layer_1" data-name="Layer 1" xmlns="http://www.w3.org/2000/svg" xmlns:xlink="http://www.w3.org/1999/xlink" viewBox="0 0 753.36 54"><defs><style>.cls-1{fill:url(#Balance);}</style><linearGradient id="Balance" y1="27" x2="753.36" y2="27" gradientUnits="userSpaceOnUse"><stop offset="0" stop-color="#9bca3e"/><stop offset="0.04" stop-color="#90c742"/><stop offset="0.14" stop-color="#74c04c"/><stop offset="0.23" stop-color="#64bc52"/><stop offset="0.3" stop-color="#5eba54"/><stop offset="0.31" stop-color="#5cba58"/><stop offset="0.4" stop-color="#4ab489"/><stop offset="0.49" stop-color="#3bb0af"/><stop offset="0.57" stop-color="#31adca"/><stop offset="0.65" stop-color="#2aabdb"/><stop offset="0.7" stop-color="#28aae1"/><stop offset="1" stop-color="#7bd1ee"/></linearGradient></defs><title>bg-comparison-new</title><path class="cls-1" d="M753.35,27.26s0,0,0,0-.05-.19-.06-.29a3.84,3.84,0,0,0-.23-1.15,3.76,3.76,0,0,0-.33-.55,3.75,3.75,0,0,0-.39-.65L729.49,1.28A3.91,3.91,0,0,0,724,1a3.85,3.85,0,0,0-1.27,2.71,3.92,3.92,0,0,0,1,2.82l16.9,16.78H2c-4,3.44-1.54,7.83,1.87,7.83H740L723.83,47.32a3.91,3.91,0,1,0,5.54,5.53L752.21,30A3.89,3.89,0,0,0,753.35,27.26Z"/></svg>