<svg xmlns="http://www.w3.org/2000/svg" viewBox="0 0 14.9 21.32"><defs><style>.cls-1{fill:#097dbc;}.cls-2{fill:#fff;}</style></defs><title>Asset 1</title><g id="Layer_2" data-name="Layer 2"><g id="Layer_1-2" data-name="Layer 1"><path class="cls-1" d="M6.95,19.61C6.69,19.26.62,11,.62,7.45a6.83,6.83,0,0,1,13.66,0c0,3.59-6.07,11.81-6.33,12.16l-.5.67Z"/><path class="cls-2" d="M7.45,1.24a6.21,6.21,0,0,1,6.21,6.21c0,3.43-6.21,11.79-6.21,11.79S1.24,10.88,1.24,7.45A6.21,6.21,0,0,1,7.45,1.24M7.45,0A7.46,7.46,0,0,0,0,7.45C0,11.18,5.79,19.09,6.45,20l1,1.34,1-1.34c.66-.89,6.45-8.8,6.45-12.53A7.46,7.46,0,0,0,7.45,0Z"/><circle class="cls-2" cx="7.45" cy="7.45" r="2.48"/></g></g></svg>