<svg xmlns="http://www.w3.org/2000/svg" width="32" height="32" viewBox="0 0 32 32">
  <g id="icon-tab-compare-selected" transform="translate(-898.053 -777.239)">
    <circle id="Ellipse_4" data-name="Ellipse 4" cx="16" cy="16" r="16" transform="translate(898.053 777.239)" fill="#007dbc"/>
    <g id="Group_6" data-name="Group 6" transform="translate(147.972 365.605)">
      <path id="Path_26" data-name="Path 26" d="M773.592,429l-7.309,3.421a.392.392,0,0,1-.164.037l0,0,0,0a.392.392,0,0,1-.164-.037l-7.381-3.432a.336.336,0,0,0-.416.175.315.315,0,0,0,.049.438l7.731,3.608a.442.442,0,0,0,.372,0l7.653-3.577a.374.374,0,0,0,.067-.493A.421.421,0,0,0,773.592,429Z" transform="translate(0 -2.778)" fill="#fff"/>
      <path id="Path_27" data-name="Path 27" d="M773.592,432.243l-7.309,3.42a.393.393,0,0,1-.164.037l0,0,0,0a.393.393,0,0,1-.164-.037l-7.381-3.432a.336.336,0,0,0-.416.175.315.315,0,0,0,.049.438l7.731,3.609a.44.44,0,0,0,.372,0l7.653-3.577a.374.374,0,0,0,.067-.493A.421.421,0,0,0,773.592,432.243Z" transform="translate(0 -3.859)" fill="#fff"/>
      <path id="Path_28" data-name="Path 28" d="M773.592,435.489l-7.309,3.421a.4.4,0,0,1-.164.037l0,0,0,0a.4.4,0,0,1-.164-.037l-7.381-3.432a.336.336,0,0,0-.416.175.315.315,0,0,0,.049.438l7.731,3.608a.442.442,0,0,0,.372,0l7.653-3.577a.373.373,0,0,0,.067-.492A.421.421,0,0,0,773.592,435.489Z" transform="translate(0 -4.941)" fill="#fff"/>
      <path id="Path_29" data-name="Path 29" d="M766.029,420.673l-7.538,3.638a.231.231,0,0,0,0,.417l7.54,3.524a.4.4,0,0,0,.338,0l7.54-3.524a.231.231,0,0,0,0-.417l-7.538-3.638A.4.4,0,0,0,766.029,420.673Zm-6.207,3.846,6.38-3.093,6.379,3.093-6.379,2.975Z" transform="translate(-0.093 0)" fill="#fff"/>
    </g>
  </g>
</svg>
