<svg id="317b2057-a15a-41c0-aa80-e5f5d824960a" data-name="Layer 1" xmlns="http://www.w3.org/2000/svg" width="86.34" height="73.67" viewBox="0 0 86.34 73.67">
  <defs>
    <style>
      .cb97fec8-cbae-43d7-8541-ef95a2e19399 {
        fill: #231f20;
      }

      .eab638e6-fee7-459e-b251-cdc3e4226a87, .f2511b5f-fbfc-4200-9748-8eb14a31672c {
        fill: #040303;
      }

      .dab74ab4-5b7a-4fe2-aa5e-0071fe25ee99 {
        fill: none;
      }

      .\38 bc617c6-5e20-4c4a-a76b-aad6ea6408d3 {
        fill: #fed419;
      }

      .\38 bc617c6-5e20-4c4a-a76b-aad6ea6408d3, .f2511b5f-fbfc-4200-9748-8eb14a31672c {
        fill-rule: evenodd;
      }

      .ad5523fc-02e2-4ce5-abac-f6f5243d69d7 {
        fill: #fff;
      }
    </style>
  </defs>
  <title>logo-stevie</title>
  <g>
    <path class="cb97fec8-cbae-43d7-8541-ef95a2e19399" d="M36.43,64.17l.33.46Z"/>
    <g>
      <path class="eab638e6-fee7-459e-b251-cdc3e4226a87" d="M36.42,64.1c.07-.89.27-2-.4-2.46-.11.48-.53,1.26-1.06,1.26a15.44,15.44,0,0,1-1.59-.13c-1-.09-.7-.15-1.26-.53.3-.44.6-.47.6-1.33v-.13c0-1.39-2.19-4.31-3.06-4.51l-.06,1.13v1.06c0,1.84.43,3.85,2.18,3.86l.14.19A12.19,12.19,0,0,1,29,61.87c-.55-.15-.88-.29-1.39-.47-.78-.26-.64-.08-1-.82.56-.13.86-.84.86-1.53v-.4c0-1.09-1.4-4.14-2.06-4.32-.13.57-.41,1.09-.55,1.78a12.09,12.09,0,0,0-.18,2v.27c0,.94.51,2.26,1.58,2.27l.16.27-.08.05s-1.18-.55-1.33-.6a9.56,9.56,0,0,1-1.33-.66c-.68-.34-2.12-.92-2.19-1.79a2,2,0,0,0,1.26-2.12v-.27a10.81,10.81,0,0,0-1.06-4c-.5.13-1.73,3.18-1.73,4.12v.6A1.83,1.83,0,0,0,21,57.93l.09.21-.08.06-.58-.42c-.21-.17-.37-.25-.59-.41-.44-.33-.72-.63-1.11-1-.6-.51-1.82-1.23-1.84-2.21,1.35,0,1.86-1.67,1.86-3.05l.05-.47L18.43,48c-.51.14-1.83,2.14-2.15,2.7-.55,1-.86,2.8.28,3.41l.09.28-.08.06a6.33,6.33,0,0,1-.42-.5c-.16-.21-.33-.32-.49-.51-.32-.39-.56-.66-.9-1A7.28,7.28,0,0,1,13.25,50v-.33h.46c.7,0,1.57-1.09,1.75-1.77a10,10,0,0,0,.57-3v-1a9.06,9.06,0,0,0-2.21,1.78,4.22,4.22,0,0,0-1.38,2.67c0,.75.27.8.53,1.2v.27A22.68,22.68,0,0,1,10.51,45l.08-.59a2,2,0,0,0,.6.13c1.12,0,1.93-1.14,2.32-1.93a11.33,11.33,0,0,0,1.06-3.25c-1.3.3-4.45,2.27-4.45,3.65,0,.15,0,.08.07.27H10l.08.53a8.11,8.11,0,0,1-.73-2.52c-.25-.08,0,0-.1-.36,0-.2-.08-.27-.12-.48a5.15,5.15,0,0,1-.17-1c0-.19.21-.38.27-.6.27.06.33.2.6.2h.4c1.23,0,1.9-1.07,2.51-1.74.2-.23,1.7-2.53,1.39-2.68s-2.85.85-3.21,1c-.73.29-2,1.38-2,2.3a1.56,1.56,0,0,0,.14.6l-.2.33c0-.75-.27-1.69-.27-2.52s0-1.77,0-2.66l.34-.53c.36,0,.46.33,1,.33h.4a3.86,3.86,0,0,0,2.54-1.38c.37-.37,1.67-1.75,1.71-2.27h-.27a10.5,10.5,0,0,0-3.61.64c-.74.25-2.29,1.27-1.78,2.34l-.31.29-.07,0,.8-5.16.65-.61a2,2,0,0,0,1.39.6h.07c1.42,0,4.37-2.11,4.58-2.95l-1.53-.11H12.91a3.1,3.1,0,0,0-3,1.59L10,27l-.39.3-.06-.08s.87-2.66,1-3a3.62,3.62,0,0,1,1.57-2.35c.13.56.84.86,1.53.86h.53c1,0,4.09-1.47,4.25-2.06a12.57,12.57,0,0,0-3.92-.73h-.07c-1,0-2.39.5-2.4,1.58l-.46.21a20.77,20.77,0,0,1,1.3-2.35c.29-.39.35-.75.78-1s.8-.41,1.24-.62c1.23,2.32,6.13-.53,6.31-1.2L19.31,16l0,.09L19.09,16a14.87,14.87,0,0,0-2.76,0c-.76.22-1.46.54-1.5,1.47l-.86.31-.07-.09,2.48-3a3.32,3.32,0,0,0,.6.13c2,0,3.59-3.92,3.59-5.91-1.59.84-4.78,2.33-4.78,4.58a1.74,1.74,0,0,0,.27.93c-.23.35-.58.54-.84.89s-.55.68-.81,1a23.46,23.46,0,0,1-1.54,2,1,1,0,0,1-.07-.33v-.27a2.94,2.94,0,0,0,1.13-2.26,9.48,9.48,0,0,0-.69-2.7c-.24-.5-1.09-1.92-1.17-2.21-.51.38-1.17,2.95-1.2,3.78,0,1.54.07,3.19,1.6,3.32v.93c0,.77-.94,1.93-1.24,2.61C11,21.7,10,23.39,9.94,23.82l-.27-.88c.61-.14.86-.9.86-1.66v-.07a8.38,8.38,0,0,0-2.84-5.12L7.2,19.21h.07v.6c0,1.49.73,3.22,2.14,3.25l.18,1.6c0,.18-1.39,4-1.39,5H8.07L7.87,29a1,1,0,0,0,.47-.93v-.46a4.83,4.83,0,0,0-1.61-2.84c-.2-.2-2.44-2.31-2.44-1.68v.4a12.38,12.38,0,0,0,.64,3.61c.2.83,1.17,2.16,2.08,2.16h.07a3.55,3.55,0,0,0,.46-.07c.59,1.11.41,1.68.27,3a33,33,0,0,0-.14,3.58,1.94,1.94,0,0,1-.4-.6,2.62,2.62,0,0,0,.27-.86c0-2-3.44-4.06-5.11-4.45a12,12,0,0,0,1.22,3.5c.44.88,1.35,2.21,2.57,2.21a6,6,0,0,0,.8-.13c.07.27.51.9.69,1.31a11,11,0,0,1,.25,1.75,31.54,31.54,0,0,0,.58,3.34l-.45-.48c.37-1.59-.77-2.37-1.86-2.92a11.24,11.24,0,0,0-3.92-1.06C1.85,37.41,4.57,42,6.41,42c.15,0,.08,0,.27-.07v.13a1.67,1.67,0,0,0,1.2-.4,12.67,12.67,0,0,1,.93,1.19c.1.19.43,1.34.52,1.6.17.53.47,1,.61,1.52s.56,1.08.66,1.53l-.53-.27A2.49,2.49,0,0,0,8,44.82a12.9,12.9,0,0,0-4-.31H3.48c.21.9,3.3,3.59,4.58,3.59h.6a1.28,1.28,0,0,0,1.26-.6A5.84,5.84,0,0,1,12,50a16.6,16.6,0,0,0,1.94,2.67h-.07l-.61-.16c-.19-.14-.17-.83-1-1.34a3.71,3.71,0,0,0-1.87-.52H9.86a12.61,12.61,0,0,0-3.72.8c.17.64,3.63,2.39,4.78,2.39h.73c.09-.28,0,0,.36-.1a2,2,0,0,0,.44-.23c.4-.24.38-.25.6-.66,1.62.38,1.7,1,2.67,2s1.57,1.52,2.44,2.29l-.8-.08c-.07-.8-1.33-1.33-2.26-1.33a6.87,6.87,0,0,0-2.61.64c-.46.18-.76.28-1.18.49a11,11,0,0,1-1.06.6v.13c.48.11,1.33.54,2,.76a8,8,0,0,0,2.35.51h.53c1,0,2.12-.58,2.19-1.46,1.55,0,2.15.81,3.08,1.43.76.5,2.27,1.26,2.83,1.74l-.8.08a1.6,1.6,0,0,0-1.46-.93h-.53c-1.21,0-4.65,2.13-4.85,2.91l3.26.35h.27c1.53,0,3.39-.5,3.39-2.06h.86A8.76,8.76,0,0,1,26,61.8a20.06,20.06,0,0,0,2.76,1l-.54.16c-1.12-.75-.6-.41-2-.45a4.28,4.28,0,0,0-1.78.89c-.53.45-2.52,2.28-2.57,2.94h.6c2.38,0,5.84-.57,5.84-2.79v-.33l1.46-.14a14,14,0,0,1,2.11.48c.61.47.21,1.4-.08,1.89s-.83,1-1.19,1.47a6.72,6.72,0,0,0-.95,1.67l0,.73v.07c0,.4,0,1.29.4,1.39a3.67,3.67,0,0,1-.07-.46v-.13c0-2.72,3.65-3.94,3.65-5.31v-.27a1.76,1.76,0,0,0-.4-.77l1.27.17c.74,0,1-.1,1.33.4.16.27.44,1,.59,1.2Z"/>
      <path class="eab638e6-fee7-459e-b251-cdc3e4226a87" d="M71.58,16.35a12,12,0,0,0-1.74-1.78c.21-.8.54-1,.09-2a3.79,3.79,0,0,0-1.1-1.49,15.67,15.67,0,0,0-3.14-2c-.5-.26-.47-.19-.32.46.08.37.17.64.27,1a18.07,18.07,0,0,0,.68,1.91c.39,1,1.38,2.38,2.73,2.38.07,0,.43-.11.53-.13l2.48,3a7.27,7.27,0,0,1-1-.3c-.06-.07-.06-.57-.38-.88a2.59,2.59,0,0,0-1.86-.66A11.11,11.11,0,0,0,66.7,16c-.65.11-1.51.53-2,.56.11.41,2.38,1.57,2.91,1.8a4.24,4.24,0,0,0,2,.26c1.25-.19.87-.43,1.46-.86,1.11.74,1.27.23,2,1.66.19.37.45.75.67,1.13s.38.78.6,1.2l-.46-.22a1.85,1.85,0,0,0-2-1.51c-.12-.08-.12-.13-.26-.13H71.5a13.18,13.18,0,0,0-3.92.8c.16.62,3.29,2.06,4.18,2.06h.66c.94,0,1.1-.6,1.46-.86,1.16.78,1,1.08,1.52,2.33a15.43,15.43,0,0,1,.87,3L76,27c0-1.56-1.68-2.18-3.26-2.18h-.86l-2,.18c.11.44,1.53,1.56,2,1.85a4.94,4.94,0,0,0,2.7,1.09c.47,0,1.23-.24,1.33-.6.93.62.72.85,1,2a11.93,11.93,0,0,1,.32,2.6v.13c0,.15.05.15.13.27l-.08.6L77,32.82a1,1,0,0,0,.06-.32c0-2-3.33-2.66-5.45-2.66H71.5c-.13,0-.12,0-.2.07A15.87,15.87,0,0,0,73,32.12a4.3,4.3,0,0,0,2.48,1.38H76c.49,0,.6-.24.93-.33.07.25.33.4.33.6v2l-.24,3-.24-.26a.37.37,0,0,0,.08-.27v-.33c0-1.76-3.46-3.11-5.18-3.25a11.13,11.13,0,0,0,1.43,2.75,5.15,5.15,0,0,0,1,1.06,8,8,0,0,0,1.29.64c.41-.26.46.23,1.19-.27.37.7.39.48.2,1.4-.09.46-.21,1-.35,1.45s-.24,1-.35,1.37a13.85,13.85,0,0,0-.44,1.36c-.28-.21.07-.2.07-.73v-.47a3.44,3.44,0,0,0-1.67-2.38A9.52,9.52,0,0,0,71.3,39.4v.2h.13c-.19.4.75,2.74,1,3.14a3.11,3.11,0,0,0,2.41,1.84,2.3,2.3,0,0,0,.53-.13c-.19.39.11.37-.07.86-.11.28-.08.31-.22.64-.2.5-.43.86-.66,1.33A16.42,16.42,0,0,1,73,49.83v-.33a1.13,1.13,0,0,0,.47-.8V48c0-1.24-2.72-4-3.59-4.12a16.24,16.24,0,0,0,.42,3.63c.23.83,1,2.15,2,2.15h.4c0,1.07-1,1.95-1.5,2.62a19.4,19.4,0,0,1-1.89,2.16c0-.57.8-.53.8-1.73v-.27c0-1.23-1.91-4.39-2.66-4.45l-.3,2.19,0,1.13.19,1.39c.32.28.43,1.47,1.67,1.47-.09,1-1.23,1.69-1.87,2.24a19.75,19.75,0,0,1-2.31,1.74C65,57.68,66,57.7,66,56.13v-.26a5.92,5.92,0,0,0-.54-2.32c-.15-.34-.32-.7-.47-1.06s-.47-.74-.52-.94c-.53.14-1.2,2.93-1.2,3.72v.6c0,1,.48,2.06,1.33,2-.41.77-.18.63-1,1.1-.47.28-.84.49-1.3.75A24.62,24.62,0,0,1,59.55,61l.2-.33c1.08,0,1.59-1.46,1.59-2.59a15.26,15.26,0,0,0-.73-3.72h-.2c-.12.43-.95,1.32-1.19,1.93a5.24,5.24,0,0,0-.67,2.25v.33c0,.65-.15.42.14,1.05a1.2,1.2,0,0,0,.65.67c-.05.62-.58.7-.92.8s-.9.32-1.4.47a16.28,16.28,0,0,1-3.06.66l.14-.19c1.71,0,2.25-2,2.25-3.73v-.86l-.12-1.46c-.4.1-1.57,1.5-1.86,1.87a3.91,3.91,0,0,0-1.14,2.58V61c0,.46.17,1,.53,1.13-.06.76-1.48.62-2.23.76a1.31,1.31,0,0,1-1.62-1.22c-.83.22-.4,2.33-.4,3.25v.6a1,1,0,0,1-.07.33c.58-.39.46-1.28,1.13-1.73l2.07-.19v-.07c-.08.33-.27.44-.27.86v.13c0,.84,1.55,2,2.11,2.47s1.71,1.94,1.54,3l-.08.53h.15a9.42,9.42,0,0,0,.2-1.2v-.66c0-1.67-2.52-3.21-2.52-4.52,0-.38.17-.51.2-.86a17.3,17.3,0,0,1,2.33-.46l1.33.13v.47c0,2,3.63,2.66,5.91,2.66h.53c-.24-1-3.25-3.92-4.65-3.92h-.66c-.4,0-.75.37-1,.53l-.53-.14c.17-.11,2.24-.82,2.63-1,.83-.28,1.68-1,2.62-1h.8c.22,0,.27.64.5,1a4.23,4.23,0,0,0,.78.68,6.52,6.52,0,0,0,2.3.42h.33l3.13-.33v-.07c-.12-.46-1.66-1.52-2.12-1.79a6.3,6.3,0,0,0-2.79-1.06h-.33a1.67,1.67,0,0,0-1.59.93H62.6s2.73-1.71,2.87-1.77,1.09-.8,1.34-1a4,4,0,0,1,1.78-.48c0,.78,1.28,1.46,2.13,1.46h.53a7.78,7.78,0,0,0,2.38-.47c.45-.17,1.65-.69,2-.79-.16-.6-3.61-1.86-4.71-1.86h-.13c-1,0-2.12.47-2.19,1.33l-.79.08c.83-.74,1.67-1.49,2.44-2.29s1.36-1.95,2.67-2a1.75,1.75,0,0,0,1.66,1h.53A7.81,7.81,0,0,0,77.7,53c.65-.27,1.71-1.24,2.1-1.35v-.13a14.08,14.08,0,0,0-3.85-.8h-.4c-1.2,0-2.72.65-2.72,1.79l-.73.2s1.72-2.52,1.83-2.69c.79-1.14.72-1.78,2.08-2.5a1.32,1.32,0,0,0,1.26.6h.2a4.47,4.47,0,0,0,2.91-1.35,12.19,12.19,0,0,0,2.07-2.24H82a12.74,12.74,0,0,0-4,.29c-1,.33-2.22,1-2.22,2.23,0,0,0,.12.07.2l-.53.27c.2-.87.93-2.12,1.25-3.07a8.78,8.78,0,0,1,.54-1.58c.28-.49.66-.8.93-1.2a1.59,1.59,0,0,0,1,.4,3,3,0,0,0,1.67-.65c.31-.21.34-.29.69-.51,0,0,.37-.49.51-.62a9.29,9.29,0,0,0,1.78-2.87c-2.14,0-6,1.3-6,3.52,0,.29.13.27.13.46s-.38.41-.46.46c0-.6.31-1,.33-1.66s.2-1.17.26-1.73a5.25,5.25,0,0,1,.93-3.05,1.07,1.07,0,0,0,.66.2c1.28,0,2.21-1.25,2.66-2.12a12.9,12.9,0,0,0,1.19-3.59,14.68,14.68,0,0,0-3.15,1.63,3.83,3.83,0,0,0-1.9,2.81,1.74,1.74,0,0,0,.27.93l-.44.55c0-.28.06-.21,0-.42L78,30.7a15,15,0,0,1,.37-1.46c1.72,0,1.94-.7,2.6-1.91a11.84,11.84,0,0,0,.72-3.93v-.27c0-.7-2.33,1.56-2.51,1.74a4.67,4.67,0,0,0-1.61,3,2.11,2.11,0,0,0,.53,1.26l-.3.68-.26-1.08c.17-.43-1.16-3.54-1.16-4v-.27l.17-1.4c1.43-.11,2.28-1.91,2.15-3.52l-.14-2h-.13a2.79,2.79,0,0,0-.27-1.46c-.78.53-2.79,3.52-2.79,4.91v.4a1.86,1.86,0,0,0,.55,1.31c.57.53.19.31.12,1.21,0,0-1.31-2.68-1.42-3-.56-1.41-1.17-1.11-1.17-3.35a1.3,1.3,0,0,0,1.2-.66,3.6,3.6,0,0,0,.46-1.53v-.8A12,12,0,0,0,74,10.52C73.27,11,72,14.09,72,15.3v.2a1.93,1.93,0,0,0,1.13,2.06l-.09.86C73,18.33,71.82,16.65,71.58,16.35Z"/>
    </g>
    <path class="dab74ab4-5b7a-4fe2-aa5e-0071fe25ee99" d="M36.43,64.17l.33.46Z"/>
    <path class="eab638e6-fee7-459e-b251-cdc3e4226a87" d="M28.3,15.36a.2.2,0,0,1-.19-.19c0-.11.14-.23.28-.36C30.31,13.11,33,11,33,8.07c0-2.17-1.2-2.61-1.88-2.61a2,2,0,0,0-1.46.5,2.23,2.23,0,0,0-.58,1.32c0,.14,0,.26-.18.26s-.11-.1-.12-.26S28.74,6,28.74,5.61c0-.12,0-.18.16-.28a5.21,5.21,0,0,1,2.49-.52c2.42,0,3.45,1.32,3.45,2.93,0,2.67-3,5-4.73,6.41-.07.06,0,.1,0,.1h.94c.23,0,1.86,0,2.37-.08A1.61,1.61,0,0,0,35,12.94c0-.17.08-.22.17-.22s.11.12.11.26a15.55,15.55,0,0,1-.4,2c-.11.37-.33.41-1.2.41Z"/>
    <path class="eab638e6-fee7-459e-b251-cdc3e4226a87" d="M39.56,15.59c-2.71,0-3.45-3.14-3.45-5.09,0-3.2,1.13-5.69,3.67-5.69,2.72,0,3.45,2.89,3.45,5.08C43.23,13.29,41.93,15.59,39.56,15.59ZM39.49,5.43c-1,0-1.77,1.42-1.77,4.55,0,2.38.59,5,2.1,5,1.11,0,1.8-1.88,1.8-4.55C41.62,8,41,5.43,39.49,5.43Z"/>
    <path class="eab638e6-fee7-459e-b251-cdc3e4226a87" d="M46.64,9V7.23c0-.33,0-.5-.21-.5a10.09,10.09,0,0,0-1.6.66.59.59,0,0,1-.19.05.15.15,0,0,1-.11-.15.25.25,0,0,1,.14-.19c.06,0,2.7-1.76,3.18-2.12a.79.79,0,0,1,.36-.18c.12,0,.17.15.17.29s-.08,1.47-.08,3.58v2.54c0,1.32,0,2.49.06,3.09,0,.44.11.65.55.74a8.48,8.48,0,0,0,.91.08.13.13,0,0,1,.12.14c0,.1-.07.12-.22.12-1,0-1.93,0-2.3,0s-1.47,0-2.35,0c-.15,0-.23,0-.23-.12s.06-.14.11-.14A8.74,8.74,0,0,0,46,15c.44-.1.51-.29.55-.73.06-.61.08-1.77.07-3.09Z"/>
    <path class="eab638e6-fee7-459e-b251-cdc3e4226a87" d="M57.14,5c.26,0,.33,0,.33.11a.5.5,0,0,1-.1.25,32.9,32.9,0,0,0-3.49,8.84,3.1,3.1,0,0,0,0,.51c0,.28-1.11.84-1.73.84-.15,0-.19,0-.19-.16a2,2,0,0,1,.1-.56,50.3,50.3,0,0,1,4-8.55H52.53a2.59,2.59,0,0,0-1.29.25,1.39,1.39,0,0,0-.45.83c0,.11-.06.18-.14.18s-.11-.07-.11-.21c0-.51.21-2.12.21-2.26s.05-.19.14-.19A7.93,7.93,0,0,0,52.74,5Z"/>
    <path class="eab638e6-fee7-459e-b251-cdc3e4226a87" d="M26.51,25c-.15-.07-.18-.11-.18-.32,0-.52,0-1.09,0-1.24s0-.25.11-.25.09.09.09.16a2,2,0,0,0,.09.48,1.3,1.3,0,0,0,1.35,1,1.15,1.15,0,0,0,1.27-1.08c0-.46-.14-.9-.93-1.51l-.43-.34a2.81,2.81,0,0,1-1.4-2.24c0-1,.87-1.79,2.18-1.79A4.58,4.58,0,0,1,30,18c.09,0,.13,0,.13.11s0,.4,0,1.13c0,.21,0,.28-.1.28s-.09-.06-.09-.17a1.14,1.14,0,0,0-.25-.62,1.2,1.2,0,0,0-1-.46,1,1,0,0,0-1.13,1c0,.43.22.77,1,1.36l.26.2c1.14.86,1.55,1.51,1.55,2.41a1.91,1.91,0,0,1-.89,1.65,2.73,2.73,0,0,1-1.5.39A3.28,3.28,0,0,1,26.51,25Z"/>
    <path class="eab638e6-fee7-459e-b251-cdc3e4226a87" d="M33.31,18.51l-1.41,0c-.55,0-.78.07-.92.27a1.12,1.12,0,0,0-.16.33c0,.08,0,.11-.1.11s-.09,0-.09-.15.18-1,.2-1.09.06-.18.11-.18a2.19,2.19,0,0,0,.41.11c.27,0,.63,0,.95,0H36a4.54,4.54,0,0,0,.65,0l.26,0c.07,0,.08.06.08.2s0,.85,0,1.1c0,.09,0,.15-.09.15s-.09,0-.1-.19v-.1c0-.25-.27-.51-1.12-.53l-1.19,0v3.88c0,.87,0,1.62,0,2s.09.47.37.51a4,4,0,0,0,.48,0c.1,0,.15,0,.15.08s-.08.09-.18.09c-.62,0-1.22,0-1.48,0l-1.19,0c-.12,0-.19,0-.19-.09s0-.08.15-.08a1.54,1.54,0,0,0,.34,0c.19,0,.25-.25.27-.52s0-1.14,0-2Z"/>
    <path class="eab638e6-fee7-459e-b251-cdc3e4226a87" d="M38.3,20.72c0-1.44,0-1.7,0-2s-.09-.47-.41-.54a2,2,0,0,0-.37,0c-.1,0-.16,0-.16-.09s.07-.09.21-.09h.77l.6,0h2.36l.41-.06a.88.88,0,0,1,.15,0s.06,0,.06.09a6.06,6.06,0,0,0-.08.61c0,.09,0,.51,0,.62s0,.1-.09.1-.09,0-.09-.13a1,1,0,0,0-.06-.34c-.07-.17-.16-.28-.63-.34-.16,0-1.15,0-1.34,0s-.07,0-.07.09V21c0,.07,0,.1.07.1.21,0,1.3,0,1.51,0a.66.66,0,0,0,.45-.14c.07-.08.1-.12.15-.12s.07,0,.07.08,0,.21-.08.69c0,.19,0,.57,0,.63s0,.18-.09.18a.07.07,0,0,1-.09-.09,2.49,2.49,0,0,0,0-.34c0-.19-.18-.33-.53-.37-.18,0-1.12,0-1.34,0,0,0-.06,0-.06.09v.75c0,.32,0,1.19,0,1.47,0,.65.17.79,1.13.79a2.4,2.4,0,0,0,.89-.11c.25-.11.36-.31.43-.7,0-.1,0-.14.1-.14s.08.08.08.17a7.41,7.41,0,0,1-.12,1c-.07.25-.15.25-.51.25-.71,0-1.23,0-1.64,0l-1,0h-.54l-.65,0c-.12,0-.19,0-.19-.09s0-.08.15-.08a1.54,1.54,0,0,0,.34,0c.19,0,.24-.25.27-.52s0-1.14,0-2Z"/>
    <path class="eab638e6-fee7-459e-b251-cdc3e4226a87" d="M43,18.9c-.22-.52-.38-.62-.72-.72a1.46,1.46,0,0,0-.37,0c-.09,0-.11,0-.11-.09s.1-.09.25-.09c.5,0,1,0,1.37,0s.69,0,1.16,0c.11,0,.22,0,.22.09s-.06.09-.14.09a.68.68,0,0,0-.37.07.23.23,0,0,0-.09.2,2.82,2.82,0,0,0,.22.73L46,23.43h0c.41-1,1.64-4.09,1.86-4.71a1.16,1.16,0,0,0,.09-.35.18.18,0,0,0-.12-.18,1.26,1.26,0,0,0-.38,0c-.09,0-.16,0-.16-.08s.09-.09.26-.09c.47,0,.87,0,1,0l.89,0c.12,0,.2,0,.2.09s-.06.09-.15.09a.82.82,0,0,0-.46.11c-.12.09-.26.25-.52.85-.37.89-.62,1.4-1.13,2.56l-1.26,2.88c-.25.55-.3.7-.43.7s-.18-.13-.36-.58Z"/>
    <path class="eab638e6-fee7-459e-b251-cdc3e4226a87" d="M50.22,20.72c0-1.44,0-1.7,0-2s-.11-.48-.32-.53a1.34,1.34,0,0,0-.34,0c-.09,0-.15,0-.15-.09s.08-.08.23-.08l1.23,0L52,18c.12,0,.2,0,.2.08s-.06.09-.15.09l-.28,0c-.26,0-.33.21-.35.54s0,.57,0,2v1.66c0,.92,0,1.66,0,2.07,0,.26.09.43.38.46a4,4,0,0,0,.48,0c.1,0,.15,0,.15.08s-.08.09-.18.09c-.62,0-1.22,0-1.48,0l-1.19,0c-.12,0-.19,0-.19-.09s0-.08.15-.08a1.54,1.54,0,0,0,.34,0c.19,0,.25-.2.27-.47s0-1.14,0-2.06Z"/>
    <path class="eab638e6-fee7-459e-b251-cdc3e4226a87" d="M54,20.72c0-1.44,0-1.7,0-2s-.09-.47-.41-.54a2,2,0,0,0-.37,0c-.1,0-.16,0-.16-.09s.07-.09.21-.09H54l.6,0H57l.41-.06a.87.87,0,0,1,.15,0s.06,0,.06.09a6.07,6.07,0,0,0-.08.61c0,.09,0,.51,0,.62s0,.1-.09.1-.09,0-.09-.13a1,1,0,0,0-.06-.34c-.07-.17-.16-.28-.63-.34-.16,0-1.15,0-1.34,0s-.07,0-.07.09V21c0,.07,0,.1.07.1.21,0,1.3,0,1.51,0a.66.66,0,0,0,.45-.14c.07-.08.1-.12.15-.12s.07,0,.07.08,0,.21-.08.69c0,.19,0,.57,0,.63s0,.18-.09.18a.07.07,0,0,1-.09-.09,2.51,2.51,0,0,0,0-.34c0-.19-.18-.33-.53-.37-.18,0-1.12,0-1.34,0,0,0-.06,0-.06.09v.75c0,.32,0,1.19,0,1.47,0,.65.17.79,1.13.79a2.4,2.4,0,0,0,.89-.11c.25-.11.36-.31.43-.7,0-.1,0-.14.1-.14s.08.08.08.17a7.41,7.41,0,0,1-.12,1c-.07.25-.15.25-.51.25-.71,0-1.23,0-1.64,0l-1,0H54l-.65,0c-.12,0-.19,0-.19-.09s0-.08.15-.08a1.54,1.54,0,0,0,.34,0c.19,0,.24-.25.27-.52s0-1.14,0-2Z"/>
    <path class="eab638e6-fee7-459e-b251-cdc3e4226a87" d="M58.07,18.69a.87.87,0,1,1,.87.82A.83.83,0,0,1,58.07,18.69Zm1.56,0a.69.69,0,0,0-1.38,0,.69.69,0,0,0,1.38,0Zm-1-.13v-.24c0-.06,0-.07-.11-.07s0,0,0,0,0,0,0,0h.42c.16,0,.42,0,.42.26s0,.17-.2.28l.17.2c.12.14.14.14.16.14a0,0,0,0,1,0,0s0,0-.09,0a.37.37,0,0,1-.37-.18l-.13-.18h-.11v.09c0,.17,0,.19,0,.2h.09s0,0,0,0a0,0,0,0,1,0,0h-.38s-.07,0-.07,0a0,0,0,0,1,0,0c.09,0,.09,0,.1-.06a2,2,0,0,0,0-.25Zm.21.09a.3.3,0,0,0,.13,0,.14.14,0,0,0,.09,0,.18.18,0,0,0,.09-.16.21.21,0,0,0-.22-.21s-.07,0-.09,0Z"/>
    <path class="eab638e6-fee7-459e-b251-cdc3e4226a87" d="M21.81,43.83a1.38,1.38,0,0,0-.35-.67.84.84,0,0,0-.38-.09c-.09,0-.15,0-.15-.09s.08-.09.21-.09c.49,0,1,0,1.1,0s.5,0,1,0q.2,0,.2.09c0,.08-.08.09-.17.09a.5.5,0,0,0-.24,0c-.09,0-.1.1-.1.21a6.2,6.2,0,0,0,.21.87c.16.62,1,3.49,1.21,4h0l1.83-4.93c.09-.26.16-.34.24-.34s.15.14.27.44l2,4.76h0c.17-.63.93-3.13,1.26-4.24a2,2,0,0,0,.09-.55c0-.15-.09-.28-.45-.28-.09,0-.16,0-.16-.09s.08-.09.22-.09c.5,0,.9,0,1,0s.47,0,.78,0c.1,0,.17,0,.17.08s0,.09-.13.09a1,1,0,0,0-.33,0c-.23.09-.33.46-.53,1-.43,1.19-1.43,4.2-1.89,5.62-.1.33-.15.44-.27.44s-.15-.11-.29-.46l-2-4.74h0c-.18.48-1.44,3.83-1.84,4.7-.18.39-.23.5-.34.5s-.13-.1-.22-.35Z"/>
    <path class="eab638e6-fee7-459e-b251-cdc3e4226a87" d="M32.44,45.64c0-1.44,0-1.7,0-2s-.11-.48-.32-.53a1.34,1.34,0,0,0-.34,0c-.09,0-.15,0-.15-.09s.08-.08.23-.08l1.23,0,1.15,0c.12,0,.2,0,.2.08s-.06.09-.15.09l-.28,0c-.26,0-.33.21-.35.54s0,.57,0,2v1.66c0,.92,0,1.66,0,2.07,0,.26.09.43.38.46a4,4,0,0,0,.48,0c.1,0,.15,0,.15.08s-.08.09-.18.09c-.62,0-1.22,0-1.48,0l-1.19,0c-.12,0-.19,0-.19-.09s0-.08.15-.08a1.54,1.54,0,0,0,.34,0c.19,0,.25-.2.27-.47s0-1.14,0-2.06Z"/>
    <path class="eab638e6-fee7-459e-b251-cdc3e4226a87" d="M36.77,48.77c0,.74.14,1,.33,1a1.5,1.5,0,0,0,.49.07c.1,0,.16,0,.16.08s-.09.09-.22.09c-.61,0-1,0-1.17,0s-.53,0-1,0c-.12,0-.21,0-.21-.09s.06-.08.15-.08a1.68,1.68,0,0,0,.43,0c.25-.08.28-.35.29-1.17l.09-5.6c0-.19,0-.32.12-.32s.19.12.35.29,1.55,1.66,2.93,3c.64.64,1.92,2,2.08,2.16h0L41.53,44c0-.58-.09-.76-.32-.85a1.54,1.54,0,0,0-.5-.06c-.11,0-.15,0-.15-.09s.1-.09.25-.09c.49,0,.95,0,1.14,0s.46,0,.93,0c.12,0,.22,0,.22.09s-.06.09-.17.09a1,1,0,0,0-.28,0c-.26.08-.34.27-.35.8l-.1,6c0,.21,0,.29-.12.29s-.22-.1-.32-.21c-.6-.57-1.81-1.81-2.79-2.78s-2.08-2.2-2.25-2.38h0Z"/>
    <path class="eab638e6-fee7-459e-b251-cdc3e4226a87" d="M45.25,48.77c0,.74.14,1,.33,1a1.5,1.5,0,0,0,.49.07c.1,0,.16,0,.16.08s-.09.09-.22.09c-.61,0-1,0-1.17,0s-.53,0-1,0c-.12,0-.21,0-.21-.09s.06-.08.15-.08a1.68,1.68,0,0,0,.43,0c.25-.08.28-.35.29-1.17l.09-5.6c0-.19,0-.32.12-.32s.19.12.35.29,1.55,1.66,2.93,3c.64.64,1.92,2,2.08,2.16h0L50,44c0-.58-.09-.76-.32-.85a1.55,1.55,0,0,0-.5-.06c-.11,0-.15,0-.15-.09s.1-.09.25-.09c.49,0,.95,0,1.14,0s.46,0,.93,0c.12,0,.22,0,.22.09s-.06.09-.17.09a1,1,0,0,0-.28,0c-.26.08-.34.27-.35.8l-.1,6c0,.21,0,.29-.12.29s-.22-.1-.32-.21c-.6-.57-1.81-1.81-2.79-2.78s-2.08-2.2-2.25-2.38h0Z"/>
    <path class="eab638e6-fee7-459e-b251-cdc3e4226a87" d="M53.2,45.64c0-1.44,0-1.7,0-2s-.09-.47-.41-.54a2,2,0,0,0-.37,0c-.1,0-.16,0-.16-.09s.07-.09.21-.09h.77l.6,0h2.36l.41-.06a.89.89,0,0,1,.15,0s.06,0,.06.09a6,6,0,0,0-.08.61c0,.09,0,.51,0,.62s0,.1-.09.1-.09,0-.09-.13a1,1,0,0,0-.06-.34c-.07-.17-.16-.28-.63-.34-.16,0-1.15,0-1.34,0s-.07,0-.07.09v2.39c0,.07,0,.1.07.1.21,0,1.3,0,1.51,0a.66.66,0,0,0,.45-.14c.07-.08.1-.12.15-.12s.07,0,.07.08,0,.21-.08.69c0,.19,0,.57,0,.63s0,.18-.09.18a.07.07,0,0,1-.09-.09,2.47,2.47,0,0,0,0-.34c0-.19-.18-.33-.53-.37-.18,0-1.12,0-1.34,0,0,0-.06,0-.06.09v.75c0,.32,0,1.19,0,1.47,0,.65.17.79,1.13.79a2.4,2.4,0,0,0,.89-.11c.25-.11.36-.31.43-.7,0-.1,0-.14.1-.14s.08.08.08.17a7.41,7.41,0,0,1-.12,1c-.07.25-.15.25-.51.25-.71,0-1.23,0-1.64,0l-1,0h-.54l-.65,0c-.12,0-.19,0-.19-.09s0-.08.15-.08a1.54,1.54,0,0,0,.34,0c.19,0,.24-.25.27-.52s0-1.14,0-2Z"/>
    <path class="eab638e6-fee7-459e-b251-cdc3e4226a87" d="M58.7,45.64c0-1.44,0-1.7,0-2s-.09-.47-.41-.54a2,2,0,0,0-.37,0c-.1,0-.16,0-.16-.09s.07-.09.21-.09c.5,0,1.1,0,1.3,0l1.33,0a3,3,0,0,1,1.74.41A1.64,1.64,0,0,1,63,44.6a2.65,2.65,0,0,1-1.25,2.12c.84,1.06,1.49,1.9,2.05,2.49a1.88,1.88,0,0,0,1.06.64l.26,0c.08,0,.11,0,.11.08s-.07.09-.18.09h-.9a1.92,1.92,0,0,1-1-.18,4.56,4.56,0,0,1-1.3-1.39c-.38-.52-.81-1.16-.94-1.3a.2.2,0,0,0-.17-.07l-.82,0s-.08,0-.08.08v.13c0,.88,0,1.63,0,2s.09.48.37.52l.46,0c.08,0,.11,0,.11.08s-.07.09-.19.09c-.55,0-1.25,0-1.39,0l-1.15,0c-.12,0-.19,0-.19-.09s0-.08.15-.08a1.53,1.53,0,0,0,.34,0c.19,0,.24-.25.27-.52s0-1.14,0-2Zm1.12.75c0,.1,0,.14.09.17a2.49,2.49,0,0,0,.72.09,1,1,0,0,0,.67-.16,1.67,1.67,0,0,0,.56-1.42,1.51,1.51,0,0,0-1.45-1.73,2.07,2.07,0,0,0-.5,0c-.07,0-.09.06-.09.13Z"/>
    <g>
      <path class="8bc617c6-5e20-4c4a-a76b-aad6ea6408d3" d="M42.94,61.78h0Z"/>
      <g>
        <path class="f2511b5f-fbfc-4200-9748-8eb14a31672c" d="M42.93,58.45H40.45l.27.25a.47.47,0,0,1,.17.36.87.87,0,0,1-.1.22s.36,1.33.47,1.64a8.81,8.81,0,0,1,.29,1.23,5.9,5.9,0,0,0,.73,1.75.46.46,0,0,0,.13-.26c0-.11,0-.26,0-.26s-.05-.29-.1-.47a1.16,1.16,0,0,1,.1-.83.74.74,0,0,1,.55-.29h0a.69.69,0,0,1,.55.29,1.16,1.16,0,0,1,.1.83c-.05.18-.1.47-.1.47s0,.15,0,.26a.46.46,0,0,0,.13.26,5.9,5.9,0,0,0,.73-1.75,8.85,8.85,0,0,1,.29-1.23c.1-.31.47-1.64.47-1.64a.86.86,0,0,1-.1-.22.47.47,0,0,1,.17-.36l.27-.25H42.93Z"/>
        <path class="f2511b5f-fbfc-4200-9748-8eb14a31672c" d="M41.91,66.89h0C41.92,67,41.91,66.79,41.91,66.89Z"/>
        <path class="f2511b5f-fbfc-4200-9748-8eb14a31672c" d="M44.05,66.9h0C44.05,66.79,44,67,44.05,66.9Z"/>
        <path class="f2511b5f-fbfc-4200-9748-8eb14a31672c" d="M43,51.62l-6.47,8.74L43,69.08l6.47-8.71Zm3.31,6.84a3.38,3.38,0,0,0-.39.69c-.17.6-.47,2.55-.5,2.74s0,.65-.09.83,0,.15-.09.42a30.15,30.15,0,0,0-1.17,3.74v0L43,68.36l-1.07-1.44v0a30.27,30.27,0,0,0-1.17-3.74c-.07-.26,0-.23-.09-.42s-.07-.65-.09-.83-.33-2.14-.5-2.74a3.4,3.4,0,0,0-.39-.69.4.4,0,0,1-.08-.2.45.45,0,0,1,0-.29.16.16,0,0,1,.23,0l.18.17L43,53.81l2.95,4.32.18-.17a.16.16,0,0,1,.23,0,.45.45,0,0,1,0,.29A.4.4,0,0,1,46.29,58.47Z"/>
      </g>
      <path class="8bc617c6-5e20-4c4a-a76b-aad6ea6408d3" d="M43,61.78h0Z"/>
    </g>
    <path class="f2511b5f-fbfc-4200-9748-8eb14a31672c" d="M16.62,34a21.63,21.63,0,0,0,1,6.53h50.7a21.67,21.67,0,0,0-.11-13.41H17.74A21.63,21.63,0,0,0,16.62,34Z"/>
    <g>
      <path class="ad5523fc-02e2-4ce5-abac-f6f5243d69d7" d="M23.38,36.78l1.17-1.55a3.68,3.68,0,0,0,2.46,1c.56,0,.87-.22.87-.58v0c0-.35-.25-.54-1.28-.81-1.61-.41-2.86-.91-2.86-2.65v0a2.66,2.66,0,0,1,2.93-2.7,4.47,4.47,0,0,1,3.12,1.12l-1.05,1.65a3.56,3.56,0,0,0-2.12-.83c-.51,0-.76.24-.76.54v0c0,.39.26.55,1.31.82,1.74.42,2.83,1,2.83,2.62v0c0,1.72-1.22,2.74-3.06,2.74A5,5,0,0,1,23.38,36.78Z"/>
      <path class="ad5523fc-02e2-4ce5-abac-f6f5243d69d7" d="M30.95,29.61h2.11V38H30.95Z"/>
      <path class="ad5523fc-02e2-4ce5-abac-f6f5243d69d7" d="M34.34,29.61h2.1V36h3.67v2H34.34Z"/>
      <path class="ad5523fc-02e2-4ce5-abac-f6f5243d69d7" d="M40.3,29.61h2.35l1.72,5.33,1.72-5.33H48.4l-3.08,8.48H43.37Z"/>
      <path class="ad5523fc-02e2-4ce5-abac-f6f5243d69d7" d="M49,29.61h6.1v2h-4v1.28h3.64v1.84H51.1V36h4.07v2H49Z"/>
      <path class="ad5523fc-02e2-4ce5-abac-f6f5243d69d7" d="M56.14,29.61h3.58a3.12,3.12,0,0,1,2.47.91,2.78,2.78,0,0,1,.67,2v0A2.68,2.68,0,0,1,61.3,35.1L63.11,38H60.69l-1.53-2.55h-.92V38h-2.1Zm3.49,4c.71,0,1.13-.39,1.13-1v0c0-.66-.43-1-1.14-1H58.24v2Z"/>
    </g>
  </g>
</svg>
