<svg id="Layer_1" data-name="Layer 1" xmlns="http://www.w3.org/2000/svg" width="193.1" height="40" viewBox="0 0 193.1 40"><defs><style>.cls-1{fill:#fff;}.cls-2{fill:#c22026;}.cls-3{fill:none;stroke:#fff;stroke-width:0.49px;}</style></defs><title>salary-logo-reversed</title><path class="cls-1" d="M143.4,35l-.6.7a5.8,5.8,0,0,1-4.1,1.6,5.4,5.4,0,0,1-4-1.7,5.7,5.7,0,0,1-1.7-4.1,5.3,5.3,0,0,1,1.7-4,5.8,5.8,0,0,1,4.2-1.6,5.4,5.4,0,0,1,4,1.7l.5.6V24.9a8.3,8.3,0,0,0-4.9-1.5,7.8,7.8,0,0,0-5.8,2.4,8.1,8.1,0,0,0-2.4,5.9,7.8,7.8,0,0,0,2.4,5.8,8.5,8.5,0,0,0,10.6.9Z"/><path class="cls-1" d="M160.2,26a8.3,8.3,0,0,0-6-2.4,7.8,7.8,0,0,0-5.8,2.4,8.1,8.1,0,0,0-2.4,5.9,7.8,7.8,0,0,0,2.4,5.8,8.5,8.5,0,0,0,11.8,0,7.7,7.7,0,0,0,2.4-5.7,7.9,7.9,0,0,0-2.5-5.9m-1.7,9.9a5.8,5.8,0,0,1-4.1,1.6,5.4,5.4,0,0,1-4-1.7,5.7,5.7,0,0,1-1.7-4.1,5.3,5.3,0,0,1,1.7-4,5.8,5.8,0,0,1,4.2-1.6,5.4,5.4,0,0,1,4,1.7,5.7,5.7,0,0,1,1.6,4.1,5.2,5.2,0,0,1-1.7,4"/><path class="cls-1" d="M186.1,39.5h-2.8V28.3a2,2,0,0,0-.9-1.6,3,3,0,0,0-1.8-.7,3.9,3.9,0,0,0-2.6,1.2,3.4,3.4,0,0,0-1.3,2.4v10h-2.8V29a2.9,2.9,0,0,0-1-2.2,3.2,3.2,0,0,0-2.3-.9,3.9,3.9,0,0,0-2.4,1,2.8,2.8,0,0,0-1.3,2V39.5h-2.6V24h2.6v2.7a6.1,6.1,0,0,1,1.7-2.1,4.3,4.3,0,0,1,2.7-.9,5.3,5.3,0,0,1,3.1.9,4.8,4.8,0,0,1,1.9,2.5,5.1,5.1,0,0,1,2.1-2.5,5.8,5.8,0,0,1,3.1-.9,5.1,5.1,0,0,1,3,1,3.9,3.9,0,0,1,1.7,2.6Z"/><path class="cls-2" d="M142.9,31.6a3.9,3.9,0,1,1-3.9-3.9,3.9,3.9,0,0,1,3.9,3.9"/><path class="cls-1" d="M0,29.9l2.7-6.4a18.4,18.4,0,0,0,3.1,1.7,6.4,6.4,0,0,0,2.4.6,2,2,0,0,0,1.2-.3,1,1,0,0,0,.4-.9q0-.8-1.8-1.1L7,23.2A8.6,8.6,0,0,1,2.7,21a5.3,5.3,0,0,1-1.3-3.8,6.5,6.5,0,0,1,2.7-5.4,11.5,11.5,0,0,1,7.2-2.1,20.6,20.6,0,0,1,4.2.4,16.6,16.6,0,0,1,3.8,1.2l-2.5,6.3a15.4,15.4,0,0,0-2.5-1.4,5.3,5.3,0,0,0-2-.5,1.9,1.9,0,0,0-1.1.3.9.9,0,0,0-.4.8q0,.8,2.4,1.3l.9.2a9.6,9.6,0,0,1,4.5,2.1A4.9,4.9,0,0,1,20,24.2,6.9,6.9,0,0,1,17.2,30a11.9,11.9,0,0,1-7.5,2.2,21.5,21.5,0,0,1-5-.6A21.7,21.7,0,0,1,0,29.9"/><path class="cls-1" d="M45.3,31.4v-21H35.6v2.8a9.2,9.2,0,0,0-3-2.6,7.5,7.5,0,0,0-3.5-.8A7.3,7.3,0,0,0,23,12.9a13.3,13.3,0,0,0-2.3,8.2,12.6,12.6,0,0,0,2.4,8,7.4,7.4,0,0,0,6.1,3.1,7.3,7.3,0,0,0,3.7-1,11,11,0,0,0,3.2-3v3.2ZM31.1,18.7a2.6,2.6,0,0,1,3.8,0,3.2,3.2,0,0,1,.7,2.2,3.2,3.2,0,0,1-.7,2.2,2.7,2.7,0,0,1-3.8,0,3.1,3.1,0,0,1-.7-2.2,3.2,3.2,0,0,1,.7-2.2"/><rect class="cls-1" x="48.7" width="10.2" height="31.41"/><path class="cls-1" d="M86.4,31.4v-21H76.7v2.8a9.2,9.2,0,0,0-3-2.6,7.5,7.5,0,0,0-3.5-.8A7.3,7.3,0,0,0,64,12.9a13.3,13.3,0,0,0-2.3,8.2,12.6,12.6,0,0,0,2.4,8,7.4,7.4,0,0,0,6.1,3.1,7.3,7.3,0,0,0,3.7-1,10.9,10.9,0,0,0,3.2-3v3.2ZM72.1,18.7a2.6,2.6,0,0,1,3.8,0,3.2,3.2,0,0,1,.7,2.2A3.1,3.1,0,0,1,76,23a2.7,2.7,0,0,1-3.8,0,3.1,3.1,0,0,1-.7-2.2,3.2,3.2,0,0,1,.7-2.2"/><path class="cls-1" d="M89.7,31.4v-21h9.9v3a9.2,9.2,0,0,1,2.9-2.7,7.3,7.3,0,0,1,3.6-.9h.7V20l-1.6-.7-1.3-.2a4.1,4.1,0,0,0-3,1.1,4,4,0,0,0-1.1,3v8.3Z"/><path class="cls-1" d="M116,28.8,107,9.6h11.1l1.6,5.4v.2a37.6,37.6,0,0,1,1.3,5.7L122,17l.6-2.1,1.5-5.2h10.5L121.8,39.1H110.9Z"/><path class="cls-1" d="M187.7,23V18.8h2.7l.5.4a1.2,1.2,0,0,1,.2.6,1.1,1.1,0,0,1-.3.8,1.3,1.3,0,0,1-.8.4l.4.3.5.7.5.8h-1l-.6-.9-.4-.6-.3-.2h-.6V23Zm.8-2.4h1.4l.2-.2a.5.5,0,0,0,.1-.3.5.5,0,0,0-.1-.3l-.3-.2h-1.3Z"/><ellipse class="cls-3" cx="189.5" cy="21" rx="3.4" ry="3.2"/></svg>