<svg xmlns="http://www.w3.org/2000/svg" viewBox="0 0 16 16"><defs><style>.cls-1{fill:#fff;}</style></defs><title>btn-down-arrow</title><g id="Layer_2" data-name="Layer 2"><g id="Layer_1-2" data-name="Layer 1"><path class="cls-1" d="M13.66,2.34a8,8,0,1,0,0,11.32A8,8,0,0,0,13.66,2.34ZM2.94,13.06a7.16,7.16,0,1,1,10.13,0A7.17,7.17,0,0,1,2.94,13.06Z"/><path class="cls-1" d="M7.56,11.68V4a.29.29,0,0,1,.59,0v7.65a.29.29,0,0,1-.59,0Z"/><path class="cls-1" d="M7.39,11.68V4a.46.46,0,1,1,.92,0v7.65a.46.46,0,0,1-.92,0ZM8,4a.12.12,0,1,0-.25,0v7.65a.12.12,0,0,0,.25,0Z"/><path class="cls-1" d="M4.63,8.75a.29.29,0,0,1,.5-.21l2.73,2.73,3-2.74a.29.29,0,0,1,.39.43L8.05,11.9a.29.29,0,0,1-.4,0L4.72,9A.29.29,0,0,1,4.63,8.75Z"/><path class="cls-1" d="M4.46,8.75a.46.46,0,0,1,.79-.33L7.87,11l2.9-2.63a.46.46,0,0,1,.33-.12.45.45,0,0,1,.32.15.46.46,0,0,1,0,.65L8.17,12a.46.46,0,0,1-.64,0L4.6,9.08A.46.46,0,0,1,4.46,8.75Zm6.74,0a.12.12,0,0,0,0-.08.13.13,0,0,0-.18,0L7.86,11.51,5,8.66a.12.12,0,0,0-.18,0,.13.13,0,0,0,0,.18l2.93,2.93a.12.12,0,0,0,.17,0l3.22-2.93A.12.12,0,0,0,11.2,8.75Z"/></g></g></svg>