<svg xmlns="http://www.w3.org/2000/svg" width="28" height="28" viewBox="0 0 28 28">
  <g id="icon-tab-salary-selected" transform="translate(-898.053 -777.239)">
    <circle id="Ellipse_1" data-name="Ellipse 1" cx="14" cy="14" r="14" transform="translate(898.053 777.239)" fill="#007dbc"/>
    <g id="ic-salary">
      <path id="Path_16" data-name="Path 16" d="M912.419,790.85v-2.143a1.178,1.178,0,0,1,1.144.853l.625-.233a1.8,1.8,0,0,0-1.769-1.309v-.965h-.591v.977a1.594,1.594,0,0,0-1.41,1.628c0,.975.714,1.36,1.41,1.717v2.4a2.39,2.39,0,0,1-1.417-.933l-.371.557a2.492,2.492,0,0,0,1.788,1.056v.314h.005v.654h.586v-.986a1.638,1.638,0,0,0,1.513-1.7C913.932,791.615,913.146,791.206,912.419,790.85Zm-1.21-1.231a.866.866,0,0,1,.619-.878v1.8A1.055,1.055,0,0,1,911.209,789.619Zm1.21,4.132V791.7a1.26,1.26,0,0,1,.722,1.1A.9.9,0,0,1,912.419,793.751Z" fill="#fff"/>
      <path id="Path_17" data-name="Path 17" d="M905.053,791.239a7,7,0,1,0,7-7A7,7,0,0,0,905.053,791.239Zm13.411,0a6.411,6.411,0,1,1-6.411-6.411A6.411,6.411,0,0,1,918.464,791.239Z" fill="#fff"/>
    </g>
  </g>
</svg>
