<svg xmlns="http://www.w3.org/2000/svg" width="28" height="28" viewBox="0 0 28 28">
  <g id="icon-tab-benefits-selected" transform="translate(-898.108 -776.627)">
    <circle id="Ellipse_2" data-name="Ellipse 2" cx="14" cy="14" r="14" transform="translate(898.108 776.627)" fill="#007dbc"/>
    <g id="Group_1" data-name="Group 1">
      <path id="Path_18" data-name="Path 18" d="M918.439,797.85H905.774a.666.666,0,0,1-.666-.665V787.178a.666.666,0,0,1,.666-.666h12.665a.668.668,0,0,1,.669.669v10A.668.668,0,0,1,918.439,797.85Zm-.269-10.4H906.046v9.463H918.17Z" fill="#fff"/>
      <path id="Path_19" data-name="Path 19" d="M905.774,786.512H909.2l7.224-1.965v1.426l.916.011v-1.911a.668.668,0,0,0-.853-.642Z" fill="#fff"/>
      <path id="Path_20" data-name="Path 20" d="M912.378,791.837v-1.892a1.04,1.04,0,0,1,1.01.754l.552-.206a1.6,1.6,0,0,0-1.562-1.157v-.852h-.522v.863a1.409,1.409,0,0,0-1.246,1.438c0,.861.631,1.2,1.246,1.516v2.123a2.116,2.116,0,0,1-1.252-.824l-.328.491a2.2,2.2,0,0,0,1.58.934v.276h0v.578h.518v-.87a1.448,1.448,0,0,0,1.336-1.5C913.714,792.513,913.02,792.152,912.378,791.837Zm-1.069-1.086a.765.765,0,0,1,.547-.776v1.588A.932.932,0,0,1,911.309,790.751Zm1.069,3.648v-1.812a1.115,1.115,0,0,1,.637.973A.8.8,0,0,1,912.378,794.4Z" fill="#fff"/>
    </g>
  </g>
</svg>
