<svg id="Layer_1" data-name="Layer 1" xmlns="http://www.w3.org/2000/svg" viewBox="0 0 149.27 44"><defs><style>.cls-1{fill:#fdfdfe;}.cls-2{fill:#53047e;}.cls-3{fill:#b191c5;}.cls-4{fill:#4d4d4d;}.cls-5{fill:#530a7c;}.cls-6{fill:#581c7b;}</style></defs><title>logo-christus</title><g id="t2aoVY.tif"><path class="cls-1" d="M95.75,19.41l-.17-.16,0,.08,0-.08L95.34,19h0l-.15-.19h0l-.32-.42v0l0,0-.14-.2h0a5.11,5.11,0,0,0-.86-1.34h0l-1-1.74a3.67,3.67,0,0,0,2.49-2.21c.68-2-.61-3.78-2.94-4.11s-4.86.06-7.28-.13c-.21,0-.4,0-.41.29s.22.34.45.36a1.14,1.14,0,0,1,1.17,1.32q0,4.4,0,8.8a1.13,1.13,0,0,1-1.11,1.3c-.24,0-.55,0-.51.37s.3.27.51.27h4.7c.22,0,.54.11.54-.31s-.27-.3-.48-.32c-.83-.07-1.15-.56-1.14-1.34,0-1.12,0-2.24,0-3.35,0-.46.17-.54.58-.56,1.08-.05,1.36.81,1.82,1.49h0a1.94,1.94,0,0,0,.42.74h0a1.39,1.39,0,0,0,.35.67h0a3.61,3.61,0,0,0,.84,1.35h0l.17.18h0l.17.2h0a2.07,2.07,0,0,0,1.21.83l.06,0a1.79,1.79,0,0,0,.92.32,66.5,66.5,0,0,0,6.86.1c.33,0,1,.34,1-.31s-.66-.25-1-.33l-.08,0-.3-.34a5.65,5.65,0,0,1-.2-1.81q0-3.76,0-7.53a3.17,3.17,0,0,1,.25-1.38l.11-.11a2.35,2.35,0,0,1,1-.27c.24,0,.35-.13.33-.37s-.17-.26-.35-.26h-5c-.22,0-.39,0-.4.31s.16.29.37.35c1.19.3,1.25.38,1.25,1.57,0,2.71,0,5.41,0,8.12A2.74,2.74,0,0,1,98.87,20a.05.05,0,0,0,0,.07.63.63,0,0,0-.33.4h0c-.14,0-.3,0-.34.19l-.14,0a1.21,1.21,0,0,0-.67-.17.08.08,0,0,0-.1,0l-.89-.5-.17-.14-.26-.23h0l-.17-.16-.05,0Zm10.88,0a.13.13,0,0,0-.08-.13l-.43-.67-.17-.26,0,0,0,0a.42.42,0,0,0-.5-.5c-.4,0-.25.36-.27.58s0,.67,0,1c0,1.53,0,1.58,1.51,1.84A9,9,0,0,0,112,21h.05l0,0c.12,0,.16-.06.19-.16h0a.79.79,0,0,0,.67-.32,2.11,2.11,0,0,0,.9-.94l0,0a3.11,3.11,0,0,0-.31-3.82l0,0-.47-.46,0,0a1.63,1.63,0,0,0-.68-.45l0,.06v-.06a1.86,1.86,0,0,0-.85-.5l0,0,0,0a.88.88,0,0,0-.55-.28.06.06,0,0,0-.09,0,4.21,4.21,0,0,0-1.41-.67h0l-1.19-.67h0l-.67-.52h0l-.36-.5h0a2.68,2.68,0,0,1,0-1.33h0l.21-.32h0a2.69,2.69,0,0,1,2.17-.84,6,6,0,0,1,2.3.64h0l.69.66.14.18.18.34h0a6.19,6.19,0,0,1,.15.8c0,.26.08.39.38.39s.42-.14.42-.44a2.67,2.67,0,0,1,.32-1.17l-.06,0,.06,0,.59-.57h0a9.79,9.79,0,0,1,3.86-.35l.06.34q0,4.7,0,9.41l0,.33-.24.65h0a1.92,1.92,0,0,1-1,.37c-.26,0-.44.08-.41.38s.25.26.44.26h4.86c.23,0,.47,0,.46-.33s-.2-.27-.4-.31c-1-.24-1.24-.46-1.24-1.53,0-2.4,0-4.81,0-7.21,0-.77-.35-1.83.15-2.24s1.49-.11,2.27-.13a2.76,2.76,0,0,1,2.42.87h0l.39,1.33,0,1.18c0,1.28-.08,2.57,0,3.85a4.12,4.12,0,0,0,1.11,2.9h0a.85.85,0,0,0,.52.51h0a1.12,1.12,0,0,0,.7.48l0,0h0a6.87,6.87,0,0,0,4.49.72l0,0h0a4.31,4.31,0,0,0,4.26-4,65.22,65.22,0,0,0,.17-6.69c0-.78.22-1.38,1.13-1.47.21,0,.38-.06.38-.33s-.23-.33-.46-.33H135.7c-.19,0-.41,0-.44.26s.14.38.4.39a1.11,1.11,0,0,1,1.18,1.22c.09,2,.19,4.08.08,6.11-.15,2.62-1.45,4-3.87,4.22a6.68,6.68,0,0,1-2.14-.31h0l-.34-.18h0l-.19-.14a.06.06,0,0,0-.08,0L130.1,20h0l-.19-.17h0l-.18-.18h0a4.74,4.74,0,0,1-1-2.79,56.29,56.29,0,0,1,.11-7.09h0l.33-.35h0l.22-.12h0l.33,0c.23,0,.55,0,.54-.35s-.32-.3-.55-.31h-.5c-5.89-.06-11.77.28-17.66-.12l-.33,0a6.56,6.56,0,0,0-1.84,0l-.34,0a3.85,3.85,0,0,0-3.39,2.08h0a1,1,0,0,0-.15.19c-.83,1.84,0,3.49,2.19,4.52l0,0h.05a3.77,3.77,0,0,0,1.41.66h0a1.25,1.25,0,0,0,.69.32l0,0h0a1.49,1.49,0,0,0,.7.36h0a.89.89,0,0,0,.53.31h0l.2.15h0l.28.24h0l.2.16h0l.15.2,0-.07,0,.07.38.86,0,0,0,0-.36,1.14h0l-.17.2,0,0-.2.19a.08.08,0,0,0-.11,0c-.11,0-.16.05-.19.15l-.16.11a4.11,4.11,0,0,1-2.32.33c-.57-.07-1-.46-1.52-.58L107,19.8l-.21-.19,0,0-.18-.19ZM81.92,9.59l.18-.17h0c.21-.06.42-.13.64-.18s.55.06.54-.34-.38-.31-.62-.31c-1.33,0-2.67,0-4,0-.36,0-1-.3-1.06.25s.65.23.94.48a.79.79,0,0,1,.55.41l0,.17.11.26a26.93,26.93,0,0,0,0,3.69l-.1.26H72l-.09-.25a27.45,27.45,0,0,0,0-3.69l.18-.43a1.53,1.53,0,0,1,1.19-.52c.22,0,.28-.14.28-.33s-.11-.3-.31-.3H68.11c-.2,0-.31.08-.31.29s.09.27.28.34c1.31.45,1.33.47,1.33,1.87q0,3.89,0,7.79c0,1.32,0,1.38-1.32,1.78-.19.06-.28.14-.29.33s.1.3.31.3h5.11c.2,0,.32-.08.31-.29s-.06-.31-.28-.34-.59-.12-.89-.19L72,20l-.1-.34L72,15h7.06a35.48,35.48,0,0,1,0,5.2h0l-.33.35h0l-.23.11a.56.56,0,0,0-.16,0c-.25.14-.78-.18-.77.36s.5.3.77.31c1.3,0,2.61,0,3.91,0,.34,0,.92.25,1-.24.09-.69-.64-.24-.93-.46h0l-.22-.12-.17-.16-.15-.2v0c-.23-2.2-.07-4.41-.09-6.62a21.06,21.06,0,0,1,.09-3.76v0l.16-.2Zm59.82,10-.24-.26-.14-.18-.19-.33h0l-.14-.26v0l0,0c0-.25,0-.56-.35-.65h-.33s-.14,0-.14,0a5.52,5.52,0,0,0,.09,3c.28.53,1.45.42,2.25.51a2.49,2.49,0,0,0,.33,0l.67.09a6.81,6.81,0,0,0,1.83,0l.51-.11a3.11,3.11,0,0,0,1.86-.68c1.87-.7,2.06-4.26.49-5.35A18.27,18.27,0,0,0,146,14c-.94-.48-1.91-.93-2.81-1.47a1.66,1.66,0,0,1-1-1.84,1.93,1.93,0,0,1,1.61-1.41,3.38,3.38,0,0,1,4.3,2.4c.09.26.15.46.49.44s.3-.33.3-.55c0-.67,0-1.34,0-2,0-.5-.1-.74-.65-.84a16.71,16.71,0,0,0-3.5-.28,5.85,5.85,0,0,0-2.35.52,3.46,3.46,0,0,0-2.14,3,3.07,3.07,0,0,0,1.62,2.91,15.72,15.72,0,0,0,1.53.85c.92.47,1.88.86,2.76,1.39,1.42.85,1.55,1.81.52,3.1l-.51.34h0l-.49.19h0a4.89,4.89,0,0,1-2.69-.18.05.05,0,0,0-.08,0l-.25-.15h0l-.51-.33-.19-.16-.25-.25,0,0ZM27.85,13.86h-.29l-.67-.19A21.45,21.45,0,0,1,42.41,6.62a19.25,19.25,0,0,1,8,1.59c.54.23.66.13.65-.44q0-3,0-6A.72.72,0,0,0,50.49,1a16.62,16.62,0,0,0-4.57-1A18.11,18.11,0,0,0,31.64,5.43a22.75,22.75,0,0,0-4.94,7.5c0-3.17,0-6.35,0-9.52,0-.28.17-.61-.14-.85a1.17,1.17,0,0,0-.24-.05c-4.77,0-9.54,0-14.31,0-.66,0-.55.36-.55.74q0,5.27,0,10.55h0c-.17.14-.37.09-.56.09H.53a.15.15,0,0,0-.23,0c-.08.06-.24.12-.24.18,0,1.5,0,3,0,4.51,0,.28.19.37.41.45a23,23,0,0,0,11,1.48,8.31,8.31,0,0,0,1.17,0,24.48,24.48,0,0,0,9.37-3.36,17.43,17.43,0,0,0,4.12-3.24l.46-.29a1.8,1.8,0,0,1-.21,1A22.48,22.48,0,0,1,24,18.62c-.15.2-.35.36-.31.65-.28.05-.4.29-.56.47A20.33,20.33,0,0,1,7.87,27,20.17,20.17,0,0,1,.62,26c-.52-.17-.62-.07-.6.43,0,.81,0,1.62,0,2.43a3.54,3.54,0,0,0,.13,1.41c1.31,6.77,5.4,11,11.9,13.06,2.7.86,5.46.62,8.22.67a17.11,17.11,0,0,0,5.87-1.15c.28-.1.53-.19.52-.55-.05-2.26.12-4.52-.09-6.78a55.17,55.17,0,0,0,.06-5.59c0-.71.13-.94.9-.93,3.2,0,6.41,0,9.62,0,.3,0,.81.2.71-.46a4.5,4.5,0,0,0,.07-.58q0-7,0-14c-.06-.24-.19-.19-.35-.1a.2.2,0,0,0-.14.06l-8.54-.06A1.41,1.41,0,0,0,27.85,13.86Zm30,20.37c.78,0,1.57,0,2.35,0,.38,0,.56.08.55.51,0,1.17,0,2.35,0,3.52,0,.87-.34,1.45-1.29,1.51-.15,0-.39,0-.39.21s.25.25.43.25h4.36c.18,0,.44.07.46-.21s-.26-.25-.43-.27a1.18,1.18,0,0,1-1.16-1.36q0-4.53,0-9.06A1.13,1.13,0,0,1,63.83,28c.19,0,.45,0,.45-.27s-.29-.19-.46-.19H59.54c-.17,0-.46-.11-.49.16s.29.28.5.29a1.11,1.11,0,0,1,1.13,1.2c0,1.2,0,2.4.06,3.6,0,.44-.22.5-.57.5-1.54,0-3.08,0-4.61,0-.44,0-.59-.15-.58-.58,0-1.06,0-2.12,0-3.19,0-.84.24-1.5,1.24-1.54.17,0,.38,0,.38-.25s-.22-.2-.38-.2H51.71c-.13,0-.31,0-.33.16s.17.24.33.29c1.23.36,1.31.46,1.31,1.72q0,4.15,0,8.3c0,1.26-.1,1.37-1.25,1.71-.17,0-.46,0-.4.29s.31.18.49.18h4.28c.19,0,.47,0,.49-.19s-.3-.26-.49-.29A1.2,1.2,0,0,1,55,38.37c0-1.2,0-2.4,0-3.61,0-.48.21-.55.61-.54C56.34,34.25,57.09,34.23,57.85,34.23Zm8.42-16.46c-.47.5-.83,1-1.27,1.35-1.67,1.51-3.57,2.43-5.88,1.92-2.72-.59-4.6-3.09-4.81-6.23s1.39-5.66,4.3-6.3,6.34.48,6.89,3.31a.42.42,0,0,0,.48.36c.35,0,.32-.23.32-.45,0-.89,0-1.79,0-2.68,0-.37-.18-.46-.47-.56a20.89,20.89,0,0,0-3-.69,12.78,12.78,0,0,0-7.71.78A6.48,6.48,0,0,0,51,14.79a6.8,6.8,0,0,0,4.49,6.55,11.26,11.26,0,0,0,8.81-.28C66.82,19.92,66.29,20.46,66.27,17.77ZM97.54,39.91l.15.31h3.81a.23.23,0,0,0,.18-.12c0-.17-.08-.25-.23-.27-.84-.11-.88-.76-.89-1.38,0-1.45,0-2.91,0-4.36a2.45,2.45,0,0,0-1.21-2.41,2.81,2.81,0,0,0-3,.37c-.26.18-.5.39-.89.69,0-.47,0-.77,0-1.06,0-1.31,0-2.63,0-3.94,0-.22.11-.59-.34-.46-.75.21-1.5.45-2.24.69a.25.25,0,0,0-.2.31c0,.14.17.12.27.11.83-.1.91.43.91,1,0,2.66,0,5.31,0,8,0,1.06.37,2.33-1.31,2.71,1.38.12,2.67.12,4,.12.12,0,.21-.06.2-.2s-.11-.18-.23-.2c-.91-.11-1-.75-1-1.47,0-1.37,0-2.74,0-4.11a1.94,1.94,0,0,1,2-1.73c.92,0,1.38.44,1.43,1.56s.06,2.51.05,3.77C98.93,38.78,99.07,39.82,97.54,39.91ZM81.2,39c-1.14.36-1.3.24-1.3-1s0-2.69,0-4a2.27,2.27,0,0,0-1.28-2.28,4,4,0,0,0-3.55.19A2.39,2.39,0,0,0,74,33a1,1,0,0,0,.16,1.09.87.87,0,0,0,1,.18c.45-.18.48-.58.43-1s-.15-.62.07-.89a1.56,1.56,0,0,1,1.68-.46c.87.16.92.88.94,1.56s.16,1.06-.63,1.32a8.66,8.66,0,0,0-3.13,1.55,2.35,2.35,0,0,0-.62,3.14,2.26,2.26,0,0,0,3.09.42c.45-.25.87-.56,1.34-.86.17.86.57,1.35,1.45,1.24A1.56,1.56,0,0,0,81.2,39ZM69.14,35c.81,0,1.62,0,2.43,0,.39,0,.51-.09.49-.52a3.26,3.26,0,0,0-3.87-3c-2.88.51-4.34,4.2-2.79,7a3.53,3.53,0,0,0,5,1.36,5,5,0,0,0,1.83-2.13c.09-.19.29-.44.06-.59s-.36.15-.48.32a3,3,0,0,1-2.2,1.5c-1.92.14-3.25-1.24-3.36-3.44,0-.45.08-.6.53-.59C67.58,35,68.36,35,69.14,35ZM81.7,28c1.53.33,1.53.33,1.53,1.89,0,2.82,0,5.65,0,8.47,0,.77-.22,1.31-1.08,1.4-.16,0-.38,0-.37.24s.24.18.39.18h3.69c.15,0,.37.06.38-.19s-.17-.2-.31-.21c-1,0-1.08-.67-1.07-1.44,0-2.46,0-4.92,0-7.38,0-1.09,0-2.18,0-3.27,0-.21.11-.63-.29-.53C83.6,27.43,82.65,27.75,81.7,28ZM87,32.15c1.06.26,1.06.26,1.06,1.43,0,1.62,0,3.24,0,4.86s1,2.24,2.3,1.84a2.54,2.54,0,0,0,1.44-1.09c.09-.13.27-.27.09-.42s-.29.06-.41.14c-1,.7-1.7.41-1.76-.85s0-2.74,0-4.11c0-.53-.21-1.16.1-1.55s.89-.08,1.36-.13h.08c.19,0,.33,0,.32-.28s0-.4-.3-.39a5.9,5.9,0,0,0-.84,0c-.62.09-.77-.18-.72-.75s0-1.08,0-1.63l-.22-.08a15.24,15.24,0,0,1-2.46,2.78C87.07,32,87.06,32.07,87,32.15Zm19.7,6.75a2.2,2.2,0,0,0-2.15-2.21,2.19,2.19,0,1,0,2.15,2.21Z"/><path class="cls-2" d="M37.87,28.56c.1.67-.41.46-.71.46-3.21,0-6.41,0-9.62,0-.76,0-.9.22-.9.93a55.19,55.19,0,0,1-.06,5.59,27.45,27.45,0,0,1-5.82,1.76,28.93,28.93,0,0,1-9.32-.18c0-2.48,0-5,0-7.45,0-.52-.14-.65-.65-.65C7.26,29,3.72,29,.18,29L0,28.87c0-.81,0-1.62,0-2.43,0-.5.08-.6.6-.43a20.17,20.17,0,0,0,7.25,1,20.33,20.33,0,0,0,15.21-7.29c.16-.19.28-.42.56-.47a1,1,0,0,0,.61.22,17.18,17.18,0,0,1,3.61,1,19.79,19.79,0,0,1,9.42,7.6c.13.19.12.66.58.47Z"/><path class="cls-3" d="M37.87,28.56c-.46.18-.45-.29-.58-.47a19.79,19.79,0,0,0-9.42-7.6,17.18,17.18,0,0,0-3.61-1,1,1,0,0,1-.61-.22c0-.28.16-.45.31-.65a22.48,22.48,0,0,0,2.36-4.08,1.8,1.8,0,0,0,.21-1l.18-.65a22.75,22.75,0,0,1,4.94-7.5A18.11,18.11,0,0,1,45.92,0a16.62,16.62,0,0,1,4.57,1,.72.72,0,0,1,.57.79q0,3,0,6c0,.57-.12.67-.65.44a19.25,19.25,0,0,0-8-1.59,21.45,21.45,0,0,0-15.54,7.06l.67.19-.79.13a1.53,1.53,0,0,0,.77.46,20.64,20.64,0,0,1,9.91,11.92Z"/><path class="cls-3" d="M0,28.87.18,29a12.1,12.1,0,0,0,4.65,5.43,18.66,18.66,0,0,0,6.62,2.64,28.93,28.93,0,0,0,9.32.18,27.45,27.45,0,0,0,5.82-1.76c.21,2.26,0,4.52.09,6.78,0,.35-.24.45-.52.55A17.11,17.11,0,0,1,20.28,44c-2.75-.05-5.52.19-8.22-.67C5.57,41.26,1.48,37,.17,30.27A3.54,3.54,0,0,1,0,28.87Z"/><path class="cls-2" d="M26.7,12.93l-.18.65-.46.29a16.06,16.06,0,0,0-6.77-1.54,19.84,19.84,0,0,0-7.51,1.35,2,2,0,0,1-.2-1.05c0-3,0-5.93,0-8.89,0-.82.26-1,1.06-1,4.33,0,8.67,0,13,0,.3,0,.62.1.89-.13.3.24.13.57.14.85C26.68,6.59,26.69,9.76,26.7,12.93Z"/><path class="cls-3" d="M11.78,13.68a19.84,19.84,0,0,1,7.51-1.35,16.06,16.06,0,0,1,6.77,1.54,17.43,17.43,0,0,1-4.12,3.24,24.48,24.48,0,0,1-9.37,3.36,8.31,8.31,0,0,1-1.17,0V13.77h0A.38.38,0,0,0,11.78,13.68Z"/><path class="cls-2" d="M11.42,13.77v6.72A23,23,0,0,1,.44,19c-.22-.08-.41-.17-.41-.45,0-1.5,0-3,0-4.51,0-.06.16-.12.24-.18a.15.15,0,0,0,.23,0H10.86C11.05,13.86,11.26,13.91,11.42,13.77Z"/><path class="cls-4" d="M57.85,34.23c-.75,0-1.51,0-2.26,0-.39,0-.62.05-.61.54,0,1.2,0,2.4,0,3.61a1.2,1.2,0,0,0,1.14,1.38c.18,0,.53-.06.49.29s-.31.19-.49.19H51.86c-.18,0-.44.08-.49-.18s.23-.24.4-.29C52.91,39.42,53,39.31,53,38q0-4.15,0-8.3c0-1.26-.08-1.36-1.31-1.72-.16,0-.36-.06-.33-.29s.2-.16.33-.16h4.53c.16,0,.38,0,.38.2s-.21.24-.38.25c-1,0-1.24.7-1.24,1.54,0,1.06,0,2.12,0,3.19,0,.44.14.59.58.58,1.54,0,3.08,0,4.61,0,.35,0,.59-.05.57-.5,0-1.2,0-2.4-.06-3.6A1.11,1.11,0,0,0,59.55,28c-.2,0-.52,0-.5-.29s.31-.16.49-.16h4.28c.17,0,.45-.11.46.19S64,28,63.83,28a1.13,1.13,0,0,0-1.11,1.3q0,4.53,0,9.06a1.18,1.18,0,0,0,1.16,1.36c.16,0,.45,0,.43.27s-.29.21-.46.21H59.47c-.19,0-.44,0-.43-.25s.24-.2.39-.21c1-.06,1.29-.63,1.29-1.51,0-1.17,0-2.35,0-3.52,0-.43-.17-.52-.55-.51C59.41,34.25,58.63,34.23,57.85,34.23Z"/><path class="cls-5" d="M66.27,17.77c0,2.69.55,2.15-1.92,3.29a11.26,11.26,0,0,1-8.81.28A6.8,6.8,0,0,1,51,14.79a6.48,6.48,0,0,1,4.07-6.2,12.78,12.78,0,0,1,7.71-.78,20.89,20.89,0,0,1,3,.69c.29.1.48.19.47.56,0,.89,0,1.79,0,2.68,0,.23,0,.45-.32.45a.42.42,0,0,1-.48-.36C64.95,9,61.41,7.9,58.61,8.52s-4.51,3.06-4.3,6.3,2.09,5.64,4.81,6.23c2.31.5,4.21-.41,5.88-1.92C65.43,18.74,65.8,18.28,66.27,17.77Z"/><path class="cls-2" d="M130.34,20.13a.06.06,0,0,1,.08,0l.19.14h0a.29.29,0,0,0,.34.18h0c.27.65.84.5,1.35.52s.92-.14,1.11.45h0l0,0c-1.06-.1-2.12-.21-3.17-.39-.46-.08-.82-.51-1.32-.33h0l0,0c0-.44-.32-.53-.7-.48h0c0-.35-.16-.53-.52-.51h0c.08-.69-.55-1.1-.67-1.75a32.93,32.93,0,0,1-.15-4.22c0-.28.15-.64-.27-.78l0-1.18c.17-.53.3-1.05-.39-1.33h0c.07-.56-.33-.7-.74-.85a12.27,12.27,0,0,0-3.64-.35c-.7,0-.84.24-.83.87,0,2.54,0,5.08,0,7.63,0,1.12-.17,2.27.91,3.27-1.05,0-1.89,0-2.72,0-.59,0-.76-.17-.56-.71h0c.5-.07.4-.35.24-.65l0-.33c.34-.09.27-.38.27-.62q0-4.09,0-8.18c0-.24.07-.52-.27-.62l-.06-.34c0-.18-.12-.32-.32-.31a8.52,8.52,0,0,0-2.86.18c-.25.1-.65.05-.68.48h0c-.34,0-.6.18-.59.57l-.06,0,.06,0c-.77.15-.26,1-.79,1.36-.22-.29-.12-.73-.48-.93h0a.29.29,0,0,0-.18-.34l-.14-.18c-.07-.39-.19-.72-.69-.66h0c0-.32-.25-.41-.48-.48a4.34,4.34,0,0,0-1.74-.37c-.29,0-.64.07-.62-.41l.34,0a3,3,0,0,0,1.84,0l.33,0a2.45,2.45,0,0,0,1.69.43h15.19c.35,0,.82-.19,1,.38h0l-.22.12h0a.3.3,0,0,0-.33.35h0c-.36,0-.34.29-.34.55,0,2.39-.07,4.78,0,7.16,0,.79.13,1.8,1.16,2.17h0l.18.18h0l.19.17h0Z"/><path class="cls-5" d="M91.22,16.91c-.46-.67-.74-1.54-1.82-1.49-.42,0-.6.1-.58.56,0,1.12,0,2.24,0,3.35,0,.78.31,1.27,1.14,1.34.21,0,.48,0,.48.32s-.32.31-.54.31H85.2c-.21,0-.48.07-.51-.27s.26-.35.51-.37a1.13,1.13,0,0,0,1.11-1.3q0-4.4,0-8.8a1.14,1.14,0,0,0-1.17-1.32c-.23,0-.47,0-.45-.36s.2-.3.41-.29c2.42.2,4.86-.21,7.28.13s3.63,2.11,2.94,4.11A3.67,3.67,0,0,1,92.83,15l1,1.74a2.81,2.81,0,0,1-1.35-1.67h0a1.5,1.5,0,0,0-1.75.2.19.19,0,0,0,.08.28C91.37,15.92,91.16,16.45,91.22,16.91ZM90,14.81c1.61,0,2.59-.55,2.83-1.67a3.14,3.14,0,0,0-3.43-3.93c-.43,0-.57.17-.57.6,0,1.29,0,2.57,0,3.86C88.82,14.79,88.82,14.79,90,14.81Z"/><path class="cls-2" d="M37.44,26.37a20.64,20.64,0,0,0-9.91-11.92c.11-.51.52-.32.81-.33h8.25c.29,0,.62.12.85-.19a.2.2,0,0,1,.14-.06l.18.1q0,5.84,0,11.67C37.77,25.91,37.91,26.28,37.44,26.37Z"/><path class="cls-5" d="M142.92,20.47a.05.05,0,0,1,.08,0,2.27,2.27,0,0,0,2.69.18h0c.19,0,.38,0,.49-.19h0a.46.46,0,0,0,.51-.34c1-1.29.9-2.24-.52-3.1-.88-.53-1.84-.92-2.76-1.39a15.72,15.72,0,0,1-1.53-.85,3.07,3.07,0,0,1-1.62-2.91,3.46,3.46,0,0,1,2.14-3,5.85,5.85,0,0,1,2.35-.52,16.71,16.71,0,0,1,3.5.28c.54.1.67.34.65.84,0,.67,0,1.34,0,2,0,.22.12.52-.3.55s-.41-.18-.49-.44a3.38,3.38,0,0,0-4.3-2.4,1.93,1.93,0,0,0-1.61,1.41,1.66,1.66,0,0,0,1,1.84c.91.54,1.87,1,2.81,1.47a18.27,18.27,0,0,1,2.2,1.36c1.57,1.1,1.38,4.65-.49,5.35a10.9,10.9,0,0,0-1.86.68l-.51.11a3,3,0,0,0-1.83,0l-.67-.09a3.08,3.08,0,0,0-1.56-.37c-.63,0-1-.22-1-1s0-1.44,0-2.17h.33a.59.59,0,0,0,.35.65l0,0v0l.14.26h0a.3.3,0,0,0,.19.33l.14.18c0,.15,0,.28.24.26l0,0,0,0c0,.19.1.23.25.25l.19.16a.49.49,0,0,0,.51.33h0Z"/><path class="cls-4" d="M97.54,39.91c1.52-.09,1.38-1.14,1.39-2.07,0-1.26,0-2.52-.05-3.77s-.51-1.6-1.43-1.56a1.94,1.94,0,0,0-2,1.73c0,1.37,0,2.74,0,4.11,0,.72.05,1.37,1,1.47.11,0,.22.06.23.2s-.09.2-.2.2c-1.29,0-2.59,0-4-.12,1.69-.38,1.31-1.65,1.31-2.71,0-2.66,0-5.31,0-8,0-.62-.08-1.15-.91-1-.11,0-.23,0-.27-.11a.25.25,0,0,1,.2-.31c.74-.24,1.49-.48,2.24-.69.45-.13.34.24.34.46,0,1.31,0,2.63,0,3.94,0,.3,0,.6,0,1.06.39-.3.63-.51.89-.69a2.81,2.81,0,0,1,3-.37,2.45,2.45,0,0,1,1.21,2.41c0,1.45,0,2.91,0,4.36,0,.62.05,1.27.89,1.38.15,0,.27.1.23.27a.23.23,0,0,1-.18.12H97.7Z"/><path class="cls-5" d="M72.36,20.49c.3.06.59.14.89.19s.28.15.28.34-.12.29-.31.29H68.1c-.2,0-.31-.09-.31-.3s.09-.27.29-.33c1.28-.4,1.32-.46,1.32-1.78q0-3.89,0-7.79c0-1.39,0-1.42-1.33-1.87-.19-.07-.28-.15-.28-.34s.11-.29.31-.29h5.11c.2,0,.31.09.31.3s-.06.33-.28.33a1.53,1.53,0,0,0-1.19.52c-.21.08-.22.25-.18.43a27.47,27.47,0,0,1,0,3.69l.09.25h7.15l.12,0h0c0,.23.07.5-.18.67H72.88c-.29,0-.62-.11-.87.16h0a.8.8,0,0,0-.28.66c0,1.29,0,2.58,0,3.88,0,.06.11.11.17.16L72,20C71.78,20.41,72.07,20.45,72.36,20.49Z"/><path class="cls-4" d="M81.2,39a1.56,1.56,0,0,1-1.43,1.31c-.88.1-1.28-.38-1.45-1.24-.47.3-.89.61-1.34.86a2.26,2.26,0,0,1-3.09-.42,2.35,2.35,0,0,1,.62-3.14,8.66,8.66,0,0,1,3.13-1.55c.79-.26.66-.79.63-1.32s-.08-1.4-.94-1.56a1.56,1.56,0,0,0-1.68.46c-.21.27-.1.59-.07.89s0,.8-.43,1a.87.87,0,0,1-1-.18A1,1,0,0,1,74,33a2.39,2.39,0,0,1,1-1.16,4,4,0,0,1,3.55-.19,2.27,2.27,0,0,1,1.28,2.28c0,1.34,0,2.68,0,4S80.06,39.34,81.2,39Zm-2.9-2.24c0-.42,0-.83,0-1.25,0-.18,0-.45-.3-.33a4.42,4.42,0,0,0-2.55,1.76,1.46,1.46,0,0,0,.16,1.78,1.43,1.43,0,0,0,1.68.3,1.25,1.25,0,0,0,1-1.34C78.29,37.35,78.31,37,78.31,36.74Z"/><path class="cls-4" d="M69.14,35c-.78,0-1.56,0-2.35,0-.45,0-.55.14-.53.59.11,2.2,1.44,3.57,3.36,3.44a3,3,0,0,0,2.2-1.5c.12-.16.22-.49.48-.32s0,.41-.06.59a5,5,0,0,1-1.83,2.13,3.53,3.53,0,0,1-5-1.36c-1.55-2.84-.09-6.53,2.79-7a3.26,3.26,0,0,1,3.87,3c0,.43-.09.53-.49.52C70.76,34.94,70,35,69.14,35Zm-1-.68c.5,0,1,0,1.5,0s.45-.13.4-.5A1.67,1.67,0,0,0,68.5,32.2a1.89,1.89,0,0,0-2.09,1.5c-.15.43-.11.62.39.59S67.68,34.28,68.13,34.28Z"/><path class="cls-2" d="M79.06,14.79c.25-.17.14-.44.18-.67A36.37,36.37,0,0,0,79.53,10c0-.25-.27-.21-.46-.23a.79.79,0,0,0-.55-.41c0-.36.28-.43.59-.43h3.36l-.38.52h0l-.18.17h0l-.16.19v0a.9.9,0,0,0-.36.87q0,4.38,0,8.76c0,.31,0,.63.37.75v0l.15.2.17.16.22.12h0c.09.22.25.43-.22.42-1,0-2,0-3,0a.6.6,0,0,1-.34-.34v-.17h0a.29.29,0,0,0,.33-.35h0c.3,0,.35-.21.35-.46q0-2.13,0-4.25c0-.24,0-.45-.33-.48h0Q79.06,14.87,79.06,14.79Z"/><path class="cls-2" d="M98,20.67l.14,0c.15,0,.29,0,.34-.19h0c.28,0,.37-.15.33-.4a.05.05,0,0,1,0-.07c.56-.28.49-.8.49-1.29,0-2.6,0-5.19,0-7.79a2.63,2.63,0,0,0-.22-1.3c-.21-.4-.15-.71.41-.7s1.34,0,2,0,.43.28.35.6l-.11.11c-.42.07-.42.38-.42.7q0,4.63,0,9.26c0,.32,0,.62.37.76l.3.34a.35.35,0,0,1-.39.33H98.42A.35.35,0,0,1,98,20.67Z"/><path class="cls-2" d="M110,16.33h0l0,0c-.07-.46-.42-.31-.69-.32h0a1.61,1.61,0,0,0-1.41-.66h-.05l0,0a2.79,2.79,0,0,0-1-1,2.26,2.26,0,0,1-1-2.64,4.15,4.15,0,0,0,0-1.07h0c.41,0,.44-.46.72-.59s.68-.71,1,0h0c-.2,0-.22.16-.21.32h0a.8.8,0,0,0,0,1.33h0a.45.45,0,0,0,.36.5h0c0,.47.29.54.67.52h0c0,1,.69.62,1.19.67h0a1.69,1.69,0,0,0,1.41.67.06.06,0,0,1,.09,0c0,.37.29.34.55.28l0,0,0,0c.07.53.38.65.85.5v.06l0-.06c0,.5.28.57.68.45l0,0c-.13.44,0,.61.47.46l0,0c-.2.28.05.46.16.67a2.67,2.67,0,0,1,.14,2.6.58.58,0,0,0,0,.56l0,0c-.79-.34-.63.47-.91.75-.37,0-.66.06-.66.52h0l-.19.16,0,0H112c-.3-.14-1,.29-.77-.59l.16-.11.19-.15a.08.08,0,0,1,.11,0l.2-.19,0,0a.19.19,0,0,0,.17-.2h0c.63-.22.67-.62.36-1.14l0,0,0,0c0-.34.2-.77-.38-.86l0-.07,0,.07a.15.15,0,0,0-.15-.2h0a.16.16,0,0,0-.2-.16h0c0-.2-.13-.23-.28-.24h0l-.2-.15h0c0-.4-.26-.37-.53-.31h0C110.74,16.1,110.31,16.36,110,16.33Z"/><path class="cls-4" d="M81.7,28c1-.29,1.9-.61,2.87-.84.4-.1.29.32.29.53,0,1.09,0,2.18,0,3.27,0,2.46,0,4.92,0,7.38,0,.77.1,1.42,1.07,1.44.14,0,.31,0,.31.21s-.23.19-.38.19H82.18c-.15,0-.38.07-.39-.18s.21-.22.37-.24c.85-.09,1.08-.63,1.08-1.4,0-2.82,0-5.65,0-8.47C83.23,28.37,83.22,28.37,81.7,28Z"/><path class="cls-4" d="M87,32.15c0-.08,0-.18.09-.22a15.24,15.24,0,0,0,2.46-2.78l.22.08c0,.54,0,1.09,0,1.63s.1.84.72.75a5.9,5.9,0,0,1,.84,0c.28,0,.3.18.3.39s-.14.28-.32.28h-.08c-.46.05-1.08-.22-1.36.13s-.09,1-.1,1.55c0,1.37-.06,2.74,0,4.11s.72,1.55,1.76.85c.13-.09.24-.3.41-.14s0,.29-.09.42a2.54,2.54,0,0,1-1.44,1.09c-1.32.39-2.25-.32-2.3-1.84s0-3.24,0-4.86C88.09,32.41,88.09,32.41,87,32.15Z"/><path class="cls-6" d="M133.4,21.44c-.2-.59-.69-.43-1.11-.45s-1.08.13-1.35-.52a6.68,6.68,0,0,0,2.14.31c2.42-.23,3.72-1.6,3.87-4.22.11-2,0-4.08-.08-6.11a1.11,1.11,0,0,0-1.18-1.22c-.26,0-.43-.08-.4-.39s.25-.26.44-.26h3.18c.23,0,.46,0,.46.33s-.17.31-.38.33c-.9.08-1.1.68-1.13,1.47a65.22,65.22,0,0,1-.17,6.69A4.31,4.31,0,0,1,133.4,21.44Z"/><path class="cls-2" d="M92.49,15.12a2.81,2.81,0,0,0,1.35,1.67h0c-.06.67.07,1.21.86,1.34h0l.14.19,0,0v0a.42.42,0,0,0,.32.42h0l.15.19h0c0,.15,0,.29.25.26l0,.08,0-.08q0,.19.17.16l0,0,.05,0c0,.13,0,.18.17.16h0l-.08.23.07.22.09-.21h.17l.17.14v.36c0,.22.07.42.33.17l.57,0a.08.08,0,0,1,.1,0c.27.48,0,.49-.39.5a19.16,19.16,0,0,1-2.57-.14l-.06,0c-.12-.7-.39-1.16-1.21-.83h0l-.17-.2h0l-.17-.18h0c-.08-.57-.07-1.2-.84-1.35h0c0-.27.13-.63-.35-.67h0c-.11-.26.34-.84-.42-.74h0c-.06-.46.15-1-.39-1.31a.19.19,0,0,1-.08-.28,1.5,1.5,0,0,1,1.75-.2l-.17.17,0,.07,0-.07Z"/><path class="cls-6" d="M118.49,20.3c-.19.54,0,.74.56.71.83,0,1.67,0,2.72,0-1.09-1-.91-2.15-.91-3.27,0-2.54,0-5.08,0-7.63,0-.63.13-.9.83-.87a12.27,12.27,0,0,1,3.64.35c.41.15.81.29.74.85a2.76,2.76,0,0,0-2.42-.87c-.78,0-1.79-.26-2.27.13s-.15,1.47-.15,2.24c0,2.4,0,4.81,0,7.21,0,1.06.2,1.29,1.24,1.53.2,0,.39,0,.4.31s-.23.33-.46.33h-4.86c-.2,0-.41,0-.44-.26s.15-.39.41-.38A1.92,1.92,0,0,0,118.49,20.3Z"/><path class="cls-6" d="M101.92,9.5c.07-.31.17-.61-.35-.6s-1.34,0-2,0-.62.3-.41.7a2.63,2.63,0,0,1,.22,1.3c0,2.6,0,5.19,0,7.79,0,.49.07,1-.49,1.29a2.74,2.74,0,0,0,.18-1.06c0-2.71,0-5.41,0-8.12,0-1.19-.07-1.27-1.25-1.57-.21-.05-.38-.09-.37-.35s.19-.31.4-.31h5c.18,0,.33,0,.35.26s-.09.38-.33.37A2.35,2.35,0,0,0,101.92,9.5Z"/><path class="cls-6" d="M129.46,9.3c-.14-.57-.61-.38-1-.38H113.31a2.45,2.45,0,0,1-1.69-.43c5.88.4,11.77.06,17.66.12h.5c.23,0,.55-.09.55.31s-.31.32-.54.35Z"/><path class="cls-4" d="M106.73,38.89a2.17,2.17,0,0,1-2.19,2.17,2.19,2.19,0,1,1,0-4.38A2.2,2.2,0,0,1,106.73,38.89ZM104.51,37a1.9,1.9,0,0,0,.09,3.8,1.94,1.94,0,0,0,1.79-1.94A1.91,1.91,0,0,0,104.51,37Z"/><path class="cls-5" d="M11.78,13.68a.38.38,0,0,1-.38.1q0-5.27,0-10.55c0-.38-.11-.74.55-.74,4.77,0,9.54,0,14.31,0a1.17,1.17,0,0,1,.24.05c-.27.23-.59.13-.89.13-4.34,0-8.67,0-13,0-.8,0-1.07.22-1.06,1,0,3,0,5.93,0,8.89A2,2,0,0,0,11.78,13.68Z"/><path class="cls-5" d="M111.27,20.43c-.27.88.47.45.77.59a9,9,0,0,1-5.37.23c-1.51-.27-1.51-.32-1.51-1.84,0-.33,0-.67,0-1s-.13-.56.27-.58a.42.42,0,0,1,.5.5c-.23-.09-.51-.26-.52.2a8.54,8.54,0,0,0,0,1.75c.14.74.81.69,1.4.73s.6-.4.59-.82c.53.12,1,.51,1.52.58A4.11,4.11,0,0,0,111.27,20.43Z"/><path class="cls-2" d="M107.43,20.18c0,.42.09.88-.59.82s-1.26,0-1.4-.73a8.54,8.54,0,0,1,0-1.75c0-.46.29-.29.52-.2l0,0,0,0,.17.26.43.67c-.07.11,0,.13.08.13h0l.18.19,0,0,.21.19Z"/><path class="cls-6" d="M94.39,20.87A19.16,19.16,0,0,0,97,21c.36,0,.66,0,.39-.5a1.21,1.21,0,0,1,.67.17.35.35,0,0,0,.4.33h3.24a.35.35,0,0,0,.39-.33l.08,0c.37.08,1-.23,1,.33s-.66.32-1,.31a66.5,66.5,0,0,1-6.86-.1A1.79,1.79,0,0,1,94.39,20.87Z"/><path class="cls-6" d="M81.78,20.14c-.39-.12-.37-.44-.37-.75q0-4.38,0-8.76a.9.9,0,0,1,.36-.87,21.06,21.06,0,0,0-.09,3.76C81.71,15.73,81.55,17.94,81.78,20.14Z"/><path class="cls-6" d="M118.73,9.92c.34.1.27.38.27.62q0,4.09,0,8.18c0,.24.07.52-.27.62Q118.73,14.62,118.73,9.92Z"/><path class="cls-6" d="M107.48,10c-.35-.69-.7-.13-1,0s-.31.6-.72.59a3.85,3.85,0,0,1,3.39-2.08c0,.48.32.44.62.41a4.34,4.34,0,0,1,1.74.37c.23.07.48.16.48.48a6,6,0,0,0-2.3-.64A2.69,2.69,0,0,0,107.48,10Z"/><path class="cls-6" d="M37.44,26.37c.46-.09.32-.46.32-.74q0-5.84,0-11.67l.08,0,.08,0q0,7,0,14a4.5,4.5,0,0,1-.07.58h0Z"/><path class="cls-6" d="M82.09,9.43l.38-.52H79.11c-.32,0-.55.07-.59.43-.28-.25-1,.2-.94-.48s.7-.24,1.06-.25c1.33,0,2.67,0,4,0,.23,0,.61-.17.62.31s-.31.29-.54.34S82.3,9.37,82.09,9.43Z"/><path class="cls-6" d="M129.78,19.64c-1-.37-1.12-1.37-1.16-2.17-.11-2.38,0-4.77,0-7.16,0-.26,0-.52.34-.55a56.29,56.29,0,0,0-.11,7.09A4.74,4.74,0,0,0,129.78,19.64Z"/><path class="cls-6" d="M79.06,21c1,0,2,0,3,0,.46,0,.31-.19.22-.42.29.22,1-.23.93.46-.06.5-.64.24-1,.24-1.3,0-2.61,0-3.91,0-.27,0-.76.25-.77-.31s.51-.23.77-.36a.55.55,0,0,1,.16,0l.07.07c-.12.25-.49,0-.64.42C78.33,21,78.7,21.35,79.06,21Z"/><path class="cls-6" d="M126.45,12.94c.42.15.25.5.27.78a32.93,32.93,0,0,0,.15,4.22c.12.64.75,1.05.67,1.75a4.12,4.12,0,0,1-1.11-2.9C126.37,15.51,126.44,14.22,126.45,12.94Z"/><path class="cls-6" d="M101.75,20.33c-.37-.13-.37-.44-.37-.76q0-4.63,0-9.26c0-.32,0-.63.42-.7a3.17,3.17,0,0,0-.25,1.38q0,3.76,0,7.53A5.65,5.65,0,0,0,101.75,20.33Z"/><path class="cls-5" d="M37.44,13.92c-.23.31-.56.19-.85.19H28.35c-.29,0-.7-.18-.81.33a1.53,1.53,0,0,1-.77-.46l.79-.13h.29a1.63,1.63,0,0,0,1.05,0Z"/><path class="cls-6" d="M105.73,10.57a4.15,4.15,0,0,1,0,1.07,2.26,2.26,0,0,0,1,2.64,2.79,2.79,0,0,1,1,1c-2.22-1-3-2.68-2.19-4.52A1,1,0,0,1,105.73,10.57Z"/><path class="cls-6" d="M79.06,15c.3,0,.33.24.33.48q0,2.13,0,4.25c0,.25-.05.44-.35.46A35.48,35.48,0,0,0,79.06,15Z"/><path class="cls-6" d="M140.33,17.83c0,.72,0,1.45,0,2.17s.35,1,1,1a3.08,3.08,0,0,1,1.56.37,2.49,2.49,0,0,1-.33,0c-.79-.09-2,0-2.25-.51a5.52,5.52,0,0,1-.09-3S140.28,17.84,140.33,17.83Z"/><path class="cls-6" d="M71.89,19.66c-.06-.05-.17-.11-.17-.16,0-1.29,0-2.59,0-3.88A.8.8,0,0,1,72,15Z"/><path class="cls-6" d="M114.81,9.92c0-.43.43-.38.68-.48a8.52,8.52,0,0,1,2.86-.18c.2,0,.29.13.32.31A9.79,9.79,0,0,0,114.81,9.92Z"/><path class="cls-6" d="M79.06,14.79q0,.08,0,.16H72c.25-.27.58-.16.87-.16Z"/><path class="cls-6" d="M113.9,19.54a.58.58,0,0,1,0-.56,2.67,2.67,0,0,0-.14-2.6c-.11-.21-.36-.38-.16-.67A3.11,3.11,0,0,1,113.9,19.54Z"/><path class="cls-6" d="M128.82,20.7c.51-.18.86.26,1.32.33,1.05.18,2.11.29,3.17.39A6.86,6.86,0,0,1,128.82,20.7Z"/><path class="cls-5" d="M79.07,9.75c.19,0,.49,0,.46.23a36.37,36.37,0,0,1-.29,4.14h0l0-.24a26.93,26.93,0,0,1,0-3.69l-.11-.26Z"/><path class="cls-6" d="M113,10.93c.36.2.26.64.48.93.53-.31,0-1.21.79-1.36a2.67,2.67,0,0,0-.32,1.17c0,.3-.08.45-.42.44s-.36-.12-.38-.39A6.19,6.19,0,0,0,113,10.93Z"/><path class="cls-6" d="M145.7,20.67a2.27,2.27,0,0,1-2.69-.18A4.89,4.89,0,0,0,145.7,20.67Z"/><path class="cls-5" d="M93.13,20c.82-.33,1.09.13,1.21.83A2.07,2.07,0,0,1,93.13,20Z"/><path class="cls-5" d="M94.7,18.13c-.78-.13-.92-.67-.86-1.34A5.11,5.11,0,0,1,94.7,18.13Z"/><path class="cls-5" d="M92,18.32c.76.15.76.78.84,1.35A3.61,3.61,0,0,1,92,18.32Z"/><path class="cls-6" d="M109.46,13.26c-.5,0-1.21.3-1.19-.67Z"/><path class="cls-6" d="M113,20.33c.28-.28.12-1.09.91-.75a2.11,2.11,0,0,1-.9.94Z"/><path class="cls-6" d="M145.86,21.35a10.9,10.9,0,0,1,1.86-.68A3.11,3.11,0,0,1,145.86,21.35Z"/><path class="cls-6" d="M126,10.43c.69.28.57.8.39,1.33Z"/><path class="cls-6" d="M107.85,15.32a1.61,1.61,0,0,1,1.41.66A3.77,3.77,0,0,1,107.85,15.32Z"/><path class="cls-6" d="M110.86,13.92a1.69,1.69,0,0,1-1.41-.67A4.21,4.21,0,0,1,110.86,13.92Z"/><path class="cls-6" d="M107.27,11.59a.8.8,0,0,1,0-1.33A2.68,2.68,0,0,0,107.27,11.59Z"/><path class="cls-6" d="M111.28,8.45a3,3,0,0,1-1.84,0A6.56,6.56,0,0,1,111.28,8.45Z"/><path class="cls-6" d="M143.52,21.46a3,3,0,0,1,1.83,0A6.81,6.81,0,0,1,143.52,21.46Z"/><path class="cls-5" d="M112.44,18.64c.31.52.27.92-.36,1.14Z"/><path class="cls-6" d="M112.35,14.72c-.47.14-.78,0-.85-.5A1.86,1.86,0,0,1,112.35,14.72Z"/><path class="cls-6" d="M113,15.18c-.4.11-.69,0-.68-.45A1.63,1.63,0,0,1,113,15.18Z"/><path class="cls-5" d="M113,20.33v.2a.79.79,0,0,1-.67.32C112.31,20.39,112.6,20.31,113,20.33Z"/><path class="cls-6" d="M96.35,20.32V20l.89.5-.57,0A.35.35,0,0,0,96.35,20.32Z"/><path class="cls-5" d="M91.22,16.92c.75-.1.31.48.42.74A1.94,1.94,0,0,1,91.22,16.92Z"/><path class="cls-6" d="M111.95,9.76c.5-.06.62.27.69.66Z"/><path class="cls-6" d="M108.28,12.6c-.38,0-.67-.05-.67-.52Z"/><path class="cls-6" d="M128,20.18c.38,0,.66,0,.7.48A1.12,1.12,0,0,1,128,20.18Z"/><path class="cls-6" d="M127.54,19.68c.36,0,.52.15.52.51A.85.85,0,0,1,127.54,19.68Z"/><path class="cls-6" d="M113.54,15.67c-.45.15-.6,0-.47-.46Z"/><path class="cls-6" d="M112.05,17.71c.58.08.37.52.38.86Z"/><path class="cls-6" d="M110,16.33c.28,0,.71-.23.7.36A1.49,1.49,0,0,1,110,16.33Z"/><path class="cls-6" d="M72.36,20.49c-.29,0-.58-.08-.37-.49Z"/><path class="cls-6" d="M141,18.48a.59.59,0,0,1-.35-.65C141,17.92,141,18.23,141,18.48Z"/><path class="cls-6" d="M114.22,10.5c0-.4.25-.53.59-.57Z"/><path class="cls-5" d="M91.63,17.65c.47,0,.32.4.35.67A1.39,1.39,0,0,1,91.63,17.65Z"/><path class="cls-3" d="M28.9,13.86a1.63,1.63,0,0,1-1.05,0A1.41,1.41,0,0,1,28.9,13.86Z"/><path class="cls-6" d="M109.25,16c.28,0,.63-.13.69.32A1.25,1.25,0,0,1,109.25,16Z"/><path class="cls-6" d="M118.72,19.66c.16.3.26.59-.24.65Z"/><path class="cls-6" d="M110.73,16.69c.27-.07.53-.09.53.31A.89.89,0,0,1,110.73,16.69Z"/><path class="cls-6" d="M111.5,14.23c-.26.07-.51.09-.55-.28A.88.88,0,0,1,111.5,14.23Z"/><path class="cls-6" d="M146.7,20.14a.46.46,0,0,1-.51.34Z"/><path class="cls-6" d="M98.83,20.07c0,.25-.05.41-.33.4A.63.63,0,0,1,98.83,20.07Z"/><path class="cls-6" d="M142.68,20.32a.49.49,0,0,1-.51-.33Z"/><path class="cls-6" d="M107.62,12.09a.45.45,0,0,1-.36-.5Z"/><path class="cls-6" d="M71.88,10.18c0-.19,0-.35.18-.43Z"/><path class="cls-6" d="M128.92,9.76a.3.3,0,0,1,.33-.35Z"/><path class="cls-6" d="M146.19,20.48c-.11.21-.3.19-.49.19Z"/><path class="cls-6" d="M79.05,20.14a.29.29,0,0,1-.33.35Z"/><path class="cls-6" d="M95.19,18.81a.42.42,0,0,1-.32-.42Z"/><path class="cls-6" d="M130.94,20.48a.29.29,0,0,1-.34-.18Z"/><path class="cls-6" d="M98.51,20.46c-.05.17-.19.19-.34.19C98.21,20.46,98.37,20.48,98.51,20.46Z"/><path class="cls-6" d="M107.28,10.28c0-.16,0-.3.21-.32Z"/><path class="cls-6" d="M112.77,10.6a.29.29,0,0,1,.18.34Z"/><path class="cls-6" d="M141.36,19.14a.3.3,0,0,1-.19-.33Z"/><path class="cls-3" d="M37.93,14l-.08,0-.08,0-.18-.1C37.73,13.76,37.87,13.71,37.93,14Z"/><path class="cls-6" d="M95.59,19.25c-.2,0-.23-.11-.25-.26Z"/><path class="cls-6" d="M142,19.83c-.15,0-.27-.06-.25-.25Z"/><path class="cls-6" d="M141.74,19.59c-.2,0-.23-.11-.24-.26Z"/><path class="cls-6" d="M95.85,19.82l.08-.23.26.23h-.34Z"/><path class="cls-6" d="M111.45,17.14c.16,0,.29,0,.28.24Z"/><path class="cls-5" d="M106.11,18.66l-.17-.26Z"/><path class="cls-5" d="M112.13,21l.19-.16C112.29,20.94,112.24,21,112.13,21Z"/><path class="cls-5" d="M94.83,18.31l-.14-.19Z"/><path class="cls-6" d="M111.91,17.51a.15.15,0,0,1,.15.2Z"/><path class="cls-6" d="M81.77,9.78l.16-.19Z"/><path class="cls-6" d="M111.73,17.37a.16.16,0,0,1,.2.16Z"/><path class="cls-6" d="M81.92,9.59l.18-.17Z"/><path class="cls-6" d="M129.25,9.41l.22-.12Z"/><path class="cls-6" d="M111.26,17l.2.15Z"/><path class="cls-6" d="M79.2,13.87l0,.24-.12,0Z"/><path class="cls-6" d="M72,14.12l-.09-.25Z"/><path class="cls-3" d="M.53,13.86a.15.15,0,0,1-.23,0A.15.15,0,0,1,.53,13.86Z"/><path class="cls-6" d="M79.09,9.92l.11.26Z"/><path class="cls-6" d="M130.12,20l-.19-.17Z"/><path class="cls-5" d="M111.93,19.95l-.2.19Z"/><path class="cls-6" d="M130.34,20.13,130.1,20Z"/><path class="cls-5" d="M112.09,19.77a.19.19,0,0,1-.17.2Z"/><path class="cls-6" d="M81.91,20.33l-.15-.2Z"/><path class="cls-5" d="M93,19.83l.17.2Z"/><path class="cls-5" d="M111.62,20.17l-.19.15C111.46,20.22,111.51,20.15,111.62,20.17Z"/><path class="cls-6" d="M130.61,20.31l-.19-.14Z"/><path class="cls-6" d="M129.94,19.81l-.18-.18Z"/><path class="cls-5" d="M107,19.8l-.21-.19Z"/><path class="cls-5" d="M92.81,19.66l.17.18Z"/><path class="cls-6" d="M142.92,20.47l-.25-.15Z"/><path class="cls-6" d="M78.72,20.49v.17h-.16l-.07-.07Z"/><path class="cls-6" d="M82.31,20.6l-.22-.12Z"/><path class="cls-5" d="M106.8,19.63l-.18-.19Z"/><path class="cls-6" d="M95.91,19.58c-.13,0-.18,0-.17-.16Z"/><path class="cls-5" d="M106.63,19.45c-.09,0-.16,0-.08-.13A.13.13,0,0,1,106.63,19.45Z"/><path class="cls-6" d="M95.75,19.41q-.19,0-.17-.16Z"/><path class="cls-6" d="M95.34,19l-.15-.19Z"/><path class="cls-6" d="M141.17,18.82l-.14-.26Z"/><path class="cls-1" d="M11.44,37.11a18.66,18.66,0,0,1-6.62-2.64A12.1,12.1,0,0,1,.18,29c3.54,0,7.08,0,10.62,0,.51,0,.66.13.65.65C11.43,32.15,11.44,34.63,11.44,37.11Z"/><path class="cls-1" d="M90,14.81c-1.15,0-1.15,0-1.15-1.14,0-1.29,0-2.57,0-3.86,0-.43.14-.57.57-.6a3.14,3.14,0,0,1,3.43,3.93C92.57,14.26,91.58,14.84,90,14.81Z"/><path class="cls-1" d="M78.31,36.74c0,.31,0,.61,0,.92a1.25,1.25,0,0,1-1,1.34,1.43,1.43,0,0,1-1.68-.3,1.46,1.46,0,0,1-.16-1.78A4.42,4.42,0,0,1,78,35.17c.32-.12.29.14.3.33C78.31,35.91,78.31,36.33,78.31,36.74Z"/><path class="cls-1" d="M68.13,34.28c-.44,0-.89,0-1.33,0s-.54-.16-.39-.59a1.89,1.89,0,0,1,2.09-1.5A1.67,1.67,0,0,1,70,33.79c.05.36,0,.51-.4.5S68.63,34.28,68.13,34.28Z"/><path class="cls-5" d="M78.56,20.67h.16a.6.6,0,0,0,.34.34c-.37.35-.73,0-1.14.09C78.07,20.72,78.44,20.92,78.56,20.67Z"/><path class="cls-5" d="M96.35,20.32a.35.35,0,0,1,.33.17C96.42,20.75,96.38,20.54,96.35,20.32Z"/><path class="cls-5" d="M95.85,19.82H96l-.09.21Z"/><path class="cls-5" d="M92.32,15.29l0,.07,0-.07Z"/><path class="cls-5" d="M92.32,15.29l.17-.17h0l-.17.17Z"/><path class="cls-1" d="M104.51,37a1.91,1.91,0,0,1,1.87,1.85,1.94,1.94,0,0,1-1.79,1.94,1.9,1.9,0,0,1-.09-3.8Zm.2.79,0,0c-.28-.29-.6-.09-.94-.12a6.43,6.43,0,0,1,.07,2.08c0,.2-.07.32.18.32s.4,0,.33-.31a.92.92,0,0,1,0-.71c.53.18.49,1.08,1.34,1-.13-.16-.21-.26-.28-.37-.23-.35-.59-.61,0-1.09C105.82,38.21,105.43,37.78,104.72,37.76Z"/><path class="cls-4" d="M104.72,37.76c.72,0,1.1.45.71.79-.54.48-.18.74,0,1.09.07.11.16.2.28.37-.85.1-.82-.8-1.34-1a.92.92,0,0,0,0,.71c.07.32-.13.31-.33.31s-.2-.12-.18-.32a6.43,6.43,0,0,0-.07-2.08c.34,0,.66-.16.94.13-.63.07-.4.55-.37.88s.27.13.41,0c.46-.29.24-.58,0-.86A.23.23,0,0,1,104.72,37.76Z"/><path class="cls-1" d="M104.72,37.76a.23.23,0,0,0,0,.08c.27.28.48.57,0,.86-.14.09-.39.15-.41,0s-.26-.81.37-.88Z"/></g></svg>