<svg id="8094e200-1ec1-4b11-a720-dd521faa6cef" data-name="Layer 1" xmlns="http://www.w3.org/2000/svg" width="73.02" height="50" viewBox="0 0 73.02 50">
  <defs>
    <style>
      .\33 98fbcc9-664a-42dc-84d7-ab91ae5bad97 {
        fill: #231f20;
      }
    </style>
  </defs>
  <title>logo-nike</title>
  <g>
    <path class="398fbcc9-664a-42dc-84d7-ab91ae5bad97" d="M13.29,29.68a1,1,0,1,0,1-.94A.93.93,0,0,0,13.29,29.68Zm1.65,0a.66.66,0,0,1-.68.67.67.67,0,1,1,.68-.67Z"/>
    <polygon class="398fbcc9-664a-42dc-84d7-ab91ae5bad97" points="19.53 17.23 18.99 25.46 23.73 25.46 30.7 6.86 26.31 6.86 23.17 15.2 23.71 6.86 19.03 6.86 12.06 25.46 16.45 25.46 19.53 17.23"/>
    <polygon class="398fbcc9-664a-42dc-84d7-ab91ae5bad97" points="28.7 25.46 35.67 6.86 31.28 6.86 24.3 25.46 28.7 25.46"/>
    <path class="398fbcc9-664a-42dc-84d7-ab91ae5bad97" d="M70.89,18,51.29,23.3l.52-1.45H46.68l1.69-4.51H52.6l1.3-3.47H49.67L51.12,10h4.45l1.18-3.1H43.33l-4.61,5.58,2.13-5.58H36.4L29.48,25.46h4.4l3-7.78.2,7.78h6.33L20,31.78C13.58,33.58,6.25,29.65,11.55,19,5.4,26.26-.39,35.87,4.73,40.29c5,4.29,11.16,1.75,15.39.06s51-22,51-22C71.54,18.13,71.45,17.85,70.89,18ZM41.11,14.52l6.65-7.3-6.37,17Z"/>
    <path class="398fbcc9-664a-42dc-84d7-ab91ae5bad97" d="M13.86,29.18v1h.25v-.43h0l.23.43h.29l-.26-.44a.23.23,0,0,0,.24-.27c0-.24-.16-.3-.43-.3Zm.54.28c0,.1-.05.13-.14.13h-.15v-.23h.12C14.32,29.35,14.4,29.36,14.4,29.46Z"/>
    <path class="398fbcc9-664a-42dc-84d7-ab91ae5bad97" d="M58.47,8.67a.94.94,0,1,0-1-.94A.93.93,0,0,0,58.47,8.67Zm0-1.61a.67.67,0,1,1-.68.67A.66.66,0,0,1,58.47,7.07Z"/>
    <path class="398fbcc9-664a-42dc-84d7-ab91ae5bad97" d="M58.33,7.81h0l.23.43h.29l-.26-.44a.23.23,0,0,0,.24-.27c0-.24-.16-.3-.43-.3h-.38v1h.25Zm0-.41h.12c.07,0,.16,0,.16.11s-.05.13-.14.13h-.15Z"/>
  </g>
</svg>
