<svg id="7a3b62ea-1204-42b5-aaac-835d94a0dde0" data-name="Layer 1" xmlns="http://www.w3.org/2000/svg" width="124" height="42" viewBox="0 0 124 42">
  <defs>
    <style>
      .e7af0f70-8bf2-491b-b32f-910385079d55 {
        fill: #231f20;
      }
    </style>
  </defs>
  <title>logo-ventana</title>
  <g>
    <path class="e7af0f70-8bf2-491b-b32f-910385079d55" d="M36,2.35H6.83a3.9,3.9,0,0,0-3.9,3.9V35.45a3.9,3.9,0,0,0,3.9,3.9H36a3.9,3.9,0,0,0,3.9-3.9V6.25A3.9,3.9,0,0,0,36,2.35ZM21.76,7l2.52,4.12-2.82,4.73-2.67-4.42Zm11.52,5.34H30.46c-4.65,2.94-9,20.9-9,20.9L21,32.8c-2.32-13.95-8.66-20.34-8.66-20.34l-2.78-.41-.15-.84,8.09.08,3.89,7.09,4.17-7,8,.08Z"/>
    <g>
      <path class="e7af0f70-8bf2-491b-b32f-910385079d55" d="M52.8,9a5.71,5.71,0,0,1-.4-1.24.3.3,0,0,1,.19-.3,1.73,1.73,0,0,1,.57-.07c.1,0,.15,0,.15-.1s-.13-.11-.4-.11c-.57,0-1.24,0-1.39,0s-1,0-1.75,0c-.24,0-.39,0-.39.11s0,.1.12.1a2.33,2.33,0,0,1,.57.06c.52.15.75.31,1.08,1.15l3.66,9.17c.28.72.36.93.54.93s.21-.24.63-1.14c.34-.73,1-2.35,1.93-4.53.76-1.84,1.51-3.63,1.68-4.05.4-1,.63-1.27.82-1.41a1.36,1.36,0,0,1,.72-.18c.12,0,.18,0,.18-.1s-.09-.11-.25-.11c-.43,0-1.08,0-1.17,0s-.87,0-1.47,0c-.24,0-.33,0-.33.12s.07.09.16.09a1.89,1.89,0,0,1,.57.06.37.37,0,0,1,.19.34,2.17,2.17,0,0,1-.13.57c-.33,1.08-2.33,6.3-3.2,8.3Z"/>
      <path class="e7af0f70-8bf2-491b-b32f-910385079d55" d="M62.58,14.76a25.85,25.85,0,0,1-.08,2.75c-.06.37-.09.63-.34.67a3.69,3.69,0,0,1-.4.06.1.1,0,0,0-.1.1c0,.07.07.1.21.1l.76,0,.57,0c.19,0,.54,0,1.09,0s1.3,0,2.29,0c.51,0,.64,0,.73-.33a10.48,10.48,0,0,0,.18-1.23c0-.09,0-.19-.09-.19s-.1,0-.13.19a1,1,0,0,1-.6.88,4.41,4.41,0,0,1-1.32.13c-1.3,0-1.54-.16-1.57-1,0-.25,0-1.74,0-2.17V13.7a.08.08,0,0,1,.09-.09c.22,0,1.63,0,2,.06s.63.21.67.39a1.13,1.13,0,0,1,.06.42c0,.07,0,.12.09.12s.12-.13.12-.24,0-.57.06-.82a6.86,6.86,0,0,1,.1-.7c0-.08,0-.1-.08-.1s-.1.07-.19.16-.33.15-.64.18-2,0-2.2,0-.07,0-.07-.13V9.51c0-.09,0-.13.07-.13s1.68,0,1.9,0c.72.09.85.18.94.39a1.39,1.39,0,0,1,.08.45c0,.1,0,.16.1.16s.11-.07.12-.13.06-.72.07-.84c0-.36.11-.51.11-.6s0-.12-.06-.12a.84.84,0,0,0-.18.06c-.1,0-.34.06-.6.07s-3.05,0-3.14,0-.93,0-1.53,0c-.15,0-.21,0-.21.1a.13.13,0,0,0,.1.1l.45,0c.43.06.51.27.54.7s0,.76,0,2.74v2.24Z"/>
      <path class="e7af0f70-8bf2-491b-b32f-910385079d55" d="M70.63,10.72c.4.45,1.89,2,3.41,3.61,1.39,1.45,3.29,3.32,3.43,3.44.73.67.87.78,1,.78s.1-.07.1-.91l0-7.45c0-.76,0-1,.46-1.11a1.48,1.48,0,0,1,.31,0,.15.15,0,0,0,.15-.12c0-.07-.11-.09-.24-.09-.54,0-1,0-1.12,0s-.78,0-1.38,0c-.15,0-.25,0-.25.09a.1.1,0,0,0,.1.12,4.25,4.25,0,0,1,.64.06c.4.08.48.36.49,1.18l.14,6.37c-.4-.42-1.81-1.93-3.11-3.28-2-2.09-3.95-4.13-4.16-4.34s-.36-.39-.51-.39S70,8.79,70,9.3v7.28c0,1.15,0,1.5-.37,1.59a2.06,2.06,0,0,1-.54.08.1.1,0,0,0-.11.1c0,.09.08.1.21.1.6,0,1.15,0,1.27,0s.64,0,1.39,0c.15,0,.24,0,.24-.1a.1.1,0,0,0-.1-.1,3.12,3.12,0,0,1-.66-.08c-.36-.09-.48-.4-.51-1.45Z"/>
      <path class="e7af0f70-8bf2-491b-b32f-910385079d55" d="M85,9.42l1.65,0c1.26,0,1.54.31,1.59.7v.13c0,.18,0,.22.1.22s.12-.06.12-.16,0-1.06,0-1.45c0-.07,0-.15-.06-.15L88,8.81a6.64,6.64,0,0,1-.94.06h-5c-.15,0-.66,0-1-.06a4.68,4.68,0,0,1-.58-.15s-.11.16-.13.24-.28,1.24-.28,1.38a.1.1,0,0,0,.09.1c.06,0,.1,0,.13-.12a2.08,2.08,0,0,1,.21-.4c.19-.3.51-.39,1.33-.4l1.9,0v5.34c0,1.23,0,2.23-.06,2.75s-.12.63-.39.69a1.76,1.76,0,0,1-.39.06c-.07,0-.1,0-.1.09s.06.1.21.1c.39,0,1.3,0,1.36,0s.91,0,1.63,0c.15,0,.21,0,.21-.1a.09.09,0,0,0-.11-.11,5,5,0,0,1-.6-.06c-.4-.06-.46-.3-.51-.67S85,16,85,14.76V9.42Z"/>
      <path class="e7af0f70-8bf2-491b-b32f-910385079d55" d="M97.43,18.24a1.82,1.82,0,0,1-.52-.08c-.28-.09-.64-.25-1.12-1.39C95,14.85,92.87,9.6,92.63,9.06c-.14-.28-.18-.46-.31-.46s-.15.07-.31.49l-3.1,8c-.25.64-.51,1.09-1.11,1.17l-.39,0a.12.12,0,0,0-.12.1c0,.07.09.1.25.1.54,0,1.2,0,1.33,0s.87,0,1.18,0c.12,0,.19,0,.19-.1s0-.1-.13-.1H90c-.22,0-.45-.09-.45-.34a2.62,2.62,0,0,1,.2-.85l.75-2a.14.14,0,0,1,.14-.1h3c.08,0,.09,0,.12.07L95,17.9a.24.24,0,0,1-.12.34c-.06,0-.09,0-.09.09s.21.07.46.09c.91,0,1.88,0,2.08,0s.3,0,.3-.1-.09-.11-.17-.11m-4-3.86H90.81s-.06,0,0-.09L92,10.81q.11-.29.22,0l1.3,3.48c0,.06,0,.09,0,.09"/>
      <path class="e7af0f70-8bf2-491b-b32f-910385079d55" d="M99.14,10.72c.4.45,1.88,2,3.41,3.61,1.39,1.45,3.29,3.32,3.43,3.44.73.67.87.78,1,.78s.1-.07.1-.91l0-7.45c0-.76,0-1,.46-1.11a1.48,1.48,0,0,1,.31,0,.15.15,0,0,0,.15-.12c0-.07-.1-.09-.24-.09-.54,0-1,0-1.12,0s-.78,0-1.38,0c-.15,0-.25,0-.25.09s0,.12.11.12a4.25,4.25,0,0,1,.64.06c.4.08.48.36.49,1.18l.13,6.37c-.4-.42-1.81-1.93-3.11-3.28-2-2.09-3.95-4.13-4.16-4.34s-.36-.39-.51-.39-.18.13-.18.64v7.28c0,1.15,0,1.5-.37,1.59a2.07,2.07,0,0,1-.54.08.1.1,0,0,0-.1.1c0,.09.07.1.21.1.6,0,1.15,0,1.27,0s.64,0,1.39,0c.15,0,.24,0,.24-.1a.1.1,0,0,0-.11-.1,3.12,3.12,0,0,1-.66-.08c-.36-.09-.48-.4-.51-1.45Z"/>
      <path class="e7af0f70-8bf2-491b-b32f-910385079d55" d="M118,18.24a1.83,1.83,0,0,1-.52-.08c-.28-.09-.64-.25-1.12-1.39-.81-1.93-2.92-7.18-3.16-7.72-.13-.28-.18-.46-.31-.46s-.15.07-.31.49l-3.1,8c-.25.64-.51,1.09-1.11,1.17l-.39,0a.12.12,0,0,0-.12.1c0,.07.09.1.25.1.54,0,1.2,0,1.33,0s.87,0,1.18,0c.12,0,.19,0,.19-.1s0-.1-.13-.1h-.12c-.22,0-.45-.09-.45-.34a2.62,2.62,0,0,1,.2-.85l.75-2a.14.14,0,0,1,.13-.1h3c.07,0,.09,0,.12.07l1.18,2.92a.24.24,0,0,1-.12.34c-.06,0-.09,0-.09.09s.21.07.46.09c.91,0,1.89,0,2.08,0s.3,0,.3-.1-.09-.11-.16-.11m-4-3.86H111.4s-.06,0,0-.09l1.23-3.48q.11-.29.22,0l1.3,3.48c0,.06,0,.09,0,.09"/>
      <path class="e7af0f70-8bf2-491b-b32f-910385079d55" d="M59.18,34.35a3.59,3.59,0,0,1-.58,0,3.09,3.09,0,0,1-1.82-1.08c-.87-.93-1.89-2.26-3.11-3.83a4.62,4.62,0,0,0,1.81-3.46,2.62,2.62,0,0,0-1-2,4.61,4.61,0,0,0-2.74-.66c-.46,0-1.6,0-1.76,0s-1,0-1.69,0c-.16,0-.24,0-.24.12s.06.09.12.09a2.84,2.84,0,0,1,.51,0c.49.11.61.34.64.85s0,.9,0,3.23v2.63c0,1.44,0,2.62-.07,3.25-.06.43-.13.76-.43.82a2.28,2.28,0,0,1-.45.06c-.09,0-.12,0-.12.09s.07.12.24.12c.45,0,1.39,0,1.41,0s1,0,1.84,0c.16,0,.24,0,.24-.12s0-.09-.12-.09a6.5,6.5,0,0,1-.67-.06c-.45-.06-.54-.39-.58-.82-.07-.63-.07-1.81-.07-3.25v-.36c0-.07,0-.12.1-.12l1.84,0a.24.24,0,0,1,.19.09c.3.39,1,1.39,1.63,2.21a7.8,7.8,0,0,0,2,2.2,3,3,0,0,0,1.6.28H59c.27,0,.36,0,.36-.12s-.06-.09-.13-.09M53.31,29a1.94,1.94,0,0,1-1.12.28,4.12,4.12,0,0,1-1.57-.24.19.19,0,0,1-.1-.18V24a.18.18,0,0,1,.12-.18,4.51,4.51,0,0,1,1-.09c1.6,0,2.59,1.12,2.59,3a2.73,2.73,0,0,1-.91,2.3"/>
      <path class="e7af0f70-8bf2-491b-b32f-910385079d55" d="M59.65,30.87a25.74,25.74,0,0,1-.08,2.75c-.06.37-.09.63-.34.67a3.63,3.63,0,0,1-.4.06.1.1,0,0,0-.1.11c0,.07.08.1.21.1l.76,0h.57c.19,0,.54,0,1.09,0s1.3,0,2.29,0c.51,0,.64,0,.73-.33A10.58,10.58,0,0,0,64.55,33c0-.09,0-.19-.09-.19s-.1,0-.13.19a1,1,0,0,1-.6.88,4.39,4.39,0,0,1-1.32.13c-1.3,0-1.54-.16-1.57-1,0-.25,0-1.74,0-2.17V29.8a.08.08,0,0,1,.09-.09c.22,0,1.63,0,2,.06s.63.21.67.39a1.12,1.12,0,0,1,.06.42c0,.08,0,.12.09.12s.12-.13.12-.24,0-.57.06-.82a7,7,0,0,1,.11-.7c0-.08,0-.11-.08-.11s-.11.08-.19.16-.33.15-.64.18-2,0-2.2,0-.08,0-.08-.13V25.62c0-.09,0-.13.08-.13s1.68,0,1.9,0c.72.09.85.18.94.39a1.4,1.4,0,0,1,.08.45c0,.1,0,.16.1.16s.11-.07.12-.13.06-.72.08-.84c0-.36.1-.51.1-.6s0-.12-.06-.12-.12,0-.18.06-.34.06-.6.07-3.05,0-3.14,0-.93,0-1.53,0c-.15,0-.21,0-.21.1a.13.13,0,0,0,.11.11l.45,0c.43.06.51.27.54.7s0,.76,0,2.74v2.24Z"/>
      <path class="e7af0f70-8bf2-491b-b32f-910385079d55" d="M68.1,34.72a4,4,0,0,0,2.09-.45,2.48,2.48,0,0,0,1.23-2.17c0-1.09-.55-2-2.15-3.07l-.37-.25c-1.3-.88-1.71-1.35-1.71-2.15s.79-1.38,1.75-1.38c1.18,0,1.62.48,1.71.63a2.35,2.35,0,0,1,.19.63c0,.1,0,.16.12.16s.1-.09.1-.28c0-.87.06-1.29.06-1.35s0-.09-.13-.09a1.71,1.71,0,0,1-.46-.06,6.36,6.36,0,0,0-1.36-.15c-1.73,0-2.92.9-2.92,2.39,0,.88.46,1.66,1.88,2.72l.6.45c1.17.87,1.66,1.3,1.66,2.21s-.67,1.69-2,1.69A1.94,1.94,0,0,1,66.33,33a1.91,1.91,0,0,1,0-.46c0-.1,0-.15-.12-.15s-.1.07-.1.21S66,33.27,66,33.9c0,.34,0,.39.19.48a4.84,4.84,0,0,0,1.91.34"/>
      <path class="e7af0f70-8bf2-491b-b32f-910385079d55" d="M74.23,30.87a25.84,25.84,0,0,1-.08,2.75c-.06.37-.09.63-.34.67a3.62,3.62,0,0,1-.4.06.1.1,0,0,0-.1.11c0,.07.07.1.21.1l.76,0h.57c.19,0,.54,0,1.09,0s1.3,0,2.29,0c.51,0,.64,0,.73-.33A10.47,10.47,0,0,0,79.14,33c0-.09,0-.19-.09-.19s-.1,0-.13.19a1,1,0,0,1-.6.88,4.4,4.4,0,0,1-1.32.13c-1.3,0-1.54-.16-1.57-1,0-.25,0-1.74,0-2.17V29.8a.08.08,0,0,1,.09-.09c.22,0,1.63,0,2,.06s.63.21.67.39a1.12,1.12,0,0,1,.06.42c0,.08,0,.12.09.12s.12-.13.12-.24,0-.57.06-.82c0-.42.1-.63.1-.7s0-.11-.07-.11-.11.08-.2.16-.33.15-.64.18-2,0-2.2,0-.07,0-.07-.13V25.62c0-.09,0-.13.07-.13s1.68,0,1.9,0c.72.09.85.18.94.39a1.4,1.4,0,0,1,.08.45c0,.1,0,.16.1.16s.1-.07.12-.13.06-.72.08-.84c0-.36.1-.51.1-.6s0-.12-.06-.12-.12,0-.18.06-.34.06-.6.07-3.05,0-3.14,0-.93,0-1.53,0c-.15,0-.21,0-.21.1a.13.13,0,0,0,.1.11l.45,0c.43.06.51.27.54.7s0,.76,0,2.74v2.24Z"/>
      <path class="e7af0f70-8bf2-491b-b32f-910385079d55" d="M89.31,34.35a1.81,1.81,0,0,1-.52-.08c-.29-.09-.64-.25-1.12-1.39-.81-1.93-2.92-7.18-3.16-7.72-.14-.28-.18-.46-.31-.46s-.15.08-.31.49l-3.1,8c-.25.64-.51,1.09-1.11,1.17l-.39,0a.12.12,0,0,0-.12.11c0,.07.09.1.25.1.54,0,1.2,0,1.33,0s.87,0,1.18,0c.12,0,.19,0,.19-.1s0-.11-.13-.11h-.12c-.22,0-.45-.09-.45-.34a2.62,2.62,0,0,1,.19-.85l.75-2a.14.14,0,0,1,.13-.1h3c.07,0,.09,0,.12.07L86.84,34a.24.24,0,0,1-.12.34c-.06,0-.09,0-.09.09s.21.08.46.09c.91,0,1.89,0,2.08,0s.3,0,.3-.1-.09-.11-.16-.11m-4-3.86H82.68s-.06,0,0-.09l1.23-3.48q.11-.29.22,0l1.3,3.48c0,.06,0,.09,0,.09"/>
      <path class="e7af0f70-8bf2-491b-b32f-910385079d55" d="M99.33,34.35a2.48,2.48,0,0,1-1.93-.93c-.76-.79-1.68-1.94-2.75-3.29a3.72,3.72,0,0,0,1.62-2.9,2.23,2.23,0,0,0-.91-1.73,4.31,4.31,0,0,0-2.45-.55l-1.65,0c-.07,0-1,0-1.56,0-.15,0-.21,0-.21.1a.13.13,0,0,0,.1.11l.45,0c.43.06.51.27.54.7s0,.76,0,2.74v2.24a26,26,0,0,1-.07,2.75c-.06.37-.09.61-.34.67a1.85,1.85,0,0,1-.4.06.1.1,0,0,0-.1.11c0,.07.07.1.21.1.4,0,1.29,0,1.3,0s.9,0,1.62,0c.15,0,.21,0,.21-.1a.09.09,0,0,0-.1-.11,4.78,4.78,0,0,1-.58-.06c-.4-.06-.48-.3-.52-.67s-.06-1.51-.06-2.74v-.3c0-.08,0-.1.09-.1l1.67,0a.2.2,0,0,1,.18.08c.28.34.87,1.17,1.42,1.85a6.71,6.71,0,0,0,1.8,1.87,2.66,2.66,0,0,0,1.41.25h.82c.24,0,.31,0,.31-.1a.12.12,0,0,0-.12-.11m-5.06-4.52a1.71,1.71,0,0,1-1,.22,4.46,4.46,0,0,1-1.45-.19.19.19,0,0,1-.09-.16V25.62a.16.16,0,0,1,.11-.15,5.78,5.78,0,0,1,.94-.07,2.2,2.2,0,0,1,2.27,2.5,2.27,2.27,0,0,1-.79,1.94"/>
      <path class="e7af0f70-8bf2-491b-b32f-910385079d55" d="M104.72,34.72a7.79,7.79,0,0,0,2.38-.28c.22-.09.25-.13.33-.37a13.29,13.29,0,0,0,.31-1.63c0-.09-.06-.18-.12-.18s-.1,0-.13.18A2.37,2.37,0,0,1,107,33.5a2.78,2.78,0,0,1-2.17.6,4.62,4.62,0,0,1-4.74-4.61,4.15,4.15,0,0,1,1.18-3.32,4,4,0,0,1,3-.88,4.28,4.28,0,0,1,2.59.7,1.66,1.66,0,0,1,.55,1.27c0,.18,0,.27.1.27s.13-.08.15-.27,0-.88,0-1.3.06-.61.06-.72,0-.13-.16-.13a9.38,9.38,0,0,1-1.35-.19,12.94,12.94,0,0,0-1.91-.15,5.43,5.43,0,0,0-4,1.36,5,5,0,0,0-1.48,3.47,4.77,4.77,0,0,0,1.6,3.77,6.2,6.2,0,0,0,4.34,1.36"/>
      <path class="e7af0f70-8bf2-491b-b32f-910385079d55" d="M118.3,28.62c0-2,0-2.33,0-2.74s.1-.63.45-.7a1.52,1.52,0,0,1,.33,0,.13.13,0,0,0,.12-.1c0-.08-.08-.11-.23-.11l-1.3,0c-.06,0-.91,0-1.5,0-.15,0-.21,0-.21.11a.11.11,0,0,0,.11.1l.45,0c.43.06.49.27.52.7s0,.79,0,2.77v.27c0,.07,0,.07-.08.07h-5.49s-.07,0-.07-.07v-.27c0-2,0-2.36,0-2.77s.11-.63.46-.7a1.45,1.45,0,0,1,.33,0,.13.13,0,0,0,.1-.1c0-.08-.06-.11-.21-.11l-1.3,0c-.08,0-.91,0-1.51,0-.15,0-.21,0-.21.11a.13.13,0,0,0,.1.1l.45,0c.43.06.51.27.54.7s0,.76,0,2.74v2.24a25.84,25.84,0,0,1-.08,2.75c-.06.37-.09.61-.34.67a1.86,1.86,0,0,1-.4.06.1.1,0,0,0-.1.1c0,.08.07.1.21.1.4,0,1.24,0,1.32,0s.9,0,1.63,0c.15,0,.21,0,.21-.1a.1.1,0,0,0-.1-.1,5.33,5.33,0,0,1-.6-.06c-.39-.06-.43-.3-.48-.67s-.06-1.5-.06-2.72V29.62c0-.06,0-.07.07-.07H117s.08,0,.08.07V30.9c0,1.23,0,2.18-.06,2.71s-.09.63-.36.69a1.74,1.74,0,0,1-.39.06.1.1,0,0,0-.11.1c0,.08.06.1.21.1.39,0,1.24,0,1.3,0s.91,0,1.63,0c.15,0,.22,0,.22-.1a.11.11,0,0,0-.12-.1,5.09,5.09,0,0,1-.58-.06c-.4-.06-.43-.3-.48-.67s-.08-1.53-.08-2.75V28.62Z"/>
    </g>
  </g>
</svg>
