<svg id="b2317618-b230-4792-affb-0b74f33aadfa" data-name="Layer 1" xmlns="http://www.w3.org/2000/svg" width="20" height="20" viewBox="0 0 20 20">
  <defs>
    <style>
      .\34 43881ed-6bcf-47b4-9fd0-1bf849f4f949 {
        fill: #231f20;
      }
    </style>
  </defs>
  <title>adjust</title>
  <path class="443881ed-6bcf-47b4-9fd0-1bf849f4f949" d="M2.58,19.51a2.05,2.05,0,0,1-1.47-.62,2.09,2.09,0,0,1,0-3L8.66,8.4A5.66,5.66,0,0,1,9.87,2.15a5.75,5.75,0,0,1,6.61-1,.5.5,0,0,1,.27.35.51.51,0,0,1-.12.43L14.46,4.38V5.92H15.6l2.48-2.48a.54.54,0,0,1,.43-.14.52.52,0,0,1,.37.27,5.65,5.65,0,0,1-1,6.59h0a5.64,5.64,0,0,1-6.24,1.19L4.06,18.89A2.06,2.06,0,0,1,2.58,19.51Zm11.33-18a4.71,4.71,0,0,0-3.33,1.36,4.64,4.64,0,0,0-.87,5.41.5.5,0,0,1-.09.58l-7.8,7.8a1.09,1.09,0,0,0,0,1.54,1.11,1.11,0,0,0,1.53,0l7.79-7.8a.5.5,0,0,1,.58-.09,4.66,4.66,0,0,0,6.54-5.63l-2.1,2.1a.47.47,0,0,1-.35.15H14a.51.51,0,0,1-.5-.5V4.19a.51.51,0,0,1,.13-.33l1.84-2.11A4.7,4.7,0,0,0,13.91,1.5Zm3.58,8.3h0Z"/>
</svg>
