<svg id="96207b95-5365-4566-82dc-c1f92870900a" data-name="Layer 1" xmlns="http://www.w3.org/2000/svg" width="20" height="20" viewBox="0 0 20 20">
  <defs>
    <style>
      .\35 4691b9b-830c-475e-a770-ba3510dda665 {
        fill: #231f20;
      }
    </style>
  </defs>
  <title>arrow-circle-right</title>
  <g>
    <path class="54691b9b-830c-475e-a770-ba3510dda665" d="M3.28,3.29a9.5,9.5,0,1,0,13.44,0A9.52,9.52,0,0,0,3.28,3.29ZM16,16A8.49,8.49,0,1,1,16,4,8.5,8.5,0,0,1,16,16Z"/>
    <path class="54691b9b-830c-475e-a770-ba3510dda665" d="M14.92,10.19h0s0,0,0,0a.9.9,0,0,0,0-.16l-.05-.07a.33.33,0,0,0-.06-.1L11.29,6a.55.55,0,0,0-.77,0,.57.57,0,0,0-.18.38.63.63,0,0,0,.14.4l2.65,2.91H5.29a.55.55,0,1,0,0,1.09H13L10.5,13.28a.55.55,0,0,0,0,.77.56.56,0,0,0,.78,0l3.48-3.48A.59.59,0,0,0,14.92,10.19Z"/>
  </g>
</svg>
