<svg id="85b9f2ef-bc2e-453b-b867-20a84470ec9c" data-name="Layer 1" xmlns="http://www.w3.org/2000/svg" width="20" height="20" viewBox="0 0 20 20">
  <defs>
    <style>
      .\36 7481e20-c822-4395-a913-3849ea09bebc {
        fill: #231f20;
      }
    </style>
  </defs>
  <title>arrow-up</title>
  <g>
    <path class="67481e20-c822-4395-a913-3849ea09bebc" d="M10.33,19.19a.67.67,0,0,1-.66-.66v-17a.66.66,0,0,1,1.31,0v17A.66.66,0,0,1,10.33,19.19Z"/>
    <path class="67481e20-c822-4395-a913-3849ea09bebc" d="M3.16,8.7a.67.67,0,0,1-.48-.22.66.66,0,0,1,0-.92L9.89,1.05a.66.66,0,0,1,.9,0L17.3,7.59a.65.65,0,1,1-.92.92L10.3,2.43,3.6,8.53A.66.66,0,0,1,3.16,8.7Z"/>
  </g>
</svg>
