<svg id="dd852c06-9573-4548-bc00-caa20b13cf26" data-name="Layer 1" xmlns="http://www.w3.org/2000/svg" width="20" height="20" viewBox="0 0 20 20">
  <defs>
    <style>
      .\32 57c0b3f-9508-47c5-a07d-ca91caeb7e18 {
        fill: #231f20;
      }
    </style>
  </defs>
  <title>comment</title>
  <path class="257c0b3f-9508-47c5-a07d-ca91caeb7e18" d="M2.07,17.89a.48.48,0,0,1-.36-.16.5.5,0,0,1-.08-.58L3.49,13.7A6.86,6.86,0,0,1,1,8.62c0-4.1,4-7.44,9-7.44s9,3.34,9,7.44-4,7.43-9,7.43a10.28,10.28,0,0,1-2.9-.47L2.29,17.84A.54.54,0,0,1,2.07,17.89ZM10,2.18c-4.41,0-8,2.89-8,6.44a6,6,0,0,0,2.44,4.57.51.51,0,0,1,.13.63L3.23,16.29l3.61-1.7a.5.5,0,0,1,.36,0,9.55,9.55,0,0,0,2.8.48c4.41,0,8-2.88,8-6.43S14.41,2.18,10,2.18Z"/>
</svg>
