<svg id="6bf13bb7-9ac5-412f-abec-d34b85d76b64" data-name="Layer 1" xmlns="http://www.w3.org/2000/svg" width="20" height="20" viewBox="0 0 20 20">
  <defs>
    <style>
      .\34 a62d26d-31dc-47e1-978f-7fe6b4b0f865 {
        fill: #212221;
      }
    </style>
  </defs>
  <title>company-size-5</title>
  <path class="4a62d26d-31dc-47e1-978f-7fe6b4b0f865" d="M15.82,1H9.17a.35.35,0,0,0-.35.35V6.62H4.06A.35.35,0,0,0,3.71,7V19.34a.34.34,0,0,0,.35.35H15.82a.34.34,0,0,0,.35-.35v-18A.35.35,0,0,0,15.82,1ZM4.41,11.92H5.59a.35.35,0,1,0,0-.69H4.41v-.84h2.2a.35.35,0,0,0,0-.7H4.41V8.86H7.13a.35.35,0,0,0,.35-.35.35.35,0,0,0-.35-.35H4.41V7.32h5.95V19H8V17.3A.35.35,0,0,0,7.64,17h-2a.35.35,0,0,0-.35.35V19H4.41ZM5.94,19V17.65H7.29V19Zm6.65,0V17.65h1.35V19Zm2.88,0h-.83V17.3a.35.35,0,0,0-.35-.35h-2a.35.35,0,0,0-.35.35V19h-.83V7a.35.35,0,0,0-.35-.35H9.52V6.3h1.7A.35.35,0,0,0,11.57,6a.35.35,0,0,0-.35-.35H9.52V4.76h2.72a.34.34,0,0,0,.35-.35.35.35,0,0,0-.35-.35H9.52V3.23h3.75a.35.35,0,0,0,.35-.35.35.35,0,0,0-.35-.35H9.52V1.69h6Z"/>
</svg>
