<svg id="cc7cd551-361c-4512-8e85-5d95609c2cc9" data-name="Layer 1" xmlns="http://www.w3.org/2000/svg" width="20" height="20" viewBox="0 0 20 20">
  <defs>
    <style>
      .a16832ec-8bd6-4541-95ff-9c80b5eaa901 {
        fill: #212221;
      }
    </style>
  </defs>
  <title>company-size-4</title>
  <g>
    <path class="a16832ec-8bd6-4541-95ff-9c80b5eaa901" d="M15.72,5a.43.43,0,0,0,0-.11.35.35,0,0,0-.23-.33L13.58,2.84a.32.32,0,0,0-.23-.09H6.63a.32.32,0,0,0-.23.09L4.47,4.53a.36.36,0,0,0-.23.33.3.3,0,0,0,0,.1V19.24a.36.36,0,0,0,0,.1.34.34,0,0,0,.35.35h10.8a.34.34,0,0,0,.35-.35.3.3,0,0,0,0-.1Zm-9-1.52h6.46l1.2,1.06H5.56ZM9.06,19V16.18h1.86V19Zm2.56,0V15.83a.35.35,0,0,0-.35-.35H8.71a.35.35,0,0,0-.35.35V19H5V5.21H15V19Z"/>
    <path class="a16832ec-8bd6-4541-95ff-9c80b5eaa901" d="M9,12.13H6.4a.35.35,0,1,0,0,.7H9a.35.35,0,0,0,0-.7Z"/>
    <path class="a16832ec-8bd6-4541-95ff-9c80b5eaa901" d="M13.59,12.13H11a.35.35,0,0,0,0,.7h2.58a.35.35,0,0,0,0-.7Z"/>
    <path class="a16832ec-8bd6-4541-95ff-9c80b5eaa901" d="M9,10.37H6.4a.35.35,0,0,0-.35.35.34.34,0,0,0,.35.35H9a.35.35,0,0,0,.35-.35A.35.35,0,0,0,9,10.37Z"/>
    <path class="a16832ec-8bd6-4541-95ff-9c80b5eaa901" d="M13.59,10.37H11a.35.35,0,0,0-.35.35.35.35,0,0,0,.35.35h2.58a.35.35,0,0,0,.35-.35A.35.35,0,0,0,13.59,10.37Z"/>
    <path class="a16832ec-8bd6-4541-95ff-9c80b5eaa901" d="M9,8.61H6.4A.35.35,0,0,0,6.05,9a.34.34,0,0,0,.35.35H9A.35.35,0,0,0,9.32,9,.35.35,0,0,0,9,8.61Z"/>
    <path class="a16832ec-8bd6-4541-95ff-9c80b5eaa901" d="M13.59,8.61H11a.35.35,0,0,0-.35.35.35.35,0,0,0,.35.35h2.58A.35.35,0,0,0,13.94,9,.35.35,0,0,0,13.59,8.61Z"/>
    <path class="a16832ec-8bd6-4541-95ff-9c80b5eaa901" d="M9,6.86H6.4a.35.35,0,1,0,0,.69H9a.35.35,0,1,0,0-.69Z"/>
    <path class="a16832ec-8bd6-4541-95ff-9c80b5eaa901" d="M13.59,6.86H11a.35.35,0,1,0,0,.69h2.58a.35.35,0,1,0,0-.69Z"/>
  </g>
</svg>
