<svg id="c35479dc-93ea-495a-99e8-12c1dd45ed37" data-name="Layer 1" xmlns="http://www.w3.org/2000/svg" width="20" height="20" viewBox="0 0 20 20">
  <defs>
    <style>
      .aac2bf49-bff6-4cb2-9a82-c175d08cad0e {
        fill: #221f1f;
      }
    </style>
  </defs>
  <title>compare</title>
  <g>
    <path class="aac2bf49-bff6-4cb2-9a82-c175d08cad0e" d="M10,17.68a.48.48,0,0,1-.2,0l-9-3.82a.5.5,0,1,1,.4-.92L10,16.64l8.8-3.74a.5.5,0,1,1,.4.92l-9,3.82A.48.48,0,0,1,10,17.68Z"/>
    <path class="aac2bf49-bff6-4cb2-9a82-c175d08cad0e" d="M10,15.33a.71.71,0,0,1-.2,0l-9-3.83a.49.49,0,0,1-.26-.65.51.51,0,0,1,.66-.27L10,14.28l8.8-3.74a.51.51,0,0,1,.66.27.49.49,0,0,1-.26.65l-9,3.83A.71.71,0,0,1,10,15.33Z"/>
    <path class="aac2bf49-bff6-4cb2-9a82-c175d08cad0e" d="M10,13a.48.48,0,0,1-.2,0L.8,9.11a.49.49,0,0,1-.26-.65.51.51,0,0,1,.66-.27L10,11.93l8.8-3.74a.51.51,0,0,1,.66.27.49.49,0,0,1-.26.65l-9,3.82A.48.48,0,0,1,10,13Z"/>
    <path class="aac2bf49-bff6-4cb2-9a82-c175d08cad0e" d="M10,10.62a.48.48,0,0,1-.2,0L.8,6.76a.5.5,0,0,1,0-.92L9.8,2a.55.55,0,0,1,.4,0l9,3.82a.5.5,0,0,1,0,.92l-9,3.82A.48.48,0,0,1,10,10.62ZM2.28,6.3,10,9.58,17.72,6.3,10,3Z"/>
  </g>
</svg>
