<svg id="a9bef1db-4355-4536-8fdd-493dcdc601e9" data-name="Layer 1" xmlns="http://www.w3.org/2000/svg" width="20" height="20" viewBox="0 0 20 20">
  <defs>
    <style>
      .d31c297b-17a2-429b-a6ad-8fd2781f1933 {
        fill: #231f20;
      }
    </style>
  </defs>
  <title>edit</title>
  <g>
    <path class="d31c297b-17a2-429b-a6ad-8fd2781f1933" d="M1,19.5a.47.47,0,0,1-.35-.15.49.49,0,0,1-.14-.47l1.27-5a.41.41,0,0,1,.13-.23L14.21,1.3A2,2,0,0,1,17.12,1L19,2.88a2,2,0,0,1-.32,2.91L6.4,18.09a.41.41,0,0,1-.23.13l-5,1.27Zm1.71-5.29-1,4.1,4.1-1L18,5.08c.35-.35.75-1.07.32-1.5L16.42,1.69c-.44-.43-1.15,0-1.5.32Zm3.34,3.53h0Z"/>
    <path class="d31c297b-17a2-429b-a6ad-8fd2781f1933" d="M18,6.25a.52.52,0,0,1-.35-.14L13.89,2.32a.5.5,0,0,1,.71-.71L18.39,5.4a.51.51,0,0,1,0,.71A.54.54,0,0,1,18,6.25Z"/>
    <path class="d31c297b-17a2-429b-a6ad-8fd2781f1933" d="M6.05,18.24a.51.51,0,0,1-.36-.15L1.91,14.31a.5.5,0,0,1,.71-.71L6.4,17.38a.51.51,0,0,1,0,.71A.5.5,0,0,1,6.05,18.24Z"/>
  </g>
</svg>
