<svg id="3e5494de-d827-4068-a45b-d3e96532acab" data-name="Layer 1" xmlns="http://www.w3.org/2000/svg" width="20" height="20" viewBox="0 0 20 20">
  <defs>
    <style>
      .\37 4b71a70-aae5-45b2-ab1c-09faff22b3e4 {
        fill: #212221;
      }
    </style>
  </defs>
  <title>rock copy 4</title>
  <g id="5f528798-282c-435e-b37f-780168550f05" data-name="check toggle 2">
    <g>
      <path class="74b71a70-aae5-45b2-ab1c-09faff22b3e4" d="M3.25,3.77c1-.59,2-.18,3.11.3a7.59,7.59,0,0,0,2.83.74c1.28,0,2.68-.61,4.18-2.64a.5.5,0,0,0-.74-.67c-1.32,1.17-2.61.72-4.11.21C6.68,1.08,4.59.37,2.58,3.05a.5.5,0,0,0,.67.72ZM8.2,2.66a7.71,7.71,0,0,0,2.73.58c-1.5,1-2.82.46-4.19-.1A7.65,7.65,0,0,0,4.6,2.49C5.73,1.81,6.86,2.2,8.2,2.66Z"/>
      <path class="74b71a70-aae5-45b2-ab1c-09faff22b3e4" d="M7.79,13.57H6.68a.5.5,0,0,0-.5.5.5.5,0,0,0,.5.5H7.79a.51.51,0,0,0,.5-.5A.5.5,0,0,0,7.79,13.57Z"/>
      <path class="74b71a70-aae5-45b2-ab1c-09faff22b3e4" d="M7.79,15.78H6.68a.5.5,0,0,0-.5.5.5.5,0,0,0,.5.5H7.79a.5.5,0,0,0,.5-.5A.51.51,0,0,0,7.79,15.78Z"/>
      <path class="74b71a70-aae5-45b2-ab1c-09faff22b3e4" d="M12.22,13.57H11.11a.5.5,0,0,0-.5.5.51.51,0,0,0,.5.5h1.11a.5.5,0,0,0,.5-.5A.5.5,0,0,0,12.22,13.57Z"/>
      <path class="74b71a70-aae5-45b2-ab1c-09faff22b3e4" d="M12.22,15.78H11.11a.51.51,0,0,0-.5.5.5.5,0,0,0,.5.5h1.11a.5.5,0,0,0,.5-.5A.5.5,0,0,0,12.22,15.78Z"/>
      <path class="74b71a70-aae5-45b2-ab1c-09faff22b3e4" d="M15.55,14.57h1.11a.51.51,0,0,0,.5-.5.5.5,0,0,0-.5-.5H15.55a.5.5,0,0,0-.5.5A.5.5,0,0,0,15.55,14.57Z"/>
      <path class="74b71a70-aae5-45b2-ab1c-09faff22b3e4" d="M15.55,16.78h1.11a.5.5,0,0,0,.5-.5.51.51,0,0,0-.5-.5H15.55a.5.5,0,0,0-.5.5A.5.5,0,0,0,15.55,16.78Z"/>
      <path class="74b71a70-aae5-45b2-ab1c-09faff22b3e4" d="M18.76,9.06a.55.55,0,0,0-.5,0l-3.68,2.11V9.51a.51.51,0,0,0-.24-.43.5.5,0,0,0-.5,0l-3.7,2.08V9.5a.49.49,0,0,0-.27-.44.49.49,0,0,0-.51,0L6.1,11.2,4.83,5.09a.49.49,0,0,0-.49-.39H2.57a.51.51,0,0,0-.5.43L1,12.74V18.5a.5.5,0,0,0,.5.5h17a.5.5,0,0,0,.5-.5v-9A.52.52,0,0,0,18.76,9.06ZM18,18H2V12.81L3,5.7h.93l1.34,6.42a.49.49,0,0,0,.29.36.52.52,0,0,0,.47,0l3.11-2V12a.49.49,0,0,0,.74.43l3.7-2.08V12a.52.52,0,0,0,.25.43.5.5,0,0,0,.5,0L18,10.36Z"/>
    </g>
  </g>
</svg>
