<svg id="42c7ac20-e354-43cc-a9e6-6f392f9164ab" data-name="Layer 1" xmlns="http://www.w3.org/2000/svg" width="20" height="20" viewBox="0 0 20 20">
  <defs>
    <style>
      .a3856a29-012d-4a6a-8bd6-cb9dd35e27bd {
        fill: #231f20;
      }
    </style>
  </defs>
  <title>family</title>
  <path class="a3856a29-012d-4a6a-8bd6-cb9dd35e27bd" d="M19,14.75H17.57V10.1a.5.5,0,0,0-.5-.5H10.5V4.82H13a.5.5,0,0,0,.5-.5V1.1A.51.51,0,0,0,13,.6H7a.51.51,0,0,0-.5.5V4.32a.5.5,0,0,0,.5.5H9.5V9.6H2.93a.5.5,0,0,0-.5.5v4.65H1a.5.5,0,0,0-.5.5V19.1a.5.5,0,0,0,.5.5H4.86a.5.5,0,0,0,.5-.5V15.25a.5.5,0,0,0-.5-.5H3.43V10.6H9.5v4.15H8.07a.5.5,0,0,0-.5.5V19.1a.5.5,0,0,0,.5.5h3.86a.5.5,0,0,0,.5-.5V15.25a.5.5,0,0,0-.5-.5H10.5V10.6h6.07v4.15H15.14a.5.5,0,0,0-.5.5V19.1a.5.5,0,0,0,.5.5H19a.5.5,0,0,0,.5-.5V15.25A.5.5,0,0,0,19,14.75ZM7.48,1.6h5V3.82h-5Zm-3.12,17H1.5V15.75H4.36Zm7.07,0H8.57V15.75h2.86Zm7.07,0H15.64V15.75H18.5Z"/>
</svg>
