<svg id="79e5c37d-ec0c-4011-b39f-b6bd91e8a7f8" data-name="Layer 1" xmlns="http://www.w3.org/2000/svg" width="20" height="20" viewBox="0 0 20 20">
  <defs>
    <style>
      .\34 950ea18-1a86-4706-a314-aedb4d0cdfb2 {
        fill: #231f20;
      }
    </style>
  </defs>
  <title>list</title>
  <g>
    <path class="4950ea18-1a86-4706-a314-aedb4d0cdfb2" d="M15.32,6.14H8.64a.5.5,0,0,1-.5-.5.5.5,0,0,1,.5-.5h6.68a.5.5,0,0,1,.5.5A.51.51,0,0,1,15.32,6.14Z"/>
    <path class="4950ea18-1a86-4706-a314-aedb4d0cdfb2" d="M15.32,10.41H8.64a.5.5,0,0,1,0-1h6.68a.5.5,0,0,1,0,1Z"/>
    <path class="4950ea18-1a86-4706-a314-aedb4d0cdfb2" d="M15.32,14.68H8.64a.5.5,0,0,1-.5-.5.5.5,0,0,1,.5-.5h6.68a.51.51,0,0,1,.5.5A.5.5,0,0,1,15.32,14.68Z"/>
    <path class="4950ea18-1a86-4706-a314-aedb4d0cdfb2" d="M4.9,7.2A1.57,1.57,0,1,1,6.47,5.64,1.57,1.57,0,0,1,4.9,7.2Zm0-2.13a.57.57,0,1,0,.57.57A.57.57,0,0,0,4.9,5.07Z"/>
    <path class="4950ea18-1a86-4706-a314-aedb4d0cdfb2" d="M4.9,11.48A1.57,1.57,0,1,1,6.47,9.91,1.58,1.58,0,0,1,4.9,11.48Zm0-2.14a.57.57,0,1,0,.57.57A.58.58,0,0,0,4.9,9.34Z"/>
    <path class="4950ea18-1a86-4706-a314-aedb4d0cdfb2" d="M4.9,15.75a1.57,1.57,0,1,1,1.57-1.57A1.57,1.57,0,0,1,4.9,15.75Zm0-2.14a.57.57,0,1,0,.57.57A.58.58,0,0,0,4.9,13.61Z"/>
    <path class="4950ea18-1a86-4706-a314-aedb4d0cdfb2" d="M17.8,19.23H2.2a1.7,1.7,0,0,1-1.7-1.7V2.47A1.7,1.7,0,0,1,2.2.77H17.8a1.7,1.7,0,0,1,1.7,1.7V17.53A1.7,1.7,0,0,1,17.8,19.23ZM2.2,1.77a.7.7,0,0,0-.7.7V17.53a.7.7,0,0,0,.7.7H17.8a.7.7,0,0,0,.7-.7V2.47a.7.7,0,0,0-.7-.7Z"/>
  </g>
</svg>
