<svg id="3beaf159-a55c-41c0-8612-653a4de4282b" data-name="Layer 1" xmlns="http://www.w3.org/2000/svg" width="20" height="20" viewBox="0 0 20 20">
  <defs>
    <style>
      .cb0401af-b4b1-4fa7-872f-fe60a4e4a2f1 {
        fill: #212221;
      }
    </style>
  </defs>
  <title>people-send</title>
  <g>
    <path class="cb0401af-b4b1-4fa7-872f-fe60a4e4a2f1" d="M17.36,13.35a2.54,2.54,0,1,0-3.94-3,3.44,3.44,0,0,0-6.84,0,2.54,2.54,0,1,0-3.94,3A3.76,3.76,0,0,0,.5,16.73a.5.5,0,0,0,.5.5H4.91a5.4,5.4,0,0,0-.14,1.15.5.5,0,0,0,.5.5h9.46a.5.5,0,0,0,.5-.5,5.4,5.4,0,0,0-.14-1.15H19a.5.5,0,0,0,.5-.5A3.76,3.76,0,0,0,17.36,13.35ZM15.73,9.87a1.55,1.55,0,0,1,0,3.09,1.55,1.55,0,1,1,0-3.09Zm-1.64,3.47a3.91,3.91,0,0,0-1.06.79A5.3,5.3,0,0,0,12,13.54a3.47,3.47,0,0,0,1.27-1.65A2.5,2.5,0,0,0,14.09,13.34ZM10,8.24A2.46,2.46,0,1,1,7.55,10.7,2.46,2.46,0,0,1,10,8.24ZM6.77,11.89A3.47,3.47,0,0,0,8,13.54,5.3,5.3,0,0,0,7,14.13a3.91,3.91,0,0,0-1.06-.79A2.5,2.5,0,0,0,6.77,11.89Zm-4-.48A1.55,1.55,0,1,1,4.27,13,1.54,1.54,0,0,1,2.73,11.41ZM1.55,16.23a2.75,2.75,0,0,1,4.67-1.45,5.26,5.26,0,0,0-1,1.45ZM5.8,17.88a4.23,4.23,0,0,1,8.4,0Zm9-1.65a5.26,5.26,0,0,0-1-1.45,2.76,2.76,0,0,1,4.68,1.45Z"/>
    <path class="cb0401af-b4b1-4fa7-872f-fe60a4e4a2f1" d="M10,4.64A5.67,5.67,0,0,0,5.5,6.85a.5.5,0,1,0,.79.61,4.68,4.68,0,0,1,7.41,0,.5.5,0,0,0,.4.19.52.52,0,0,0,.31-.1.51.51,0,0,0,.09-.7A5.67,5.67,0,0,0,10,4.64Z"/>
    <path class="cb0401af-b4b1-4fa7-872f-fe60a4e4a2f1" d="M15.2,6.13A.5.5,0,1,0,16,5.51a7.69,7.69,0,0,0-12,0,.52.52,0,0,0,.08.71.51.51,0,0,0,.31.11.49.49,0,0,0,.39-.19,6.69,6.69,0,0,1,10.41,0Z"/>
    <path class="cb0401af-b4b1-4fa7-872f-fe60a4e4a2f1" d="M3.2,4.94A8.67,8.67,0,0,1,16.81,5a.49.49,0,0,0,.7.08.49.49,0,0,0,.08-.7,9.67,9.67,0,0,0-15.17,0A.49.49,0,0,0,2.5,5,.5.5,0,0,0,3.2,4.94Z"/>
  </g>
</svg>
