<svg id="3c1d8402-4cbc-4d02-b71c-0f19c7c543f0" data-name="Layer 1" xmlns="http://www.w3.org/2000/svg" width="20" height="20" viewBox="0 0 20 20">
  <defs>
    <style>
      .\34 7c21687-e5ec-4895-a69f-548d6783e845 {
        fill: #221f1f;
      }
    </style>
  </defs>
  <title>price</title>
  <g>
    <path class="47c21687-e5ec-4895-a69f-548d6783e845" d="M10,.64a9.5,9.5,0,1,0,9.5,9.5A9.51,9.51,0,0,0,10,.64Zm0,17.94a8.45,8.45,0,1,1,8.44-8.44A8.45,8.45,0,0,1,10,18.58Z"/>
    <path class="47c21687-e5ec-4895-a69f-548d6783e845" d="M11.73,8.1a.56.56,0,0,0,1.12,0,2.67,2.67,0,0,0-2.32-2.55V4.83a.53.53,0,0,0-1.06,0v.72A2.67,2.67,0,0,0,7.15,8.1a2.68,2.68,0,0,0,2.32,2.55v2.93a1.54,1.54,0,0,1-1.2-1.41.56.56,0,1,0-1.12,0,2.67,2.67,0,0,0,2.32,2.55v.72a.53.53,0,0,0,1.06,0v-.72a2.67,2.67,0,0,0,2.32-2.55,2.68,2.68,0,0,0-2.32-2.55V6.69A1.54,1.54,0,0,1,11.73,8.1Zm-3.46,0a1.54,1.54,0,0,1,1.2-1.41V9.5A1.53,1.53,0,0,1,8.27,8.1Zm2.26,5.48V10.77a1.53,1.53,0,0,1,1.2,1.4,1.54,1.54,0,0,1-1.2,1.41"/>
  </g>
</svg>
