<svg id="f638783c-a7c8-46e9-8aa5-4f95a8be2abf" data-name="Layer 1" xmlns="http://www.w3.org/2000/svg" width="20" height="20" viewBox="0 0 20 20">
  <defs>
    <style>
      .\34 f016edd-ca80-4fee-94aa-818a37a7e295 {
        fill: #231f20;
      }
    </style>
  </defs>
  <title>print</title>
  <g>
    <g>
      <path class="4f016edd-ca80-4fee-94aa-818a37a7e295" d="M17.85,16.41H15.37a.5.5,0,0,1,0-1h2.48A1.16,1.16,0,0,0,19,14.26v-5a1.16,1.16,0,0,0-1.15-1.15H2.15A1.16,1.16,0,0,0,1,9.3v5a1.16,1.16,0,0,0,1.15,1.15H4.63a.5.5,0,0,1,0,1H2.15A2.15,2.15,0,0,1,0,14.26v-5A2.16,2.16,0,0,1,2.15,7.15h15.7A2.16,2.16,0,0,1,20,9.3v5A2.15,2.15,0,0,1,17.85,16.41Z"/>
      <path class="4f016edd-ca80-4fee-94aa-818a37a7e295" d="M15.37,18.17H4.63a.5.5,0,0,1-.5-.5V13.43a.5.5,0,0,1,.5-.5H15.37a.5.5,0,0,1,.5.5v4.24A.5.5,0,0,1,15.37,18.17Zm-10.24-1h9.74V13.93H5.13Z"/>
      <path class="4f016edd-ca80-4fee-94aa-818a37a7e295" d="M3,11.45A1.33,1.33,0,1,1,4.3,10.13,1.33,1.33,0,0,1,3,11.45ZM3,9.8a.33.33,0,0,0-.33.33.32.32,0,0,0,.33.32.32.32,0,0,0,.32-.32A.32.32,0,0,0,3,9.8Z"/>
    </g>
    <path class="4f016edd-ca80-4fee-94aa-818a37a7e295" d="M15.19,7.57a.5.5,0,0,1-.5-.5V2.82H5V7.07a.5.5,0,0,1-1,0V2.32a.5.5,0,0,1,.5-.5H15.19a.51.51,0,0,1,.5.5V7.07A.5.5,0,0,1,15.19,7.57Z"/>
  </g>
</svg>
