<svg id="1dfb1fa5-c740-407a-ac29-3bd206a10610" data-name="Layer 1" xmlns="http://www.w3.org/2000/svg" width="20" height="20" viewBox="0 0 20 20">
  <defs>
    <style>
      .\30 c6e58c6-6c67-4a0a-8e71-1af5c9f00e08 {
        fill: #231f20;
      }
    </style>
  </defs>
  <title>recent</title>
  <g id="cfab39ee-3cab-4248-9776-dd67dbc39a79" data-name="close">
    <g>
      <path class="0c6e58c6-6c67-4a0a-8e71-1af5c9f00e08" d="M9.93,19.44a9.5,9.5,0,1,1,9.5-9.5A9.51,9.51,0,0,1,9.93,19.44Zm0-18a8.5,8.5,0,1,0,8.5,8.5A8.51,8.51,0,0,0,9.93,1.44Z"/>
      <path class="0c6e58c6-6c67-4a0a-8e71-1af5c9f00e08" d="M14.24,14.75a.47.47,0,0,1-.34-.13L9.2,10.31A.49.49,0,0,1,9,9.94V5.64a.5.5,0,0,1,1,0V9.73l4.53,4.15a.5.5,0,0,1,0,.71A.5.5,0,0,1,14.24,14.75Z"/>
    </g>
  </g>
</svg>
