<svg id="cd2b9f8b-179a-43fd-bf1d-88e80c232e76" data-name="Layer 1" xmlns="http://www.w3.org/2000/svg" width="20" height="20.83" viewBox="0 0 20 20.83">
  <defs>
    <style>
      .b6291fc5-f7c7-4603-b389-b056deda882d {
        fill: #231f20;
      }
    </style>
  </defs>
  <title>report-check</title>
  <g>
    <path class="b6291fc5-f7c7-4603-b389-b056deda882d" d="M17.06,16.11a.35.35,0,0,0-.37.32v1.68a1,1,0,0,1-1,1H3.94a1,1,0,0,1-1-1V2.91a1,1,0,0,1,1-1H11.5v5.2h5.19V9.58a.39.39,0,0,0,.39.38.37.37,0,0,0,.38-.38V6.63L11.7,1H4.1A1.86,1.86,0,0,0,2.15,2.83V18A2,2,0,0,0,4.1,20H15.5a2,2,0,0,0,2-2v-1.6A.4.4,0,0,0,17.06,16.11Z"/>
    <path class="b6291fc5-f7c7-4603-b389-b056deda882d" d="M20.18,9.7l-.09-.08a.76.76,0,0,0-1.08,0l-4.83,4.83L11.75,12a.66.66,0,0,0-.94,0l-.23.23a.66.66,0,0,0,0,.94l3.09,3.09a.67.67,0,0,0,.72.15.73.73,0,0,0,.33-.19l5.46-5.45A.77.77,0,0,0,20.18,9.7Z"/>
  </g>
</svg>
