<svg id="656ec6bc-85f5-4c78-b70f-399bafbeb531" data-name="Layer 1" xmlns="http://www.w3.org/2000/svg" width="20" height="20.83" viewBox="0 0 20 20.83">
  <defs>
    <style>
      .\30 ffb4490-286f-4e7a-9b02-e18e5e206453 {
        fill: #231f20;
      }
    </style>
  </defs>
  <title>report-arrow</title>
  <g>
    <path class="0ffb4490-286f-4e7a-9b02-e18e5e206453" d="M17.86,17.16a.34.34,0,0,0-.36.32v.63a1,1,0,0,1-1,1H4.74a1,1,0,0,1-1-1V2.91a1,1,0,0,1,1-1H12.3v5.2h5.2v1.6a.39.39,0,0,0,.39.38.37.37,0,0,0,.37-.38V6.63L12.51,1H4.91A1.86,1.86,0,0,0,3,2.83V18a2,2,0,0,0,2,2h11.4a2,2,0,0,0,2-2v-.55A.39.39,0,0,0,17.86,17.16Z"/>
    <path class="0ffb4490-286f-4e7a-9b02-e18e5e206453" d="M18.22,10.85h-5.5V9.68a.57.57,0,0,0-.87-.52l-4.76,3.2a.63.63,0,0,0,0,1l4.76,3.19a.56.56,0,0,0,.87-.51V14.92h5.5a1.19,1.19,0,0,0,1.19-1.19V12A1.19,1.19,0,0,0,18.22,10.85Z"/>
  </g>
</svg>
