<svg id="b7c70fd1-8e91-4a1b-9622-c85306f9a0c3" data-name="Layer 1" xmlns="http://www.w3.org/2000/svg" width="20" height="20" viewBox="0 0 20 20">
  <defs>
    <style>
      .cf020995-4ba3-4b29-bd78-a3d3d8def79b {
        fill: #231f20;
      }
    </style>
  </defs>
  <title>structures</title>
  <path class="cf020995-4ba3-4b29-bd78-a3d3d8def79b" d="M20,5.72a.49.49,0,0,0-.7-.06,24.47,24.47,0,0,1-2.24,1.62V3.54a.5.5,0,0,0-.5-.5H13.37a.5.5,0,0,0-.5.5v6.1l-.79.38V6.52a.5.5,0,0,0-.5-.5H8.37a.5.5,0,0,0-.5.5v5.36l-.79.32V9.49a.5.5,0,0,0-.5-.5H3.37a.5.5,0,0,0-.5.5v4.28c-1.43.5-2.34.78-2.38.79a.51.51,0,0,0-.33.63.51.51,0,0,0,.48.35.39.39,0,0,0,.15,0c.12,0,.89-.28,2.08-.68v2.65a.5.5,0,0,0,.5.5H6.58a.5.5,0,0,0,.5-.5v-4.2L7.87,13v1.54a.5.5,0,0,0,.5.5h3.21a.5.5,0,0,0,.5-.5V11.14l.79-.37v.77a.5.5,0,0,0,.5.5h3.21a.5.5,0,0,0,.5-.5V8.47a27,27,0,0,0,2.88-2A.51.51,0,0,0,20,5.72ZM3.87,10H6.08v2.6l-2.21.83Zm2.21,7H3.87v-2.5c.66-.24,1.41-.51,2.21-.82ZM8.87,7h2.21v3.47c-.74.34-1.49.67-2.21,1Zm2.21,7H8.87V12.56c.72-.3,1.46-.62,2.21-1ZM13.87,4h2.21V7.9c-.71.43-1.45.84-2.21,1.23Zm2.21,7H13.87v-.77c.75-.39,1.49-.79,2.21-1.2Z"/>
</svg>
