<svg id="Mask_Group_62523" data-name="Mask Group 62523" xmlns="http://www.w3.org/2000/svg" xmlns:xlink="http://www.w3.org/1999/xlink" width="125" height="136.359" viewBox="0 0 125 136.359">
  <defs>
    <clipPath id="clip-path">
      <rect id="Rectangle_1989" data-name="Rectangle 1989" width="125" height="136.359" fill="none"/>
    </clipPath>
  </defs>
  <rect id="Rectangle_1989-2" data-name="Rectangle 1989" width="125" height="136.359" fill="none"/>
  <g id="Mask_Group_62523-2" data-name="Mask Group 62523" clip-path="url(#clip-path)">
    <path id="Path_19064" data-name="Path 19064" d="M82.909,41.454A41.454,41.454,0,1,1,41.454,0,41.455,41.455,0,0,1,82.909,41.454Z" transform="translate(13.345 40.208)" fill="#f7a9b2"/>
    <path id="Line_234" data-name="Line 234" d="M0,0,2.245,17.318" transform="translate(60.503 11.996)" fill="none" stroke="#003e8b" stroke-miterlimit="1" stroke-width="1.5"/>
    <path id="Line_235" data-name="Line 235" d="M0,0,6.753,13.037" transform="translate(46.426 25.054)" fill="none" stroke="#003e8b" stroke-miterlimit="1" stroke-width="1.5"/>
    <path id="Line_236" data-name="Line 236" d="M0,0,12.851,11.824" transform="translate(27.676 28.16)" fill="none" stroke="#003e8b" stroke-miterlimit="1" stroke-width="1.5"/>
    <path id="Line_237" data-name="Line 237" d="M0,0,13.553,5.646" transform="translate(25.139 47.264)" fill="none" stroke="#003e8b" stroke-miterlimit="1" stroke-width="1.5"/>
    <path id="Line_238" data-name="Line 238" d="M0,0,17.445.8" transform="translate(12.919 61.643)" fill="none" stroke="#003e8b" stroke-miterlimit="1" stroke-width="1.5"/>
    <path id="Line_239" data-name="Line 239" d="M0,4.387,14.012,0" transform="translate(23.109 73.575)" fill="none" stroke="#003e8b" stroke-miterlimit="1" stroke-width="1.5"/>
    <path id="Line_240" data-name="Line 240" d="M0,10.6,13.876,0" transform="translate(23.137 86.175)" fill="none" stroke="#003e8b" stroke-miterlimit="1" stroke-width="1.5"/>
    <path id="Line_241" data-name="Line 241" d="M0,12.367,7.914,0" transform="translate(41.285 90.415)" fill="none" stroke="#003e8b" stroke-miterlimit="1" stroke-width="1.5"/>
    <path id="Line_242" data-name="Line 242" d="M0,17.042,3.814,0" transform="translate(53.549 100.083)" fill="none" stroke="#003e8b" stroke-miterlimit="1" stroke-width="1.5"/>
    <path id="Line_243" data-name="Line 243" d="M1.887,14.561,0,0" transform="translate(69.276 95.552)" fill="none" stroke="#003e8b" stroke-miterlimit="1" stroke-width="1.5"/>
    <path id="Line_244" data-name="Line 244" d="M8.033,15.506,0,0" transform="translate(81.892 97.657)" fill="none" stroke="#003e8b" stroke-miterlimit="1" stroke-width="1.5"/>
    <path id="Line_245" data-name="Line 245" d="M10.805,9.941,0,0" transform="translate(87.958 86.581)" fill="none" stroke="#003e8b" stroke-miterlimit="1" stroke-width="1.5"/>
    <path id="Line_246" data-name="Line 246" d="M16.12,6.715,0,0" transform="translate(99.123 80.031)" fill="none" stroke="#003e8b" stroke-miterlimit="1" stroke-width="1.5"/>
    <path id="Path_19067" data-name="Path 19067" d="M14.667.67,0,0" transform="translate(96.503 67.701)" fill="none" stroke="#003e8b" stroke-miterlimit="1" stroke-width="1.5"/>
    <path id="Line_248" data-name="Line 248" d="M16.665,0,0,5.218" transform="translate(100.993 50.235)" fill="none" stroke="#003e8b" stroke-miterlimit="1" stroke-width="1.5"/>
    <path id="Line_249" data-name="Line 249" d="M11.666,0,0,8.915" transform="translate(90.913 38.83)" fill="none" stroke="#003e8b" stroke-miterlimit="1" stroke-width="1.5"/>
    <path id="Line_250" data-name="Line 250" d="M9.413,0,0,14.709" transform="translate(86.627 20.714)" fill="none" stroke="#003e8b" stroke-miterlimit="1" stroke-width="1.5"/>
    <path id="Line_251" data-name="Line 251" d="M3.207,0,0,14.328" transform="translate(73.803 21.724)" fill="none" stroke="#003e8b" stroke-miterlimit="1" stroke-width="1.5"/>
    <path id="Path_19065" data-name="Path 19065" d="M29.777,0,13.744,16.034,6.872,9.162,0,16.034,13.744,29.777,36.649,6.872,29.777,0Z" transform="translate(46.997 50.619)" fill="none" stroke="#003e8b" stroke-miterlimit="1" stroke-width="1.5"/>
    <path id="Line_252" data-name="Line 252" d="M0,0H16.828" transform="translate(7.341 114.72)" fill="none" stroke="#047dba" stroke-miterlimit="1" stroke-width="1.5"/>
    <path id="Line_253" data-name="Line 253" d="M0,0V16.828" transform="translate(35.663 0)" fill="none" stroke="#92e5ff" stroke-miterlimit="1" stroke-width="1.5"/>
    <path id="Line_254" data-name="Line 254" d="M0,0H16.828" transform="translate(44.077 8.414)" fill="none" stroke="#92e5ff" stroke-miterlimit="1" stroke-width="1.5"/>
    <path id="Path_19066" data-name="Path 19066" d="M0,0H0" transform="translate(12.295 135.183)" fill="none" stroke="#005483" stroke-miterlimit="1" stroke-width="1.5"/>
  </g>
</svg>
