<svg xmlns="http://www.w3.org/2000/svg" width="20.091" height="16.905" viewBox="0 0 20.091 16.905">
  <g id="icon-quote" transform="translate(-16.543 -12.89)" style="isolation: isolate">
    <path id="路径_19076" data-name="路径 19076" d="M21.149,29.8A3.9,3.9,0,0,1,17.695,28.1a8.323,8.323,0,0,1-1.152-4.729,11,11,0,0,1,1.716-6.124A12.594,12.594,0,0,1,23.5,12.89l1.569,3.136A9.52,9.52,0,0,0,21.762,18.6a5.845,5.845,0,0,0-1.1,3.65,1.7,1.7,0,0,1,.489-.049,3.933,3.933,0,0,1,2.671.956,3.286,3.286,0,0,1,1.1,2.621,3.975,3.975,0,0,1-1.078,2.94A3.658,3.658,0,0,1,21.149,29.8Zm11.565,0A3.9,3.9,0,0,1,29.26,28.1a8.315,8.315,0,0,1-1.153-4.729,11,11,0,0,1,1.716-6.124,12.6,12.6,0,0,1,5.242-4.361l1.569,3.136A9.53,9.53,0,0,0,33.326,18.6a5.852,5.852,0,0,0-1.1,3.65,1.705,1.705,0,0,1,.49-.049,3.937,3.937,0,0,1,2.671.956,3.289,3.289,0,0,1,1.1,2.621,3.975,3.975,0,0,1-1.078,2.94A3.656,3.656,0,0,1,32.714,29.8Z" fill="#003e8b"/>
  </g>
</svg>
