<svg xmlns="http://www.w3.org/2000/svg" width="135.394" height="113.966" viewBox="0 0 135.394 113.966">
  <g id="Group_267" data-name="Group 267" transform="translate(0.75 0.75)">
    <circle id="Ellipse_49" data-name="Ellipse 49" cx="39.797" cy="39.797" r="39.797" transform="translate(26.996 18.594)" fill="#c5e9b2"/>
    <path id="Path_311" data-name="Path 311" d="M84.118,18.694V9.347H76.33V0h-59.2V9.347H9.348v9.347H0V71.656H93.464V18.694Z" transform="translate(20.061 40.81)" fill="#fff" stroke="#005483" stroke-miterlimit="1" stroke-width="1.5"/>
    <rect id="Rectangle_41" data-name="Rectangle 41" width="93.464" height="52.963" transform="translate(20.062 59.502)" fill="none" stroke="#005483" stroke-linecap="round" stroke-linejoin="bevel" stroke-miterlimit="1" stroke-width="1.5"/>
    <path id="Path_312" data-name="Path 312" d="M0,4.673V0H74.772V4.673" transform="translate(29.408 50.156)" fill="none" stroke="#005483" stroke-linecap="round" stroke-linejoin="bevel" stroke-miterlimit="1" stroke-width="1.5"/>
    <path id="Path_313" data-name="Path 313" d="M0,4.673V0H59.193V4.673" transform="translate(37.196 40.81)" fill="none" stroke="#005483" stroke-linecap="round" stroke-linejoin="bevel" stroke-miterlimit="1" stroke-width="1.5"/>
    <path id="Line_565" data-name="Line 565" d="M0,0H29.6" transform="translate(68.351 71.964)" fill="none" stroke="#005483" stroke-linecap="round" stroke-linejoin="bevel" stroke-miterlimit="1" stroke-width="1.5"/>
    <path id="Line_566" data-name="Line 566" d="M0,0H29.6" transform="translate(68.351 79.753)" fill="none" stroke="#005483" stroke-linecap="round" stroke-linejoin="bevel" stroke-miterlimit="1" stroke-width="1.5"/>
    <path id="Line_567" data-name="Line 567" d="M0,0H29.6" transform="translate(68.351 87.542)" fill="none" stroke="#005483" stroke-linecap="round" stroke-linejoin="bevel" stroke-miterlimit="1" stroke-width="1.5"/>
    <path id="Line_568" data-name="Line 568" d="M0,0H17.135" transform="translate(68.351 95.331)" fill="none" stroke="#005483" stroke-linecap="round" stroke-linejoin="bevel" stroke-miterlimit="1" stroke-width="1.5"/>
    <path id="Path_314" data-name="Path 314" d="M24.924,5.765C24.924,3.4,18.062,0,12.458,0S0,3.4,0,5.765v8.72c0,2.37,6.853,5.766,12.458,5.766s12.466-3.4,12.466-5.766V5.765Z" transform="translate(34.081 85.984)" fill="#bfe9f9" stroke="#707070" stroke-miterlimit="1" stroke-width="1.5"/>
    <path id="Path_315" data-name="Path 315" d="M24.924,14.02V5.765C24.924,3.4,18.062,0,12.458,0S0,3.4,0,5.765V14.02" transform="translate(34.081 85.984)" fill="none" stroke="#005483" stroke-linecap="round" stroke-miterlimit="1" stroke-width="1.5"/>
    <path id="Path_316" data-name="Path 316" d="M6.229,0C3.008,0,0,2.512,0,5.609V9.969c0,3.1,3.008,5.609,6.229,5.609s6.232-2.512,6.232-5.609V5.609C12.462,2.512,9.452,0,6.229,0Z" transform="translate(40.312 70.407)" fill="#fff" stroke="#005483" stroke-miterlimit="1" stroke-width="1.5"/>
    <g id="Group_264" data-name="Group 264">
      <path id="Line_569" data-name="Line 569" d="M0,0V4.9" transform="translate(29.41 3.268)" fill="none" stroke="#005483" stroke-miterlimit="1" stroke-width="1.5"/>
      <path id="Line_570" data-name="Line 570" d="M0,0H4.9" transform="translate(3.268 29.409)" fill="none" stroke="#005483" stroke-miterlimit="1" stroke-width="1.5"/>
      <path id="Line_571" data-name="Line 571" d="M0,0H4.9" transform="translate(50.65 29.409)" fill="none" stroke="#005483" stroke-miterlimit="1" stroke-width="1.5"/>
      <path id="Path_317" data-name="Path 317" d="M0,0,13.072,16.339l13.07-8.169" transform="translate(16.339 14.705)" fill="none" stroke="#005483" stroke-miterlimit="1" stroke-width="1.5"/>
      <path id="Path_318" data-name="Path 318" d="M29.409,58.819a29.41,29.41,0,1,1,29.41-29.41c0,4.056-2.307,11.438-2.307,11.438" fill="none" stroke="#005483" stroke-miterlimit="1" stroke-width="1.5"/>
    </g>
    <g id="Group_265" data-name="Group 265" transform="translate(85.486 5.495)">
      <path id="Line_572" data-name="Line 572" d="M2.674,0,0,2.674" transform="translate(0 6.685)" fill="none" stroke="#28a9e0" stroke-miterlimit="1" stroke-width="1.5"/>
      <path id="Line_573" data-name="Line 573" d="M2.674,0,0,2.674" transform="translate(6.685)" fill="none" stroke="#28a9e0" stroke-miterlimit="1" stroke-width="1.5"/>
      <path id="Line_574" data-name="Line 574" d="M0,0,2.674,2.674" transform="translate(6.685 6.685)" fill="none" stroke="#28a9e0" stroke-miterlimit="1" stroke-width="1.5"/>
      <path id="Line_575" data-name="Line 575" d="M0,0,2.674,2.674" fill="none" stroke="#28a9e0" stroke-miterlimit="1" stroke-width="1.5"/>
    </g>
    <g id="Group_266" data-name="Group 266" transform="translate(124.754 36.13)">
      <path id="Line_576" data-name="Line 576" d="M2.674,0,0,2.674" transform="translate(0 6.685)" fill="none" stroke="#28a9e0" stroke-miterlimit="1" stroke-width="1.5"/>
      <path id="Line_577" data-name="Line 577" d="M2.674,0,0,2.674" transform="translate(6.685)" fill="none" stroke="#28a9e0" stroke-miterlimit="1" stroke-width="1.5"/>
      <path id="Line_578" data-name="Line 578" d="M0,0,2.674,2.674" transform="translate(6.685 6.685)" fill="none" stroke="#28a9e0" stroke-miterlimit="1" stroke-width="1.5"/>
      <path id="Line_579" data-name="Line 579" d="M0,0,2.674,2.674" fill="none" stroke="#28a9e0" stroke-miterlimit="1" stroke-width="1.5"/>
    </g>
  </g>
</svg>
