<svg id="b975aae7-c36b-45a4-9d23-fd1735ad3df6" data-name="Layer 1" xmlns="http://www.w3.org/2000/svg" width="20" height="20" viewBox="0 0 20 20">
  <title>articles</title>
  <g>
    <path d="M7.4,9.2H4.3a.5.5,0,0,1-.5-.5V4.9a.5.5,0,0,1,.5-.5H7.4a.5.5,0,0,1,.5.5V8.7A.5.5,0,0,1,7.4,9.2Zm-2.6-1H7V5.4H4.8Z"/>
    <path d="M11.5,11.2H4.3a.5.5,0,0,1,0-1h7.2a.5.5,0,0,1,0,1Z"/>
    <path d="M11.5,13.2H4.3a.5.5,0,0,1-.5-.5.5.5,0,0,1,.5-.5h7.2a.5.5,0,0,1,.5.5A.5.5,0,0,1,11.5,13.2Z"/>
    <path d="M11.5,7.2H9.7c-.2,0-.4-.3-.4-.5a.5.5,0,0,1,.4-.5h1.8a.5.5,0,0,1,.5.5A.5.5,0,0,1,11.5,7.2Z"/>
    <path d="M11.5,9.2H9.7a.5.5,0,0,1-.4-.5.5.5,0,0,1,.4-.5h1.8a.5.5,0,0,1,0,1Z"/>
    <path d="M11.5,15.2H4.3a.5.5,0,0,1-.5-.4.5.5,0,0,1,.5-.5h7.2a.5.5,0,0,1,.5.5A.5.5,0,0,1,11.5,15.2Z"/>
    <path d="M18.8,2.9H17.3V2.6a.5.5,0,0,0-.5-.5H15.4V1.5a.5.5,0,0,0-.5-.5H1.2a.5.5,0,0,0-.5.5v15a2.3,2.3,0,0,0,2.5,2.4H16.8a2.5,2.5,0,0,0,2.5-2.4V3.4A.5.5,0,0,0,18.8,2.9ZM3.2,18a1.4,1.4,0,0,1-1.5-1.5V1.9H14.4V16.5a2.7,2.7,0,0,0,.5,1.5Zm15.1-1.5A1.5,1.5,0,0,1,16.8,18a1.5,1.5,0,0,1-1.4-1.5V3h1v.4h0V16.1a1,1,0,0,0,.9,1,.5.5,0,1,0,0-1V3.9h1Z"/>
  </g>
</svg>
