<svg id="04b5dcdd-0c10-4fdf-a3e6-6eeb7f4941d0" data-name="Layer 1" xmlns="http://www.w3.org/2000/svg" width="20" height="20.83" viewBox="0 0 20 20.83">
  <defs>
    <style>
      .bdc3f38e-1863-401e-ab4a-295a5603e47a {
        fill: #231f20;
      }
    </style>
  </defs>
  <title>career-path</title>
  <path class="bdc3f38e-1863-401e-ab4a-295a5603e47a" d="M16.21,7.1a.59.59,0,0,0,.4-.17L19,4.56a.58.58,0,0,0,0-.81L16.61,1.39a.54.54,0,0,0-.4-.17H10.28V.61a.58.58,0,1,0-1.15,0v.61H3.2a.56.56,0,0,0-.57.57V6.52a.57.57,0,0,0,.57.58H9.13V8.62H3.79a.54.54,0,0,0-.4.17L1,11.15A.58.58,0,0,0,1,12l2.37,2.36a.54.54,0,0,0,.4.17H9.13v6a.58.58,0,0,0,1.15,0v-6H16.8a.57.57,0,0,0,.57-.57V9.2a.57.57,0,0,0-.57-.58H10.28V7.1Zm0,6.25H4L2.24,11.56,4,9.77H16.22ZM3.78,2.37H16l1.79,1.79L16,6H3.78Z"/>
</svg>
