<svg id="087efd3c-3500-4f5b-a4b1-493fdbe94acd" data-name="Layer 1" xmlns="http://www.w3.org/2000/svg" width="20" height="20" viewBox="0 0 20 20">
  <defs>
    <style>
      .\38 cbc4706-87c2-41f0-aad2-3c944d721217 {
        fill: #231f20;
      }
    </style>
  </defs>
  <title>chat</title>
  <g>
    <path class="8cbc4706-87c2-41f0-aad2-3c944d721217" d="M1.35,13.76A.5.5,0,0,1,.91,13l1.36-2.43a5.36,5.36,0,0,1-1.73-4C.54,3.31,3.75.66,7.69.66s7.15,2.65,7.15,5.92a.5.5,0,0,1-.5.5.5.5,0,0,1-.5-.5c0-2.71-2.76-4.92-6.15-4.92S1.54,3.87,1.54,6.58a4.33,4.33,0,0,0,1.67,3.49.51.51,0,0,1,.13.64L2.45,12.3,5.2,11.24a.53.53,0,0,1,.33,0,8.93,8.93,0,0,0,1.16.29.5.5,0,0,1,.43.56.49.49,0,0,1-.56.43,8,8,0,0,1-1.16-.27L1.53,13.72A.39.39,0,0,1,1.35,13.76Z"/>
    <path class="8cbc4706-87c2-41f0-aad2-3c944d721217" d="M18.73,19.35a.65.65,0,0,1-.19,0l-2.91-1.17a6,6,0,0,1-5.57-.55,5.21,5.21,0,0,1-2.48-4.3c0-2.82,2.74-5.2,6-5.2s6,2.38,6,5.2a4.36,4.36,0,0,1-1.44,3.25l1.07,2.08a.48.48,0,0,1-.07.56A.5.5,0,0,1,18.73,19.35ZM15.62,17.1a.58.58,0,0,1,.19,0l1.86.74L17,16.65a.49.49,0,0,1,.13-.62,3.43,3.43,0,0,0,1.38-2.74c0-2.24-2.33-4.2-5-4.2s-5,2-5,4.2a4.21,4.21,0,0,0,2,3.46,5.06,5.06,0,0,0,4.81.4A.49.49,0,0,1,15.62,17.1Z"/>
  </g>
</svg>
