<svg id="94c5ba5c-0785-43fc-8bd4-c312502e2005" data-name="Layer 1" xmlns="http://www.w3.org/2000/svg" width="20" height="20" viewBox="0 0 20 20">
  <defs>
    <style>
      .\33 c63b578-0ac3-46ba-8e02-d16eccf3908b {
        fill: #231f20;
      }
    </style>
  </defs>
  <title>columns</title>
  <path class="3c63b578-0ac3-46ba-8e02-d16eccf3908b" d="M19,1.54H1A.5.5,0,0,0,.5,2V18a.5.5,0,0,0,.5.5H19a.5.5,0,0,0,.5-.5V2A.5.5,0,0,0,19,1.54ZM5,13.48v-3H7.47v3Zm2.49,1v3H5v-3Zm0-8v3H5v-3ZM5,5.52v-3H7.47v3Zm3.49,1h10v3h-10ZM4,9.5H1.5v-3H4Zm-2.48,1H4v3H1.5Zm7,0h10v3h-10Zm10-5h-10v-3h10ZM4,2.54v3H1.5v-3ZM1.5,14.48H4v3H1.5Zm7,3v-3h10v3Z"/>
</svg>
