<svg id="7b5c184b-f4f5-4407-a1c7-9c10a3b0701b" data-name="Layer 1" xmlns="http://www.w3.org/2000/svg" width="20" height="20" viewBox="0 0 20 20">
  <defs>
    <style>
      .\36 f3098fc-88b3-4771-a09f-09378397f4ab {
        fill: #231f20;
      }
    </style>
  </defs>
  <title>copy</title>
  <path class="6f3098fc-88b3-4771-a09f-09378397f4ab" d="M18.5,5.43H14.56V1.5a.5.5,0,0,0-.5-.5H1.5a.5.5,0,0,0-.5.5V14.07a.5.5,0,0,0,.5.5H5.44V18.5a.5.5,0,0,0,.5.5H18.5a.5.5,0,0,0,.5-.5V5.93A.5.5,0,0,0,18.5,5.43ZM2,13.57V2H13.56V5.43H5.94a.5.5,0,0,0-.5.5v7.64ZM18,18H6.44V6.43H18Z"/>
</svg>
