<svg id="80846868-bd3e-4ce5-ac0c-fe77c5775f90" data-name="Layer 1" xmlns="http://www.w3.org/2000/svg" width="20" height="20" viewBox="0 0 20 20">
  <defs>
    <style>
      .\38 5b904c0-aaf4-42ce-85a1-85e743ef4d12 {
        fill: #231f20;
      }
    </style>
  </defs>
  <title>csv</title>
  <path class="85b904c0-aaf4-42ce-85a1-85e743ef4d12" d="M16.23,1.15H3.77A2.75,2.75,0,0,0,1,3.87V16.13a2.75,2.75,0,0,0,2.77,2.72H16.23A2.75,2.75,0,0,0,19,16.13V3.87A2.75,2.75,0,0,0,16.23,1.15Zm-10.88,13H5a.75.75,0,1,1,0-1.49h.4a.75.75,0,1,1,0,1.49Zm0-3.4H5a.75.75,0,1,1,0-1.5h.4a.75.75,0,1,1,0,1.5Zm0-3.41H5A.75.75,0,1,1,5,5.85h.4a.75.75,0,1,1,0,1.49Zm9.7,6.81H8.87a.75.75,0,1,1,0-1.49h6.18a.75.75,0,1,1,0,1.49Zm0-3.4H8.87a.75.75,0,1,1,0-1.5h6.18a.75.75,0,1,1,0,1.5Zm0-3.41H8.87a.75.75,0,1,1,0-1.49h6.18a.75.75,0,1,1,0,1.49Z"/>
</svg>
