<svg id="eb769050-899e-4950-a3f9-57853e35be63" data-name="Layer 1" xmlns="http://www.w3.org/2000/svg" width="20" height="20.83" viewBox="0 0 20 20.83">
  <defs>
    <style>
      .\30 679a489-a3ba-4439-9923-54eb29142096, .\35 bed07f9-cacf-4f70-b2c9-dbb4b6833416 {
        fill: #231f20;
        stroke: #212221;
        stroke-miterlimit: 10;
      }

      .\30 679a489-a3ba-4439-9923-54eb29142096 {
        stroke-width: 0.22px;
      }

      .\35 bed07f9-cacf-4f70-b2c9-dbb4b6833416 {
        stroke-width: 0.31px;
      }
    </style>
  </defs>
  <title>education</title>
  <g id="704e5a89-d21e-480d-9de9-8d25f132d931" data-name="oNNZA8.tif">
    <g>
      <path class="0679a489-a3ba-4439-9923-54eb29142096" d="M5.5,2.38a6.19,6.19,0,0,1,9.3,8.13,2.23,2.23,0,0,1-.35.4,2.46,2.46,0,0,0-.79,1.6c-.06.42-.08.85-.12,1.27a.56.56,0,0,1-.68.54.49.49,0,0,1-.45-.45,5.27,5.27,0,0,1,.84-3.34c.29-.38.65-.71.91-1.11A5,5,0,0,0,13.3,3,5.11,5.11,0,0,0,6,3.42a5,5,0,0,0,0,6.6,4.44,4.44,0,0,1,1.22,2.74c0,.31.06.62.08.93a.54.54,0,0,1-.51.64.56.56,0,0,1-.63-.56c0-.42-.07-.84-.12-1.26A2.67,2.67,0,0,0,5.35,11,6.15,6.15,0,0,1,5,2.86C5.16,2.69,5.34,2.54,5.5,2.38Z"/>
      <path class="5bed07f9-cacf-4f70-b2c9-dbb4b6833416" d="M6.81,15.56a2.45,2.45,0,0,1,.42-.1h5.12a.41.41,0,0,1,.45.45c0,.27-.16.42-.46.42H7.2a.37.37,0,0,1-.41-.27A1.72,1.72,0,0,1,6.81,15.56Z"/>
      <path class="5bed07f9-cacf-4f70-b2c9-dbb4b6833416" d="M12.19,17.44a1.33,1.33,0,0,1,0,.48c-.05.12-.21.2-.32.28s-.08,0-.12,0h-4c-.29,0-.44-.13-.46-.37s.14-.49.49-.49c.66,0,1.33,0,2,0s1.29,0,1.93,0A2.53,2.53,0,0,1,12.19,17.44Z"/>
      <path class="5bed07f9-cacf-4f70-b2c9-dbb4b6833416" d="M11.17,19.29A1.58,1.58,0,0,1,9.69,20a1.43,1.43,0,0,1-1.29-.73Z"/>
    </g>
  </g>
</svg>
