<svg id="20a11290-df2f-4beb-b480-546ffc6592dc" data-name="Layer 1" xmlns="http://www.w3.org/2000/svg" width="20" height="20" viewBox="0 0 20 20">
  <defs>
    <style>
      .\31 f67e91e-0709-405f-8e27-d168dfccbac5 {
        fill: #231f20;
      }
    </style>
  </defs>
  <title>email</title>
  <g>
    <path class="1f67e91e-0709-405f-8e27-d168dfccbac5" d="M17.33,16.53H2.61A2.09,2.09,0,0,1,.5,14.37V5.7A2.07,2.07,0,0,1,2.67,3.53H17.33A2.07,2.07,0,0,1,19.5,5.7v8.67A2.17,2.17,0,0,1,17.33,16.53ZM2.67,4.53A1.09,1.09,0,0,0,1.5,5.7v8.67a1.1,1.1,0,0,0,1.11,1.16H17.33a1.15,1.15,0,0,0,1.17-1.16V5.7a1.09,1.09,0,0,0-1.17-1.17Z"/>
    <path class="1f67e91e-0709-405f-8e27-d168dfccbac5" d="M10.33,11.53a.5.5,0,0,1-.29-.09L1.15,4.91A.5.5,0,0,1,1,4.21a.51.51,0,0,1,.7-.1l8.58,6.3,7.93-6.29a.5.5,0,1,1,.62.78l-8.23,6.53A.5.5,0,0,1,10.33,11.53Z"/>
  </g>
</svg>
