<svg id="3ffe7b2d-dc4c-497f-abe4-f253787a39e0" data-name="Layer 1" xmlns="http://www.w3.org/2000/svg" width="20" height="20" viewBox="0 0 20 20">
  <defs>
    <style>
      .\39 d0271f4-defc-4dd8-930a-3960f16471b5 {
        fill: #231f20;
      }
    </style>
  </defs>
  <title>employees</title>
  <g>
    <path class="9d0271f4-defc-4dd8-930a-3960f16471b5" d="M18.14,8.74a2.05,2.05,0,1,0-2.05,2A2.05,2.05,0,0,0,18.14,8.74Zm-3.1,0a1.05,1.05,0,1,1,1.05,1A1,1,0,0,1,15,8.74Z"/>
    <path class="9d0271f4-defc-4dd8-930a-3960f16471b5" d="M19.38,11.53a.5.5,0,0,0-.5-.5H13.41a.5.5,0,0,0-.5.5c0,1.93.14,4,1.75,4.65V19a.5.5,0,0,0,.5.5H17a.5.5,0,0,0,.5-.5V16.19C19.23,15.56,19.38,13.47,19.38,11.53Zm-2.46,3.79a.51.51,0,0,0-.4.49v2.67h-.86V15.81a.49.49,0,0,0-.39-.48c-1-.24-1.32-1.43-1.36-3.3h4.47C18.34,13.9,18,15.09,16.92,15.32Z"/>
    <path class="9d0271f4-defc-4dd8-930a-3960f16471b5" d="M11.94,2.53A2.06,2.06,0,1,0,9.88,4.59,2.06,2.06,0,0,0,11.94,2.53Zm-3.11,0a1.06,1.06,0,0,1,2.11,0,1.06,1.06,0,1,1-2.11,0Z"/>
    <path class="9d0271f4-defc-4dd8-930a-3960f16471b5" d="M6.7,5.33c0,1.42,0,4,1.75,4.71v2.74a.51.51,0,0,0,.5.5h1.86a.5.5,0,0,0,.5-.5V10.05c1.87-.71,1.87-3.29,1.87-4.72a.5.5,0,0,0-.5-.5H7.2A.5.5,0,0,0,6.7,5.33Zm5.47.5c0,1.9-.33,3.12-1.46,3.35a.51.51,0,0,0-.4.49v2.61H9.45V9.67a.51.51,0,0,0-.39-.49C8,9,7.74,7.69,7.7,5.83Z"/>
    <path class="9d0271f4-defc-4dd8-930a-3960f16471b5" d="M3.68,6.69A2.05,2.05,0,1,0,5.73,8.74,2.05,2.05,0,0,0,3.68,6.69Zm0,3.1a1,1,0,1,1,1.05-1A1,1,0,0,1,3.68,9.79Z"/>
    <path class="9d0271f4-defc-4dd8-930a-3960f16471b5" d="M2.25,16.25V19a.5.5,0,0,0,.5.5H4.61a.5.5,0,0,0,.5-.5V16.25c1.75-.66,1.75-3,1.75-4.72a.5.5,0,0,0-.5-.5H.88a.51.51,0,0,0-.5.5C.38,13.41.61,15.59,2.25,16.25ZM5.86,12c0,2.05-.29,3.14-1.36,3.36a.49.49,0,0,0-.39.49v2.6H3.25v-2.6a.51.51,0,0,0-.39-.49c-.95-.21-1.41-1.25-1.47-3.36Z"/>
  </g>
</svg>
