<svg id="5638783d-8622-46ca-b931-8f82ba3bd70f" data-name="Layer 1" xmlns="http://www.w3.org/2000/svg" width="20" height="20" viewBox="0 0 20 20">
  <defs>
    <style>
      .\37 100233e-e317-4906-abd6-5e6221179879 {
        fill: #231f20;
      }
    </style>
  </defs>
  <title>export</title>
  <path class="7100233e-e317-4906-abd6-5e6221179879" d="M15.53,4.71A6.28,6.28,0,0,0,3.79,6.77a3.62,3.62,0,0,0-2.46.81A3.55,3.55,0,0,0,0,10.37a3.26,3.26,0,0,0,1,2.48,4.12,4.12,0,0,0,2.7,1H5.45a.5.5,0,0,0,.5-.5.5.5,0,0,0-.5-.5H3.77a3.26,3.26,0,0,1-2.12-.69A2.32,2.32,0,0,1,1,10.37,2.6,2.6,0,0,1,4.13,7.82a.51.51,0,0,0,.41-.09.52.52,0,0,0,.19-.37,5.28,5.28,0,0,1,10-1.94.47.47,0,0,0,.47.29A3.62,3.62,0,0,1,19,9.33a3.5,3.5,0,0,1-3.22,3.48H14.53a.5.5,0,0,0-.5.5.5.5,0,0,0,.5.5h1.3A4.43,4.43,0,0,0,20,9.33a4.63,4.63,0,0,0-4.47-4.62Z"/>
  <path class="7100233e-e317-4906-abd6-5e6221179879" d="M10.09,8.91a.5.5,0,0,0-.5.5v7.48L7.7,15a.49.49,0,1,0-.7.7l2.73,2.74a.45.45,0,0,0,.17.11.47.47,0,0,0,.38,0,.36.36,0,0,0,.16-.11l2.74-2.74a.49.49,0,1,0-.7-.7l-1.89,1.88V9.41A.5.5,0,0,0,10.09,8.91Z"/>
</svg>
