<svg id="c6bdf95a-2730-42cc-af58-063f80a02cf0" data-name="Layer 1" xmlns="http://www.w3.org/2000/svg" width="20" height="20" viewBox="0 0 20 20">
  <defs>
    <style>
      .eb5dce76-cd96-4b2d-b1bb-810b1d6f3afe {
        fill: #231f20;
      }
    </style>
  </defs>
  <title>guage</title>
  <g>
    <path class="eb5dce76-cd96-4b2d-b1bb-810b1d6f3afe" d="M15.27,8.39a.5.5,0,0,0-.71-.71l-3.69,3.69a1.83,1.83,0,1,0,.71.71ZM10,13.76a.81.81,0,0,1,0-1.62.82.82,0,0,1,.57.23h0a.78.78,0,0,1,.24.57A.81.81,0,0,1,10,13.76Z"/>
    <path class="eb5dce76-cd96-4b2d-b1bb-810b1d6f3afe" d="M3.8,12.86H2.15a.5.5,0,0,0,0,1H3.8a.5.5,0,1,0,0-1Z"/>
    <path class="eb5dce76-cd96-4b2d-b1bb-810b1d6f3afe" d="M15.7,13.36a.5.5,0,0,0,.5.5h1.65a.5.5,0,0,0,.5-.5.51.51,0,0,0-.5-.5H16.2A.5.5,0,0,0,15.7,13.36Z"/>
    <path class="eb5dce76-cd96-4b2d-b1bb-810b1d6f3afe" d="M15.26,10.77a.51.51,0,0,0,.46.31.48.48,0,0,0,.2,0l1.52-.63a.5.5,0,0,0-.38-.93l-1.53.63A.52.52,0,0,0,15.26,10.77Z"/>
    <path class="eb5dce76-cd96-4b2d-b1bb-810b1d6f3afe" d="M12.18,7.69a.63.63,0,0,0,.19,0,.49.49,0,0,0,.46-.3l.64-1.53a.5.5,0,0,0-.28-.65.49.49,0,0,0-.65.27L11.91,7A.51.51,0,0,0,12.18,7.69Z"/>
    <path class="eb5dce76-cd96-4b2d-b1bb-810b1d6f3afe" d="M10,7.25a.5.5,0,0,0,.5-.5V5.1a.5.5,0,0,0-1,0V6.75A.5.5,0,0,0,10,7.25Z"/>
    <path class="eb5dce76-cd96-4b2d-b1bb-810b1d6f3afe" d="M7.46,5.51a.49.49,0,0,0-.65-.27.49.49,0,0,0-.27.65l.63,1.53a.49.49,0,0,0,.46.3.63.63,0,0,0,.19,0A.5.5,0,0,0,8.09,7Z"/>
    <path class="eb5dce76-cd96-4b2d-b1bb-810b1d6f3afe" d="M4.8,7.05a.49.49,0,0,0-.7.7L5.26,8.92a.51.51,0,0,0,.36.15A.49.49,0,0,0,6,8.92a.5.5,0,0,0,0-.71Z"/>
    <path class="eb5dce76-cd96-4b2d-b1bb-810b1d6f3afe" d="M4.47,10.11,2.94,9.48a.51.51,0,0,0-.65.27.5.5,0,0,0,.27.66L4.09,11a.41.41,0,0,0,.19,0,.51.51,0,0,0,.46-.31A.52.52,0,0,0,4.47,10.11Z"/>
    <path class="eb5dce76-cd96-4b2d-b1bb-810b1d6f3afe" d="M10,3A10,10,0,0,0,0,13v3.6a.5.5,0,0,0,.5.5h19a.5.5,0,0,0,.5-.5V13A10,10,0,0,0,10,3Zm9,13.1H1V13a9,9,0,0,1,18,0Z"/>
  </g>
</svg>
