<svg id="b0514eaa-9d04-4f65-846e-e3ea4a542427" data-name="Layer 1" xmlns="http://www.w3.org/2000/svg" width="20" height="20" viewBox="0 0 20 20">
  <defs>
    <style>
      .e6417cd3-cbd9-4ec3-bcc0-5126c0febe13 {
        fill: #212221;
      }
    </style>
  </defs>
  <title>magnet</title>
  <path class="e6417cd3-cbd9-4ec3-bcc0-5126c0febe13" d="M9.7,7.72h8a.52.52,0,0,0,.53-.53V1.86a.53.53,0,0,0-.53-.53h-8a8.53,8.53,0,0,0,0,17.06h8a.53.53,0,0,0,.53-.53V12.53A.53.53,0,0,0,17.7,12h-8a2.14,2.14,0,0,1,0-4.28ZM6.51,9.86a3.2,3.2,0,0,0,3.19,3.2h2.14v4.27H9.7a7.47,7.47,0,0,1,0-14.94h2.14V6.66H9.7A3.2,3.2,0,0,0,6.51,9.86Zm6.39-3.2V2.39h4.27V6.66Zm0,10.67V13.06h4.27v4.27Z"/>
</svg>
