<svg id="4cd434bf-f814-411d-a7a5-022cf785377d" data-name="Layer 1" xmlns="http://www.w3.org/2000/svg" width="20" height="20" viewBox="0 0 20 20">
  <defs>
    <style>
      .\35 bc5c5ae-6510-4234-9b32-80973438f8e0 {
        fill: #231f20;
      }
    </style>
  </defs>
  <title>pdf</title>
  <g>
    <polygon class="5bc5c5ae-6510-4234-9b32-80973438f8e0" points="10.46 10.94 9.52 9.77 8.88 11.47 10.46 10.94"/>
    <path class="5bc5c5ae-6510-4234-9b32-80973438f8e0" d="M9.26,5.43a.26.26,0,0,0-.17.05.33.33,0,0,0-.17.37,5.25,5.25,0,0,0,.39,1.26l0-.12c.09-.38.18-.75.26-1.13a.36.36,0,0,0-.34-.43Z"/>
    <path class="5bc5c5ae-6510-4234-9b32-80973438f8e0" d="M5.74,14.58a.29.29,0,0,0,.17-.08c.23-.32.45-.65.66-1l.08-.12-.14.07c-.34.16-.7.33-1,.52a.24.24,0,0,0-.12.17.37.37,0,0,0,.09.3A.43.43,0,0,0,5.74,14.58Z"/>
    <path class="5bc5c5ae-6510-4234-9b32-80973438f8e0" d="M13.47,11.22c-.23,0-.46.1-.7.16a3.62,3.62,0,0,0,1.54.41.34.34,0,0,0,.24-.09.35.35,0,0,0,.09-.25.36.36,0,0,0-.1-.25.32.32,0,0,0-.25-.08A5.92,5.92,0,0,0,13.47,11.22Z"/>
    <path class="5bc5c5ae-6510-4234-9b32-80973438f8e0" d="M16.23,1.15H3.77A2.75,2.75,0,0,0,1,3.87V16.13a2.75,2.75,0,0,0,2.77,2.72H16.23A2.75,2.75,0,0,0,19,16.13V3.87A2.75,2.75,0,0,0,16.23,1.15ZM14.56,12.78l-.24,0h-.1a5.22,5.22,0,0,1-2.81-1,.14.14,0,0,0-.14,0,24.14,24.14,0,0,0-3.08,1,.47.47,0,0,0-.1.13l-.41.68c-.26.45-.54.92-.84,1.37a1.41,1.41,0,0,1-1,.6H5.7a1.4,1.4,0,0,1-1-.48,1.34,1.34,0,0,1-.32-1,1.38,1.38,0,0,1,.57-.94,8.38,8.38,0,0,1,1.54-.74l.09,0,.32-.12L7.39,12a.43.43,0,0,0,.16-.13A21.87,21.87,0,0,0,8.64,9.16l.1-.26a.69.69,0,0,0-.06-.62A7.08,7.08,0,0,1,7.92,6.2a1.43,1.43,0,0,1,.5-1.5,1.31,1.31,0,0,1,1.45-.13,1.28,1.28,0,0,1,.76,1.22,5.65,5.65,0,0,1-.35,1.69l0,.07c0,.13-.09.25-.13.38s-.11.33-.16.5a.16.16,0,0,0,0,.12,8.59,8.59,0,0,0,1.59,2s0,0,.09,0a10.79,10.79,0,0,1,2.5-.51,1.39,1.39,0,0,1,1.51,1.19A1.37,1.37,0,0,1,14.56,12.78Z"/>
  </g>
</svg>
