<svg id="c4a4678d-ced5-452b-9edb-82a04871f3ac" data-name="Layer 1" xmlns="http://www.w3.org/2000/svg" width="20" height="20" viewBox="0 0 20 20">
  <defs>
    <style>
      .\33 8d46875-0043-48cc-a181-26a1cc0f5d40 {
        fill: #231f20;
      }
    </style>
  </defs>
  <title>powerpoint</title>
  <g>
    <path class="38d46875-0043-48cc-a181-26a1cc0f5d40" d="M9.7,10.51A.68.68,0,0,1,9.35,10L9.21,5.54A4.39,4.39,0,0,0,6,7.79a4.54,4.54,0,0,0,7.64,4.83Z"/>
    <path class="38d46875-0043-48cc-a181-26a1cc0f5d40" d="M12.12,6A4.63,4.63,0,0,0,10.5,5.5l.13,4.06,3.62,1.94A4.51,4.51,0,0,0,12.12,6Z"/>
    <path class="38d46875-0043-48cc-a181-26a1cc0f5d40" d="M16.23,1.09H3.77A2.76,2.76,0,0,0,1,3.81V16.07A2.76,2.76,0,0,0,3.77,18.8H16.23A2.76,2.76,0,0,0,19,16.07V3.81A2.76,2.76,0,0,0,16.23,1.09ZM15.15,12.71A5.85,5.85,0,0,1,4.85,7.18a5.73,5.73,0,0,1,4.84-3l.12,0,.15,0a6,6,0,0,1,2.76.68A5.81,5.81,0,0,1,15.15,12.71Z"/>
  </g>
</svg>
