<svg id="3ab6ca6a-672b-49f7-a08d-14a620c42a19" data-name="Layer 1" xmlns="http://www.w3.org/2000/svg" width="20" height="20" viewBox="0 0 20 20">
  <defs>
    <style>
      .e35fcef7-dc99-4bdf-8b49-61e05731113b {
        fill: #231f20;
      }
    </style>
  </defs>
  <title>range</title>
  <path class="e35fcef7-dc99-4bdf-8b49-61e05731113b" d="M5,19.43a.5.5,0,0,0,.35-.15L19,5.63a.5.5,0,0,0,0-.71L14.63.58a.5.5,0,0,0-.71,0L.27,14.23a.47.47,0,0,0-.15.35.49.49,0,0,0,.15.36l4.34,4.34A.51.51,0,0,0,5,19.43ZM3.41,12.5,4.92,14a.52.52,0,0,0,.71,0,.51.51,0,0,0,0-.71L4.12,11.79,5,11l1.19,1.19a.51.51,0,0,0,.36.15.5.5,0,0,0,.35-.15.48.48,0,0,0,0-.7l-1.2-1.2,1-1L8.34,10.9a.48.48,0,0,0,.7,0,.48.48,0,0,0,0-.7L7.38,8.53l.84-.84,1,1a.48.48,0,0,0,.7,0A.5.5,0,0,0,10,8l-1-1,1-1,1.51,1.51a.5.5,0,0,0,.35.15.51.51,0,0,0,.36-.15.51.51,0,0,0,0-.71L10.64,5.27l.84-.84,1.2,1.2a.52.52,0,0,0,.71,0,.51.51,0,0,0,0-.71l-1.2-1.2,2.09-2.08,3.63,3.63L5,18.22,1.33,14.58Z"/>
</svg>
