<svg id="c8e04107-c099-407e-b08b-84348e967028" data-name="Layer 1" xmlns="http://www.w3.org/2000/svg" width="20" height="20" viewBox="0 0 20 20">
  <defs>
    <style>
      .\34 59932f6-3c44-4f68-8f33-8503b86f18ed {
        fill: #221f1f;
      }
    </style>
  </defs>
  <title>rock</title>
  <path class="459932f6-3c44-4f68-8f33-8503b86f18ed" d="M16,3.46a1.79,1.79,0,0,0-1.89-1.34,1.79,1.79,0,0,0-1.68,1.2c0,.11-.05.91-.07,1.44,0,.72,0,1-.05,1.12l0,.22-.22,0a2.15,2.15,0,0,0-1.9.36l-.12.1-.13-.09a2.19,2.19,0,0,0-1.88-.33l-.27.06V4.69c0-.76,0-1.68,0-2.15A1.93,1.93,0,0,0,6.85.76a2,2,0,0,0-1-.26,2,2,0,0,0-1,.27,1.89,1.89,0,0,0-1,1.66c0,2.05,0,4.48,0,6.83v4.31a5.66,5.66,0,0,0,.39,2.16,6,6,0,0,0,3.89,3.51,6.18,6.18,0,0,0,5.25-.79,5.7,5.7,0,0,0,2.61-4.88c0-2.51,0-5,0-7.55C16.07,5.21,16.06,3.62,16,3.46ZM11,7.08a1,1,0,0,1,1,0,1,1,0,0,1,.43.83v2.86a.8.8,0,0,1-.9.78h0a.78.78,0,0,1-.88-.77V9.21c0-.5,0-1,0-1.49A.68.68,0,0,1,11,7.08Zm-3.18.56a.69.69,0,0,1,.34-.47,1,1,0,0,1,1,0A.76.76,0,0,1,9.59,8V9.71L7.8,9.56V8.93C7.8,8.51,7.8,8.07,7.81,7.64ZM4.92,3.55A10.27,10.27,0,0,1,5,2.16a.76.76,0,0,1,.19-.38A1,1,0,0,1,6.2,1.57.82.82,0,0,1,6.63,2l.06.1c0,.08.08.12.08,1.29v.09l0,5.69v.14l0,.3H4.94V9.34a1,1,0,0,1,0-.18Zm10.17,10.1a4.81,4.81,0,0,1-1.49,3.41,5,5,0,0,1-3.43,1.42h-.08a5.12,5.12,0,0,1-3.86-1.59,4.65,4.65,0,0,1-1.31-3.24V11.41a.73.73,0,0,1,.81-.8H8.54a.76.76,0,0,1,.79.85.78.78,0,0,1-.79.86H7.36v1h.4a12.82,12.82,0,0,0,1.41-.1,1.33,1.33,0,0,0,.91-.78l.08-.13.15,0,.44.08a4.45,4.45,0,0,0,.85.12h0A1.72,1.72,0,0,0,12.85,12a1.77,1.77,0,0,0,.52-1.28c0-1,0-2.82,0-4.42V4a.78.78,0,0,1,.83-.85.93.93,0,0,1,.65.23.85.85,0,0,1,.23.62V6.18C15.09,8.67,15.1,11.72,15.09,13.65Z"/>
</svg>
