<svg id="01b76d7a-78fa-4ba1-8361-a8a64626f623" data-name="Layer 1" xmlns="http://www.w3.org/2000/svg" width="20" height="20" viewBox="0 0 20 20">
  <defs>
    <style>
      .\32 d3cb8ff-63d9-46cd-a794-ca2aa12f410b {
        fill: #212221;
      }
    </style>
  </defs>
  <title>security</title>
  <g>
    <path class="2d3cb8ff-63d9-46cd-a794-ca2aa12f410b" d="M17.78.69a.56.56,0,0,0-.57,0,6.17,6.17,0,0,1-3.6,1.37A4.44,4.44,0,0,1,10.14.42a.58.58,0,0,0-.87,0A4.44,4.44,0,0,1,5.8,2.09,6.22,6.22,0,0,1,2.19.72a.55.55,0,0,0-.57,0,.54.54,0,0,0-.29.49V12.77a.32.32,0,0,0,0,.14c0,.18,1.29,4.45,8.2,6.39l.15,0,.15,0c6.91-1.94,8.16-6.21,8.21-6.39a.59.59,0,0,0,0-.14V1.18A.53.53,0,0,0,17.78.69Zm-.8,12c-.18.53-1.5,3.85-7.28,5.52-5.78-1.67-7.1-5-7.27-5.52V2.18a6.56,6.56,0,0,0,3.37,1A5.51,5.51,0,0,0,9.7,1.58a5.53,5.53,0,0,0,3.91,1.61,6.47,6.47,0,0,0,3.37-1Z"/>
    <polygon class="2d3cb8ff-63d9-46cd-a794-ca2aa12f410b" points="7.88 11.1 6.18 9.39 4.47 11.1 7.88 14.51 15.06 7.33 13.35 5.63 7.88 11.1"/>
  </g>
</svg>
