<svg id="a01566a8-2ae8-489c-8e90-fb995cf8fbec" data-name="Layer 1" xmlns="http://www.w3.org/2000/svg" width="20" height="20" viewBox="0 0 20 20">
  <defs>
    <style>
      .\38 ab64466-31b9-4b8d-bb4c-0c06818643c8 {
        fill: #231f20;
      }
    </style>
  </defs>
  <title>star</title>
  <g id="4ca5fe72-decb-4ec0-a1f7-88c6c2b8cf78" data-name="close">
    <path class="8ab64466-31b9-4b8d-bb4c-0c06818643c8" d="M15.56,19.06a.46.46,0,0,1-.23-.06L10,16.2,4.67,19a.49.49,0,0,1-.53,0,.5.5,0,0,1-.2-.48l1-5.94L.65,8.34a.5.5,0,0,1-.13-.52.51.51,0,0,1,.4-.34l6-.86,2.67-5.4a.52.52,0,0,1,.9,0l2.66,5.4,6,.86a.5.5,0,0,1,.4.34.52.52,0,0,1-.12.52L15,12.54l1,5.94a.47.47,0,0,1-.2.48A.45.45,0,0,1,15.56,19.06ZM10,15.14a.46.46,0,0,1,.23,0l4.67,2.46-.9-5.2a.51.51,0,0,1,.15-.44l3.77-3.68-5.21-.76a.49.49,0,0,1-.38-.27L10,2.57,7.66,7.3a.49.49,0,0,1-.37.27l-5.22.76L5.85,12a.51.51,0,0,1,.14.44l-.89,5.2,4.66-2.46A.52.52,0,0,1,10,15.14Z"/>
  </g>
</svg>
