<svg id="71034fba-5734-41b1-94f0-dbbb9720bbea" data-name="Layer 1" xmlns="http://www.w3.org/2000/svg" width="20" height="20" viewBox="0 0 20 20">
  <defs>
    <style>
      .e0cb552f-9f56-4f2f-ac1f-c4d650c85389 {
        fill: #212221;
      }
    </style>
  </defs>
  <title>target</title>
  <g>
    <path class="e0cb552f-9f56-4f2f-ac1f-c4d650c85389" d="M13.64,19.53a.52.52,0,0,1-.47-.29L7.93,8.75a.52.52,0,0,1,.7-.7L19.12,13.3a.52.52,0,0,1-.11,1l-3.89,1-1,3.89a.51.51,0,0,1-.44.39ZM9.56,9.68l3.92,7.84.7-2.83a.52.52,0,0,1,.38-.38l2.83-.71Z"/>
    <path class="e0cb552f-9f56-4f2f-ac1f-c4d650c85389" d="M8.4.52a8,8,0,0,0,0,16,7.81,7.81,0,0,0,1.28-.11.52.52,0,0,0,.44-.6.55.55,0,0,0-.21-.34.52.52,0,0,0-.4-.09,7,7,0,1,1,5.83-6.86,7.2,7.2,0,0,1-.09,1.14.57.57,0,0,0,.09.4.51.51,0,0,0,.34.21h.21a.34.34,0,0,0,.17-.08h0a.49.49,0,0,0,.21-.33,7.35,7.35,0,0,0,.11-1.32A8,8,0,0,0,8.4.52Zm7.36,9.74h0Zm.17,0h0Zm.17-.09Z"/>
    <path class="e0cb552f-9f56-4f2f-ac1f-c4d650c85389" d="M8.4,13.37a4.85,4.85,0,1,1,4.84-4.85.52.52,0,0,1-.52.52.52.52,0,0,1-.52-.52,3.81,3.81,0,1,0-3.8,3.81.52.52,0,0,1,.52.52A.53.53,0,0,1,8.4,13.37Z"/>
  </g>
</svg>
