<svg xmlns="http://www.w3.org/2000/svg" width="320" height="39.44" viewBox="0 0 320 39.44">
  <g id="career_logo" transform="translate(-94.773 -156.044)" opacity="0.997">
    <g id="组_1" data-name="组 1" transform="translate(336.432 172.213)">
      <path id="路径_4464" data-name="路径 4464" d="M2147.918,276.224c1.657-2.514,3.749-4.092,6.858-3.84a6.849,6.849,0,0,1,6.206,4.457c.3-.091.308-.389.423-.594a7.8,7.8,0,0,1,10.652-2.812,7.119,7.119,0,0,1,1.176.846,5.035,5.035,0,0,1,1.749,3.909q-.034,7.886.011,15.784c0,.64-.172.789-.778.754a20.875,20.875,0,0,0-2.674,0c-.537.034-.651-.137-.651-.652.023-4.88-.126-9.772.08-14.652a3.954,3.954,0,0,0-4.115-3.806,3.84,3.84,0,0,0-.96.16,6.334,6.334,0,0,0-4.194,4.458,3.474,3.474,0,0,0-.057.766c0,4.366-.011,8.732.011,13.1,0,.48-.092.651-.606.629a26.114,26.114,0,0,0-2.675,0c-.56.034-.651-.16-.651-.663.023-4.606-.1-9.212.046-13.807a4.571,4.571,0,0,0-6.9-4.012,9.289,9.289,0,0,0-1.886,1.463,3.608,3.608,0,0,0-1.074,2.652c.034,4.56,0,9.109.023,13.67,0,.537-.1.731-.675.7a22.3,22.3,0,0,0-2.469,0c-.376.011-.526-.057-.514-.48q.017-10.458,0-20.916c0-.309.034-.469.412-.457q1.406.034,2.811,0c.343,0,.446.114.434.446-.011.937,0,1.909-.011,2.9" transform="translate(-2096.653 -272.109)" fill="#003750"/>
      <path id="路径_4474" data-name="路径 4474" d="M1965.384,282.109a8.116,8.116,0,0,0,16.218.434v-.023a8.108,8.108,0,0,0-16.206-.537l-.012.126m-3.76.171a11.7,11.7,0,0,1,11.692-11.681h.148a12.1,12.1,0,0,1,11.727,12.069,11.893,11.893,0,0,1-12.012,11.2c-6.229-.1-11.806-5.338-11.555-11.589" transform="translate(-1939.779 -270.6)" fill="#003750"/>
      <path id="路径_191" data-name="路径 191" d="M1825.381,286.362a.242.242,0,0,0-.444-.132,7.409,7.409,0,0,1-13.56-4.11l.01-.115a7.4,7.4,0,0,1,13.68-3.572.169.169,0,0,0,.314-.089v-5.449a.131.131,0,0,0-.055-.106,12.066,12.066,0,0,0-6.574-2.188h-.149a11.7,11.7,0,0,0-11.692,11.681c-.251,6.252,5.326,11.486,11.555,11.589a11.872,11.872,0,0,0,6.859-2.08.129.129,0,0,0,.056-.107Z" transform="translate(-1806.903 -270.6)" fill="#003750"/>
      <path id="路径_4481" data-name="路径 4481" d="M1856.1,312.295a5.668,5.668,0,0,1,5.665,5.665v.025a5.668,5.668,0,0,1-5.615,5.715h-.113a5.709,5.709,0,0,1-.012-11.418.159.159,0,0,0,.075.013" transform="translate(-1844.225 -306.399)" fill="#358dd2"/>
    </g>
    <g id="组_5" data-name="组 5" transform="translate(94.773 156.044)" opacity="0.81">
      <path id="路径_2" data-name="路径 2" d="M694.535,162.118h17.77c-.1,1.313-.155,2.625-.282,3.924a15.276,15.276,0,0,1-.381,1.538c-.028.113.085.254.141.4a1.671,1.671,0,0,0,.311-.2c.282-.423.536-.861.8-1.3a9.563,9.563,0,0,1,7.382-4.5c1.27-.155,2.555-.212,3.881-.311v16.542c-.819-.1-1.623-.2-2.442-.311a12.638,12.638,0,0,0-4.432.1,6,6,0,0,0-4.926,5.688c-.071.8-.1,1.623-.113,2.442-.014,4.051,0,8.1,0,12.153v.776H694.535Z" transform="translate(-609.881 -160.872)" fill="#0773c8"/>
      <path id="路径_3" data-name="路径 3" d="M1592.035,161.946h17.77c-.1,1.313-.155,2.625-.282,3.924-.056.494-.268.974-.367,1.482-.028.141.071.3.113.452a1.536,1.536,0,0,0,.339-.254c.508-.734.96-1.51,1.5-2.23a9.431,9.431,0,0,1,6.662-3.529c1.271-.169,2.555-.212,3.882-.325v16.542c-.8-.1-1.623-.2-2.442-.311a12.638,12.638,0,0,0-4.432.1,6,6,0,0,0-4.926,5.688c-.071.762-.1,1.539-.1,2.315-.014,4.093,0,8.186,0,12.28v.776h-17.686V161.946Z" transform="translate(-1380.703 -160.701)" fill="#0773c8"/>
      <path id="路径_4" data-name="路径 4" d="M360.893,159.448c0,.762-.056,1.5.014,2.216a16.293,16.293,0,0,0,.452,2.089c-.155,0-.212.014-.226,0a4.836,4.836,0,0,1-.466-.466c-2.781-3.218-6.225-5.011-10.558-4.714-6.45.438-11.165,3.656-13.748,9.513a24.52,24.52,0,0,0-.2,19.549c2.47,6.1,7.128,9.372,13.8,9.527a12.065,12.065,0,0,0,7.947-2.216c1.073-.819,2.032-1.807,3.063-2.7a1.657,1.657,0,0,1,.452-.212,1.133,1.133,0,0,1-.014.438,9.7,9.7,0,0,0-.381,3.881H378.9v-36.91Zm.028,20.113c-.48,2.117-2.117,3.289-4.517,3.3a4.3,4.3,0,0,1-4.446-4.051,7.268,7.268,0,0,1,.2-2.47,4.426,4.426,0,0,1,4.912-3.218,4.331,4.331,0,0,1,4.023,4.361A8.477,8.477,0,0,1,360.921,179.561Z" transform="translate(-300.432 -158.188)" fill="#0773c8"/>
      <path id="路径_5" data-name="路径 5" d="M963.962,170.066c-1.849-5.716-5.251-10.092-10.967-12.308a27.369,27.369,0,0,0-17.036-.678,18.359,18.359,0,0,0-10.487,6.817c-3.839,5.152-4.573,10.981-3.43,17.121,1.073,5.745,4.658,9.57,9.81,11.969a27.465,27.465,0,0,0,18.066,1.68,21.033,21.033,0,0,0,11-6.069,12.5,12.5,0,0,0,3.415-6.775h-.8c-5.152,0-10.3.028-15.456-.028-.932-.014-1.553.113-1.948,1.1a2.778,2.778,0,0,1-3.035,1.665,3.132,3.132,0,0,1-2.936-2.1,9.289,9.289,0,0,1-.494-3.557h25.364a.885.885,0,0,0,.042-.268A26.193,26.193,0,0,0,963.962,170.066Zm-23.91,1.369a5.4,5.4,0,0,1,1.313-3.811,3.3,3.3,0,0,1,3.4-.72,2.605,2.605,0,0,1,1.849,1.637c.367.932.579,1.92.875,2.908Z" transform="translate(-804.854 -156.047)" fill="#0773c8"/>
      <path id="路径_6" data-name="路径 6" d="M1293.545,169.724c-2.159-6.422-6.309-10.854-12.929-12.675a28.424,28.424,0,0,0-15.667.2,18.191,18.191,0,0,0-9.823,6.662c-3.825,5.166-4.545,11-3.4,17.135,1.073,5.716,4.63,9.57,9.781,11.913a27.4,27.4,0,0,0,21.271.72,18.663,18.663,0,0,0,9.245-6.888,11.239,11.239,0,0,0,1.962-4.954c-.2-.014-.339-.028-.48-.028-5.561,0-11.108,0-16.669-.014a.689.689,0,0,0-.72.48,3.429,3.429,0,0,1-1.863,2.075,3.344,3.344,0,0,1-4.53-2.188,24.7,24.7,0,0,1-.536-3.275h25.477a1.5,1.5,0,0,0,.056-.268A25.346,25.346,0,0,0,1293.545,169.724Zm-23.755,1.708a3.817,3.817,0,0,1,4.615-4.559,2.93,2.93,0,0,1,1.807,1.44,6.64,6.64,0,0,1,.79,3.119Z" transform="translate(-1088.001 -156.044)" fill="#0773c8"/>
      <path id="路径_192" data-name="路径 192" d="M119.5,181.878c-3.769,0-6.817-2.456-6.817-5.858s3.049-5.914,6.817-5.914a8.8,8.8,0,0,1,5.222,1.708v-.042c-.113-4.15-.212-8.3-.325-12.449-.028-1.256-.014-1.256-1.228-1.595-4.121-1.157-8.313-1.905-12.59-1.143a18.123,18.123,0,0,0-13.762,10.29c-2.2,4.488-2.428,9.287-1.595,14.143A17.74,17.74,0,0,0,110.746,195.4a33.4,33.4,0,0,0,13.183-1.524c.381-.113.438-.311.452-.663.113-4.347.226-8.68.325-13.028A8.742,8.742,0,0,1,119.5,181.878Z" transform="translate(-94.773 -156.243)" fill="#0773c8"/>
    </g>
  </g>
</svg>
