<svg xmlns="http://www.w3.org/2000/svg" width="636.956" height="642.08" viewBox="0 0 636.956 642.08">
  <g id="Expert_Advice-bg_" data-name="Expert Advice-bg " transform="translate(-1096.849 -683.492)">
    <circle id="_ellipse" data-name=" ellipse" cx="318.478" cy="318.478" r="318.478" transform="translate(1096.849 688.616)" fill="#f6f6f9"/>
    <g id="group">
      <path id="路径_111" data-name="路径 111" d="M1599.495,683.492l-7.827,6.452v1.948l10.083-8.4Z" fill="#28a9e0"/>
      <path id="路径_112" data-name="路径 112" d="M1620.589,683.492l-28.922,27.2v2.113l31.038-29.317Z" fill="#28a9e0"/>
      <path id="路径_113" data-name="路径 113" d="M1641.544,683.492l-49.877,48.122v2.113l51.993-50.235Z" fill="#28a9e0"/>
      <path id="路径_114" data-name="路径 114" d="M1662.5,683.492l-70.831,69.04v2.113l72.948-71.153Z" fill="#28a9e0"/>
      <path id="路径_115" data-name="路径 115" d="M1683.453,683.492l-91.786,89.957v2.113l93.9-92.07Z" fill="#28a9e0"/>
      <path id="路径_116" data-name="路径 116" d="M1704.408,683.492,1591.667,794.367v2.113l114.857-112.988Z" fill="#28a9e0"/>
      <path id="路径_117" data-name="路径 117" d="M1715.169,692.412l-112.9,114.469h2.116l110.78-112.356Z" fill="#28a9e0"/>
      <path id="路径_118" data-name="路径 118" d="M1715.169,713.33l-91.941,93.551h2.117l89.825-91.438Z" fill="#28a9e0"/>
      <path id="路径_119" data-name="路径 119" d="M1715.169,734.247l-70.986,72.633h2.117l68.87-70.521Z" fill="#28a9e0"/>
      <path id="路径_120" data-name="路径 120" d="M1715.169,755.165l-50.032,51.716h2.116l47.915-49.6Z" fill="#28a9e0"/>
      <path id="路径_121" data-name="路径 121" d="M1715.169,776.083l-29.077,30.8h2.116l26.96-28.685Z" fill="#28a9e0"/>
      <path id="路径_122" data-name="路径 122" d="M1715.169,799.254V797l-8.122,9.88h2.017Z" fill="#28a9e0"/>
    </g>
  </g>
</svg>
