<svg xmlns="http://www.w3.org/2000/svg" width="18" height="24.681" viewBox="0 0 18 24.681">
  <g id="icon-location" transform="translate(-631.457 -682.809)">
    <path id="路径_101" data-name="路径 101" d="M640.456,707.49c-3.674,0-9-11.011-9-15.682a9,9,0,0,1,18,0C649.457,696.357,644.034,707.49,640.456,707.49Zm0-23.086a7.412,7.412,0,0,0-7.4,7.4c0,4.695,5.313,14.086,7.4,14.086,2.01,0,7.4-9.5,7.4-14.086A7.413,7.413,0,0,0,640.456,684.4Z" transform="translate(0 0)" fill="#29abe2"/>
    <path id="路径_102" data-name="路径 102" d="M639.941,694.579a4.105,4.105,0,1,1,4.106-4.1A4.11,4.11,0,0,1,639.941,694.579Zm0-6.614a2.509,2.509,0,1,0,2.51,2.509A2.511,2.511,0,0,0,639.941,687.965Z" transform="translate(0.516 0.419)" fill="#29abe2"/>
  </g>
</svg>
