<?xml version="1.0" encoding="utf-8"?>
<!-- Generator: Adobe Illustrator 23.0.0, SVG Export Plug-In . SVG Version: 6.00 Build 0)  -->
<svg version="1.1" id="Layer_1" xmlns="http://www.w3.org/2000/svg" xmlns:xlink="http://www.w3.org/1999/xlink" x="0px" y="0px"
	 viewBox="0 0 42 42" style="enable-background:new 0 0 42 42;" xml:space="preserve">
<style type="text/css">
	.st0{fill:#16A44A;}
	.st1{fill:#FFFFFF;}
</style>
<circle class="st0" cx="21" cy="21" r="20"/>
<g>
	<g>
		<g id="PMFFNZ.tif_2_">
			<g>
				<g>
					<path class="st1" d="M23,23.9c-0.2,0-0.3-0.1-0.3-0.2c-0.1-0.1-0.2-0.3-0.2-0.4c-0.4-1.2-0.7-2.3-1.1-3.5
						c-0.2-0.5-0.5-0.6-0.8-0.6l-0.2,0c-0.5,0.1-1,0.1-1.5,0.2c-0.6,0.1-1.2,0.2-1.8,0.3c-0.1,0-0.3,0-0.4,0c-0.5,0-1-0.2-1.2-1.3
						c-0.1-0.8-0.2-1.5-0.3-2.3l-0.1-1.1c0-0.1-0.2-1.2-0.2-1.2l-1,0.6c-0.3,0.2-0.7,0.4-1,0.6c-0.2,0.2-0.4,0.4-0.4,0.6
						c-0.1,0.3-0.2,0.6-0.2,0.9c-0.1,0.5-0.2,1-0.4,1.4c-0.1,0.2-0.2,0.4-0.3,0.5c-0.1,0.1-0.1,0.1-0.1,0.1c-0.1,0-0.1,0-0.2-0.1
						c-0.1-0.1-0.2-0.2-0.1-0.4c0.2-0.8,0.4-1.5,0.6-2.3c0.1-0.2,0.1-0.4,0.1-0.6c0.1-0.5,0.1-0.5,0.9-0.9c0,0,0.6-0.4,0.8-0.5
						c0.3-0.2,0.7-0.4,1-0.5c0.2-0.1,0.4-0.1,0.6-0.2l0.1,0c0,0,0.1,0,0.1,0c0.1,0,0.2,0,0.4-0.1c0.2-0.1,0.4-0.1,0.6-0.1
						c0.6,0,1.2,0.3,1.9,0.7c0.4,0.2,0.8,0.3,1.1,0.3c0.5,0,0.9-0.2,1.4-0.6c0.2-0.2,0.4-0.3,0.6-0.4c0.1-0.1,0.3-0.2,0.4-0.3
						c0.1-0.1,0.2-0.1,0.3-0.1c0.1,0,0.1,0,0.2,0l0.2,0.2c0,0.3-0.1,0.4-0.2,0.5c-0.7,0.4-1.4,0.9-2.2,1.5c-0.2,0.2-0.4,0.2-0.4,0.2
						c-0.1,0-0.2,0-0.4-0.1c-0.3-0.2-0.6-0.3-0.9-0.4L17,13.6l0.8,4.8c0,0,2.7-0.3,3.4-0.4c0.1,0,0.1,0,0.2,0c0.3,0,0.5,0.1,0.6,0.5
						l1.3,4.1c0.2,0.5,0.2,0.8,0.1,1l-0.2,0.2C23.2,23.9,23.1,23.9,23,23.9z"/>
					<path class="st1" d="M16.4,13.2C16.4,13.2,16.4,13.2,16.4,13.2l0.3,1.4l0.5,2.8l0.1,0.6l0.2,0.9l0.9-0.1l0.9-0.1
						c0.7-0.1,1.4-0.2,2-0.2c0,0,0.1,0,0.1,0c0,0,0,0,0.1,0c0,0,0,0,0,0c0,0,0,0.1,0.1,0.2l0.5,1.7c0.3,0.8,0.5,1.6,0.8,2.5l0,0.1
						c0.1,0.3,0.1,0.4,0.1,0.5c0,0,0,0,0,0c0-0.1-0.1-0.1-0.1-0.2c-0.4-1.2-0.7-2.3-1.1-3.5c-0.3-0.9-1-1-1.2-1c-0.1,0-0.2,0-0.2,0
						c-0.5,0.1-1,0.1-1.5,0.2c-0.6,0.1-1.2,0.2-1.8,0.3c-0.1,0-0.2,0-0.3,0c-0.3,0-0.5,0-0.7-0.9c-0.1-0.8-0.2-1.5-0.3-2.3l-0.1-1.1
						c0-0.1,0-0.2,0-0.3l0-0.2l-0.2-1l0,0c0,0,0,0,0.1,0c0.1,0,0.3,0,0.5-0.1C16.1,13.2,16.3,13.2,16.4,13.2 M19.7,14.2
						C19.6,14.2,19.6,14.2,19.7,14.2C19.6,14.2,19.6,14.2,19.7,14.2C19.6,14.2,19.6,14.2,19.7,14.2 M22.1,11.8
						c-0.2,0-0.4,0.1-0.6,0.2c-0.3,0.2-0.7,0.5-1,0.7c-0.3,0.3-0.7,0.5-1,0.5c-0.3,0-0.6-0.1-0.9-0.3c-0.7-0.4-1.4-0.8-2.2-0.8
						c-0.2,0-0.5,0-0.8,0.1c-0.2,0.1-0.3,0-0.5,0.1c-0.3,0.1-0.6,0.1-0.8,0.3c-0.5,0.3-1.1,0.6-1.6,0.9c-1.4,0.8-1.1,0.5-1.5,1.9
						c-0.2,0.8-0.4,1.5-0.6,2.3c-0.1,0.4,0,0.7,0.3,0.9c0.2,0.1,0.3,0.2,0.5,0.2c0.2,0,0.3-0.1,0.5-0.2c0.2-0.2,0.3-0.4,0.4-0.7
						c0.2-0.8,0.4-1.6,0.6-2.4c0-0.1,0.1-0.3,0.2-0.3c0.4-0.3,0.9-0.5,1.3-0.8c0,0.2,0.1,0.3,0.1,0.5c0.2,1.1,0.3,2.3,0.5,3.4
						c0.2,1.2,0.7,1.8,1.7,1.8c0.1,0,0.3,0,0.5,0c1.1-0.2,2.2-0.3,3.2-0.5c0,0,0.1,0,0.1,0c0.2,0,0.2,0.1,0.3,0.3
						c0.4,1.2,0.7,2.4,1.1,3.5c0.1,0.2,0.2,0.4,0.3,0.6c0.2,0.3,0.5,0.3,0.7,0.3c0.2,0,0.3,0,0.5-0.1c0.1-0.1,0.3-0.2,0.4-0.4
						c0.2-0.5,0.1-1-0.1-1.5c-0.4-1.4-0.9-2.7-1.3-4.1c-0.2-0.6-0.5-0.9-1.1-0.9c-0.1,0-0.2,0-0.3,0c-1,0.1-1.9,0.2-2.9,0.4
						c-0.2-1.1-0.4-2.2-0.6-3.4c0.5,0.2,0.9,0.4,1.3,0.6c0.2,0.1,0.4,0.2,0.6,0.2c0.3,0,0.5-0.1,0.7-0.3c0.7-0.5,1.4-1,2.1-1.5
						c0.4-0.3,0.5-0.7,0.5-1.2c-0.1-0.1-0.2-0.3-0.4-0.4C22.4,11.9,22.3,11.8,22.1,11.8L22.1,11.8z"/>
				</g>
				<g>
					<path class="st1" d="M14.1,26.3c-0.1,0-0.3-0.1-0.4-0.2c-0.2-0.2-0.2-0.5,0.1-0.7c0.8-0.7,1.6-1.4,2.4-2.1
						c0.3-0.3,0.4-0.6,0.4-1c0-0.2-0.1-0.4-0.1-0.7c0.2,0,0.3,0,0.5,0l0.2,0c0.1,0,0.3,0,0.5,0c0,0,0,0.1,0,0.1
						c0.1,0.5,0.1,0.9,0.1,1.3c0,0.1-0.1,0.3-0.2,0.4c-0.8,0.8-1.7,1.5-2.6,2.3l-0.5,0.4C14.3,26.3,14.2,26.3,14.1,26.3z"/>
					<path class="st1" d="M17,22.1C17,22.1,17.1,22.1,17,22.1C17.1,22.1,17.1,22.1,17,22.1c0.1,0.3,0.2,0.6,0.2,0.9c0,0,0,0.1,0,0.1
						c-0.8,0.8-1.7,1.5-2.5,2.3l-0.5,0.4c0,0,0,0,0,0c0,0,0,0,0,0c0,0,0,0,0-0.1c0.8-0.7,1.6-1.4,2.4-2.1
						C16.9,23.2,17.1,22.8,17,22.1C17,22.2,17,22.2,17,22.1 M15.9,21c0,0.4,0.1,0.9,0.1,1.3c0,0.2,0,0.4-0.2,0.5
						c-0.8,0.7-1.6,1.4-2.4,2.1c-0.5,0.4-0.5,1-0.1,1.4c0.2,0.2,0.5,0.4,0.8,0.4c0.2,0,0.5-0.1,0.7-0.3c1-0.9,2.1-1.8,3.1-2.7
						c0.2-0.2,0.4-0.5,0.4-0.8c0-0.6-0.1-1.3-0.2-1.9c-0.3,0-0.6,0-0.9,0c0,0-0.1,0-0.1,0C16.6,21.1,16.3,21.1,15.9,21L15.9,21z"/>
				</g>
				<g>
					<path class="st1" d="M15.5,10.8c-0.3,0-0.6-0.1-0.9-0.4c-0.4-0.5-0.4-1.2,0.1-1.6c0.2-0.2,0.5-0.3,0.8-0.3
						c0.3,0,0.6,0.1,0.9,0.4c0.2,0.2,0.3,0.5,0.3,0.8c0,0.3-0.2,0.6-0.4,0.8C16,10.7,15.8,10.8,15.5,10.8z"/>
					<path class="st1" d="M15.5,9c0.2,0,0.4,0.1,0.5,0.2c0.1,0.1,0.2,0.3,0.2,0.5c0,0.2-0.1,0.3-0.2,0.5c-0.1,0.1-0.3,0.2-0.4,0.2
						c-0.2,0-0.4-0.1-0.5-0.2c-0.2-0.3-0.2-0.7,0.1-0.9C15.2,9,15.4,9,15.5,9 M15.5,8c-0.4,0-0.8,0.1-1.1,0.4
						c-0.7,0.6-0.8,1.6-0.2,2.3c0.3,0.4,0.8,0.6,1.3,0.6c0.4,0,0.8-0.1,1.1-0.4c0.7-0.6,0.8-1.6,0.2-2.3C16.4,8.2,16,8,15.5,8
						L15.5,8z"/>
				</g>
			</g>
		</g>
		<g>
			<path class="st1" d="M8.1,22.8l2.3-1.9l-0.6-0.6L8,21.9C7.7,22.1,7.8,22.6,8.1,22.8L8.1,22.8z"/>
			<path class="st1" d="M9.8,20.2L8,21.9c-0.3,0.3-0.2,0.7,0.1,0.9l2.3-1.9L9.8,20.2L9.8,20.2z"/>
		</g>
		<g>
			<polygon class="st1" points="9.8,25.1 11.9,23.3 12.2,23.5 10,25.4 			"/>
			<polygon class="st1" points="12,22.6 9.1,25 9.9,26.1 12.9,23.6 12,22.6 			"/>
		</g>
	</g>
	<g>
		<g>
			<path class="st1" d="M21.2,27.8c-0.3,0-0.5-0.2-0.5-0.5V26c0-0.3,0.2-0.5,0.5-0.5h7.2c0.3,0,0.5,0.2,0.5,0.5v1.2
				c0,0.3-0.2,0.5-0.5,0.5H21.2z"/>
			<path class="st1" d="M28.4,26l0,1.2l-7.2,0l0-1.2H28.4 M28.4,25h-7.2c-0.6,0-1,0.4-1,1v1.2c0,0.6,0.4,1,1,1h7.2c0.6,0,1-0.4,1-1
				V26C29.4,25.5,29,25,28.4,25L28.4,25z"/>
		</g>
		<g>
			<path class="st1" d="M27.2,22.8c-0.2,0-0.4-0.2-0.4-0.4V21c0-0.2,0.2-0.4,0.4-0.4h5.2c0.2,0,0.4,0.2,0.4,0.4v1.5
				c0,0.2-0.2,0.4-0.4,0.4H27.2z"/>
			<path class="st1" d="M32.3,21.1v1.2h-4.9v-1.2H32.3 M32.4,20.1h-5.2c-0.5,0-0.9,0.4-0.9,0.9v1.5c0,0.5,0.4,0.9,0.9,0.9h5.2
				c0.5,0,0.9-0.4,0.9-0.9V21C33.3,20.5,32.9,20.1,32.4,20.1L32.4,20.1z"/>
		</g>
		<g>
			<path class="st1" d="M16.5,32.7c-0.2,0-0.3-0.1-0.3-0.3v-1.6c0-0.2,0.1-0.3,0.3-0.3h4.7c0.2,0,0.3,0.1,0.3,0.3v1.6
				c0,0.2-0.1,0.3-0.3,0.3H16.5z"/>
			<path class="st1" d="M21,31v1.2h-4.4V31H21 M21.2,30h-4.7c-0.5,0-0.8,0.4-0.8,0.8v1.6c0,0.5,0.4,0.8,0.8,0.8h4.7
				c0.5,0,0.8-0.4,0.8-0.8v-1.6C22,30.4,21.7,30,21.2,30L21.2,30z"/>
		</g>
	</g>
</g>
</svg>
