<?xml version="1.0" encoding="utf-8"?>
<!-- Generator: Adobe Illustrator 23.0.0, SVG Export Plug-In . SVG Version: 6.00 Build 0)  -->
<svg version="1.1" id="Layer_1" xmlns="http://www.w3.org/2000/svg" xmlns:xlink="http://www.w3.org/1999/xlink" x="0px" y="0px"
	 viewBox="0 0 42 42" style="enable-background:new 0 0 42 42;" xml:space="preserve">
<style type="text/css">
	.st0{fill:#FBC62C;}
	.st1{fill:#FFFFFF;}
</style>
<circle class="st0" cx="21" cy="21" r="20"/>
<g>
	<g>
		<g id="PMFFNZ.tif_3_">
			<g>
				<g>
					<path class="st1" d="M25.6,22.7c-0.2,0-0.2,0-0.3-0.1c-0.1-0.1-0.2-0.2-0.2-0.4c-0.3-1.1-0.7-2.2-1-3.3
						c-0.2-0.5-0.5-0.6-0.7-0.6l-0.2,0c-0.5,0.1-0.9,0.1-1.4,0.2c-0.5,0.1-1.1,0.2-1.6,0.2c-0.1,0-0.2,0-0.3,0c-0.4,0-0.9-0.1-1-1.2
						c-0.1-0.7-0.2-1.4-0.3-2.1l-0.1-1l-0.2-1.1l-1,0.5c-0.3,0.2-0.6,0.3-0.9,0.5c-0.2,0.1-0.4,0.4-0.4,0.6
						c-0.1,0.3-0.1,0.6-0.2,0.9c-0.1,0.4-0.2,0.9-0.4,1.3c0,0.2-0.1,0.3-0.2,0.4c0,0-0.1,0-0.1,0c-0.1,0-0.1,0-0.2-0.1
						c-0.1-0.1-0.1-0.2-0.1-0.3c0.2-0.7,0.3-1.4,0.5-2.1c0.1-0.2,0.1-0.4,0.1-0.5c0.1-0.5,0.1-0.5,0.8-0.8c0,0,0.6-0.3,0.8-0.4
						c0.3-0.2,0.6-0.3,0.9-0.5c0.2-0.1,0.3-0.1,0.5-0.2l0.1,0c0,0,0.1,0,0.1,0c0.1,0,0.2,0,0.4-0.1c0.2-0.1,0.4-0.1,0.5-0.1
						c0.6,0,1.1,0.3,1.7,0.6c0.4,0.2,0.7,0.3,1.1,0.3c0.4,0,0.9-0.2,1.3-0.6c0.2-0.1,0.3-0.3,0.5-0.4c0.1-0.1,0.3-0.2,0.4-0.3
						c0.1-0.1,0.2-0.1,0.3-0.1c0,0,0.1,0,0.2,0l0.1,0.2c0,0.2-0.1,0.4-0.2,0.4c-0.7,0.4-1.3,0.9-2,1.4c-0.2,0.1-0.3,0.2-0.4,0.2
						c-0.1,0-0.2,0-0.3-0.1c-0.3-0.1-0.5-0.3-0.8-0.4L20,13.1l0.8,4.5c0,0,2.6-0.3,3.2-0.4c0.1,0,0.1,0,0.2,0c0.3,0,0.4,0.1,0.5,0.5
						l1.2,3.8c0.1,0.4,0.2,0.7,0.1,0.9l-0.2,0.2C25.7,22.6,25.7,22.7,25.6,22.7z"/>
					<path class="st1" d="M19.5,12.9l0.2,1.3l0.5,3.1l0.2,0.9c-0.1,0-0.2,0-0.3,0c-0.1,0-0.2,0-0.3,0c-0.2,0-0.4,0-0.5-0.8
						c-0.1-0.7-0.2-1.4-0.3-2.1l-0.1-1c0-0.1,0-0.2,0-0.3l0-0.2L18.7,13c0.1,0,0.3,0,0.5-0.1C19.2,12.9,19.4,12.9,19.5,12.9
						 M24.1,17.8C24.2,17.8,24.2,17.8,24.1,17.8c0,0,0,0.1,0.1,0.1l0.1,0.5c-0.2-0.3-0.5-0.5-0.8-0.5c0.1,0,0.3,0,0.4-0.1
						C24.1,17.8,24.1,17.8,24.1,17.8 M24.8,11.5c-0.2,0-0.4,0.1-0.6,0.2c-0.3,0.2-0.7,0.4-1,0.7c-0.3,0.3-0.6,0.4-0.9,0.4
						c-0.3,0-0.5-0.1-0.8-0.3c-0.6-0.4-1.3-0.7-2-0.7c-0.2,0-0.5,0-0.7,0.1c-0.1,0-0.3,0-0.4,0.1c-0.3,0.1-0.5,0.1-0.8,0.3
						c-0.5,0.3-1,0.6-1.5,0.8c-1.3,0.7-1,0.5-1.4,1.8c-0.2,0.7-0.4,1.4-0.5,2.1c-0.1,0.3,0,0.6,0.3,0.8c0.2,0.1,0.3,0.2,0.5,0.2
						c0.1,0,0.3-0.1,0.4-0.2c0.2-0.2,0.3-0.4,0.4-0.6c0.2-0.7,0.4-1.5,0.6-2.2c0-0.1,0.1-0.3,0.2-0.3c0.4-0.2,0.8-0.5,1.2-0.7
						c0,0.2,0,0.3,0.1,0.4c0.1,1.1,0.3,2.1,0.4,3.2c0.2,1.1,0.7,1.6,1.5,1.6c0.1,0,0.3,0,0.4,0c1-0.2,2-0.3,3-0.4c0,0,0.1,0,0.1,0
						c0.1,0,0.2,0.1,0.3,0.2c0.3,1.1,0.7,2.2,1,3.3c0.1,0.2,0.2,0.4,0.3,0.5c0.2,0.2,0.4,0.3,0.7,0.3c0.2,0,0.3,0,0.5-0.1
						c0.1-0.1,0.3-0.2,0.4-0.3c0.2-0.5,0.1-0.9-0.1-1.4c-0.4-1.3-0.8-2.5-1.2-3.8c-0.2-0.6-0.5-0.8-1-0.8c-0.1,0-0.2,0-0.2,0
						c-0.9,0.1-1.8,0.2-2.7,0.3c-0.2-1-0.3-2.1-0.5-3.1c0.4,0.2,0.8,0.4,1.2,0.6c0.2,0.1,0.4,0.2,0.6,0.2c0.2,0,0.5-0.1,0.7-0.3
						c0.6-0.5,1.3-0.9,2-1.4c0.4-0.3,0.5-0.6,0.4-1.1c-0.1-0.1-0.2-0.3-0.3-0.4C25.1,11.6,24.9,11.5,24.8,11.5L24.8,11.5z"/>
				</g>
				<g>
					<path class="st1" d="M17.3,24.9c-0.1,0-0.2-0.1-0.3-0.2c-0.2-0.2-0.1-0.4,0.1-0.6c0.7-0.7,1.5-1.3,2.2-2
						c0.3-0.2,0.4-0.5,0.4-0.9c0-0.2,0-0.4-0.1-0.6c0.1,0,0.3,0,0.4,0l0.1,0c0.1,0,0.3,0,0.4,0c0,0,0,0,0,0.1
						c0.1,0.4,0.1,0.8,0.1,1.2c0,0.1-0.1,0.2-0.2,0.3c-0.8,0.7-1.6,1.4-2.3,2.1l-0.5,0.4C17.5,24.9,17.4,24.9,17.3,24.9z"/>
					<path class="st1" d="M20.1,21.7c0,0.1,0,0.1,0,0.2c0,0,0,0,0,0c0,0-0.1,0.1-0.1,0.1C20.1,21.9,20.1,21.8,20.1,21.7 M19,20.1
						c0,0.4,0.1,0.8,0.1,1.2c0,0.2,0,0.3-0.2,0.5c-0.8,0.7-1.5,1.3-2.2,2c-0.4,0.4-0.5,0.9-0.1,1.3c0.2,0.2,0.4,0.3,0.7,0.3
						c0.2,0,0.5-0.1,0.7-0.3c0.9-0.8,1.9-1.7,2.8-2.5c0.2-0.2,0.3-0.5,0.3-0.7c0-0.6-0.1-1.2-0.2-1.8c-0.3,0-0.6,0-0.8,0
						c0,0-0.1,0-0.1,0C19.7,20.2,19.4,20.1,19,20.1L19,20.1z"/>
				</g>
				<g>
					<path class="st1" d="M18.7,10.6c-0.3,0-0.6-0.1-0.8-0.4c-0.4-0.4-0.3-1.1,0.1-1.5c0.2-0.2,0.4-0.3,0.7-0.3
						c0.3,0,0.6,0.1,0.8,0.4c0.4,0.4,0.4,1.1-0.1,1.5C19.1,10.5,18.9,10.6,18.7,10.6z"/>
					<path class="st1" d="M18.7,9c0.1,0,0.3,0,0.4,0.2c0.1,0.1,0.2,0.3,0.1,0.4c0,0.1-0.1,0.3-0.2,0.4c-0.1,0.1-0.2,0.1-0.4,0.1
						c-0.1,0-0.3-0.1-0.4-0.2c-0.2-0.2-0.2-0.6,0.1-0.7C18.4,9,18.6,9,18.7,9 M18.7,8c-0.4,0-0.7,0.1-1,0.4C17,8.9,17,9.9,17.5,10.5
						c0.3,0.4,0.7,0.5,1.2,0.5c0.4,0,0.7-0.1,1-0.4c0.7-0.6,0.7-1.5,0.1-2.2C19.5,8.2,19.1,8,18.7,8L18.7,8z"/>
				</g>
			</g>
		</g>
		<g>
			<path class="st1" d="M12.3,21.2l1.3-1.1c0.2-0.1,0.2-0.4,0-0.6l0,0c-0.1-0.2-0.4-0.2-0.6,0l-1.3,1.1c-0.1,0.1-0.2,0.3-0.1,0.4
				l0,0C11.8,21.3,12.1,21.4,12.3,21.2z"/>
			<path class="st1" d="M13.4,19.5c-0.1,0-0.2,0-0.3,0.1l-1.3,1.1c-0.1,0.1-0.2,0.3-0.1,0.4l0,0c0,0.2,0.2,0.3,0.4,0.3
				c0.1,0,0.2,0,0.3-0.1l1.3-1.1c0.2-0.1,0.2-0.4,0-0.6C13.6,19.5,13.5,19.5,13.4,19.5L13.4,19.5z"/>
		</g>
		<g>
			<polygon class="st1" points="13.4,23.8 15.3,22.2 15.5,22.4 13.6,24 			"/>
			<path class="st1" d="M15.4,21.6c-0.1,0-0.2,0-0.3,0.1L13,23.5c-0.2,0.1-0.2,0.4-0.1,0.5l0.3,0.4c0.1,0.1,0.2,0.2,0.3,0.2
				c0.1,0,0.2,0,0.3-0.1l2.1-1.8c0.2-0.1,0.2-0.4,0-0.6l-0.3-0.4C15.6,21.7,15.5,21.6,15.4,21.6L15.4,21.6z"/>
		</g>
	</g>
	<g>
		<g>
			<path class="st1" d="M21.6,26.3c-0.2,0-0.4-0.2-0.4-0.4v-1.2c0-0.2,0.2-0.4,0.4-0.4h6.5c0.2,0,0.4,0.2,0.4,0.4v1.2
				c0,0.2-0.2,0.4-0.4,0.4H21.6z"/>
			<path class="st1" d="M28,24.8v1h-6.3v-1H28 M28.1,23.8h-6.5c-0.5,0-0.9,0.4-0.9,0.9v1.2c0,0.5,0.4,0.9,0.9,0.9h6.5
				c0.5,0,0.9-0.4,0.9-0.9v-1.2C29,24.2,28.6,23.8,28.1,23.8L28.1,23.8z"/>
		</g>
	</g>
	<g>
		<g>
			<path class="st1" d="M17.7,30.4c-0.1,0-0.2-0.1-0.2-0.2v-1.5c0-0.1,0.1-0.2,0.2-0.2h4.1c0.1,0,0.2,0.1,0.2,0.2v1.5
				c0,0.1-0.1,0.2-0.2,0.2H17.7z"/>
			<path class="st1" d="M21.5,28.9v1h-3.6v-1H21.5 M21.8,27.9h-4.1c-0.4,0-0.7,0.3-0.7,0.7v1.5c0,0.4,0.3,0.7,0.7,0.7h4.1
				c0.4,0,0.7-0.3,0.7-0.7v-1.5C22.5,28.3,22.2,27.9,21.8,27.9L21.8,27.9z"/>
		</g>
	</g>
	<g>
		<g>
			<path class="st1" d="M14.4,34.5c-0.1,0-0.2-0.1-0.2-0.2v-1.6c0-0.1,0.1-0.2,0.2-0.2h3.6c0.1,0,0.2,0.1,0.2,0.2v1.6
				c0,0.1-0.1,0.2-0.2,0.2H14.4z"/>
			<path class="st1" d="M17.6,33v1h-3v-1H17.6 M17.9,32h-3.6c-0.4,0-0.7,0.3-0.7,0.7v1.6c0,0.4,0.3,0.7,0.7,0.7h3.6
				c0.4,0,0.7-0.3,0.7-0.7v-1.6C18.6,32.3,18.3,32,17.9,32L17.9,32z"/>
		</g>
	</g>
</g>
</svg>
