<?xml version="1.0" encoding="utf-8"?>
<!-- Generator: Adobe Illustrator 23.0.0, SVG Export Plug-In . SVG Version: 6.00 Build 0)  -->
<svg version="1.1" id="Layer_1" xmlns="http://www.w3.org/2000/svg" xmlns:xlink="http://www.w3.org/1999/xlink" x="0px" y="0px"
	 viewBox="0 0 42 42" style="enable-background:new 0 0 42 42;" xml:space="preserve">
<style type="text/css">
	.st0{fill:#29ABE2;}
	.st1{fill:#FFFFFF;}
</style>
<g>
	<circle class="st0" cx="20.5" cy="20.5" r="20"/>
</g>
<g>
	<g>
		<g id="PMFFNZ.tif_1_">
			<g>
				<g>
					<path class="st1" d="M21.1,26c-0.2,0-0.3,0-0.4-0.2c-0.1-0.1-0.2-0.3-0.2-0.5c-0.4-1.2-0.8-2.4-1.1-3.6
						c-0.2-0.5-0.5-0.6-0.8-0.6l-0.2,0c-0.5,0.1-1,0.1-1.5,0.2c-0.6,0.1-1.2,0.2-1.8,0.3c-0.1,0-0.3,0-0.4,0c-0.5,0-1-0.2-1.2-1.4
						c-0.1-0.8-0.2-1.6-0.3-2.4L13,16.7c0-0.1-0.2-1.2-0.2-1.2l-1,0.6c-0.4,0.2-0.7,0.4-1,0.6c-0.2,0.2-0.4,0.4-0.4,0.7
						c-0.1,0.3-0.2,0.6-0.2,1c-0.1,0.5-0.3,1-0.4,1.5c-0.1,0.2-0.2,0.4-0.3,0.5c-0.1,0.1-0.1,0.1-0.2,0.1c-0.1,0-0.2,0-0.2-0.1
						c-0.2-0.1-0.2-0.2-0.2-0.4c0.2-0.8,0.4-1.6,0.6-2.4c0.1-0.2,0.1-0.4,0.2-0.6c0.1-0.6,0.1-0.6,0.9-1c0,0,0.7-0.4,0.9-0.5
						c0.3-0.2,0.7-0.4,1-0.6c0.2-0.1,0.4-0.1,0.6-0.2l0.1,0c0,0,0.1,0,0.1,0c0.1,0,0.2,0,0.4-0.1c0.2-0.1,0.4-0.1,0.6-0.1
						c0.7,0,1.3,0.3,2,0.7c0.4,0.2,0.8,0.4,1.2,0.4c0.5,0,0.9-0.2,1.4-0.6c0.2-0.2,0.4-0.3,0.6-0.4c0.1-0.1,0.3-0.2,0.4-0.3
						C20,14,20.1,14,20.2,14c0.1,0,0.1,0,0.2,0l0.2,0.2c0,0.3-0.1,0.5-0.3,0.6c-0.7,0.5-1.5,1-2.2,1.5c-0.2,0.2-0.4,0.2-0.5,0.2
						c-0.1,0-0.3,0-0.4-0.1c-0.3-0.2-0.6-0.3-0.9-0.4L15,15.4l0.8,4.9c0,0,2.8-0.3,3.5-0.4c0.1,0,0.1,0,0.2,0c0.3,0,0.5,0.1,0.7,0.6
						l1.3,4.3c0.2,0.5,0.2,0.8,0.1,1.1L21.4,26C21.3,26,21.2,26,21.1,26z"/>
					<path class="st1" d="M14.3,14.8C14.4,14.8,14.4,14.8,14.3,14.8l0.3,1.5l0.5,3l0.1,0.5l0.2,0.9l0.9-0.1l0.9-0.1
						c0.7-0.1,1.4-0.2,2.1-0.3c0.1,0,0.1,0,0.2,0c0,0,0.1,0,0.1,0c0,0,0,0,0,0c0,0,0,0.1,0.1,0.2l0.5,1.7c0.3,0.9,0.5,1.7,0.8,2.6
						l0,0.1c0.1,0.3,0.1,0.5,0.1,0.6l0,0c0,0-0.1,0-0.1,0c-0.1-0.1-0.1-0.2-0.1-0.3c-0.4-1.2-0.8-2.4-1.1-3.6c-0.3-0.9-1-1-1.2-1
						c-0.1,0-0.2,0-0.2,0c-0.5,0.1-1,0.1-1.5,0.2c-0.6,0.1-1.2,0.2-1.8,0.3c-0.1,0-0.2,0-0.3,0c-0.3,0-0.6,0-0.7-1
						c-0.1-0.8-0.2-1.6-0.3-2.4l-0.2-1.2c0-0.1,0-0.2-0.1-0.3l0-0.2L13.2,15l0,0c0,0,0.1,0,0.1,0c0.1,0,0.3,0,0.5-0.1
						C14,14.9,14.2,14.8,14.3,14.8 M17.9,15.9C17.8,15.9,17.8,15.9,17.9,15.9C17.7,16,17.7,16,17.7,16c0,0-0.1,0-0.2-0.1
						c0,0,0,0,0,0c0,0,0,0,0,0C17.6,15.9,17.7,15.9,17.9,15.9 M20.2,13.5c-0.2,0-0.4,0.1-0.6,0.2c-0.4,0.3-0.7,0.5-1.1,0.8
						c-0.4,0.3-0.7,0.5-1.1,0.5c-0.3,0-0.6-0.1-0.9-0.3c-0.7-0.4-1.4-0.8-2.2-0.8c-0.3,0-0.5,0-0.8,0.1C13.4,14,13.2,14,13,14
						c-0.3,0.1-0.6,0.1-0.9,0.3c-0.6,0.3-1.1,0.6-1.7,0.9c-1.4,0.8-1.1,0.5-1.5,2c-0.2,0.8-0.4,1.6-0.6,2.4c-0.1,0.4,0,0.7,0.4,0.9
						c0.2,0.1,0.4,0.2,0.5,0.2c0.2,0,0.3-0.1,0.5-0.2c0.2-0.2,0.4-0.5,0.4-0.7c0.2-0.8,0.4-1.6,0.6-2.5c0-0.1,0.1-0.3,0.2-0.4
						c0.4-0.3,0.9-0.5,1.4-0.8c0,0.2,0.1,0.3,0.1,0.5c0.2,1.2,0.3,2.4,0.5,3.5c0.2,1.3,0.7,1.8,1.7,1.8c0.1,0,0.3,0,0.5,0
						c1.1-0.2,2.2-0.3,3.4-0.5c0,0,0.1,0,0.1,0c0.2,0,0.2,0.1,0.3,0.3c0.4,1.2,0.8,2.4,1.2,3.7c0.1,0.2,0.2,0.4,0.3,0.6
						c0.2,0.3,0.5,0.4,0.8,0.4c0.2,0,0.3,0,0.5-0.1c0.1-0.1,0.3-0.3,0.4-0.4c0.3-0.5,0.1-1-0.1-1.5c-0.5-1.4-0.9-2.8-1.3-4.3
						c-0.2-0.6-0.6-0.9-1.1-0.9c-0.1,0-0.2,0-0.3,0c-1,0.1-2,0.2-3,0.4c-0.2-1.2-0.4-2.3-0.6-3.5c0.5,0.2,0.9,0.4,1.4,0.6
						c0.2,0.1,0.4,0.2,0.6,0.2c0.3,0,0.5-0.1,0.8-0.3c0.7-0.5,1.5-1,2.2-1.5c0.5-0.3,0.5-0.7,0.5-1.2c-0.1-0.1-0.3-0.3-0.4-0.4
						C20.6,13.5,20.4,13.5,20.2,13.5L20.2,13.5z"/>
				</g>
				<g>
					<path class="st1" d="M11.9,28.5c-0.2,0-0.3-0.1-0.4-0.2c-0.2-0.2-0.2-0.6,0.1-0.8c0.8-0.7,1.7-1.5,2.5-2.2
						c0.3-0.3,0.4-0.6,0.4-1c0-0.2-0.1-0.5-0.1-0.7c0.2,0,0.3,0,0.5,0l0.2,0c0.2,0,0.3,0,0.5,0c0,0,0,0.1,0,0.1
						c0.1,0.5,0.1,0.9,0.1,1.4c0,0.1-0.1,0.3-0.2,0.4c-0.9,0.8-1.8,1.6-2.6,2.4l-0.5,0.5C12.2,28.4,12,28.5,11.9,28.5z"/>
					<path class="st1" d="M14.9,24.1c0,0,0.1,0,0.1,0c0,0,0,0,0.1,0c0,0.3,0.1,0.6,0.1,0.9c0,0,0,0.1-0.1,0.1
						c-0.9,0.8-1.8,1.6-2.6,2.4L11.9,28c0,0-0.1,0-0.1,0c0,0,0,0-0.1-0.1c0,0,0,0,0.1-0.1c0.8-0.8,1.7-1.5,2.5-2.2
						C14.8,25.3,15,24.8,14.9,24.1C14.9,24.2,14.9,24.2,14.9,24.1 M13.8,23c0,0.4,0.1,0.9,0.1,1.3c0,0.2,0,0.4-0.2,0.5
						c-0.8,0.7-1.7,1.5-2.5,2.2c-0.5,0.4-0.5,1.1-0.1,1.5c0.2,0.2,0.5,0.4,0.8,0.4c0.3,0,0.5-0.1,0.7-0.3c1.1-0.9,2.1-1.9,3.2-2.8
						c0.2-0.2,0.4-0.5,0.4-0.8c0-0.7-0.1-1.3-0.2-2c-0.3,0-0.6,0-0.9,0c0,0-0.1,0-0.1,0C14.5,23.1,14.2,23.1,13.8,23L13.8,23z"/>
				</g>
				<g>
					<path class="st1" d="M13.4,12.5c-0.3,0-0.7-0.2-0.9-0.4c-0.4-0.5-0.4-1.3,0.1-1.7c0.2-0.2,0.5-0.3,0.8-0.3
						c0.3,0,0.7,0.2,0.9,0.4c0.2,0.3,0.3,0.6,0.3,0.9c0,0.3-0.2,0.6-0.4,0.8C14,12.3,13.7,12.5,13.4,12.5z"/>
					<path class="st1" d="M13.4,10.5c0.2,0,0.4,0.1,0.5,0.2c0.1,0.2,0.2,0.3,0.2,0.5c0,0.2-0.1,0.4-0.3,0.5
						c-0.1,0.1-0.3,0.2-0.5,0.2c-0.2,0-0.4-0.1-0.5-0.3c-0.3-0.3-0.2-0.8,0.1-1C13.1,10.5,13.3,10.5,13.4,10.5 M13.4,9.5
						c-0.4,0-0.8,0.1-1.1,0.4c-0.7,0.6-0.8,1.7-0.2,2.4c0.4,0.4,0.8,0.6,1.3,0.6c0.4,0,0.8-0.1,1.1-0.4c0.7-0.7,0.8-1.7,0.2-2.4
						C14.3,9.7,13.9,9.5,13.4,9.5L13.4,9.5z"/>
				</g>
			</g>
		</g>
		<g>
			<polygon class="st1" points="5.8,24.8 8.7,22.3 8.2,21.8 5.7,23.9 			"/>
			<polygon class="st1" points="8.2,21.8 5.7,23.9 5.8,24.8 8.7,22.3 8.2,21.8 			"/>
		</g>
		<g>
			<polygon class="st1" points="6.6,26.5 9.5,24 9.1,23.6 6.2,26.1 			"/>
			<polygon class="st1" points="9.1,23.6 6.2,26.1 6.6,26.5 9.5,24 9.1,23.6 			"/>
		</g>
		<g>
			<polygon class="st1" points="7.2,27.6 11.1,24.3 11.5,24.9 7.6,28.3 			"/>
			<polygon class="st1" points="11.1,24.3 7.2,27.6 7.6,28.3 11.5,24.9 11.1,24.3 			"/>
		</g>
	</g>
	<g>
		<g>
			<path class="st1" d="M24.8,25.1c-0.2,0-0.4-0.2-0.4-0.4v-1.6c0-0.2,0.2-0.4,0.4-0.4h5.3c0.2,0,0.4,0.2,0.4,0.4v1.6
				c0,0.2-0.2,0.4-0.4,0.4H24.8z"/>
			<path class="st1" d="M30,23.2v1.4h-5.1v-1.4H30 M30.1,22.2h-5.3c-0.5,0-0.9,0.4-0.9,0.9v1.6c0,0.5,0.4,0.9,0.9,0.9h5.3
				c0.5,0,0.9-0.4,0.9-0.9v-1.6C31,22.6,30.6,22.2,30.1,22.2L30.1,22.2z"/>
		</g>
		<g>
			<path class="st1" d="M29.5,20.1c-0.2,0-0.3-0.1-0.3-0.3v-1.7c0-0.2,0.1-0.3,0.3-0.3h4.4c0.2,0,0.3,0.1,0.3,0.3v1.7
				c0,0.2-0.1,0.3-0.3,0.3H29.5z"/>
			<path class="st1" d="M33.7,18.3v1.4h-4v-1.4H33.7 M33.9,17.3h-4.4c-0.5,0-0.8,0.4-0.8,0.8v1.7c0,0.5,0.4,0.8,0.8,0.8h4.4
				c0.5,0,0.8-0.4,0.8-0.8v-1.7C34.7,17.6,34.3,17.3,33.9,17.3L33.9,17.3z"/>
		</g>
		<g>
			<path class="st1" d="M17.7,30c-0.3,0-0.5-0.2-0.5-0.5v-1.4c0-0.3,0.2-0.5,0.5-0.5h6.6c0.3,0,0.5,0.2,0.5,0.5v1.4
				c0,0.3-0.2,0.5-0.5,0.5H17.7z"/>
			<path class="st1" d="M24.3,28.2l0,1.4l-6.5,0l0-1.4H24.3 M24.3,27.2h-6.6c-0.5,0-1,0.4-1,1v1.4c0,0.5,0.4,1,1,1h6.6
				c0.5,0,1-0.4,1-1v-1.4C25.3,27.6,24.8,27.2,24.3,27.2L24.3,27.2z"/>
		</g>
	</g>
</g>
</svg>
