<svg xmlns="http://www.w3.org/2000/svg" width="480.632" height="481.069" viewBox="0 0 480.632 481.069">
  <g id="light_line_group" transform="translate(3635.367 6309.421)">
    <g id="组_351" data-name="组 351" transform="translate(-3766 -9843.815)">
      <g id="组_117" data-name="组 117">
        <path id="路径_180" data-name="路径 180" d="M611.264,3564.884l-25.13-30.49h-7.588l32.718,39.278Z" fill="#c8e9f6"/>
        <path id="路径_181" data-name="路径 181" d="M611.264,3647.052,505.3,3534.394h-8.23l114.2,120.9Z" fill="#c8e9f6"/>
        <path id="路径_182" data-name="路径 182" d="M611.264,3728.676,423.817,3534.394h-8.23L611.264,3736.92Z" fill="#c8e9f6"/>
        <path id="路径_183" data-name="路径 183" d="M611.264,3810.3,342.337,3534.394h-8.23l277.157,284.15Z" fill="#c8e9f6"/>
        <path id="路径_184" data-name="路径 184" d="M611.264,3891.924l-350.407-357.53h-8.23l358.636,365.775Z" fill="#c8e9f6"/>
        <path id="路径_185" data-name="路径 185" d="M611.264,3973.548,179.378,3534.394h-8.23l440.116,447.4Z" fill="#c8e9f6"/>
        <path id="路径_186" data-name="路径 186" d="M576.517,4015.463,130.632,3575.7v8.244l437.655,431.514Z" fill="#c8e9f6"/>
        <path id="路径_187" data-name="路径 187" d="M495.038,4015.463,130.632,3657.329v8.245l356.175,349.889Z" fill="#c8e9f6"/>
        <path id="路径_188" data-name="路径 188" d="M413.558,4015.463l-282.925-276.51v8.244l274.7,268.265Z" fill="#c8e9f6"/>
        <path id="路径_189" data-name="路径 189" d="M332.078,4015.463,130.632,3820.577v8.245l193.216,186.641Z" fill="#c8e9f6"/>
        <path id="路径_190" data-name="路径 190" d="M250.6,4015.463,130.632,3902.2v8.244l111.737,105.017Z" fill="#c8e9f6"/>
        <path id="路径_191" data-name="路径 191" d="M160.339,4015.463h8.781l-38.487-31.637v7.858Z" fill="#c8e9f6"/>
      </g>
    </g>
  </g>
</svg>
