<svg xmlns="http://www.w3.org/2000/svg" width="257.206" height="257.44" viewBox="0 0 257.206 257.44">
  <g id="line_group" transform="translate(-1403.397 -2357.846)">
    <g id="组_269" data-name="组 269" transform="translate(1210.801 416.038)">
      <g id="组_87" data-name="组 87">
        <path id="路径_107" data-name="路径 107" d="M449.8,1958.125l-13.448-16.316h-4.061l17.509,21.019Z" fill="#28a9e0"/>
        <path id="路径_108" data-name="路径 108" d="M449.8,2002.1l-56.708-60.288h-4.4l61.112,64.7Z" fill="#28a9e0"/>
        <path id="路径_109" data-name="路径 109" d="M449.8,2045.777,349.491,1941.808h-4.4L449.8,2050.189Z" fill="#28a9e0"/>
        <path id="路径_110" data-name="路径 110" d="M449.8,2089.457,305.888,1941.808h-4.4L449.8,2093.869Z" fill="#28a9e0"/>
        <path id="路径_111" data-name="路径 111" d="M449.8,2133.138,262.285,1941.808h-4.4L449.8,2137.55Z" fill="#28a9e0"/>
        <path id="路径_112" data-name="路径 112" d="M449.8,2176.818l-231.121-235.01h-4.4L449.8,2181.23Z" fill="#28a9e0"/>
        <path id="路径_113" data-name="路径 113" d="M431.208,2199.248,192.6,1963.915v4.412L426.8,2199.248Z" fill="#28a9e0"/>
        <path id="路径_114" data-name="路径 114" d="M387.6,2199.248,192.6,2007.6v4.412l190.6,187.241Z" fill="#28a9e0"/>
        <path id="路径_115" data-name="路径 115" d="M344,2199.248,192.6,2051.276v4.412l147,143.56Z" fill="#28a9e0"/>
        <path id="路径_116" data-name="路径 116" d="M300.4,2199.248,192.6,2094.957v4.412l103.4,99.879Z" fill="#28a9e0"/>
        <path id="路径_117" data-name="路径 117" d="M256.8,2199.248l-64.2-60.611v4.412l59.795,56.2Z" fill="#28a9e0"/>
        <path id="路径_118" data-name="路径 118" d="M208.493,2199.248h4.7l-20.6-16.93v4.205Z" fill="#28a9e0"/>
      </g>
    </g>
  </g>
</svg>
