<svg xmlns="http://www.w3.org/2000/svg" width="481.078" height="480.637" viewBox="0 0 481.078 480.637">
  <g id="products-SurveyData-Compdata-photo002-line" transform="translate(-1896.652 1586.442) rotate(-90)">
    <path id="路径_113" data-name="路径 113" d="M1586.44,1927.15l-25.13-30.49h-7.588l32.718,39.278Z" fill="#c8e9f6"/>
    <path id="路径_114" data-name="路径 114" d="M1586.44,2009.31l-105.968-112.658h-8.23l114.2,120.9Z" fill="#c8e9f6"/>
    <path id="路径_115" data-name="路径 115" d="M1586.44,2090.94l-187.447-194.282h-8.23l195.677,202.526Z" fill="#c8e9f6"/>
    <path id="路径_116" data-name="路径 116" d="M1586.44,2172.56l-268.927-275.906h-8.23L1586.44,2180.8Z" fill="#c8e9f6"/>
    <path id="路径_117" data-name="路径 117" d="M1586.44,2254.19l-350.406-357.53h-8.23l358.636,365.774Z" fill="#c8e9f6"/>
    <path id="路径_118" data-name="路径 118" d="M1586.44,2335.81l-431.886-439.154h-8.23l440.116,447.4Z" fill="#c8e9f6"/>
    <path id="路径_119" data-name="路径 119" d="M1551.69,2377.73l-445.884-439.758v8.244l437.655,431.514Z" fill="#c8e9f6"/>
    <path id="路径_120" data-name="路径 120" d="M1470.21,2377.73,1105.8,2019.6v8.244l356.175,349.89Z" fill="#c8e9f6"/>
    <path id="路径_121" data-name="路径 121" d="M1388.73,2377.73,1105.8,2101.22v8.244l274.7,268.265Z" fill="#c8e9f6"/>
    <path id="路径_122" data-name="路径 122" d="M1307.25,2377.73l-201.44-194.89v8.245l193.216,186.641Z" fill="#c8e9f6"/>
  </g>
</svg>
