<svg xmlns="http://www.w3.org/2000/svg" width="480.632" height="481.069" viewBox="0 0 480.632 481.069">
  <g id="products-SurveyData-Compdata-photo002-line" transform="translate(-1105.807 -1896.657)">
    <path id="路径_113" data-name="路径 113" d="M1586.439,1927.147l-25.13-30.49h-7.588l32.718,39.278Z" fill="#c8e9f6"/>
    <path id="路径_114" data-name="路径 114" d="M1586.439,2009.315l-105.968-112.658h-8.23l114.2,120.9Z" fill="#c8e9f6"/>
    <path id="路径_115" data-name="路径 115" d="M1586.439,2090.939l-187.447-194.282h-8.23l195.677,202.526Z" fill="#c8e9f6"/>
    <path id="路径_116" data-name="路径 116" d="M1586.439,2172.563l-268.927-275.906h-8.23l277.157,284.15Z" fill="#c8e9f6"/>
    <path id="路径_117" data-name="路径 117" d="M1586.439,2254.188l-350.406-357.53h-8.23l358.636,365.774Z" fill="#c8e9f6"/>
    <path id="路径_118" data-name="路径 118" d="M1586.439,2335.812l-431.886-439.154h-8.23l440.116,447.4Z" fill="#c8e9f6"/>
    <path id="路径_119" data-name="路径 119" d="M1551.692,2377.726l-445.884-439.758v8.244l437.655,431.514Z" fill="#c8e9f6"/>
    <path id="路径_120" data-name="路径 120" d="M1470.212,2377.726l-364.405-358.134v8.244l356.175,349.89Z" fill="#c8e9f6"/>
    <path id="路径_121" data-name="路径 121" d="M1388.733,2377.726l-282.925-276.51v8.244l274.7,268.265Z" fill="#c8e9f6"/>
    <path id="路径_122" data-name="路径 122" d="M1307.253,2377.726,1105.807,2182.84v8.245l193.216,186.641Z" fill="#c8e9f6"/>
  </g>
</svg>
