<svg xmlns="http://www.w3.org/2000/svg" width="101.578" height="107.102" viewBox="0 0 101.578 107.102">
  <g id="Group_257" data-name="Group 257" transform="translate(-5.862 0.53)">
    <circle id="Ellipse_47" data-name="Ellipse 47" cx="43.818" cy="43.818" r="43.818" transform="translate(10.046 18.936)" fill="#fcdb79"/>
    <g id="Group_252" data-name="Group 252" transform="translate(38.981 49.83)">
      <path id="Path_287" data-name="Path 287" d="M0,8.1V4.052C0,2.512,4.464,0,8.107,0H8.1c3.643,0,8.106,2.512,8.106,4.052V8.1" transform="translate(10.805 13.506)" fill="none" stroke="#005483" stroke-miterlimit="1" stroke-width="1.5"/>
      <path id="Path_288" data-name="Path 288" d="M5.4,13.506c3.248,0,5.4-2.591,5.4-5.788V5.789C10.805,2.591,8.651,0,5.4,0S0,2.591,0,5.789v1.93c0,3.2,2.154,5.788,5.4,5.788Z" transform="translate(13.506)" fill="none" stroke="#005483" stroke-miterlimit="1" stroke-width="1.5"/>
      <path id="Path_289" data-name="Path 289" d="M0,8.1V4.052C0,2.512,4.464,0,8.107,0H8.1c3.643,0,8.107,2.512,8.107,4.052V8.1" transform="translate(32.415 13.506)" fill="none" stroke="#005483" stroke-miterlimit="1" stroke-width="1.5"/>
      <path id="Path_290" data-name="Path 290" d="M5.4,13.506c3.248,0,5.4-2.591,5.4-5.788V5.789C10.805,2.591,8.651,0,5.4,0S0,2.591,0,5.789v1.93c0,3.2,2.154,5.788,5.4,5.788Z" transform="translate(35.117)" fill="none" stroke="#005483" stroke-miterlimit="1" stroke-width="1.5"/>
      <path id="Path_291" data-name="Path 291" d="M1.351,9.455A1.351,1.351,0,0,1,0,8.1V4.053C0,2.513,4.464,0,8.107,0H8.1c3.643,0,8.107,2.513,8.107,4.053V8.1a1.35,1.35,0,0,1-1.351,1.351Z" transform="translate(21.61 37.817)" fill="none" stroke="#005483" stroke-miterlimit="1" stroke-width="1.5"/>
      <path id="Path_292" data-name="Path 292" d="M5.4,13.506c3.248,0,5.4-2.591,5.4-5.788V5.788C10.805,2.592,8.651,0,5.4,0S0,2.592,0,5.788v1.93c0,3.2,2.154,5.788,5.4,5.788Z" transform="translate(24.311 24.311)" fill="none" stroke="#005483" stroke-miterlimit="1" stroke-width="1.5"/>
      <path id="Path_293" data-name="Path 293" d="M1.351,9.455A1.351,1.351,0,0,1,0,8.1V4.053C0,2.513,4.464,0,8.107,0H8.1c3.643,0,8.107,2.513,8.107,4.053V8.1a1.351,1.351,0,0,1-1.351,1.351Z" transform="translate(43.22 37.817)" fill="none" stroke="#005483" stroke-miterlimit="1" stroke-width="1.5"/>
      <path id="Path_294" data-name="Path 294" d="M5.4,13.506c3.248,0,5.4-2.591,5.4-5.788V5.788C10.8,2.592,8.651,0,5.4,0S0,2.592,0,5.788v1.93c0,3.2,2.154,5.788,5.4,5.788Z" transform="translate(45.922 24.311)" fill="none" stroke="#005483" stroke-miterlimit="1" stroke-width="1.5"/>
      <path id="Path_295" data-name="Path 295" d="M1.35,9.455A1.35,1.35,0,0,1,0,8.1V4.053C0,2.513,4.464,0,8.107,0H8.1c3.643,0,8.106,2.513,8.106,4.053V8.1a1.35,1.35,0,0,1-1.35,1.351Z" transform="translate(0 37.817)" fill="none" stroke="#005483" stroke-miterlimit="1" stroke-width="1.5"/>
      <path id="Path_296" data-name="Path 296" d="M5.4,13.506c3.248,0,5.4-2.591,5.4-5.788V5.788C10.805,2.592,8.651,0,5.4,0S0,2.592,0,5.788v1.93c0,3.2,2.154,5.788,5.4,5.788Z" transform="translate(2.701 24.311)" fill="none" stroke="#005483" stroke-miterlimit="1" stroke-width="1.5"/>
    </g>
    <g id="Group_253" data-name="Group 253" transform="translate(17.781)">
      <path id="Path_297" data-name="Path 297" d="M19.368,53.955V40.812L16.6,38.045V18.677L13.835,15.91V6.917L9.684,4.151,6.918,0,4.208,4.151,0,6.917v4.15" transform="translate(5.534 12.451)" fill="none" stroke="#005483" stroke-miterlimit="1" stroke-width="1.5"/>
      <path id="Line_531" data-name="Line 531" d="M0,0V12.451" transform="translate(12.451)" fill="none" stroke="#005483" stroke-miterlimit="1" stroke-width="1.5"/>
      <path id="Line_532" data-name="Line 532" d="M0,0V5.534" transform="translate(9.684 31.819)" fill="none" stroke="#005483" stroke-miterlimit="1" stroke-width="1.5"/>
      <path id="Line_533" data-name="Line 533" d="M0,0V5.534" transform="translate(15.218 31.819)" fill="none" stroke="#005483" stroke-miterlimit="1" stroke-width="1.5"/>
      <path id="Line_534" data-name="Line 534" d="M0,0V5.534" transform="translate(9.684 40.12)" fill="none" stroke="#005483" stroke-miterlimit="1" stroke-width="1.5"/>
      <path id="Line_535" data-name="Line 535" d="M0,0V5.534" transform="translate(15.218 40.12)" fill="none" stroke="#005483" stroke-miterlimit="1" stroke-width="1.5"/>
      <path id="Line_536" data-name="Line 536" d="M0,0V5.534" transform="translate(9.684 48.421)" fill="none" stroke="#005483" stroke-miterlimit="1" stroke-width="1.5"/>
      <path id="Line_537" data-name="Line 537" d="M0,0V5.534" transform="translate(15.218 48.421)" fill="none" stroke="#005483" stroke-miterlimit="1" stroke-width="1.5"/>
      <path id="Line_538" data-name="Line 538" d="M0,0V5.534" transform="translate(9.684 56.722)" fill="none" stroke="#005483" stroke-miterlimit="1" stroke-width="1.5"/>
      <path id="Line_539" data-name="Line 539" d="M0,0V5.534" transform="translate(15.218 56.722)" fill="none" stroke="#005483" stroke-miterlimit="1" stroke-width="1.5"/>
      <path id="Path_298" data-name="Path 298" d="M0,53.955V40.812l2.767-2.767V18.677L5.534,15.91V6.917l4.15-2.767L12.451,0,15.16,4.151l4.208,2.767v4.15" transform="translate(0 12.451)" fill="none" stroke="#005483" stroke-miterlimit="1" stroke-width="1.5"/>
    </g>
    <g id="Group_254" data-name="Group 254" transform="translate(80.992 25.208)">
      <path id="Line_540" data-name="Line 540" d="M0,0V13.224" transform="translate(6.612)" fill="none" stroke="#28a9e0" stroke-miterlimit="1" stroke-width="1.5"/>
      <path id="Line_541" data-name="Line 541" d="M0,0H13.224" transform="translate(13.224 6.612)" fill="none" stroke="#28a9e0" stroke-miterlimit="1" stroke-width="1.5"/>
    </g>
    <g id="Group_255" data-name="Group 255" transform="translate(41.9)">
      <path id="Line_542" data-name="Line 542" d="M2.963,0,0,2.963" transform="translate(0 7.406)" fill="none" stroke="#28a9e0" stroke-miterlimit="1" stroke-width="1.5"/>
      <path id="Line_543" data-name="Line 543" d="M2.963,0,0,2.963" transform="translate(7.406)" fill="none" stroke="#28a9e0" stroke-miterlimit="1" stroke-width="1.5"/>
      <path id="Line_544" data-name="Line 544" d="M0,0,2.963,2.963" transform="translate(7.406 7.406)" fill="none" stroke="#28a9e0" stroke-miterlimit="1" stroke-width="1.5"/>
      <path id="Line_545" data-name="Line 545" d="M0,0,2.963,2.963" fill="none" stroke="#28a9e0" stroke-miterlimit="1" stroke-width="1.5"/>
    </g>
    <g id="Group_256" data-name="Group 256" transform="translate(0 83.878)">
      <path id="Line_546" data-name="Line 546" d="M0,0V13.224" transform="translate(6.612 0)" fill="none" stroke="#28a9e0" stroke-miterlimit="1" stroke-width="1.5"/>
      <path id="Line_547" data-name="Line 547" d="M0,0H13.224" transform="translate(13.224 6.612)" fill="none" stroke="#28a9e0" stroke-miterlimit="1" stroke-width="1.5"/>
    </g>
  </g>
</svg>
