<svg id="cdc803f2-be56-40fd-87d3-772e38099c99" data-name="Layer 1" xmlns="http://www.w3.org/2000/svg" width="20" height="20" viewBox="0 0 20 20">
  <defs>
    <style>
      .\38 843e23e-ff74-4431-9d68-c802961a8c2f {
        fill: #231f20;
      }
    </style>
  </defs>
  <title>announcement</title>
  <g>
    <path class="8843e23e-ff74-4431-9d68-c802961a8c2f" d="M1.88,19.56a1.38,1.38,0,0,1-1-.41,1.36,1.36,0,0,1-.24-1.62L5.81,7.88a.5.5,0,0,1,.68-.2.49.49,0,0,1,.2.67L1.54,18a.39.39,0,0,0,.52.52l9.68-5.16a.5.5,0,1,1,.47.88L2.53,19.4A1.36,1.36,0,0,1,1.88,19.56Z"/>
    <path class="8843e23e-ff74-4431-9d68-c802961a8c2f" d="M11.64,14.34a6.13,6.13,0,0,1-3.86-2.05c-1.9-1.9-2.59-4.08-1.61-5.06s3.17-.3,5.07,1.6,2.59,4.08,1.6,5.06A1.65,1.65,0,0,1,11.64,14.34ZM7.38,7.77a.73.73,0,0,0-.5.16c-.42.43,0,2,1.61,3.65a6.83,6.83,0,0,0,2.33,1.59c.61.22,1.1.23,1.31,0,.43-.42,0-2-1.6-3.64A5.26,5.26,0,0,0,7.38,7.77Z"/>
    <path class="8843e23e-ff74-4431-9d68-c802961a8c2f" d="M13.5,10.72a.51.51,0,0,1-.36-.15.5.5,0,0,1,0-.7,4.4,4.4,0,0,1,6.21,0,.48.48,0,0,1,0,.7.5.5,0,0,1-.71,0,3.39,3.39,0,0,0-4.79,0A.5.5,0,0,1,13.5,10.72Z"/>
    <path class="8843e23e-ff74-4431-9d68-c802961a8c2f" d="M9.83,7.06a.47.47,0,0,1-.35-.15.5.5,0,0,1,0-.71,3.39,3.39,0,0,0,0-4.79.5.5,0,0,1,0-.71.5.5,0,0,1,.7,0,4.38,4.38,0,0,1,0,6.21A.47.47,0,0,1,9.83,7.06Z"/>
    <path class="8843e23e-ff74-4431-9d68-c802961a8c2f" d="M14.77,7.61a.5.5,0,0,1-.15-1l2.75-.92a.5.5,0,1,1,.31,1l-2.75.92Z"/>
    <path class="8843e23e-ff74-4431-9d68-c802961a8c2f" d="M12.94,5.78a.45.45,0,0,1-.16,0,.5.5,0,0,1-.32-.63l.92-2.75A.5.5,0,0,1,14,2.06a.49.49,0,0,1,.32.63l-.92,2.75A.49.49,0,0,1,12.94,5.78Z"/>
    <path class="8843e23e-ff74-4431-9d68-c802961a8c2f" d="M12.81,8a.85.85,0,0,1-.63-.26.89.89,0,1,1,1.26-1.26.91.91,0,0,1,0,1.26h0A.89.89,0,0,1,12.81,8Zm.27-.61h0ZM12.73,7a.11.11,0,1,0,.15.15Zm.08,0a.11.11,0,0,0-.08,0l.15.15h0A.11.11,0,0,0,12.81,7Z"/>
    <path class="8843e23e-ff74-4431-9d68-c802961a8c2f" d="M7,5.71H7A.89.89,0,1,1,7,3.93H7A.89.89,0,1,1,7,5.71Zm-.07-1a.09.09,0,0,0,0,.08L7,4.93l.11-.11L7,4.71H7l-.07,0Z"/>
    <path class="8843e23e-ff74-4431-9d68-c802961a8c2f" d="M16.49,4.63a.54.54,0,0,1-.36-.14A.5.5,0,0,1,16,4.08a.54.54,0,0,1-.41-.15.5.5,0,0,1,0-.71.89.89,0,1,1,1.26,1.27A.52.52,0,0,1,16.49,4.63Z"/>
    <path class="8843e23e-ff74-4431-9d68-c802961a8c2f" d="M15.69,12.59a.92.92,0,0,1-.63-.26.91.91,0,0,1,0-1.27.92.92,0,0,1,.63-.26h0a.89.89,0,0,1,.63.27.88.88,0,0,1,0,1.25h0a.89.89,0,0,1-.63.27Zm-.08-1a.11.11,0,0,0,0,.07l.11.11.11-.11-.11-.1h0l-.08,0Z"/>
  </g>
</svg>
