<svg id="a0839617-0df8-426f-8421-d143d111839f" data-name="Layer 1" xmlns="http://www.w3.org/2000/svg" width="20" height="20" viewBox="0 0 20 20">
  <defs>
    <style>
      .fccfdf92-99b7-4a57-a124-bafca0b42646 {
        fill: #231f20;
      }
    </style>
  </defs>
  <title>arrow-down</title>
  <g>
    <path class="fccfdf92-99b7-4a57-a124-bafca0b42646" d="M9.67,19.19A.66.66,0,0,1,9,18.53v-17A.65.65,0,0,1,9.67.88a.66.66,0,0,1,.66.65v17A.67.67,0,0,1,9.67,19.19Z"/>
    <path class="fccfdf92-99b7-4a57-a124-bafca0b42646" d="M9.67,19.19A.7.7,0,0,1,9.21,19L2.7,12.48a.65.65,0,1,1,.92-.92L9.7,17.63l6.7-6.09a.65.65,0,0,1,.92.05.64.64,0,0,1-.05.91L10.11,19A.66.66,0,0,1,9.67,19.19Z"/>
  </g>
</svg>
