<svg id="c4fcb29e-7c1d-4528-a455-14f168f09c94" data-name="Layer 1" xmlns="http://www.w3.org/2000/svg" width="20" height="20" viewBox="0 0 20 20">
  <defs>
    <style>
      .c43fd5a5-2484-4414-9f1e-41da0b2da9c5 {
        fill: #231f20;
      }
    </style>
  </defs>
  <title>arrow-circle-down</title>
  <g>
    <path class="c43fd5a5-2484-4414-9f1e-41da0b2da9c5" d="M3.3,3.29a9.5,9.5,0,1,0,13.43,0A9.51,9.51,0,0,0,3.3,3.29ZM16,16A8.49,8.49,0,1,1,16,4,8.5,8.5,0,0,1,16,16Z"/>
    <path class="c43fd5a5-2484-4414-9f1e-41da0b2da9c5" d="M9.84,15.1h0a.41.41,0,0,0,.16,0l.08-.05.09,0L14,11.48a.54.54,0,0,0,0-.78.54.54,0,0,0-.38-.17.52.52,0,0,0-.39.14l-2.91,2.64V5.47a.55.55,0,0,0-1.1,0v7.76L6.75,10.69a.55.55,0,0,0-.94.38.55.55,0,0,0,.16.39l3.48,3.48A.54.54,0,0,0,9.84,15.1Z"/>
  </g>
</svg>
