<svg id="3f71d40c-8722-465f-8f35-ce516e748271" data-name="Layer 1" xmlns="http://www.w3.org/2000/svg" width="20" height="20" viewBox="0 0 20 20">
  <defs>
    <style>
      .\34 f1f471f-c4d6-47a6-a144-0aa752bb86aa {
        fill: #231f20;
      }
    </style>
  </defs>
  <title>arrow-circle-up</title>
  <g>
    <path class="4f1f471f-c4d6-47a6-a144-0aa752bb86aa" d="M3.3,3.29a9.5,9.5,0,1,0,13.43,0A9.51,9.51,0,0,0,3.3,3.29ZM16,16A8.49,8.49,0,1,1,16,4,8.5,8.5,0,0,1,16,16Z"/>
    <path class="4f1f471f-c4d6-47a6-a144-0aa752bb86aa" d="M10.19,4.92h0A.51.51,0,0,0,10,5L9.91,5l-.09,0L6,8.54a.55.55,0,0,0,0,.78.53.53,0,0,0,.37.18.59.59,0,0,0,.4-.15L9.64,6.71v7.84a.55.55,0,0,0,.55.55.55.55,0,0,0,.55-.55V6.79l2.54,2.55A.55.55,0,0,0,14.21,9a.53.53,0,0,0-.16-.39L10.57,5.08A.55.55,0,0,0,10.19,4.92Z"/>
  </g>
</svg>
