<svg id="ccb9ce44-94d4-4087-9803-9806d16c6c96" data-name="Layer 1" xmlns="http://www.w3.org/2000/svg" width="20" height="20" viewBox="0 0 20 20">
  <defs>
    <style>
      .b097dd3c-a556-45c6-b389-9dd8669c53f1 {
        fill: #212221;
      }
    </style>
  </defs>
  <title>blocks</title>
  <path class="b097dd3c-a556-45c6-b389-9dd8669c53f1" d="M19.4,11.17s0,0,0-.05a.35.35,0,0,0-.1-.11l0,0L15,8.22V4.16a.46.46,0,0,0,0-.2l0,0a.57.57,0,0,0-.11-.11s0,0,0,0l-4.5-2.7a.43.43,0,0,0-.46,0l-4.5,2.7s0,0,0,0a.38.38,0,0,0-.11.11l0,0a.36.36,0,0,0-.06.2V8.22L.76,11l0,0a.38.38,0,0,0-.11.11l0,.05a.41.41,0,0,0,0,.19v4.31a.47.47,0,0,0,.21.38l4.5,2.89h0A.37.37,0,0,0,5.5,19,.43.43,0,0,0,5.72,19h0L10,16.2l4.26,2.74h0a.37.37,0,0,0,.21.06.43.43,0,0,0,.22-.06h0l4.5-2.89a.46.46,0,0,0,.2-.38V11.36A.41.41,0,0,0,19.4,11.17Zm-4.9,2.37-3.64-2.19L14.5,9l3.65,2.35ZM6,14.32l3.6-2.16v3.26L6,17.74Zm8.1-6.1-3.6,2.32V7.12L14.05,5Zm-4.5,2.32L6,8.22V5l3.6,2.16ZM10,2l3.63,2.17L10,6.34,6.38,4.16ZM5.5,9l3.65,2.35L5.5,13.54,1.86,11.35Zm-4,3.16,3.6,2.16v3.42l-3.6-2.32Zm9,0,3.6,2.16v3.42l-3.6-2.32ZM15,17.74V14.32l3.6-2.16v3.26Z"/>
</svg>
