<svg id="ecefacd4-eb45-4610-af6a-65977af1d186" data-name="Layer 1" xmlns="http://www.w3.org/2000/svg" width="20" height="20" viewBox="0 0 20 20">
  <defs>
    <style>
      .\36 45da78b-101e-4199-b653-eb1bf7b045d5 {
        fill: #212221;
      }
    </style>
  </defs>
  <title>check-toggle</title>
  <g id="6dab2e6e-77ca-4015-bb0a-2e124d73c67c" data-name="check toggle 2">
    <g id="f19adfe7-5029-47d8-987e-6f7c3f5789d8" data-name="checked">
      <path class="645da78b-101e-4199-b653-eb1bf7b045d5" d="M16.68,6.52H13.1V3.62A2.54,2.54,0,0,0,10.54,1.1H3.74A2.54,2.54,0,0,0,1.19,3.62v6.74a2.54,2.54,0,0,0,2.55,2.52H7.29v2.93A2.5,2.5,0,0,0,9.8,18.3h6.88a2.49,2.49,0,0,0,2.51-2.49V9A2.5,2.5,0,0,0,16.68,6.52ZM7.28,8.88V12H4a1.86,1.86,0,0,1-1.86-1.84V3.83A1.86,1.86,0,0,1,4,2h6.39A1.86,1.86,0,0,1,12.2,3.83V6.55H9.64A2.35,2.35,0,0,0,7.28,8.88ZM16.5,10.2,13,15.53a.59.59,0,0,1-.5.28h0a.6.6,0,0,1-.49-.24l-2-2.49a.6.6,0,0,1,.11-.87.63.63,0,0,1,.89.11l1.41,1.79,3-4.59a.63.63,0,0,1,.87-.18A.62.62,0,0,1,16.5,10.2Z"/>
    </g>
  </g>
</svg>
