<svg id="2f1f1c70-9585-47eb-98a2-154fb172d5fb" data-name="Layer 1" xmlns="http://www.w3.org/2000/svg" width="20" height="20" viewBox="0 0 20 20">
  <defs>
    <style>
      .\33 b8fb5a0-6216-432f-8466-f61661e9c1d6 {
        fill: #212221;
      }
    </style>
  </defs>
  <title>cloud-data</title>
  <g>
    <path class="3b8fb5a0-6216-432f-8466-f61661e9c1d6" d="M18.49,5.93a4.56,4.56,0,0,0-3-1.29,6.23,6.23,0,0,0-11.64,2A3.61,3.61,0,0,0,.1,10.27a3.35,3.35,0,0,0,3.22,3.58h0a.54.54,0,0,0,.55-.5.55.55,0,0,0-.5-.6A2.22,2.22,0,0,1,1.2,10.27a2.5,2.5,0,0,1,3-2.45.53.53,0,0,0,.44-.1.55.55,0,0,0,.22-.41,5.13,5.13,0,0,1,9.77-1.88.54.54,0,0,0,.51.31,3.43,3.43,0,0,1,2.57,1,3.53,3.53,0,0,1-2,6,.55.55,0,0,0,.14,1.09,4.55,4.55,0,0,0,4-4.59A4.61,4.61,0,0,0,18.49,5.93Z"/>
    <path class="3b8fb5a0-6216-432f-8466-f61661e9c1d6" d="M9.58,8.34a5,5,0,1,0,5,5A5,5,0,0,0,9.58,8.34Zm0,9a4,4,0,1,1,4-4A4,4,0,0,1,9.58,17.34Z"/>
    <path class="3b8fb5a0-6216-432f-8466-f61661e9c1d6" d="M9.58,12a.48.48,0,0,1,.47.48.51.51,0,0,0,.5.5.5.5,0,0,0,.5-.5,1.48,1.48,0,0,0-1-1.39v-.24a.5.5,0,0,0-.5-.5.5.5,0,0,0-.5.5v.24A1.47,1.47,0,0,0,9.58,14a.48.48,0,0,1,0,1,.49.49,0,0,1-.48-.48.5.5,0,0,0-1,0,1.46,1.46,0,0,0,1,1.38v.25a.5.5,0,0,0,.5.5.5.5,0,0,0,.5-.5v-.25a1.45,1.45,0,0,0,1-1.38A1.48,1.48,0,0,0,9.58,13a.48.48,0,0,1-.48-.47A.49.49,0,0,1,9.58,12Z"/>
  </g>
</svg>
