<svg id="2ecc0b0e-18c5-4daa-ba4d-ef4cf31b5f0f" data-name="Layer 1" xmlns="http://www.w3.org/2000/svg" width="20" height="20" viewBox="0 0 20 20">
  <defs>
    <style>
      .e7529ee7-f3b2-4405-aceb-7a363588dc6a {
        fill: #212221;
      }
    </style>
  </defs>
  <title>company-size-3</title>
  <g>
    <path class="e7529ee7-f3b2-4405-aceb-7a363588dc6a" d="M15.83,7.35l-5.43-2a.36.36,0,0,0-.25,0l-5.43,2a.35.35,0,0,0-.22.32v.68a.35.35,0,0,0,.35.35h.59v11a.35.35,0,0,0,.35.35h9a.35.35,0,0,0,.35-.35V8.7h.59a.35.35,0,0,0,.35-.35V7.67A.35.35,0,0,0,15.83,7.35Zm-6.39,12V17.48H11.1v1.83Zm5,0H11.8V17.13a.35.35,0,0,0-.35-.35H9.09a.35.35,0,0,0-.35.35v2.18H6.14V8.7h8.27ZM15.35,8H5.19V7.92L10.27,6l5.08,1.89Z"/>
    <path class="e7529ee7-f3b2-4405-aceb-7a363588dc6a" d="M12.33,16.12h.92a.55.55,0,0,0,.55-.55v-1a.55.55,0,0,0-.55-.55h-.92a.55.55,0,0,0-.55.55v1A.55.55,0,0,0,12.33,16.12Zm.15-1.38h.62v.68h-.62Z"/>
    <path class="e7529ee7-f3b2-4405-aceb-7a363588dc6a" d="M7.33,16.12h.92a.55.55,0,0,0,.55-.55v-1A.55.55,0,0,0,8.25,14H7.33a.55.55,0,0,0-.55.55v1A.55.55,0,0,0,7.33,16.12Zm.15-1.38H8.1v.68H7.48Z"/>
    <path class="e7529ee7-f3b2-4405-aceb-7a363588dc6a" d="M12.33,13.87h.92a.54.54,0,0,0,.55-.55v-1a.55.55,0,0,0-.55-.55h-.92a.55.55,0,0,0-.55.55v1A.55.55,0,0,0,12.33,13.87Zm.15-1.37h.62v.67h-.62Z"/>
    <path class="e7529ee7-f3b2-4405-aceb-7a363588dc6a" d="M7.33,13.87h.92a.55.55,0,0,0,.55-.55v-1a.55.55,0,0,0-.55-.55H7.33a.55.55,0,0,0-.55.55v1A.54.54,0,0,0,7.33,13.87Zm.15-1.37H8.1v.67H7.48Z"/>
    <path class="e7529ee7-f3b2-4405-aceb-7a363588dc6a" d="M12.33,11.63h.92a.54.54,0,0,0,.55-.55v-1a.55.55,0,0,0-.55-.55h-.92a.55.55,0,0,0-.55.55v1A.55.55,0,0,0,12.33,11.63Zm.15-1.37h.62v.67h-.62Z"/>
    <path class="e7529ee7-f3b2-4405-aceb-7a363588dc6a" d="M9.83,16.12h.92a.55.55,0,0,0,.55-.55v-1a.55.55,0,0,0-.55-.55H9.83a.55.55,0,0,0-.55.55v1A.55.55,0,0,0,9.83,16.12ZM10,14.74h.62v.68H10Z"/>
    <path class="e7529ee7-f3b2-4405-aceb-7a363588dc6a" d="M9.83,13.87h.92a.54.54,0,0,0,.55-.55v-1a.55.55,0,0,0-.55-.55H9.83a.55.55,0,0,0-.55.55v1A.54.54,0,0,0,9.83,13.87ZM10,12.5h.62v.67H10Z"/>
    <path class="e7529ee7-f3b2-4405-aceb-7a363588dc6a" d="M9.83,11.63h.92a.54.54,0,0,0,.55-.55v-1a.55.55,0,0,0-.55-.55H9.83a.55.55,0,0,0-.55.55v1A.54.54,0,0,0,9.83,11.63ZM10,10.26h.62v.67H10Z"/>
    <path class="e7529ee7-f3b2-4405-aceb-7a363588dc6a" d="M7.33,11.63h.92a.55.55,0,0,0,.55-.55v-1a.55.55,0,0,0-.55-.55H7.33a.55.55,0,0,0-.55.55v1A.54.54,0,0,0,7.33,11.63Zm.15-1.37H8.1v.67H7.48Z"/>
  </g>
</svg>
