<svg id="3d76b82b-79c4-421a-b2db-d74ab19c5419" data-name="Layer 1" xmlns="http://www.w3.org/2000/svg" width="20" height="20" viewBox="0 0 20 20">
  <defs>
    <style>
      .\36 604d0e0-f884-4dab-ac81-46d4d245f38b {
        fill: #212221;
      }
    </style>
  </defs>
  <title>company-size-1</title>
  <g>
    <path class="6604d0e0-f884-4dab-ac81-46d4d245f38b" d="M6.45,14.26H2.5a.35.35,0,0,0-.35.35A4.53,4.53,0,0,0,2.94,17v2.36a.35.35,0,0,0,.35.35H5.66A.35.35,0,0,0,6,19.34V17a4.62,4.62,0,0,0,.79-2.37A.35.35,0,0,0,6.45,14.26ZM5.38,16.67a.31.31,0,0,0-.07.21V19H3.64V16.88a.31.31,0,0,0-.07-.21A4.29,4.29,0,0,1,2.87,15h3.2A4.35,4.35,0,0,1,5.38,16.67Z"/>
    <path class="6604d0e0-f884-4dab-ac81-46d4d245f38b" d="M4.47,13.88a1.54,1.54,0,1,0-1.53-1.54A1.54,1.54,0,0,0,4.47,13.88Zm0-2.37a.84.84,0,0,1,.84.83.85.85,0,0,1-.84.84.84.84,0,0,1-.83-.84A.83.83,0,0,1,4.47,11.51Z"/>
    <path class="6604d0e0-f884-4dab-ac81-46d4d245f38b" d="M12.22,14.36a.34.34,0,0,0-.25-.11H8a.34.34,0,0,0-.35.35A4.61,4.61,0,0,0,8.47,17v2.35a.33.33,0,0,0,.1.25.32.32,0,0,0,.25.1h2.36a.34.34,0,0,0,.35-.35V17a4.54,4.54,0,0,0,.79-2.38A.31.31,0,0,0,12.22,14.36ZM10.9,16.67a.38.38,0,0,0-.07.21V19H9.17V16.88a.38.38,0,0,0-.07-.21A4.29,4.29,0,0,1,8.4,15h3.2A4.29,4.29,0,0,1,10.9,16.67Z"/>
    <path class="6604d0e0-f884-4dab-ac81-46d4d245f38b" d="M10,13.88a1.54,1.54,0,1,0-1.53-1.54A1.53,1.53,0,0,0,10,13.88Zm0-2.37a.84.84,0,0,1,.84.83.85.85,0,0,1-.84.84.84.84,0,0,1-.83-.84A.83.83,0,0,1,10,11.51Z"/>
    <path class="6604d0e0-f884-4dab-ac81-46d4d245f38b" d="M17.5,14.26H13.55a.35.35,0,0,0-.35.35A4.62,4.62,0,0,0,14,17v2.36a.35.35,0,0,0,.35.35h2.37a.35.35,0,0,0,.35-.35V17a4.62,4.62,0,0,0,.79-2.37A.35.35,0,0,0,17.5,14.26Zm-1.07,2.41a.31.31,0,0,0-.07.21V19H14.69V16.88a.31.31,0,0,0-.07-.21A4.35,4.35,0,0,1,13.93,15h3.2A4.46,4.46,0,0,1,16.43,16.67Z"/>
    <path class="6604d0e0-f884-4dab-ac81-46d4d245f38b" d="M15.53,13.88A1.54,1.54,0,1,0,14,12.34,1.54,1.54,0,0,0,15.53,13.88Zm0-2.37a.83.83,0,0,1,.83.83.84.84,0,0,1-.83.84.85.85,0,0,1-.84-.84A.84.84,0,0,1,15.53,11.51Z"/>
  </g>
</svg>
