<svg id="9b05e84c-0830-4ddf-8bd0-a9400c16c3bf" data-name="Layer 1" xmlns="http://www.w3.org/2000/svg" width="20" height="20" viewBox="0 0 20 20">
  <defs>
    <style>
      .\37 2716ca1-cc7f-4cb8-b028-765edfd7295c {
        fill: #212221;
      }
    </style>
  </defs>
  <title>company-size-6</title>
  <g>
    <path class="72716ca1-cc7f-4cb8-b028-765edfd7295c" d="M19.5,5.86h-1V4.24a.35.35,0,0,0-.35-.35H14.91a.35.35,0,0,0-.35.35V5.86h-1a.35.35,0,0,0-.35.35V9.13H8.06V4.24a.35.35,0,0,0-.35-.35h-1V1.62a.35.35,0,0,0-.35-.35H4.13V.34A.35.35,0,0,0,3.78,0a.35.35,0,0,0-.35.35v.93H1.81a.35.35,0,0,0-.35.35V3.89H.5a.35.35,0,0,0-.35.35v15.1a.35.35,0,0,0,.35.35h19a.35.35,0,0,0,.35-.35V6.21A.35.35,0,0,0,19.5,5.86ZM15.26,4.59h2.58V5.86H15.26Zm-2,5.24V19H8.06V9.83ZM2.16,2H6.05V3.89H2.16ZM.85,4.59H7.36V19H4.78V17.38A.35.35,0,0,0,4.43,17H3.12a.35.35,0,0,0-.35.35V19H.85ZM3.47,19V17.73h.61V19Zm13.1,0V17.73h.61V19Zm2.58,0H17.88V17.38a.34.34,0,0,0-.35-.35H16.22a.35.35,0,0,0-.35.35V19H14V6.55h5.2Z"/>
    <path class="72716ca1-cc7f-4cb8-b028-765edfd7295c" d="M5.09,2.58h-2a.35.35,0,1,0,0,.7h2a.35.35,0,0,0,0-.7Z"/>
    <path class="72716ca1-cc7f-4cb8-b028-765edfd7295c" d="M1.81,7.21H6.4a.35.35,0,0,0,0-.7H1.81a.35.35,0,1,0,0,.7Z"/>
    <path class="72716ca1-cc7f-4cb8-b028-765edfd7295c" d="M1.81,5.9H6.4a.35.35,0,0,0,0-.7H1.81a.35.35,0,0,0,0,.7Z"/>
    <path class="72716ca1-cc7f-4cb8-b028-765edfd7295c" d="M1.81,8.52H6.4a.35.35,0,0,0,0-.7H1.81a.35.35,0,1,0,0,.7Z"/>
    <path class="72716ca1-cc7f-4cb8-b028-765edfd7295c" d="M1.81,9.83H6.4a.35.35,0,0,0,0-.7H1.81a.35.35,0,0,0,0,.7Z"/>
    <path class="72716ca1-cc7f-4cb8-b028-765edfd7295c" d="M1.81,11.14H6.4a.35.35,0,0,0,0-.7H1.81a.35.35,0,0,0,0,.7Z"/>
    <path class="72716ca1-cc7f-4cb8-b028-765edfd7295c" d="M1.81,12.45H6.4a.35.35,0,0,0,.35-.35.35.35,0,0,0-.35-.35H1.81a.35.35,0,0,0-.35.35A.35.35,0,0,0,1.81,12.45Z"/>
    <path class="72716ca1-cc7f-4cb8-b028-765edfd7295c" d="M6.4,13.76a.35.35,0,0,0,.35-.35.35.35,0,0,0-.35-.35H1.81a.35.35,0,0,0-.35.35.35.35,0,0,0,.35.35Z"/>
    <path class="72716ca1-cc7f-4cb8-b028-765edfd7295c" d="M14.91,7.17a.35.35,0,0,0-.35.35.35.35,0,0,0,.35.35h3.28a.35.35,0,0,0,.35-.35.35.35,0,0,0-.35-.35Z"/>
    <path class="72716ca1-cc7f-4cb8-b028-765edfd7295c" d="M18.19,8.48H14.91a.35.35,0,0,0-.35.35.35.35,0,0,0,.35.35h3.28a.35.35,0,0,0,.35-.35A.35.35,0,0,0,18.19,8.48Z"/>
    <path class="72716ca1-cc7f-4cb8-b028-765edfd7295c" d="M18.19,9.79H14.91a.35.35,0,0,0-.35.35.35.35,0,0,0,.35.35h3.28a.35.35,0,0,0,.35-.35A.35.35,0,0,0,18.19,9.79Z"/>
    <path class="72716ca1-cc7f-4cb8-b028-765edfd7295c" d="M18.19,11.1H14.91a.35.35,0,0,0-.35.35.35.35,0,0,0,.35.35h3.28a.35.35,0,0,0,.35-.35A.35.35,0,0,0,18.19,11.1Z"/>
    <path class="72716ca1-cc7f-4cb8-b028-765edfd7295c" d="M18.19,13.72H14.91a.35.35,0,0,0-.35.35.35.35,0,0,0,.35.35h3.28a.35.35,0,0,0,.35-.35A.35.35,0,0,0,18.19,13.72Z"/>
    <path class="72716ca1-cc7f-4cb8-b028-765edfd7295c" d="M18.19,12.41H14.91a.35.35,0,0,0-.35.35.35.35,0,0,0,.35.35h3.28a.35.35,0,0,0,.35-.35A.35.35,0,0,0,18.19,12.41Z"/>
    <path class="72716ca1-cc7f-4cb8-b028-765edfd7295c" d="M9,11.8h3.27a.35.35,0,0,0,.35-.35.34.34,0,0,0-.35-.35H9a.34.34,0,0,0-.35.35A.35.35,0,0,0,9,11.8Z"/>
    <path class="72716ca1-cc7f-4cb8-b028-765edfd7295c" d="M9,13.11h3.27a.35.35,0,0,0,.35-.35.34.34,0,0,0-.35-.35H9a.34.34,0,0,0-.35.35A.35.35,0,0,0,9,13.11Z"/>
    <path class="72716ca1-cc7f-4cb8-b028-765edfd7295c" d="M12.29,13.72H9a.34.34,0,0,0-.35.35.35.35,0,0,0,.35.35h3.27a.35.35,0,0,0,.35-.35A.34.34,0,0,0,12.29,13.72Z"/>
  </g>
</svg>
