<svg id="ed5ad026-234b-4430-8ac3-20c90f0c03bc" data-name="Layer 1" xmlns="http://www.w3.org/2000/svg" width="20" height="20" viewBox="0 0 20 20">
  <defs>
    <style>
      .\37 479548f-f576-4bf3-ab4a-8483d2ac7007 {
        fill: #212221;
      }
    </style>
  </defs>
  <title>customize</title>
  <g>
    <path class="7479548f-f576-4bf3-ab4a-8483d2ac7007" d="M16.5,1.08H3.5A2.45,2.45,0,0,0,1.05,3.53v13A2.45,2.45,0,0,0,3.5,19h13A2.45,2.45,0,0,0,19,16.53v-13A2.45,2.45,0,0,0,16.5,1.08Zm1.55,15.45a1.56,1.56,0,0,1-1.55,1.55H3.5A1.56,1.56,0,0,1,2,16.53v-13A1.56,1.56,0,0,1,3.5,2h13a1.56,1.56,0,0,1,1.55,1.55Z"/>
    <path class="7479548f-f576-4bf3-ab4a-8483d2ac7007" d="M15,8.89h-.72v-5a.45.45,0,1,0-.9,0v5h-.72a.45.45,0,0,0-.45.45v1.17a.45.45,0,0,0,.45.45h.72v1.11a.45.45,0,1,0,.9,0V11H15a.45.45,0,0,0,.45-.45V9.34A.45.45,0,0,0,15,8.89Zm-.45,1.17H13.09V9.79h1.44Z"/>
    <path class="7479548f-f576-4bf3-ab4a-8483d2ac7007" d="M11.47,5.37h-.73V3.94a.45.45,0,0,0-.45-.45.45.45,0,0,0-.45.45V5.37H9.12a.45.45,0,0,0-.45.45V7a.45.45,0,0,0,.45.45h.72v4.62a.45.45,0,0,0,.45.45.45.45,0,0,0,.45-.45V7.45h.73A.46.46,0,0,0,11.92,7V5.82A.46.46,0,0,0,11.47,5.37ZM11,6.55H9.57V6.27H11Z"/>
    <path class="7479548f-f576-4bf3-ab4a-8483d2ac7007" d="M7.36,7.72H6.64V3.94a.45.45,0,0,0-.9,0V7.72H5a.45.45,0,0,0-.45.45V9.34A.45.45,0,0,0,5,9.79h.72v2.28a.45.45,0,0,0,.9,0V9.79h.72a.45.45,0,0,0,.45-.45V8.17A.45.45,0,0,0,7.36,7.72ZM6.91,8.89H5.47V8.62H6.91Z"/>
    <path class="7479548f-f576-4bf3-ab4a-8483d2ac7007" d="M13.81,13.93a1.45,1.45,0,1,0,1.45,1.45A1.45,1.45,0,0,0,13.81,13.93Zm0,2a.55.55,0,0,1-.55-.55.55.55,0,0,1,1.1,0A.55.55,0,0,1,13.81,15.93Z"/>
    <path class="7479548f-f576-4bf3-ab4a-8483d2ac7007" d="M10,13.93a1.45,1.45,0,1,0,1.45,1.45A1.45,1.45,0,0,0,10,13.93Zm0,2a.55.55,0,0,1-.55-.55.55.55,0,0,1,1.1,0A.55.55,0,0,1,10,15.93Z"/>
    <path class="7479548f-f576-4bf3-ab4a-8483d2ac7007" d="M6.19,13.93a1.45,1.45,0,1,0,1.45,1.45A1.45,1.45,0,0,0,6.19,13.93Zm0,2a.55.55,0,0,1-.55-.55.55.55,0,1,1,1.1,0A.55.55,0,0,1,6.19,15.93Z"/>
  </g>
</svg>
