<svg id="2e4c755e-4504-47b3-b974-733700ce317b" data-name="Layer 1" xmlns="http://www.w3.org/2000/svg" width="20" height="20" viewBox="0 0 20 20">
  <defs>
    <style>
      .\35 628e627-a9c1-40dc-8fad-ccb4b07c93f8 {
        fill: #231f20;
      }
    </style>
  </defs>
  <title>gear</title>
  <path class="5628e627-a9c1-40dc-8fad-ccb4b07c93f8" d="M10,13.84A3.91,3.91,0,1,0,6.09,9.93,3.91,3.91,0,0,0,10,13.84ZM10,7a2.91,2.91,0,1,1-2.91,2.9A2.9,2.9,0,0,1,10,7Z"/>
  <path class="5628e627-a9c1-40dc-8fad-ccb4b07c93f8" d="M1.16,11.83a1,1,0,0,0-.45.6.93.93,0,0,0,.09.73l1.8,3.12a1,1,0,0,0,1.33.36l1-.57a.33.33,0,0,1,.3.06l1.94,1.08a.33.33,0,0,1,.14.21v1.11a1,1,0,0,0,1,1h3.59a1,1,0,0,0,1-1V17.42a.39.39,0,0,1,.18-.24l1.9-1.09a.26.26,0,0,1,.21,0l.95.56a1,1,0,0,0,.74.1,1,1,0,0,0,.59-.46l1.79-3.11a.93.93,0,0,0,.09-.73,1,1,0,0,0-.45-.6l-1-.55a.29.29,0,0,1-.09-.2,9.25,9.25,0,0,0,.09-1.15,9.25,9.25,0,0,0-.09-1.15.22.22,0,0,1,.09-.19l1-.56a1,1,0,0,0,.36-1.33l-1.8-3.11a1,1,0,0,0-1.33-.35l-.94.55a.28.28,0,0,1-.27-.06L13,2.66a.37.37,0,0,1-.14-.22v-1a1,1,0,0,0-1-1H8.28a1,1,0,0,0-1,1v1a.31.31,0,0,1-.18.23l-2,1.11a.31.31,0,0,1-.23,0L4,3.23a1,1,0,0,0-1.33.36L.82,6.7a.91.91,0,0,0-.1.74A.92.92,0,0,0,1.17,8l1,.55a.29.29,0,0,1,.09.2,8.35,8.35,0,0,0-.1,1.15,7.22,7.22,0,0,0,.1,1.16.34.34,0,0,1-.09.19Zm1.46.31a1.21,1.21,0,0,0,.58-1.21,7.86,7.86,0,0,1-.08-1,6.6,6.6,0,0,1,.09-1,1.26,1.26,0,0,0-.58-1.22L1.68,7.2,3.45,4.1l1,.56a1.24,1.24,0,0,0,1.28,0L7.58,3.56a1.29,1.29,0,0,0,.73-1.12l0-.95,3.56,0v1a1.31,1.31,0,0,0,.69,1.11l1.76,1a1.21,1.21,0,0,0,1.34.1l.89-.56,1.81,3.07-1,.56a1.22,1.22,0,0,0-.58,1.22,7.4,7.4,0,0,1,.08,1,7.86,7.86,0,0,1-.08,1,1.25,1.25,0,0,0,.58,1.21l1,.53-1.75,3.09-.95-.55a1.18,1.18,0,0,0-1.27.06l-1.79,1a1.31,1.31,0,0,0-.73,1.12l0,1.09-3.56,0V17.42a1.29,1.29,0,0,0-.69-1.1l-1.84-1A1.23,1.23,0,0,0,5,15.05a1.2,1.2,0,0,0-.59.15l-1,.58L1.66,12.7Z"/>
</svg>
