<svg id="d953bc43-5e10-445b-936a-1514bc5998a0" data-name="Layer 1" xmlns="http://www.w3.org/2000/svg" width="20" height="20" viewBox="0 0 20 20">
  <defs>
    <style>
      .\35 81981f0-ebd2-4e8a-b7e3-304cd148f65f {
        fill: #231f20;
      }
    </style>
  </defs>
  <title>hybrid</title>
  <g>
    <path class="581981f0-ebd2-4e8a-b7e3-304cd148f65f" d="M18.5,19.06H6.67a.5.5,0,0,1-.5-.5V13.89H1.5a.5.5,0,0,1-.5-.5V1.56a.5.5,0,0,1,.5-.5H13.33a.5.5,0,0,1,.5.5V6.24H18.5a.5.5,0,0,1,.5.5V18.56A.5.5,0,0,1,18.5,19.06Zm-11.33-1H18V7.24H13.33a.5.5,0,0,1-.5-.5V2.06H2V12.89H6.67a.5.5,0,0,1,.5.5Z"/>
    <path class="581981f0-ebd2-4e8a-b7e3-304cd148f65f" d="M6.67,8a.5.5,0,0,1-.5-.5V6.74a.5.5,0,0,1,.5-.5h.74a.5.5,0,0,1,.5.5.5.5,0,0,1-.5.5H7.17v.23A.5.5,0,0,1,6.67,8Z"/>
    <path class="581981f0-ebd2-4e8a-b7e3-304cd148f65f" d="M6.67,10.19a.5.5,0,0,1-.5-.5V9a.51.51,0,0,1,.5-.5.5.5,0,0,1,.5.5v.74A.5.5,0,0,1,6.67,10.19Z"/>
    <path class="581981f0-ebd2-4e8a-b7e3-304cd148f65f" d="M9.63,7.24H8.89a.51.51,0,0,1-.5-.5.5.5,0,0,1,.5-.5h.74a.5.5,0,0,1,.5.5A.5.5,0,0,1,9.63,7.24Z"/>
    <path class="581981f0-ebd2-4e8a-b7e3-304cd148f65f" d="M11.85,7.24h-.74a.5.5,0,0,1-.5-.5.5.5,0,0,1,.5-.5h.74a.5.5,0,0,1,.5.5A.51.51,0,0,1,11.85,7.24Z"/>
    <path class="581981f0-ebd2-4e8a-b7e3-304cd148f65f" d="M8.89,13.89H8.15a.51.51,0,0,1-.5-.5.5.5,0,0,1,.5-.5h.74a.5.5,0,0,1,.5.5A.5.5,0,0,1,8.89,13.89Z"/>
    <path class="581981f0-ebd2-4e8a-b7e3-304cd148f65f" d="M11.11,13.89h-.74a.5.5,0,0,1-.5-.5.5.5,0,0,1,.5-.5h.74a.5.5,0,0,1,.5.5A.51.51,0,0,1,11.11,13.89Z"/>
    <path class="581981f0-ebd2-4e8a-b7e3-304cd148f65f" d="M6.67,12.41a.5.5,0,0,1-.5-.5v-.74a.5.5,0,0,1,.5-.5.5.5,0,0,1,.5.5v.74A.5.5,0,0,1,6.67,12.41Z"/>
    <path class="581981f0-ebd2-4e8a-b7e3-304cd148f65f" d="M13.33,9.45a.5.5,0,0,1-.5-.5V8.21a.5.5,0,0,1,.5-.5.51.51,0,0,1,.5.5V9A.5.5,0,0,1,13.33,9.45Z"/>
    <path class="581981f0-ebd2-4e8a-b7e3-304cd148f65f" d="M13.33,13.89h-.74a.5.5,0,0,1-.5-.5.5.5,0,0,1,.5-.5h.24v-.24a.5.5,0,0,1,.5-.5.5.5,0,0,1,.5.5v.74A.51.51,0,0,1,13.33,13.89Z"/>
    <path class="581981f0-ebd2-4e8a-b7e3-304cd148f65f" d="M13.33,11.67a.5.5,0,0,1-.5-.5v-.74a.5.5,0,0,1,.5-.5.5.5,0,0,1,.5.5v.74A.5.5,0,0,1,13.33,11.67Z"/>
  </g>
</svg>
