<svg id="464f1395-46e0-4242-908a-c9c5a8155e5f" data-name="Layer 1" xmlns="http://www.w3.org/2000/svg" width="20" height="20" viewBox="0 0 20 20">
  <defs>
    <style>
      .\36 53652b2-ee19-4190-a9f3-3a55b0c41c0c {
        fill: #231f20;
      }
    </style>
  </defs>
  <title>job-check</title>
  <path class="653652b2-ee19-4190-a9f3-3a55b0c41c0c" d="M10.73,15.22H2.06V9.49h5.7v1.35a.45.45,0,0,0,.45.45H10.6a.45.45,0,0,0,.45-.45V9.49h6.3v.44h0s0,0,0,.06a.45.45,0,1,0,.89,0s0,0,0-.06h0V4.85a.45.45,0,0,0-.45-.45h-5A3.43,3.43,0,0,0,6,4.4H1.61a.45.45,0,0,0-.45.45V15.66a.45.45,0,0,0,.45.45h9.12a.45.45,0,1,0,0-.89Zm-.58-4.83H8.65V8.29h1.5ZM9.4,2.3a2.51,2.51,0,0,1,2.51,2.1h-5A2.51,2.51,0,0,1,9.4,2.3Zm-7.34,3H17.35V8.59h-6.3V7.84a.45.45,0,0,0-.45-.44H8.21a.45.45,0,0,0-.45.44v.75H2.06Z"/>
  <g>
    <path class="653652b2-ee19-4190-a9f3-3a55b0c41c0c" d="M16.78,13.21l-1.38,2-.88-.76a.48.48,0,0,0-.66,0,.47.47,0,0,0,.06.66l1.27,1.09a.49.49,0,0,0,.31.11h.06a.46.46,0,0,0,.32-.2l1.67-2.46a.46.46,0,0,0-.77-.52Z"/>
    <path class="653652b2-ee19-4190-a9f3-3a55b0c41c0c" d="M15.7,10.74a4,4,0,1,0,4,4A4,4,0,0,0,15.7,10.74Zm0,7a3,3,0,1,1,3-3A3,3,0,0,1,15.7,17.74Z"/>
  </g>
</svg>
