<svg id="45e7203f-5381-4c22-8f00-f1bc68a2aecb" data-name="Layer 1" xmlns="http://www.w3.org/2000/svg" width="20" height="20" viewBox="0 0 20 20">
  <defs>
    <style>
      .\38 ff1af15-bbc0-424f-b54d-09e9f10899fa {
        fill: #231f20;
      }
    </style>
  </defs>
  <title>message</title>
  <g>
    <path class="8ff1af15-bbc0-424f-b54d-09e9f10899fa" d="M7.88,12.51a.63.63,0,0,1-.19,0L.81,9.7A.5.5,0,0,1,.5,9.24a.51.51,0,0,1,.31-.47l18-7.41a.49.49,0,0,1,.61.19.5.5,0,0,1-.08.64L8.22,12.38A.5.5,0,0,1,7.88,12.51ZM2.32,9.23l5.45,2.2,8.81-8.07Z"/>
    <path class="8ff1af15-bbc0-424f-b54d-09e9f10899fa" d="M15.8,16.75a.46.46,0,0,1-.23-.06L7.64,12.46a.52.52,0,0,1-.26-.38.5.5,0,0,1,.16-.43L18.66,1.45a.5.5,0,0,1,.83.48l-3.2,14.43a.51.51,0,0,1-.28.34A.54.54,0,0,1,15.8,16.75ZM8.74,11.91l6.72,3.59L18.17,3.26Z"/>
    <path class="8ff1af15-bbc0-424f-b54d-09e9f10899fa" d="M7.88,18.69a.3.3,0,0,1-.13,0,.49.49,0,0,1-.37-.48V12a.5.5,0,0,1,1,0v4.38l1.88-3.13a.5.5,0,0,1,.86.51L8.31,18.45A.51.51,0,0,1,7.88,18.69Z"/>
  </g>
</svg>
