<svg id="877aceeb-1448-4ce0-98e7-a73678c2586b" data-name="Layer 1" xmlns="http://www.w3.org/2000/svg" width="20" height="20" viewBox="0 0 20 20">
  <defs>
    <style>
      .d7cd2db7-0c44-43d2-b8ea-30e295c4b948 {
        fill: #231f20;
      }
    </style>
  </defs>
  <title>paymarket</title>
  <path class="d7cd2db7-0c44-43d2-b8ea-30e295c4b948" d="M18.55,5.68a.47.47,0,0,0-.14-.29A9.58,9.58,0,0,0,10.46.31h-.11c-.25,0-.5,0-.76,0A9.25,9.25,0,0,0,.5,9.59c0,.15,0,.3,0,.45s0,0,0,.06a.3.3,0,0,0,0,.1,9.58,9.58,0,0,0,9,9.07h.09l.33,0,.39,0h.1A9.53,9.53,0,0,0,18,14.8a.47.47,0,0,0,.12-.19,9.44,9.44,0,0,0,1.32-4.44s0,0,0-.07a.06.06,0,0,0,0,0c0-.1,0-.2,0-.3A9.31,9.31,0,0,0,18.55,5.68ZM17.39,14H13.58a14,14,0,0,0,.75-3.35h4.13A8.51,8.51,0,0,1,17.39,14ZM10,18.29h-.1a19.58,19.58,0,0,1-2-3.34h4.24a18.88,18.88,0,0,1-2,3.33ZM7.46,14a13.5,13.5,0,0,1-.81-3.35h6.71A14,14,0,0,1,12.55,14ZM1.56,10.6H5.67A14.54,14.54,0,0,0,6.42,14H2.65A8.87,8.87,0,0,1,1.56,10.6Zm-.06-1a8.33,8.33,0,0,1,.69-3.33H6A12.46,12.46,0,0,0,5.62,9.6H1.5Zm8.35-8.3h.31a12.87,12.87,0,0,1,2.49,4H7.36A13,13,0,0,1,9.85,1.29Zm3.14,5a11.35,11.35,0,0,1,.43,3.34H6.59A10.72,10.72,0,0,1,7,6.26Zm1.4,3.34A12.08,12.08,0,0,0,14,6.26h3.74a8.3,8.3,0,0,1,.76,3.34Zm2.8-4.34h-3.5A13.6,13.6,0,0,0,11.6,1.45,8.5,8.5,0,0,1,17.19,5.26ZM8.41,1.44A13.51,13.51,0,0,0,6.32,5.26H2.71A8.3,8.3,0,0,1,8.41,1.44ZM3.31,15h3.5a19.22,19.22,0,0,0,1.76,3.21A8.44,8.44,0,0,1,3.31,15Zm8.13,3.2A18.38,18.38,0,0,0,13.19,15h3.54A8.49,8.49,0,0,1,11.44,18.15Z"/>
</svg>
