<svg id="9a0def14-ff2c-4c32-8a22-c67f661d5836" data-name="Layer 1" xmlns="http://www.w3.org/2000/svg" width="20" height="20" viewBox="0 0 20 20">
  <defs>
    <style>
      .d8449df0-f983-42d9-b9e1-d5c2dd051dd7 {
        fill: #212221;
      }
    </style>
  </defs>
  <title>rock copy</title>
  <g id="ca72228d-ee38-47ab-bef7-a458397074e3" data-name="check toggle 2">
    <g>
      <path class="d8449df0-f983-42d9-b9e1-d5c2dd051dd7" d="M18,2.05a5.75,5.75,0,0,0-8.12,0L2.5,9.39a5.74,5.74,0,0,0,8.12,8.11L18,10.16a5.76,5.76,0,0,0,0-8.11ZM9.84,16.72a4.64,4.64,0,0,1-6.56-6.56L6.56,6.88l6.56,6.56Zm7.34-7.33L13.9,12.67,7.34,6.11l3.28-3.28a4.64,4.64,0,0,1,6.56,6.56Z"/>
      <path class="d8449df0-f983-42d9-b9e1-d5c2dd051dd7" d="M11,3.74,9.28,5.44a.55.55,0,0,0,.39.93.51.51,0,0,0,.38-.16l1.7-1.69a2.64,2.64,0,0,1,3.73,0,.56.56,0,0,0,.78,0,.54.54,0,0,0,0-.78A3.74,3.74,0,0,0,11,3.74Z"/>
    </g>
  </g>
</svg>
