<svg id="7748b576-3e00-48c7-879a-2385fb3b6e52" data-name="Layer 1" xmlns="http://www.w3.org/2000/svg" width="20" height="20.83" viewBox="0 0 20 20.83">
  <defs>
    <style>
      .\30 c39be86-d2ac-41d1-b6a4-4ece82c3c73b {
        fill: #231f20;
      }
    </style>
  </defs>
  <title>refresh</title>
  <g>
    <path class="0c39be86-d2ac-41d1-b6a4-4ece82c3c73b" d="M2.48,9.63a.74.74,0,0,0,.25,0A.6.6,0,0,0,3,9.62H3L5.61,8.5A.69.69,0,0,0,6,8.12.72.72,0,0,0,6,7.6a.64.64,0,0,0-.38-.36.63.63,0,0,0-.52,0l-1.24.53a6.63,6.63,0,0,1,12.76.89.69.69,0,0,0,.7.53.61.61,0,0,0,.62-.66A8,8,0,0,0,2.66,7.1l-.42-1a.72.72,0,0,0-.38-.37.72.72,0,0,0-.52,0A.67.67,0,0,0,1,6.13a.75.75,0,0,0,0,.53l1.13,2.6h0A.69.69,0,0,0,2.48,9.63Z"/>
    <path class="0c39be86-d2ac-41d1-b6a4-4ece82c3c73b" d="M19.55,13.53l-1.67-2.29a.7.7,0,0,0-1-.15l-2.29,1.68a.7.7,0,0,0-.15,1,.7.7,0,0,0,1,.14l.74-.54A6.63,6.63,0,0,1,3.57,12a.67.67,0,0,0-.67-.54.63.63,0,0,0-.52.21.59.59,0,0,0-.13.45,8,8,0,0,0,15.38,1.06l.82,1.12a.68.68,0,0,0,.55.28.71.71,0,0,0,.41-.13A.68.68,0,0,0,19.55,13.53Z"/>
  </g>
</svg>
