<svg id="9ca2105e-d786-4290-8848-12888de39721" data-name="Layer 1" xmlns="http://www.w3.org/2000/svg" width="20" height="20" viewBox="0 0 20 20">
  <defs>
    <style>
      .\31 79c19d2-7b0d-44bf-8ce2-7f0f94788837 {
        fill: #231f20;
      }
    </style>
  </defs>
  <title>remove</title>
  <path class="179c19d2-7b0d-44bf-8ce2-7f0f94788837" d="M14.11,5.72a.5.5,0,0,0-.71,0L9.9,9.22,6.39,5.72a.48.48,0,0,0-.7,0,.5.5,0,0,0,0,.71l3.5,3.5-3.5,3.5a.5.5,0,0,0,0,.71.48.48,0,0,0,.7,0l3.51-3.5,3.5,3.5a.5.5,0,0,0,.35.15.51.51,0,0,0,.36-.15.51.51,0,0,0,0-.71L10.6,9.93l3.51-3.5A.51.51,0,0,0,14.11,5.72Z"/>
  <path class="179c19d2-7b0d-44bf-8ce2-7f0f94788837" d="M9.9.43a9.5,9.5,0,1,0,9.5,9.5A9.51,9.51,0,0,0,9.9.43Zm0,18a8.5,8.5,0,1,1,8.5-8.5A8.51,8.51,0,0,1,9.9,18.43Z"/>
</svg>
