<svg id="f0bdb592-3445-4308-af21-22f1aaefe4d7" data-name="Layer 1" xmlns="http://www.w3.org/2000/svg" width="20" height="20.83" viewBox="0 0 20 20.83">
  <defs>
    <style>
      .\35 0d45034-cf6f-46d5-ab27-d5a6e57b4853 {
        fill: #231f20;
      }
    </style>
  </defs>
  <title>report-bolt</title>
  <g>
    <path class="50d45034-cf6f-46d5-ab27-d5a6e57b4853" d="M16.63,12.36h-.17a.39.39,0,0,0-.4.39V18.6a.51.51,0,0,1-.51.51H4.08a.32.32,0,0,1-.32-.32V4.7a.32.32,0,0,1,.32-.32h5a.4.4,0,0,0,.4-.4V4a.4.4,0,0,0-.4-.4H3.72a.85.85,0,0,0-.85.85V19.13a.85.85,0,0,0,.85.85H16.18a.85.85,0,0,0,.84-.85V12.75A.38.38,0,0,0,16.63,12.36Z"/>
    <path class="50d45034-cf6f-46d5-ab27-d5a6e57b4853" d="M10.54,7h2l-.87,4.49a.36.36,0,0,0,.63.31l4.59-5.3a.36.36,0,0,0-.27-.59h-2l.86-4.49a.36.36,0,0,0-.63-.31L10.27,6.4A.36.36,0,0,0,10.54,7Z"/>
  </g>
</svg>
