<svg id="5ee801e5-0383-474a-8f52-c72fc764f37b" data-name="Layer 1" xmlns="http://www.w3.org/2000/svg" width="20" height="20" viewBox="0 0 20 20">
  <defs>
    <style>
      .\34 89a1470-7a0f-4dcd-82ef-4e8764d65658 {
        fill: #231f20;
      }
    </style>
  </defs>
  <title>trending</title>
  <g id="c3cf46e2-cede-4870-988c-1cb537a8b16e" data-name="close">
    <g>
      <path class="489a1470-7a0f-4dcd-82ef-4e8764d65658" d="M18.93,19.3H.93a.5.5,0,0,1-.5-.5.5.5,0,0,1,.5-.5h18a.5.5,0,0,1,.5.5A.5.5,0,0,1,18.93,19.3Z"/>
      <path class="489a1470-7a0f-4dcd-82ef-4e8764d65658" d="M4.06,19.3H1.71a.5.5,0,0,1-.5-.5V16.46a.5.5,0,0,1,.5-.5H4.06a.5.5,0,0,1,.5.5V18.8A.5.5,0,0,1,4.06,19.3Zm-1.85-1H3.56V17H2.21Z"/>
      <path class="489a1470-7a0f-4dcd-82ef-4e8764d65658" d="M8.76,19.3H6.41a.5.5,0,0,1-.5-.5V13.33a.5.5,0,0,1,.5-.5H8.76a.5.5,0,0,1,.5.5V18.8A.5.5,0,0,1,8.76,19.3Zm-1.85-1H8.26V13.83H6.91Z"/>
      <path class="489a1470-7a0f-4dcd-82ef-4e8764d65658" d="M13.45,19.3H11.1a.5.5,0,0,1-.5-.5V10.2a.5.5,0,0,1,.5-.5h2.35a.5.5,0,0,1,.5.5v8.6A.5.5,0,0,1,13.45,19.3Zm-1.85-1H13V10.7H11.6Z"/>
      <path class="489a1470-7a0f-4dcd-82ef-4e8764d65658" d="M18.15,19.3H15.8a.5.5,0,0,1-.5-.5V7.07a.5.5,0,0,1,.5-.5h2.35a.5.5,0,0,1,.5.5V18.8A.5.5,0,0,1,18.15,19.3Zm-1.85-1h1.35V7.57H16.3Z"/>
      <path class="489a1470-7a0f-4dcd-82ef-4e8764d65658" d="M2.89,11.46a.51.51,0,0,1-.42-.23.5.5,0,0,1,.14-.69L16.7,1.15a.5.5,0,1,1,.55.83L3.17,11.37A.51.51,0,0,1,2.89,11.46Z"/>
      <path class="489a1470-7a0f-4dcd-82ef-4e8764d65658" d="M16.58,5.22h-.06a.49.49,0,0,1-.43-.55L16.42,2l-2.63-.31a.49.49,0,0,1-.44-.55A.48.48,0,0,1,13.9.7L17,1.07a.48.48,0,0,1,.34.18.51.51,0,0,1,.1.38l-.39,3.15A.51.51,0,0,1,16.58,5.22Z"/>
    </g>
  </g>
</svg>
