<svg id="03f9ed93-098b-42ca-b44e-ddb91187d488" data-name="Layer 1" xmlns="http://www.w3.org/2000/svg" width="20" height="20" viewBox="0 0 20 20">
  <defs>
    <style>
      .\35 26fc200-d183-4237-accc-10f91629ed68 {
        fill: #231f20;
      }
    </style>
  </defs>
  <title>zip</title>
  <path class="526fc200-d183-4237-accc-10f91629ed68" d="M16.23,1.15H3.77A2.75,2.75,0,0,0,1,3.87V16.13a2.75,2.75,0,0,0,2.77,2.72H16.23A2.75,2.75,0,0,0,19,16.13V3.87A2.75,2.75,0,0,0,16.23,1.15ZM8.55,15.55A.54.54,0,0,1,9.1,15h1.38a.54.54,0,1,1,0,1.07H9.1A.54.54,0,0,1,8.55,15.55Zm0-3A.54.54,0,0,1,9.1,12h1.38a.54.54,0,1,1,0,1.07H9.1A.54.54,0,0,1,8.55,12.55Zm3.3,5H10.48a.54.54,0,0,1-.55-.54.55.55,0,0,1,.55-.54h1.37a.55.55,0,0,1,.55.54A.54.54,0,0,1,11.85,17.59Zm0-3H10.48a.54.54,0,1,1,0-1.07h1.37a.54.54,0,1,1,0,1.07Zm.88-4.19a.54.54,0,0,1-.54.54H7.81a.54.54,0,0,1-.54-.54V4.77a.55.55,0,0,1,1.09,0v5.1h3.28V4.77H10a.54.54,0,0,1-.55-.53v-2a.55.55,0,0,1,1.1,0V3.7h1.64a.54.54,0,0,1,.54.54ZM9.45,8.25a.55.55,0,0,1,1.1,0,.55.55,0,0,1-1.1,0Z"/>
</svg>
