<svg xmlns="http://www.w3.org/2000/svg" width="369.414" height="338.177" viewBox="0 0 369.414 338.177">
  <g id="img_404" transform="translate(-9.61 -1.464)">
    <circle id="椭圆_9" data-name="椭圆 9" cx="93.642" cy="93.642" r="93.642" transform="translate(108.992 109.33)" fill="#ddf1f9"/>
    <g id="组_62235" data-name="组 62235">
      <path id="直线_252" data-name="直线 252" d="M2.121,12.012-2.121,7.77,7.77-2.121l4.243,4.243Z" transform="translate(305.772 130.948)" fill="#92e5ff"/>
      <path id="直线_253" data-name="直线 253" d="M2.121,12.012-2.121,7.77,7.77-2.121l4.243,4.243Z" transform="translate(330.499 106.221)" fill="#92e5ff"/>
      <path id="直线_254" data-name="直线 254" d="M7.77,12.012-2.121,2.121,2.121-2.121,12.012,7.77Z" transform="translate(330.499 130.948)" fill="#92e5ff"/>
      <path id="直线_255" data-name="直线 255" d="M7.77,12.012-2.121,2.121,2.121-2.121,12.012,7.77Z" transform="translate(305.772 106.221)" fill="#92e5ff"/>
    </g>
    <g id="组_62236" data-name="组 62236">
      <path id="直线_256" data-name="直线 256" d="M3,31.54H-3V0H3Z" transform="translate(240.5 237.891)" fill="#047dba"/>
      <path id="直线_257" data-name="直线 257" d="M31.54,3H0V-3H31.54Z" transform="translate(224.73 253.661)" fill="#047dba"/>
    </g>
    <g id="组_62237" data-name="组 62237">
      <path id="直线_258" data-name="直线 258" d="M31.54,3H0V-3H31.54Z" transform="translate(41.818 106.221)" fill="#28a9e0"/>
    </g>
    <g id="组_62238" data-name="组 62238">
      <path id="椭圆_10" data-name="椭圆 10" d="M81.378-3A84.378,84.378,0,1,1-3,81.378,84.473,84.473,0,0,1,81.378-3Zm0,162.755A78.378,78.378,0,1,0,3,81.378,78.466,78.466,0,0,0,81.378,159.755Z" transform="translate(36.735 123.53)" fill="#005483"/>
      <path id="直线_259" data-name="直线 259" d="M61.033,3H0V-3H61.033Z" transform="translate(165.583 204.908)" fill="#005483"/>
      <path id="直线_260" data-name="直线 260" d="M61.033,3H0V-3H61.033Z" transform="translate(9.61 204.908)" fill="#005483"/>
      <path id="直线_261" data-name="直线 261" d="M3,61.033H-3V0H3Z" transform="translate(118.113 96.404)" fill="#005483"/>
      <path id="直线_262" data-name="直线 262" d="M3,61.033H-3V0H3Z" transform="translate(118.113 252.378)" fill="#005483"/>
      <path id="路径_881" data-name="路径 881" d="M221.971,183.244l-3.381-4.957a58.036,58.036,0,1,0-75.9-86.684l-4.469-4a64.036,64.036,0,1,1,83.751,95.644Z" fill="#28a9e0"/>
      <path id="直线_263" data-name="直线 263" d="M61.033,3H0V-3H61.033Z" transform="translate(213.054 130.311)" fill="#28a9e0"/>
      <path id="直线_264" data-name="直线 264" d="M3,61.033H-3V0H3Z" transform="translate(185.928 42.152)" fill="#28a9e0"/>
      <path id="直线_265" data-name="直线 265" d="M40.689,3H0V-3H40.689Z" transform="translate(267.306 69.278)" fill="#005483"/>
      <path id="直线_266" data-name="直线 266" d="M3,47.47H-3V0H3Z" transform="translate(246.961 1.464)" fill="#005483"/>
      <path id="路径_882" data-name="路径 882" d="M270.528,103.273l-3.422-4.928A35.366,35.366,0,1,0,215.17,53.773l-5.391-2.634a41.367,41.367,0,1,1,60.748,52.134Z" fill="#005483"/>
    </g>
    <g id="组_62239" data-name="组 62239" transform="translate(31.348 348.109) rotate(-90)">
      <path id="直线_267" data-name="直线 267" d="M10.448,3H0V-3H10.448Z" transform="translate(302.985 344.675)" fill="#005483"/>
      <path id="直线_270" data-name="直线 270" d="M28.1,3H0V-3H28.1Z" transform="translate(8.468 344.675)" fill="#005483"/>
      <path id="直线_268" data-name="直线 268" d="M10.448,3H0V-3H10.448Z" transform="translate(323.881 344.675)" fill="#005483"/>
      <path id="直线_269" data-name="直线 269" d="M245.522,3H0V-3H245.522Z" transform="translate(47.015 344.675)" fill="#005483"/>
    </g>
  </g>
</svg>
