<svg xmlns="http://www.w3.org/2000/svg" width="39.963" height="32.508" viewBox="0 0 39.963 32.508">
  <path id="T" d="M342.7,10269.041a15.79,15.79,0,0,1-4.085,4.234c.52,11.588-7.948,24.438-23.325,24.438a22.245,22.245,0,0,1-12.553-3.714,16.065,16.065,0,0,0,12.108-3.343,8.353,8.353,0,0,1-7.651-5.721,7.6,7.6,0,0,0,3.714-.147,8.252,8.252,0,0,1-6.611-8.171,8.007,8.007,0,0,0,3.714,1.04,8.344,8.344,0,0,1-2.526-10.994,23.329,23.329,0,0,0,16.937,8.617,8.212,8.212,0,0,1,13.965-7.5,16.605,16.605,0,0,0,5.274-2.006,8.305,8.305,0,0,1-3.64,4.531A15.955,15.955,0,0,0,342.7,10269.041Z" transform="translate(-302.733 -10265.206)" fill="#005483"/>
</svg>
