<svg id="42286d9c-a61b-439d-a48b-fffbc3d8eb3b" data-name="Layer 1" xmlns="http://www.w3.org/2000/svg" width="20" height="20" viewBox="0 0 20 20">
  <defs>
    <style>
      .\34 335d4f9-9bec-42a0-a8c1-5a32d91ad5bb {
        fill: #231f20;
      }
    </style>
  </defs>
  <title>add</title>
  <path class="4335d4f9-9bec-42a0-a8c1-5a32d91ad5bb" d="M15.35,9.66H10.4v-5a.5.5,0,0,0-.5-.5.5.5,0,0,0-.5.5v5h-5a.5.5,0,0,0-.5.5.51.51,0,0,0,.5.5h5v4.95a.5.5,0,0,0,.5.5.5.5,0,0,0,.5-.5V10.66h4.95a.5.5,0,0,0,.5-.5A.5.5,0,0,0,15.35,9.66Z"/>
  <path class="4335d4f9-9bec-42a0-a8c1-5a32d91ad5bb" d="M3.18,3.44a9.5,9.5,0,1,0,13.43,0A9.49,9.49,0,0,0,3.18,3.44ZM15.91,16.17a8.5,8.5,0,1,1,0-12A8.52,8.52,0,0,1,15.91,16.17Z"/>
</svg>
