<svg id="c350089a-1b23-45d8-93b0-46893fa3c7df" data-name="Layer 1" xmlns="http://www.w3.org/2000/svg" width="20" height="20" viewBox="0 0 20 20">
  <defs>
    <style>
      .\36 b992cc0-2eca-489d-b72e-686d8db88c6e {
        fill: #221f1f;
      }
    </style>
  </defs>
  <title>alert</title>
  <g>
    <path class="6b992cc0-2eca-489d-b72e-686d8db88c6e" d="M10,12.32a.5.5,0,0,1-.5-.5v-5a.5.5,0,1,1,1,0v5A.5.5,0,0,1,10,12.32Z"/>
    <path class="6b992cc0-2eca-489d-b72e-686d8db88c6e" d="M10,13.69a.75.75,0,1,0,.75.75.75.75,0,0,0-.75-.75Z"/>
    <path class="6b992cc0-2eca-489d-b72e-686d8db88c6e" d="M16.73,18.57H3.17a2.15,2.15,0,0,1-2-.94,2.15,2.15,0,0,1,.12-2.18L8.2,2.94A2.06,2.06,0,0,1,10,1.7,2.06,2.06,0,0,1,11.7,2.94l6.88,12.51a2.18,2.18,0,0,1,.12,2.18A2.15,2.15,0,0,1,16.73,18.57ZM10,2.7c-.3,0-.62.26-.87.72L2.2,15.93a1.23,1.23,0,0,0-.14,1.19,1.24,1.24,0,0,0,1.11.45H16.73a1.24,1.24,0,0,0,1.11-.45,1.23,1.23,0,0,0-.14-1.19h0L10.82,3.42C10.57,3,10.25,2.7,10,2.7Z"/>
  </g>
</svg>
