<svg id="a17b5377-95b6-44bd-9eee-74b82acf5bc6" data-name="Layer 1" xmlns="http://www.w3.org/2000/svg" width="20" height="20" viewBox="0 0 20 20">
  <defs>
    <style>
      .\35 c89e19e-5836-4932-abb4-c5e158cfdda7 {
        fill: #231f20;
      }
    </style>
  </defs>
  <title>arrow-circle-left</title>
  <g>
    <path class="5c89e19e-5836-4932-abb4-c5e158cfdda7" d="M16.72,3.29a9.5,9.5,0,1,1-13.44,0A9.52,9.52,0,0,1,16.72,3.29ZM4,16A8.49,8.49,0,1,0,4,4,8.5,8.5,0,0,0,4,16Z"/>
    <path class="5c89e19e-5836-4932-abb4-c5e158cfdda7" d="M5.08,10.19h0s0,0,0,0a.9.9,0,0,1,0-.16l0-.07a.33.33,0,0,1,.06-.1L8.71,6a.55.55,0,0,1,.77,0,.57.57,0,0,1,.18.38.63.63,0,0,1-.14.4L6.87,9.64h7.84a.55.55,0,1,1,0,1.09H7L9.5,13.28a.55.55,0,0,1,0,.77.56.56,0,0,1-.78,0L5.24,10.57A.59.59,0,0,1,5.08,10.19Z"/>
  </g>
</svg>
