<svg id="108f6e46-8679-4ce4-920a-1e997bf3370a" data-name="Layer 1" xmlns="http://www.w3.org/2000/svg" width="20" height="20.83" viewBox="0 0 20 20.83">
  <defs>
    <style>
      .\35 bfa2835-6cc0-4197-97c6-19c54a591222 {
        fill: #231f20;
      }
    </style>
  </defs>
  <title>bars</title>
  <g>
    <path class="5bfa2835-6cc0-4197-97c6-19c54a591222" d="M17.62,3.41H2.27A1.78,1.78,0,0,0,.5,5.19V15.64a1.77,1.77,0,0,0,1.77,1.77H17.62a1.78,1.78,0,0,0,1.78-1.77V5.19A1.78,1.78,0,0,0,17.62,3.41Zm.75,12.08a.92.92,0,0,1-.88,1H2.41a.93.93,0,0,1-.89-1v-10a.92.92,0,0,1,.89-1H17.49a.91.91,0,0,1,.88,1Z"/>
    <path class="5bfa2835-6cc0-4197-97c6-19c54a591222" d="M15.38,7.23h-.07a.67.67,0,0,0-.67.67v7.6h1.41V7.9A.67.67,0,0,0,15.38,7.23Z"/>
    <path class="5bfa2835-6cc0-4197-97c6-19c54a591222" d="M11.85,10.18h-.07a.67.67,0,0,0-.67.67V15.5h1.41V10.85A.67.67,0,0,0,11.85,10.18Z"/>
    <path class="5bfa2835-6cc0-4197-97c6-19c54a591222" d="M8.32,9H8.25a.67.67,0,0,0-.67.67V15.5H9V9.67A.67.67,0,0,0,8.32,9Z"/>
    <path class="5bfa2835-6cc0-4197-97c6-19c54a591222" d="M4.78,12H4.71a.66.66,0,0,0-.66.67V15.5h1.4V12.62A.67.67,0,0,0,4.78,12Z"/>
  </g>
</svg>
