<svg id="ec3c3f93-b786-408d-aa5f-6f7c32c2480a" data-name="Layer 1" xmlns="http://www.w3.org/2000/svg" width="20" height="20" viewBox="0 0 20 20">
  <defs>
    <style>
      .\33 0493f0a-868b-45d7-985b-ce5b726781d1 {
        fill: #231f20;
      }
    </style>
  </defs>
  <title>books</title>
  <g>
    <path class="30493f0a-868b-45d7-985b-ce5b726781d1" d="M9.37,19.14H4.9a.47.47,0,0,1-.47-.47V1.55a.47.47,0,0,1,.47-.48H9.37a.47.47,0,0,1,.47.48V18.67A.47.47,0,0,1,9.37,19.14Zm-4-.95H8.89V2H5.38Z"/>
    <path class="30493f0a-868b-45d7-985b-ce5b726781d1" d="M13.84,19.14H9.37a.48.48,0,0,1-.48-.47V7.5A.48.48,0,0,1,9.37,7h4.47a.47.47,0,0,1,.47.47V18.67A.47.47,0,0,1,13.84,19.14Zm-4-.95h3.52V8H9.84Z"/>
    <path class="30493f0a-868b-45d7-985b-ce5b726781d1" d="M12.35,17.65H10.86a.48.48,0,1,1,0-.95h1.49a.48.48,0,0,1,0,.95Z"/>
    <path class="30493f0a-868b-45d7-985b-ce5b726781d1" d="M7.88,17.65H6.39a.47.47,0,0,1-.47-.47v-3a.48.48,0,0,1,.47-.48H7.88a.49.49,0,0,1,.48.48v3A.48.48,0,0,1,7.88,17.65Zm-1-.95H7.4v-2H6.87Z"/>
    <path class="30493f0a-868b-45d7-985b-ce5b726781d1" d="M4.9,19.14h-3a.47.47,0,0,1-.48-.47V3.78a.48.48,0,0,1,.48-.48h3a.48.48,0,0,1,.48.48V18.67A.47.47,0,0,1,4.9,19.14Zm-2.5-.95h2V4.26h-2Z"/>
    <path class="30493f0a-868b-45d7-985b-ce5b726781d1" d="M16.81,19.14a.48.48,0,0,1-.46-.36L12.63,4.37a.5.5,0,0,1,0-.36A.46.46,0,0,1,13,3.79l2.16-.56a.48.48,0,0,1,.58.34L19.43,18a.42.42,0,0,1-.05.36.46.46,0,0,1-.29.22l-2.16.56ZM13.67,4.59l3.48,13.5,1.24-.32L14.91,4.27Z"/>
  </g>
</svg>
