<svg id="e801647d-0661-4b19-8c64-ced38cb3b3ce" data-name="Layer 1" xmlns="http://www.w3.org/2000/svg" width="20" height="20" viewBox="0 0 20 20">
  <defs>
    <style>
      .\31 c60cc7a-d021-47b9-a37f-1ce2e3969ba7 {
        fill: #231f20;
      }
    </style>
  </defs>
  <title>calendar</title>
  <g>
    <path class="1c60cc7a-d021-47b9-a37f-1ce2e3969ba7" d="M18.13,18.56H1.94a.4.4,0,0,1-.4-.41V3.37a.4.4,0,0,1,.4-.4H4.76a.41.41,0,0,1,0,.81H2.35v14H17.73v-14H15.32a.41.41,0,1,1,0-.81h2.81a.4.4,0,0,1,.41.4V18.15A.41.41,0,0,1,18.13,18.56Z"/>
    <path class="1c60cc7a-d021-47b9-a37f-1ce2e3969ba7" d="M6.87,5.19H4.76a.42.42,0,0,1-.41-.41V2a.41.41,0,0,1,.41-.4H6.87a.41.41,0,0,1,.41.4V4.78A.42.42,0,0,1,6.87,5.19ZM5.16,4.38H6.47v-2H5.16Z"/>
    <path class="1c60cc7a-d021-47b9-a37f-1ce2e3969ba7" d="M15.32,5.19H13.21a.41.41,0,0,1-.41-.41V2a.4.4,0,0,1,.41-.4h2.11a.4.4,0,0,1,.4.4V4.78A.41.41,0,0,1,15.32,5.19Zm-1.71-.81h1.3v-2h-1.3Z"/>
    <path class="1c60cc7a-d021-47b9-a37f-1ce2e3969ba7" d="M13.21,3.78H6.87a.41.41,0,0,1,0-.81h6.34a.41.41,0,0,1,0,.81Z"/>
    <path class="1c60cc7a-d021-47b9-a37f-1ce2e3969ba7" d="M18.13,7.3H1.94a.41.41,0,0,1,0-.81H18.13a.41.41,0,1,1,0,.81Z"/>
    <path class="1c60cc7a-d021-47b9-a37f-1ce2e3969ba7" d="M6.53,17.15a.4.4,0,0,1-.41-.4V8.3a.41.41,0,0,1,.81,0v8.45A.4.4,0,0,1,6.53,17.15Z"/>
    <path class="1c60cc7a-d021-47b9-a37f-1ce2e3969ba7" d="M10.05,17.15a.4.4,0,0,1-.41-.4V8.3a.41.41,0,0,1,.81,0v8.45A.4.4,0,0,1,10.05,17.15Z"/>
    <path class="1c60cc7a-d021-47b9-a37f-1ce2e3969ba7" d="M13.57,17.15a.4.4,0,0,1-.41-.4V8.3a.41.41,0,0,1,.81,0v8.45A.4.4,0,0,1,13.57,17.15Z"/>
    <path class="1c60cc7a-d021-47b9-a37f-1ce2e3969ba7" d="M16.28,10.11H3.8a.4.4,0,0,1-.4-.4.41.41,0,0,1,.4-.41H16.28a.41.41,0,0,1,.4.41A.4.4,0,0,1,16.28,10.11Z"/>
    <path class="1c60cc7a-d021-47b9-a37f-1ce2e3969ba7" d="M16.28,12.93H3.8a.41.41,0,0,1,0-.81H16.28a.41.41,0,0,1,0,.81Z"/>
    <path class="1c60cc7a-d021-47b9-a37f-1ce2e3969ba7" d="M16.28,15.74H3.8a.4.4,0,0,1-.4-.4.41.41,0,0,1,.4-.41H16.28a.41.41,0,0,1,.4.41A.4.4,0,0,1,16.28,15.74Z"/>
  </g>
</svg>
