<svg id="83ed15d1-39a2-4e19-8862-d4a69b3dba8b" data-name="Layer 1" xmlns="http://www.w3.org/2000/svg" width="20" height="20" viewBox="0 0 20 20">
  <defs>
    <style>
      .\35 86b8e02-d225-4425-bdf2-f19d3a2bae8d {
        fill: #231f20;
      }
    </style>
  </defs>
  <title>check</title>
  <path class="586b8e02-d225-4425-bdf2-f19d3a2bae8d" d="M8.91,19.13H8.76a3.45,3.45,0,0,1-.6-.39L.84,13.18a2.63,2.63,0,0,1-.53-.54c-.07-.12.16-.63.32-.86L2.46,9.2A5.06,5.06,0,0,1,3,8.61l.14,0h.14A3.54,3.54,0,0,1,3.86,9L7.38,11.8a.47.47,0,0,0,.68-.1l7.1-10.22a5.4,5.4,0,0,1,.48-.6l.13,0,.13,0a4.44,4.44,0,0,1,.65.4l2.58,1.83a2.54,2.54,0,0,1,.55.52c.07.13-.15.65-.31.87L9.56,18.51a5.31,5.31,0,0,1-.49.6l-.13,0Z"/>
</svg>
