<svg id="0c688b30-ebaf-4bfb-b83e-64ede7ffaaed" data-name="Layer 1" xmlns="http://www.w3.org/2000/svg" width="20" height="20" viewBox="0 0 20 20">
  <defs>
    <style>
      .c2a9e0a5-73a6-4a74-8f58-22a7ee84627b {
        fill: #231f20;
      }
    </style>
  </defs>
  <title>dashboard</title>
  <path class="c2a9e0a5-73a6-4a74-8f58-22a7ee84627b" d="M2.24,9.57H7.83A1.74,1.74,0,0,0,9.57,7.83V2.24A1.74,1.74,0,0,0,7.83.5H2.24A1.74,1.74,0,0,0,.5,2.24V7.83A1.74,1.74,0,0,0,2.24,9.57ZM1.5,2.24a.74.74,0,0,1,.74-.74H7.83a.74.74,0,0,1,.74.74V7.83a.74.74,0,0,1-.74.74H2.24a.74.74,0,0,1-.74-.74Z"/>
  <path class="c2a9e0a5-73a6-4a74-8f58-22a7ee84627b" d="M17.76.5H12.17a1.74,1.74,0,0,0-1.74,1.74V7.83a1.74,1.74,0,0,0,1.74,1.74h5.59A1.74,1.74,0,0,0,19.5,7.83V2.24A1.74,1.74,0,0,0,17.76.5Zm.74,7.33a.74.74,0,0,1-.74.74H12.17a.74.74,0,0,1-.74-.74V2.24a.74.74,0,0,1,.74-.74h5.59a.74.74,0,0,1,.74.74Z"/>
  <path class="c2a9e0a5-73a6-4a74-8f58-22a7ee84627b" d="M.5,17.76A1.74,1.74,0,0,0,2.24,19.5H7.83a1.74,1.74,0,0,0,1.74-1.74V12.17a1.74,1.74,0,0,0-1.74-1.74H2.24A1.74,1.74,0,0,0,.5,12.17Zm1-5.59a.74.74,0,0,1,.74-.74H7.83a.74.74,0,0,1,.74.74v5.59a.74.74,0,0,1-.74.74H2.24a.74.74,0,0,1-.74-.74Z"/>
  <path class="c2a9e0a5-73a6-4a74-8f58-22a7ee84627b" d="M17.76,10.43H12.17a1.74,1.74,0,0,0-1.74,1.74v5.59a1.74,1.74,0,0,0,1.74,1.74h5.59a1.74,1.74,0,0,0,1.74-1.74V12.17A1.74,1.74,0,0,0,17.76,10.43Zm.74,7.33a.74.74,0,0,1-.74.74H12.17a.74.74,0,0,1-.74-.74V12.17a.74.74,0,0,1,.74-.74h5.59a.74.74,0,0,1,.74.74Z"/>
</svg>
