<svg id="dedb46b9-727f-446b-8543-644e1154a595" data-name="Layer 1" xmlns="http://www.w3.org/2000/svg" width="20" height="20" viewBox="0 0 20 20">
  <defs>
    <style>
      .\37 30ec1be-4286-4f80-9c34-0acdbd4fad86 {
        fill: #212221;
      }
    </style>
  </defs>
  <title>dollar</title>
  <path class="730ec1be-4286-4f80-9c34-0acdbd4fad86" d="M11.87,7A.72.72,0,1,0,13.3,7a3.43,3.43,0,0,0-3-3.28V2.76A.68.68,0,0,0,9,2.76v.92A3.44,3.44,0,0,0,6,7a3.44,3.44,0,0,0,3,3.28V14a2,2,0,0,1-1.54-1.8.72.72,0,1,0-1.44,0,3.44,3.44,0,0,0,3,3.28v.92a.68.68,0,0,0,1.36,0v-.92a3.43,3.43,0,0,0,3-3.28,3.43,3.43,0,0,0-3-3.28V5.16A2,2,0,0,1,11.87,7ZM7.42,7A2,2,0,0,1,9,5.16V8.77A2,2,0,0,1,7.42,7ZM10.32,14V10.4a2,2,0,0,1,1.55,1.81A2,2,0,0,1,10.32,14"/>
</svg>
