<svg id="959e2b7b-f831-4170-8356-c4ab823dd71c" data-name="Layer 1" xmlns="http://www.w3.org/2000/svg" width="20" height="20" viewBox="0 0 20 20">
  <defs>
    <style>
      .\32 b552405-fd7f-4dd7-8864-9e2e0aacc6bb {
        fill: #231f20;
      }
    </style>
  </defs>
  <title>event</title>
  <g>
    <path class="2b552405-fd7f-4dd7-8864-9e2e0aacc6bb" d="M18.1,18.56H1.91a.41.41,0,0,1-.41-.41V3.64a.41.41,0,0,1,.41-.41H4.72a.42.42,0,0,1,.41.41.41.41,0,0,1-.41.4H2.31V17.75H17.69V4H15.3a.4.4,0,0,1-.4-.4.41.41,0,0,1,.4-.41h2.8a.41.41,0,0,1,.4.41V18.15A.4.4,0,0,1,18.1,18.56Z"/>
    <path class="2b552405-fd7f-4dd7-8864-9e2e0aacc6bb" d="M13.07,4H6.93a.41.41,0,0,1-.41-.4.42.42,0,0,1,.41-.41h6.14a.42.42,0,0,1,.41.41A.41.41,0,0,1,13.07,4Z"/>
    <path class="2b552405-fd7f-4dd7-8864-9e2e0aacc6bb" d="M18.1,7.39H1.91A.4.4,0,0,1,1.5,7a.41.41,0,0,1,.41-.41H18.1a.41.41,0,0,1,.4.41A.4.4,0,0,1,18.1,7.39Z"/>
    <g>
      <path class="2b552405-fd7f-4dd7-8864-9e2e0aacc6bb" d="M8.05,15.74a.4.4,0,0,1-.41-.4V10.76l-.7.7a.41.41,0,0,1-.58,0,.42.42,0,0,1,0-.57L7.76,9.5a.4.4,0,0,1,.69.28v5.56A.4.4,0,0,1,8.05,15.74Z"/>
      <path class="2b552405-fd7f-4dd7-8864-9e2e0aacc6bb" d="M9.44,15.77H6.65a.41.41,0,0,1,0-.81H9.44a.41.41,0,1,1,0,.81Z"/>
    </g>
    <path class="2b552405-fd7f-4dd7-8864-9e2e0aacc6bb" d="M11.41,15.74l-.15,0a.41.41,0,0,1-.23-.53l2-5H10.68v.22a.4.4,0,0,1-.4.41.41.41,0,0,1-.41-.41V9.78a.41.41,0,0,1,.41-.4h3.35a.39.39,0,0,1,.33.17.4.4,0,0,1,0,.38l-2.22,5.56A.39.39,0,0,1,11.41,15.74Z"/>
    <path class="2b552405-fd7f-4dd7-8864-9e2e0aacc6bb" d="M6.93,5.16H4.7a.4.4,0,0,1-.41-.4V2a.4.4,0,0,1,.41-.4H6.93a.4.4,0,0,1,.4.4v2.8A.4.4,0,0,1,6.93,5.16ZM5.1,4.35H6.52v-2H5.1Z"/>
    <path class="2b552405-fd7f-4dd7-8864-9e2e0aacc6bb" d="M15.3,5.16H13.07a.4.4,0,0,1-.4-.4V2a.4.4,0,0,1,.4-.4H15.3a.4.4,0,0,1,.41.4v2.8A.4.4,0,0,1,15.3,5.16Zm-1.82-.81H14.9v-2H13.48Z"/>
  </g>
</svg>
