<svg id="12fe3276-e057-4d4e-ad68-7aab86faa0bd" data-name="Layer 1" xmlns="http://www.w3.org/2000/svg" width="20" height="20" viewBox="0 0 20 20">
  <defs>
    <style>
      .d5b92c06-c3ea-42eb-956d-d4464ff8c4e1 {
        fill: #231f20;
      }
    </style>
  </defs>
  <title>excel</title>
  <g>
    <rect class="d5b92c06-c3ea-42eb-956d-d4464ff8c4e1" x="8.97" y="9.27" width="5.89" height="1.75"/>
    <path class="d5b92c06-c3ea-42eb-956d-d4464ff8c4e1" d="M8,8.28v-2H5.36a.22.22,0,0,0-.22.22V8.28Z"/>
    <rect class="d5b92c06-c3ea-42eb-956d-d4464ff8c4e1" x="5.14" y="9.27" width="2.83" height="1.75"/>
    <path class="d5b92c06-c3ea-42eb-956d-d4464ff8c4e1" d="M9,8.28h5.89V6.46a.22.22,0,0,0-.22-.22H9Z"/>
    <path class="d5b92c06-c3ea-42eb-956d-d4464ff8c4e1" d="M16.23,1.15H3.77A2.75,2.75,0,0,0,1,3.87V16.13a2.75,2.75,0,0,0,2.77,2.72H16.23A2.75,2.75,0,0,0,19,16.13V3.87A2.75,2.75,0,0,0,16.23,1.15Zm-.36,12.39a1.22,1.22,0,0,1-1.23,1.21H5.36a1.22,1.22,0,0,1-1.23-1.21V6.46A1.22,1.22,0,0,1,5.36,5.25h9.28a1.22,1.22,0,0,1,1.23,1.21Z"/>
    <path class="d5b92c06-c3ea-42eb-956d-d4464ff8c4e1" d="M9,12v1.75h5.67a.22.22,0,0,0,.22-.22V12Z"/>
    <path class="d5b92c06-c3ea-42eb-956d-d4464ff8c4e1" d="M8,12H5.14v1.53a.22.22,0,0,0,.22.22H8Z"/>
  </g>
</svg>
