<svg id="Layer_1" data-name="Layer 1" xmlns="http://www.w3.org/2000/svg" width="20" height="20" viewBox="0 0 20 20"><title>guage</title><path d="M15.3,8.4a.5.5,0,1,0-.7-.7l-3.7,3.7-.9-.2a1.8,1.8,0,1,0,1.8,1.8,1.8,1.8,0,0,0-.2-.9ZM10,13.8a.8.8,0,1,1,0-1.6l.6.2h0a.8.8,0,0,1-.6,1.4Z" style="fill:#231f20"/><path d="M3.8,12.9H2.2a.5.5,0,0,0,0,1H3.8a.5.5,0,1,0,0-1Z" style="fill:#231f20"/><path d="M15.7,13.4a.5.5,0,0,0,.5.5h1.7a.5.5,0,0,0,0-1H16.2A.5.5,0,0,0,15.7,13.4Z" style="fill:#231f20"/><path d="M15.3,10.8a.5.5,0,0,0,.5.3h.2l1.5-.6a.5.5,0,0,0-.4-.9l-1.5.6A.5.5,0,0,0,15.3,10.8Z" style="fill:#231f20"/><path d="M12.2,7.7h.2a.5.5,0,0,0,.5-.3l.6-1.5a.5.5,0,0,0-.9-.4L11.9,7A.5.5,0,0,0,12.2,7.7Z" style="fill:#231f20"/><path d="M10,7.3a.5.5,0,0,0,.5-.5V5.1a.5.5,0,0,0-1,0V6.8A.5.5,0,0,0,10,7.3Z" style="fill:#231f20"/><path d="M7.5,5.5a.5.5,0,0,0-.9.4l.6,1.5a.5.5,0,0,0,.5.3h.2A.5.5,0,0,0,8.1,7Z" style="fill:#231f20"/><path d="M4.8,7a.5.5,0,0,0-.7.7L5.3,8.9H6a.5.5,0,0,0,0-.7Z" style="fill:#231f20"/><path d="M4.5,10.1,2.9,9.5a.5.5,0,1,0-.4.9l1.5.6h.2a.5.5,0,0,0,.2-1Z" style="fill:#231f20"/><path d="M10,2.9a10,10,0,0,0-10,10v3.6a.5.5,0,0,0,.5.5h19a.5.5,0,0,0,.5-.5V12.9A10,10,0,0,0,10,2.9Zm9,13.1H1V12.9a9,9,0,1,1,18,0Z" style="fill:#231f20"/></svg>