<svg id="fa74b04b-40af-44c0-ae2b-945e98cba44f" data-name="Layer 1" xmlns="http://www.w3.org/2000/svg" width="20" height="20" viewBox="0 0 20 20">
  <defs>
    <style>
      .b4dd4661-8c64-47db-828c-762cffe2a162 {
        fill: #212221;
      }
    </style>
  </defs>
  <title>heart</title>
  <path class="b4dd4661-8c64-47db-828c-762cffe2a162" d="M10,18.8a.86.86,0,0,1-.46-.14C9.18,18.39.7,12.17.7,7.24A5.23,5.23,0,0,1,5.15,1.79,4.82,4.82,0,0,1,10,4.51a4.83,4.83,0,0,1,4.85-2.72A5.23,5.23,0,0,1,19.3,7.24c0,4.93-8.48,11.15-8.84,11.42A.86.86,0,0,1,10,18.8ZM5.69,3.3l-.35,0A3.72,3.72,0,0,0,2.25,7.24c0,3.23,5.22,7.89,7.75,9.82,2.53-1.93,7.75-6.59,7.75-9.82a3.72,3.72,0,0,0-3.09-3.92c-1.44-.16-3.21.68-3.91,3.57a.76.76,0,0,1-.75.59h0a.76.76,0,0,1-.75-.59C8.61,4.23,7.05,3.3,5.69,3.3Z"/>
</svg>
