<svg id="a8aeb815-38a2-4841-bee2-1c6d113610b7" data-name="Layer 1" xmlns="http://www.w3.org/2000/svg" width="20" height="20" viewBox="0 0 20 20">
  <defs>
    <style>
      .\36 0bc1df9-bbff-4634-90aa-30c122ec28e5 {
        fill: #231f20;
      }
    </style>
  </defs>
  <title>job-new</title>
  <g>
    <path class="60bc1df9-bbff-4634-90aa-30c122ec28e5" d="M10.11,2.57A.53.53,0,0,0,10.64,2V.52a.53.53,0,1,0-1.06,0V2A.53.53,0,0,0,10.11,2.57Z"/>
    <path class="60bc1df9-bbff-4634-90aa-30c122ec28e5" d="M4.32,4.52a.51.51,0,0,0,.37-.15.53.53,0,0,0,0-.75L3.1,2a.54.54,0,0,0-.75,0,.53.53,0,0,0,0,.75L4,4.37A.51.51,0,0,0,4.32,4.52Z"/>
    <path class="60bc1df9-bbff-4634-90aa-30c122ec28e5" d="M1.79,7.7H.52a.53.53,0,0,0,0,1.06H1.79a.53.53,0,0,0,0-1.06Z"/>
    <path class="60bc1df9-bbff-4634-90aa-30c122ec28e5" d="M19.46,7.7H18.23a.53.53,0,0,0,0,1.06h1.23a.53.53,0,0,0,0-1.06Z"/>
    <path class="60bc1df9-bbff-4634-90aa-30c122ec28e5" d="M16.4,2.12l-1.59,1.6a.51.51,0,0,0,0,.74.51.51,0,0,0,.74,0l1.6-1.59a.53.53,0,0,0-.75-.75Z"/>
    <path class="60bc1df9-bbff-4634-90aa-30c122ec28e5" d="M16.24,6H12.9A2.91,2.91,0,0,0,7.17,6H3.82a.52.52,0,0,0-.53.52v8.6a.53.53,0,0,0,.53.53H16.24a.53.53,0,0,0,.53-.53V6.48A.52.52,0,0,0,16.24,6ZM10,4.63A1.82,1.82,0,0,1,11.81,6H8.26A1.83,1.83,0,0,1,10,4.63ZM15.72,7V9.3h-4.2V8.87A.53.53,0,0,0,11,8.34H9.08a.53.53,0,0,0-.53.53V9.3H4.34V7ZM9.61,9.4h.85v1.33H9.61ZM4.34,14.55v-4.2H8.55v.91a.53.53,0,0,0,.53.53H11a.53.53,0,0,0,.53-.53v-.91h4.2v4.2Z"/>
  </g>
</svg>
