<svg id="90c774b1-f150-420c-8acf-c4628d84ff40" data-name="Layer 1" xmlns="http://www.w3.org/2000/svg" width="20" height="20" viewBox="0 0 20 20">
  <defs>
    <style>
      .\34 7044f3c-c58c-4936-9a09-21833eee7f9b {
        fill: #221f1f;
      }
    </style>
  </defs>
  <title>job-matched</title>
  <path class="47044f3c-c58c-4936-9a09-21833eee7f9b" d="M16.63,11.18a.47.47,0,0,0,0,.64l.87.87H13.4a.45.45,0,0,0-.45.45.45.45,0,0,0,.45.45h4.1l-.87.87a.45.45,0,0,0,0,.63.44.44,0,0,0,.32.13.45.45,0,0,0,.32-.13l1.63-1.63a.65.65,0,0,0,.1-.15.55.55,0,0,0,0-.17A.47.47,0,0,0,19,13a.31.31,0,0,0-.1-.15l-1.63-1.64A.47.47,0,0,0,16.63,11.18Z"/>
  <path class="47044f3c-c58c-4936-9a09-21833eee7f9b" d="M11.28,14.85H2.39V9.13h5.7v1.35a.45.45,0,0,0,.45.45h2.39a.45.45,0,0,0,.45-.45V9.13h6.3v.44h0s0,0,0,.06a.45.45,0,1,0,.9,0,.14.14,0,0,0,0-.06h0V4.48A.45.45,0,0,0,18.13,4h-5A3.43,3.43,0,0,0,6.33,4H1.94a.45.45,0,0,0-.45.45V15.3a.45.45,0,0,0,.45.45h9.34a.45.45,0,1,0,0-.9ZM10.48,10H9V7.93h1.49ZM9.74,1.94A2.51,2.51,0,0,1,12.24,4h-5A2.51,2.51,0,0,1,9.74,1.94Zm-7.35,3H17.68v3.3h-6.3V7.48A.45.45,0,0,0,10.93,7H8.54a.45.45,0,0,0-.45.45v.75H2.39Z"/>
  <path class="47044f3c-c58c-4936-9a09-21833eee7f9b" d="M15.35,19.22a.43.43,0,0,0,0-.63l-.87-.87h4.11a.45.45,0,0,0,.44-.45.45.45,0,0,0-.44-.45H14.48l.87-.87a.45.45,0,0,0-.32-.76.42.42,0,0,0-.31.13L13.08,17a1.3,1.3,0,0,0-.1.15.55.55,0,0,0,0,.17.47.47,0,0,0,0,.17.4.4,0,0,0,.1.15l1.64,1.63A.44.44,0,0,0,15.35,19.22Z"/>
</svg>
