<svg id="e3e40aaa-d0b3-44b9-8259-ec456e732c49" data-name="Layer 1" xmlns="http://www.w3.org/2000/svg" width="20" height="20" viewBox="0 0 20 20">
  <defs>
    <style>
      .\31 0337a5b-e3be-48f1-a093-ef686f311971 {
        fill: #231f20;
      }

      .\37 048a14a-e1ce-4728-8a91-6afda7f6ff94 {
        font-size: 12px;
        font-family: MyriadPro-Regular, Myriad Pro;
      }

      .\30 04b8993-e6e8-4f52-9dbf-e4f58c3fe305 {
        letter-spacing: -0.01em;
      }

      .\30 86a2024-5646-498e-af07-18f798ed9050 {
        letter-spacing: -0.01em;
      }

      .c5f7f3d8-101b-4a41-a94b-3a89f7d89088 {
        letter-spacing: 0em;
      }

      .fb8a59d2-1bcd-4f91-bb8d-9f945b473694 {
        letter-spacing: 0.02em;
      }

      .\30 06b6510-cb39-4254-8f19-82f16b9b003e {
        letter-spacing: -0.01em;
      }

      .e557a9e6-2fde-4bdb-a1fb-879d8a91f4de {
        letter-spacing: 0em;
      }
    </style>
  </defs>
  <title>job</title>
  <path class="10337a5b-e3be-48f1-a093-ef686f311971" d="M19,5.28H14.12a3.82,3.82,0,0,0-7.57,0H1a.5.5,0,0,0-.5.5v12a.5.5,0,0,0,.5.5H19a.5.5,0,0,0,.5-.5v-12A.5.5,0,0,0,19,5.28ZM10.33,3a2.79,2.79,0,0,1,2.79,2.33H7.55A2.79,2.79,0,0,1,10.33,3ZM18.5,6.28V10H12.17V9.11a.51.51,0,0,0-.5-.5H9a.5.5,0,0,0-.5.5V10h-7V6.28Zm-9,3.33h1.67V12H9.5Zm-8,7.67V11h7v1.5A.5.5,0,0,0,9,13h2.67a.51.51,0,0,0,.5-.5V11H18.5v6.33Z"/>
  <g id="e6b4f5dc-a10a-441d-9cbf-4688a0c3f151" data-name="check toggle 2">
    <g id="1694d585-9e58-4773-9393-8ced0e0f98ad" data-name="checked">
      <text class="7048a14a-e1ce-4728-8a91-6afda7f6ff94" transform="translate(-3.52 -16.77)">I<tspan class="004b8993-e6e8-4f52-9dbf-e4f58c3fe305" x="2.87" y="0">c</tspan><tspan x="8.17" y="0">ons </tspan><tspan class="086a2024-5646-498e-af07-18f798ed9050" x="28.72" y="0">f</tspan><tspan x="32.06" y="0">or </tspan><tspan class="c5f7f3d8-101b-4a41-a94b-3a89f7d89088" x="45.12" y="0">e</tspan><tspan x="51.1" y="0">xpo</tspan><tspan class="fb8a59d2-1bcd-4f91-bb8d-9f945b473694" x="70.07" y="0">r</tspan><tspan x="74.28" y="0">t </tspan><tspan class="006b6510-cb39-4254-8f19-82f16b9b003e" x="80.79" y="0">t</tspan><tspan x="84.7" y="0">o i</tspan><tspan class="004b8993-e6e8-4f52-9dbf-e4f58c3fe305" x="96.63" y="0">c</tspan><tspan x="101.94" y="0">on </tspan><tspan class="086a2024-5646-498e-af07-18f798ed9050" x="117.73" y="0">f</tspan><tspan x="121.08" y="0">o</tspan><tspan class="e557a9e6-2fde-4bdb-a1fb-879d8a91f4de" x="127.67" y="0">n</tspan><tspan x="134.28" y="0">t</tspan></text>
    </g>
  </g>
</svg>
