<svg id="b893a278-ad14-40fa-b9fa-6ae8e6f6b663" data-name="Layer 1" xmlns="http://www.w3.org/2000/svg" width="20" height="20" viewBox="0 0 20 20">
  <defs>
    <style>
      .\37 1d03174-f990-4184-b06a-5c68c78d9987 {
        fill: #231f20;
      }
    </style>
  </defs>
  <title>lightning</title>
  <path class="71d03174-f990-4184-b06a-5c68c78d9987" d="M6.61,19.61a.46.46,0,0,1-.2-.05A.47.47,0,0,1,6.15,19l2.19-8H5.82a.46.46,0,0,1-.37-.18.49.49,0,0,1-.09-.41L7.72,1A.46.46,0,0,1,8.18.61h6.28a.46.46,0,0,1,.41.24.48.48,0,0,1,0,.48L11.39,6.88h3.07a.46.46,0,0,1,.41.26.44.44,0,0,1,0,.48L7,19.39A.47.47,0,0,1,6.61,19.61ZM6.43,10H9a.47.47,0,0,1,.38.19.47.47,0,0,1,.08.41L7.84,16.43l5.73-8.6h-3a.47.47,0,0,1-.4-.72L13.6,1.56h-5Z"/>
</svg>
