<svg id="99e3bec5-3267-4682-b42f-7a36363b3b83" data-name="Layer 1" xmlns="http://www.w3.org/2000/svg" width="20" height="20" viewBox="0 0 20 20">
  <defs>
    <style>
      .e39a9276-ea6c-472a-83a9-9518415b721e {
        fill: #212221;
      }
    </style>
  </defs>
  <title>market-data</title>
  <g>
    <path class="e39a9276-ea6c-472a-83a9-9518415b721e" d="M8.53,10c-4.11,0-7-1.4-7-2.66V5.91C2.87,7,5.44,7.76,8.53,7.76s5.67-.73,7-1.85V7.68a.48.48,0,0,0,.48.47.47.47,0,0,0,.47-.47V4.15c0-2.06-3.4-3.62-7.93-3.62S.6,2.09.6,4.15v10.2c0,1.9,3,3.41,7.13,3.6h0a.48.48,0,0,0,0-.95c-3.84-.17-6.22-1.51-6.22-2.65V12.57a10.31,10.31,0,0,0,5.77,1.82h0a.48.48,0,0,0,0-1c-3.61-.24-5.84-1.55-5.84-2.62V9.05c1.32,1.12,3.89,1.85,7,1.85a.48.48,0,1,0,0-1Zm0-8.47c4.12,0,7,1.41,7,2.67s-2.86,2.66-7,2.66-7-1.4-7-2.66S4.42,1.48,8.53,1.48Z"/>
    <path class="e39a9276-ea6c-472a-83a9-9518415b721e" d="M14.42,9.19a5.19,5.19,0,1,0,5.18,5.19A5.19,5.19,0,0,0,14.42,9.19Zm0,9.42a4.24,4.24,0,1,1,4.23-4.23A4.23,4.23,0,0,1,14.42,18.61Z"/>
    <path class="e39a9276-ea6c-472a-83a9-9518415b721e" d="M14.42,12.61a.62.62,0,0,1,.62.62.47.47,0,0,0,.47.47.48.48,0,0,0,.48-.47,1.57,1.57,0,0,0-1.1-1.49v-.33a.48.48,0,0,0-.47-.48.49.49,0,0,0-.48.48v.33a1.56,1.56,0,0,0,.48,3,.62.62,0,1,1-.62.62.47.47,0,0,0-.47-.47.48.48,0,0,0-.48.47,1.56,1.56,0,0,0,1.09,1.49v.33a.49.49,0,0,0,.48.48.48.48,0,0,0,.47-.48V16.9A1.56,1.56,0,0,0,16,15.41a1.58,1.58,0,0,0-1.57-1.57.61.61,0,0,1-.62-.61A.62.62,0,0,1,14.42,12.61Z"/>
  </g>
</svg>
