<svg id="Layer_1" data-name="Layer 1" xmlns="http://www.w3.org/2000/svg" width="20" height="20" viewBox="0 0 20 20"><defs><style>.cls-1{fill:#231f20;}</style></defs><title>match-jobs</title><path class="cls-1" d="M19.7,6.7h-3a2.4,2.4,0,0,0-4.7,0H8.5a.3.3,0,0,0-.3.3v7.5a.3.3,0,0,0,.3.3H19.7a.3.3,0,0,0,.3-.3V7A.3.3,0,0,0,19.7,6.7ZM14.3,5.3a1.7,1.7,0,0,1,1.7,1.5H12.6A1.7,1.7,0,0,1,14.3,5.3Zm5.1,2.1V9.6H15.5V9.1a.3.3,0,0,0-.3-.3H13.5a.3.3,0,0,0-.3.3v.5H8.8V7.3ZM13.8,9.4h1v1.5h-1Zm-5,4.8V10.2h4.4v.9a.3.3,0,0,0,.3.3h1.7a.3.3,0,0,0,.3-.3v-.9h3.9v3.9Z"/><path class="cls-1" d="M0,7.4a.3.3,0,0,0,.3.3H5.3L4,9a.3.3,0,1,0,.5.5L6.3,7.7h0L4.5,5.4a.3.3,0,0,0-.5.5L5.3,7.1H.4A.3.3,0,0,0,0,7.4Z"/><path class="cls-1" d="M6.4,12a.3.3,0,0,1-.3.3H1.1l1.2,1.2a.3.3,0,1,1-.5.5L.1,12.2h0L1.9,10a.3.3,0,0,1,.5.5L1.1,11.7H6.1A.3.3,0,0,1,6.4,12Z"/></svg>