<svg id="5c6e6a39-ffb7-4580-bac3-77209f135f1a" data-name="Layer 1" xmlns="http://www.w3.org/2000/svg" width="20" height="20" viewBox="0 0 20 20">
  <defs>
    <style>
      .\38 13a4e78-c5db-4ae5-abd9-d7040f70cff5 {
        fill: #212221;
      }
    </style>
  </defs>
  <title>rock copy 3</title>
  <g id="e32511aa-2398-4fd8-9ea9-074137d91ebf" data-name="check toggle 2">
    <path class="813a4e78-c5db-4ae5-abd9-d7040f70cff5" d="M18.91,8.59a2.15,2.15,0,1,0-2.65,2.08V16A1.15,1.15,0,1,1,14,16V13.54a2.57,2.57,0,0,0-5.13,0v4.13a1.16,1.16,0,1,1-2.31,0V11.93a4.62,4.62,0,0,0,4.13-4.58V3.22A2.15,2.15,0,0,0,9,1.13V.33a.5.5,0,0,0-.5-.5A1.69,1.69,0,0,0,6.76,1.56,1.69,1.69,0,0,0,8.5,3.3.5.5,0,0,0,9,2.8V2.19a1.15,1.15,0,0,1,.65,1V7.35a3.63,3.63,0,0,1-7.26,0V3.22a1.15,1.15,0,0,1,.65-1V2.8a.5.5,0,0,0,.5.5A1.69,1.69,0,0,0,5.28,1.56,1.69,1.69,0,0,0,3.54-.17a.5.5,0,0,0-.5.5v.8A2.16,2.16,0,0,0,1.39,3.22V7.35a4.63,4.63,0,0,0,4.13,4.58v5.74a2.16,2.16,0,1,0,4.31,0V13.54a1.57,1.57,0,0,1,3.13,0V16a2.15,2.15,0,0,0,4.3,0V10.67A2.13,2.13,0,0,0,18.91,8.59ZM8,2.14a.7.7,0,0,1-.24-.58A.68.68,0,0,1,8,1ZM4,1a.67.67,0,0,1,.24.57A.68.68,0,0,1,4,2.14ZM16.76,9.74a1.16,1.16,0,1,1,1.15-1.15A1.16,1.16,0,0,1,16.76,9.74Z"/>
  </g>
</svg>
