<svg id="a5d0ba79-ed0b-4f2e-8a7a-7c621ac6bc79" data-name="Layer 1" xmlns="http://www.w3.org/2000/svg" width="20" height="20" viewBox="0 0 20 20">
  <title>rock copy 2</title>
  <g id="5373200c-011e-4a98-81db-7bc9daa0c068" data-name="check toggle 2">
    <g>
      <path d="M17.33,1.38H2.67A1.67,1.67,0,0,0,1,3.05V14.19a1.67,1.67,0,0,0,1.67,1.67H9.5v1.76H5a.5.5,0,0,0,0,1H15.57a.5.5,0,0,0,0-1H10.5V15.86h6.83A1.67,1.67,0,0,0,19,14.19V3.05A1.67,1.67,0,0,0,17.33,1.38Zm-14.66,1H17.33a.67.67,0,0,1,.67.67v8.88H2V3.05A.67.67,0,0,1,2.67,2.38ZM17.33,14.86H2.67A.67.67,0,0,1,2,14.19V12.93H18v1.26A.67.67,0,0,1,17.33,14.86Z"/>
      <path d="M10,13.1a.8.8,0,1,0,.79.8A.79.79,0,0,0,10,13.1Zm-.21.8a.21.21,0,1,1,.42,0C10.21,14.12,9.79,14.12,9.79,13.9Z"/>
    </g>
  </g>
</svg>
