<svg id="5a9f6431-356f-4271-924b-a5dee4369839" data-name="Layer 1" xmlns="http://www.w3.org/2000/svg" width="20" height="20.83" viewBox="0 0 20 20.83">
  <defs>
    <style>
      .c920bb7e-c2ff-4ae9-890d-3127b2af2ebc {
        fill: #231f20;
      }
    </style>
  </defs>
  <title>report-view</title>
  <g>
    <path class="c920bb7e-c2ff-4ae9-890d-3127b2af2ebc" d="M12.31,1H4.71a1.86,1.86,0,0,0-2,1.84V18a2,2,0,0,0,2,2h11.4a2,2,0,0,0,1.95-2V6.63Zm4,18.15H4.54a1,1,0,0,1-1-1V2.91a1,1,0,0,1,1-1H12.1v5.2h5.19v11A1,1,0,0,1,16.27,19.14Z"/>
    <path class="c920bb7e-c2ff-4ae9-890d-3127b2af2ebc" d="M10.35,10.11a1.3,1.3,0,1,0,0,2.6,1.3,1.3,0,1,0,0-2.6Z"/>
    <path class="c920bb7e-c2ff-4ae9-890d-3127b2af2ebc" d="M10.24,8.05A5.18,5.18,0,0,0,5.47,11.3a5.13,5.13,0,0,0,9.55,0A5.07,5.07,0,0,0,10.24,8.05Zm.11,5.53a2.17,2.17,0,1,1,2.17-2.17A2.17,2.17,0,0,1,10.35,13.58Z"/>
  </g>
</svg>
