<svg id="327cd6ab-7340-480c-9331-c9322424654a" data-name="Layer 1" xmlns="http://www.w3.org/2000/svg" width="20" height="20" viewBox="0 0 20 20">
  <defs>
    <style>
      .\31 c8a95b4-7565-4514-93f9-de9f2c4a290b {
        fill: #212221;
      }
    </style>
  </defs>
  <title>social-linkedin</title>
  <path class="1c8a95b4-7565-4514-93f9-de9f2c4a290b" d="M10,.51A9.5,9.5,0,1,0,19.5,10,9.5,9.5,0,0,0,10,.51ZM7.82,14H5.5v-6H7.82ZM6.66,7h0A1.13,1.13,0,0,1,5.49,5.86,1.12,1.12,0,0,1,6.67,4.74,1.14,1.14,0,1,1,6.66,7Zm8.6,7H12.93V10.72a.93.93,0,1,0-1.85,0V14H8.75s0-5.58,0-6h2.33v.69A2.84,2.84,0,0,1,12.9,8c1.38,0,2.36,1,2.36,2.92Z"/>
</svg>
