<svg id="e3d2e0b6-9883-43b6-8796-a861e4f18b0c" data-name="Layer 1" xmlns="http://www.w3.org/2000/svg" width="20" height="20" viewBox="0 0 20 20">
  <defs>
    <style>
      .e1126534-12c9-4869-9600-f8cd7dc4fba9 {
        fill: #212221;
      }
    </style>
  </defs>
  <title>social-twitter</title>
  <path class="e1126534-12c9-4869-9600-f8cd7dc4fba9" d="M10,.51A9.5,9.5,0,1,0,19.5,10,9.5,9.5,0,0,0,10,.51Zm4.21,8v.28A6,6,0,0,1,5,13.81a4.23,4.23,0,0,0,3.13-.87,2.12,2.12,0,0,1-2-1.47,2,2,0,0,0,1,0A2.11,2.11,0,0,1,5.39,9.37v0a2.18,2.18,0,0,0,1,.27A2.14,2.14,0,0,1,5.4,7.85a2.1,2.1,0,0,1,.29-1.06A6,6,0,0,0,10,9a1.86,1.86,0,0,1,0-.48,2.11,2.11,0,0,1,3.65-1.44A4.43,4.43,0,0,0,15,6.56c-.16.49-.18.67-.62.93a1.15,1.15,0,0,0,1,0A4.4,4.4,0,0,1,14.21,8.48Z"/>
</svg>
