<svg id="a6d8c85c-9fce-4e0e-90de-5e52387626af" data-name="Layer 1" xmlns="http://www.w3.org/2000/svg" width="20" height="20" viewBox="0 0 20 20">
  <defs>
    <style>
      .\31 3831065-c052-424b-96a4-87f77a6713cd {
        fill: #231f20;
      }
    </style>
  </defs>
  <title>surveys</title>
  <g>
    <path class="13831065-c052-424b-96a4-87f77a6713cd" d="M3.63,3.7a.5.5,0,0,0,.5-.5.5.5,0,0,0-.5-.5H2.29a.5.5,0,0,0-.5.5V19a.5.5,0,0,0,.5.5H17.71a.5.5,0,0,0,.5-.5V3.2a.5.5,0,0,0-.5-.5H16.59a.51.51,0,0,0-.5.5.5.5,0,0,0,.5.5h.62V18.5H2.79V3.7Z"/>
    <path class="13831065-c052-424b-96a4-87f77a6713cd" d="M4.73,3.2V4.7a.5.5,0,0,0,.5.5h9.54a.5.5,0,0,0,.5-.5V3.2a.5.5,0,0,0-.5-.5H12.42A2.59,2.59,0,0,0,10.11.5a2.58,2.58,0,0,0-2.3,2.2H5.23A.5.5,0,0,0,4.73,3.2Zm1,.5H8.26a.5.5,0,0,0,.5-.5c0-.76.62-1.7,1.35-1.7s1.35.94,1.35,1.7a.5.5,0,0,0,.5.5h2.31v.5H5.73Z"/>
    <path class="13831065-c052-424b-96a4-87f77a6713cd" d="M13.82,7.84H8.26a.5.5,0,0,0-.5.5.5.5,0,0,0,.5.5h5.56a.5.5,0,0,0,.5-.5A.51.51,0,0,0,13.82,7.84Z"/>
    <path class="13831065-c052-424b-96a4-87f77a6713cd" d="M13.82,10.78H8.26a.5.5,0,0,0-.5.5.5.5,0,0,0,.5.5h5.56a.5.5,0,0,0,.5-.5A.51.51,0,0,0,13.82,10.78Z"/>
    <path class="13831065-c052-424b-96a4-87f77a6713cd" d="M13.82,13.72H8.26a.5.5,0,0,0,0,1h5.56a.5.5,0,0,0,0-1Z"/>
    <path class="13831065-c052-424b-96a4-87f77a6713cd" d="M6.41,7.84H5.94a.51.51,0,0,0-.5.5.5.5,0,0,0,.5.5h.47a.5.5,0,0,0,.5-.5A.51.51,0,0,0,6.41,7.84Z"/>
    <path class="13831065-c052-424b-96a4-87f77a6713cd" d="M6.41,10.78H5.94a.51.51,0,0,0-.5.5.5.5,0,0,0,.5.5h.47a.5.5,0,0,0,.5-.5A.51.51,0,0,0,6.41,10.78Z"/>
    <path class="13831065-c052-424b-96a4-87f77a6713cd" d="M6.41,13.72H5.94a.5.5,0,1,0,0,1h.47a.5.5,0,1,0,0-1Z"/>
  </g>
</svg>
