<svg id="d8883f0e-705a-406d-9b7f-68eb7da7a545" data-name="Layer 1" xmlns="http://www.w3.org/2000/svg" width="20" height="20.83" viewBox="0 0 20 20.83">
  <defs>
    <style>
      .\31 5090edf-0a5e-4d12-9fe6-bc0a8d3648dd {
        fill: #231f20;
      }
    </style>
  </defs>
  <title>sync</title>
  <g>
    <path class="15090edf-0a5e-4d12-9fe6-bc0a8d3648dd" d="M1.59,8.23H18.44A.59.59,0,0,0,19,7.64v-.2a.59.59,0,0,0-.59-.58H6.3V4.57a.49.49,0,0,0-.78-.39L1.3,7.35A.49.49,0,0,0,1.59,8.23Z"/>
    <path class="15090edf-0a5e-4d12-9fe6-bc0a8d3648dd" d="M18.61,12.6H1.75a.58.58,0,0,0-.58.58v.21a.58.58,0,0,0,.58.58H13.89v2.29a.49.49,0,0,0,.79.39l4.22-3.17A.49.49,0,0,0,18.61,12.6Z"/>
  </g>
</svg>
