<svg id="f266bf9a-dd1c-4aa4-a36b-766010fbadad" data-name="Layer 1" xmlns="http://www.w3.org/2000/svg" width="20" height="20" viewBox="0 0 20 20">
  <defs>
    <style>
      .c05ea1d4-38ab-44f9-b1ae-4c368e4a7064 {
        fill: #231f20;
      }
    </style>
  </defs>
  <title>trash</title>
  <path class="c05ea1d4-38ab-44f9-b1ae-4c368e4a7064" d="M1.5,4.34H3.35V18.5a.5.5,0,0,0,.5.5h12.3a.5.5,0,0,0,.5-.5V4.34H18.5a.5.5,0,0,0,.5-.5.5.5,0,0,0-.5-.5H13.72V1.5a.5.5,0,0,0-.5-.5H6.78a.5.5,0,0,0-.5.5V3.34H1.5a.5.5,0,0,0-.5.5A.5.5,0,0,0,1.5,4.34ZM7.28,2h5.44V3.34H7.28Zm-.5,2.34h8.87V18H4.35V4.34Z"/>
  <path class="c05ea1d4-38ab-44f9-b1ae-4c368e4a7064" d="M6.78,15.78a.51.51,0,0,0,.5-.5V7.07a.5.5,0,0,0-.5-.5.5.5,0,0,0-.5.5v8.21A.5.5,0,0,0,6.78,15.78Z"/>
  <path class="c05ea1d4-38ab-44f9-b1ae-4c368e4a7064" d="M10,15.78a.5.5,0,0,0,.5-.5V7.07a.5.5,0,0,0-1,0v8.21A.5.5,0,0,0,10,15.78Z"/>
  <path class="c05ea1d4-38ab-44f9-b1ae-4c368e4a7064" d="M13.22,15.78a.5.5,0,0,0,.5-.5V7.07a.5.5,0,0,0-.5-.5.5.5,0,0,0-.5.5v8.21A.51.51,0,0,0,13.22,15.78Z"/>
</svg>
